STARTFONT 2.1
COMMENT Product Version MAUI VERSION
FONTBOUNDINGBOX 37 48 -1 -3
STARTPROPERTIES 2
FONT_ASCENT 48
FONT_DESCENT 0
ENDPROPERTIES
CHARS 22
STARTCHAR 32
ENCODING 32
SWIDTH 520 0 
DWIDTH 20 0
BBX 19 48 0 -3
BITMAP
000000
000000
000000
000000
000000
000000
000000
000000
000000
000000
000000
000000
000000
000000
000000
000000
000000
000000
000000
000000
000000
000000
000000
000000
000000
000000
000000
000000
000000
000000
000000
000000
000000
000000
000000
000000
000000
000000
000000
000000
000000
000000
000000
000000
000000
000000
000000
000000
ENDCHAR
STARTCHAR 35
ENCODING 35
SWIDTH 520 0 
DWIDTH 19 0
BBX 19 48 0 -3
BITMAP
0381C0
0381C0
0381C0
070380
070380
070380
070380
070380
0F0780
0E0700
FFFFE0
FFFFE0
FFFFE0
0E0700
1E0F00
1C0E00
1C0E00
1C0E00
1C0E00
1C0E00
381C00
FFFFE0
FFFFE0
FFFFE0
381C00
381C00
703800
703800
703800
703800
703800
F07800
E07000
E07000
000000
000000
000000
000000
000000
000000
000000
000000
000000
000000
000000
000000
000000
000000
ENDCHAR
STARTCHAR 42
ENCODING 42
SWIDTH 520 0 
DWIDTH 19 0
BBX 19 48 0 -3
BITMAP
000000
000000
000000
000000
000000
000000
000000
000000
000000
000000
000000
000000
000000
000000
000000
00F000
00F000
00F000
0CF300
1EF780
1FFF80
07FE00
00F000
01F800
03FC00
079E00
0F0F00
070E00
020400
000000
000000
000000
000000
000000
000000
000000
000000
000000
000000
000000
000000
000000
000000
000000
000000
000000
000000
000000
ENDCHAR
STARTCHAR 43
ENCODING 43
SWIDTH 520 0 
DWIDTH 19 0
BBX 19 48 0 -3
BITMAP
000000
000000
000000
000000
000000
000000
000000
000000
00F000
00F000
00F000
00F000
00F000
00F000
00F000
00F000
FFFFE0
FFFFE0
FFFFE0
FFFFE0
00F000
00F000
00F000
00F000
00F000
00F000
00F000
00F000
000000
000000
000000
000000
000000
000000
000000
000000
000000
000000
000000
000000
000000
000000
000000
000000
000000
000000
000000
000000
ENDCHAR
STARTCHAR 48
ENCODING 48
SWIDTH 520 0 
DWIDTH 19 0
BBX 19 48 0 -3
BITMAP
01F000
07FC00
0FFE00
1FFF00
3F1F80
3C0780
7C07C0
7803C0
7803C0
7803C0
F001E0
F001E0
F001E0
F001E0
F001E0
F001E0
F001E0
F001E0
F001E0
F001E0
F001E0
F001E0
F001E0
F001E0
7803C0
7803C0
7803C0
7C07C0
3C0780
3F1F80
1FFF00
0FFE00
07FC00
01F000
000000
000000
000000
000000
000000
000000
000000
000000
000000
000000
000000
000000
000000
000000
ENDCHAR
STARTCHAR 49
ENCODING 49
SWIDTH 520 0 
DWIDTH 19 0
BBX 19 48 0 -3
BITMAP
001C00
001C00
003C00
003C00
007C00
00FC00
01FC00
03FC00
07FC00
0F3C00
1E3C00
1C3C00
103C00
003C00
003C00
003C00
003C00
003C00
003C00
003C00
003C00
003C00
003C00
003C00
003C00
003C00
003C00
003C00
003C00
003C00
003C00
003C00
003C00
003C00
000000
000000
000000
000000
000000
000000
000000
000000
000000
000000
000000
000000
000000
000000
ENDCHAR
STARTCHAR 50
ENCODING 50
SWIDTH 520 0 
DWIDTH 19 0
BBX 19 48 0 -3
BITMAP
01F800
07FE00
0FFF00
1FFF80
3F0FC0
3C03C0
3C03E0
7801E0
7801E0
7801E0
0001E0
0001E0
0003E0
0003C0
0007C0
000780
000F80
001F00
003E00
007C00
00FC00
01F800
03F000
07E000
0FC000
0F8000
1F0000
3E0000
3C0000
780000
7FFFE0
FFFFE0
FFFFE0
FFFFE0
000000
000000
000000
000000
000000
000000
000000
000000
000000
000000
000000
000000
000000
000000
ENDCHAR
STARTCHAR 51
ENCODING 51
SWIDTH 520 0 
DWIDTH 19 0
BBX 19 48 0 -3
BITMAP
01F800
07FC00
0FFF00
1FFF00
3F0F80
3C0780
3C03C0
7803C0
7803C0
0003C0
0003C0
000780
001F80
01FF00
01FE00
01FC00
01FF00
000F80
0007C0
0003C0
0001E0
0001E0
0001E0
0001E0
F001E0
F001E0
F803E0
7803C0
7C07C0
3E0F80
3FFF80
1FFF00
0FFC00
03F000
000000
000000
000000
000000
000000
000000
000000
000000
000000
000000
000000
000000
000000
000000
ENDCHAR
STARTCHAR 52
ENCODING 52
SWIDTH 520 0 
DWIDTH 19 0
BBX 19 48 0 -3
BITMAP
001F00
003F00
003F00
007F00
007F00
00FF00
00FF00
01FF00
01EF00
03EF00
03CF00
07CF00
078F00
0F8F00
0F0F00
1F0F00
1E0F00
3E0F00
3C0F00
7C0F00
780F00
F80F00
FFFFE0
FFFFE0
FFFFE0
FFFFE0
000F00
000F00
000F00
000F00
000F00
000F00
000F00
000F00
000000
000000
000000
000000
000000
000000
000000
000000
000000
000000
000000
000000
000000
000000
ENDCHAR
STARTCHAR 53
ENCODING 53
SWIDTH 520 0 
DWIDTH 19 0
BBX 19 48 0 -3
BITMAP
0FFFC0
0FFFC0
0FFFC0
1FFFC0
1E0000
1E0000
1E0000
1E0000
1E0000
3C0000
3C0000
3CF800
3FFE00
3FFF00
7FFF80
7E0FC0
7C07C0
7803C0
0003E0
0001E0
0001E0
0001E0
0001E0
0001E0
F001E0
F001E0
F803C0
7803C0
7C07C0
3E1F80
3FFF00
1FFE00
0FFC00
03F000
000000
000000
000000
000000
000000
000000
000000
000000
000000
000000
000000
000000
000000
000000
ENDCHAR
STARTCHAR 54
ENCODING 54
SWIDTH 520 0 
DWIDTH 19 0
BBX 19 48 0 -3
BITMAP
01F800
07FE00
0FFF00
1FFF00
1E1F80
3C0780
3807C0
7803C0
7003C0
700000
700000
F0F800
F3FE00
F7FF00
EFFF80
EE0F80
FC07C0
F803C0
F803E0
F001E0
F001E0
F001E0
F001E0
F001E0
7001E0
7001E0
7803C0
7803C0
3C07C0
3F0F80
1FFF80
0FFF00
07FE00
01F800
000000
000000
000000
000000
000000
000000
000000
000000
000000
000000
000000
000000
000000
000000
ENDCHAR
STARTCHAR 55
ENCODING 55
SWIDTH 520 0 
DWIDTH 19 0
BBX 19 48 0 -3
BITMAP
FFFFE0
FFFFE0
FFFFE0
FFFFE0
0001C0
000380
000780
000700
000F00
001E00
001E00
003C00
003C00
007800
007800
00F000
00F000
00F000
01E000
01E000
03C000
03C000
03C000
03C000
078000
078000
078000
078000
078000
0F0000
0F0000
0F0000
0F0000
0F0000
000000
000000
000000
000000
000000
000000
000000
000000
000000
000000
000000
000000
000000
000000
ENDCHAR
STARTCHAR 56
ENCODING 56
SWIDTH 520 0 
DWIDTH 19 0
BBX 19 48 0 -3
BITMAP
03F800
0FFE00
1FFF00
3FFF80
3E0F80
7C07C0
7803C0
7803C0
7803C0
7803C0
7803C0
3C0780
3E0F80
1FFF00
07FC00
0FFE00
1FFF00
3E0F80
7C07C0
7803C0
F803E0
F001E0
F001E0
F001E0
F001E0
F001E0
F803E0
7803C0
7C07C0
3E0FC0
3FFF80
1FFF00
0FFE00
03F800
000000
000000
000000
000000
000000
000000
000000
000000
000000
000000
000000
000000
000000
000000
ENDCHAR
STARTCHAR 57
ENCODING 57
SWIDTH 520 0 
DWIDTH 19 0
BBX 19 48 0 -3
BITMAP
03F000
0FFC00
1FFE00
3FFF00
3F0F80
7C0780
7803C0
F803C0
F001C0
F001E0
F001E0
F001E0
F001E0
F001E0
F001E0
F803E0
7803E0
7C07E0
3E0FE0
3FFFE0
1FFDE0
0FF9E0
03E1E0
0001C0
0001C0
7803C0
7803C0
7C0780
3C0780
3E1F00
1FFF00
1FFE00
0FFC00
03F000
000000
000000
000000
000000
000000
000000
000000
000000
000000
000000
000000
000000
000000
000000
ENDCHAR
STARTCHAR 58
ENCODING 58
SWIDTH 520 0 
DWIDTH 19 0
BBX 19 48 0 -3
BITMAP
000000
000000
000000
000000
000000
000000
000000
000000
000000
00F000
00F000
00F000
00F000
00F000
000000
000000
000000
000000
000000
000000
000000
000000
000000
000000
000000
000000
000000
000000
000000
00F000
00F000
00F000
00F000
00F000
000000
000000
000000
000000
000000
000000
000000
000000
000000
000000
000000
000000
000000
000000
ENDCHAR
STARTCHAR 63
ENCODING 63
SWIDTH 520 0 
DWIDTH 19 0
BBX 19 48 0 -3
BITMAP
03F800
0FFE00
1FFF00
3F0F80
3C07C0
7C03C0
7803E0
F801E0
F001E0
F001E0
F001E0
0001E0
0003C0
0007C0
000F80
001F80
003F00
007E00
007C00
00F800
00F000
01F000
01E000
01E000
01E000
01E000
000000
000000
000000
01E000
01E000
01E000
01E000
01E000
000000
000000
000000
000000
000000
000000
000000
000000
000000
000000
000000
000000
000000
000000
ENDCHAR
STARTCHAR 65
ENCODING 65
SWIDTH 520 0 
DWIDTH 25 0
BBX 25 48 0 -3
BITMAP
007E0000
007E0000
007F0000
00FF0000
00F70000
00F78000
00F78000
01F78000
01E38000
01E3C000
03E3C000
03E1C000
03C1E000
03C1E000
07C1E000
0780F000
0780F000
0780F000
0F007800
0F007800
0FFFF800
1FFFF800
1FFFFC00
1FFFFC00
1E003C00
3C001E00
3C001E00
3C001E00
3C001F00
78000F00
78000F00
78000F00
F8000F80
F0000780
00000000
00000000
00000000
00000000
00000000
00000000
00000000
00000000
00000000
00000000
00000000
00000000
00000000
00000000
ENDCHAR
STARTCHAR 77
ENCODING 77
SWIDTH 520 0 
DWIDTH 29 0
BBX 29 48 0 -3
BITMAP
FC0001F8
FE0001F8
FE0001F8
FE0003F8
FE0003F8
FF0003F8
FF0007F8
FF0007F8
FF8007F8
F78007F8
F7800F78
F7800F78
F3C00F78
F3C01E78
F3C01E78
F3E01E78
F1E03E78
F1E03C78
F1E03C78
F0F07C78
F0F07878
F0F07878
F0F8F878
F078F078
F078F078
F07CF078
F03DE078
F03DE078
F03DE078
F03FE078
F01FC078
F01FC078
F01FC078
F00F8078
00000000
00000000
00000000
00000000
00000000
00000000
00000000
00000000
00000000
00000000
00000000
00000000
00000000
00000000
ENDCHAR
STARTCHAR 80
ENCODING 80
SWIDTH 520 0 
DWIDTH 22 0
BBX 22 48 0 -3
BITMAP
FFFF00
FFFFC0
FFFFE0
FFFFF0
F001F8
F00078
F0007C
F0003C
F0003C
F0003C
F0003C
F0003C
F0003C
F0007C
F000F8
F001F8
FFFFF0
FFFFE0
FFFFC0
FFFF00
F00000
F00000
F00000
F00000
F00000
F00000
F00000
F00000
F00000
F00000
F00000
F00000
F00000
F00000
000000
000000
000000
000000
000000
000000
000000
000000
000000
000000
000000
000000
000000
000000
ENDCHAR
STARTCHAR 87
ENCODING 87
SWIDTH 520 0 
DWIDTH 37 0
BBX 37 48 0 -3
BITMAP
F001FC0078
F001FC0078
F001FC0078
7801FC0078
7803DE00F0
7803DE00F0
7803DE00F0
3803DE00F0
3C03DF00F0
3C078F01E0
3C078F01E0
3C078F01E0
1C078F01E0
1E078F81E0
1E0F0783C0
1E0F0783C0
0E0F0783C0
0E0F0783C0
0F0F07C3C0
0F1E03C780
0F1E03C780
071E03C780
071E03C780
079E03E780
07BC01EF00
03BC01EF00
03BC01EF00
03BC01EF00
03BC01EF00
03F800FE00
01F800FE00
01F800FE00
01F800FE00
01F800FE00
0000000000
0000000000
0000000000
0000000000
0000000000
0000000000
0000000000
0000000000
0000000000
0000000000
0000000000
0000000000
0000000000
0000000000
ENDCHAR
STARTCHAR 112
ENCODING 112
SWIDTH 520 0 
DWIDTH 19 0
BBX 19 48 0 -3
BITMAP
000000
000000
000000
000000
000000
000000
000000
000000
000000
000000
000000
000000
000000
000000
000000
0E7800
0EFE00
0FFE00
0F8F00
0F0700
0F0780
0E0380
0E0380
0E0380
0E0380
0E0380
0E0380
0E0380
0F0780
0F0700
0F8F00
0FFE00
0EFC00
0E7800
0E0000
0E0000
0E0000
0E0000
0E0000
0E0000
0E0000
000000
000000
000000
000000
000000
000000
000000
ENDCHAR
STARTCHAR 119
ENCODING 119
SWIDTH 520 0 
DWIDTH 19 0
BBX 19 48 0 -3
BITMAP
000000
000000
000000
000000
000000
000000
000000
000000
000000
000000
000000
000000
000000
000000
000000
E0E0E0
E0E0E0
70E1C0
70E1C0
70E1C0
70E1C0
39F380
39F380
39F380
39F380
39B380
1DB700
1DB700
1DB700
1DB700
0F1E00
0F1E00
0F1E00
0F1E00
000000
000000
000000
000000
000000
000000
000000
000000
000000
000000
000000
000000
000000
000000
ENDCHAR
ENDFONT