STARTFONT 2.1
COMMENT  Product Version MAUI VERSION
COMMENT Generated BDF For Dialing Font
FONT -MTK-
SIZE 14 100 100
FONTBOUNDINGBOX 15 27 -1 -3 
STARTPROPERTIES 12
FONT_ASCENT 14
FONT_DESCENT 0
DEFAULT_CHAR 12288
Copyright "Copyright (c) 2002 MediaTek Corp."
POINT_SIZE 140
FONT "MTK"
WEIGHT 10
RESOLUTION 103
RESOLUTION_X 100
RESOLUTION_Y 100
X_HEIGHT 4294967295
QUAD_WIDTH 13
ENDPROPERTIES
CHARS 235
STARTCHAR 10
ENCODING 10
SWIDTH 520 0
DWIDTH 1 0
BBX 1 1 0 -3
BITMAP
0
ENDCHAR
STARTCHAR 11
ENCODING 11
SWIDTH 520 0
DWIDTH 1 0
BBX 1 1 0 -3
BITMAP
0
ENDCHAR
STARTCHAR 12
ENCODING 12
SWIDTH 520 0
DWIDTH 1 0
BBX 1 1 0 -3
BITMAP
0
ENDCHAR
STARTCHAR 13
ENCODING 13
SWIDTH 520 0
DWIDTH 1 0
BBX 1 1 0 -3
BITMAP
0
ENDCHAR
STARTCHAR 14
ENCODING 14
SWIDTH 520 0
DWIDTH 1 0
BBX 1 1 0 -3
BITMAP
0
ENDCHAR
STARTCHAR 15
ENCODING 15
SWIDTH 520 0
DWIDTH 1 0
BBX 1 1 0 -3
BITMAP
0
ENDCHAR
STARTCHAR 16
ENCODING 16
SWIDTH 520 0
DWIDTH 1 0
BBX 1 1 0 -3
BITMAP
0
ENDCHAR
STARTCHAR 17
ENCODING 17
SWIDTH 520 0
DWIDTH 1 0
BBX 1 1 0 -3
BITMAP
0
ENDCHAR
STARTCHAR 18
ENCODING 18
SWIDTH 520 0
DWIDTH 1 0
BBX 1 1 0 -3
BITMAP
0
ENDCHAR
STARTCHAR 19
ENCODING 19
SWIDTH 520 0
DWIDTH 1 0
BBX 1 1 0 -3
BITMAP
0
ENDCHAR
STARTCHAR 20
ENCODING 20
SWIDTH 520 0
DWIDTH 1 0
BBX 1 1 0 -3
BITMAP
0
ENDCHAR
STARTCHAR 21
ENCODING 21
SWIDTH 520 0
DWIDTH 1 0
BBX 1 1 0 -3
BITMAP
0
ENDCHAR
STARTCHAR 22
ENCODING 22
SWIDTH 520 0
DWIDTH 1 0
BBX 1 1 0 -3
BITMAP
0
ENDCHAR
STARTCHAR 23
ENCODING 23
SWIDTH 520 0
DWIDTH 1 0
BBX 1 1 0 -3
BITMAP
0
ENDCHAR
STARTCHAR 24
ENCODING 24
SWIDTH 520 0
DWIDTH 1 0
BBX 1 1 0 -3
BITMAP
0
ENDCHAR
STARTCHAR 25
ENCODING 25
SWIDTH 520 0
DWIDTH 1 0
BBX 1 1 0 -3
BITMAP
0
ENDCHAR
STARTCHAR 26
ENCODING 26
SWIDTH 520 0
DWIDTH 1 0
BBX 1 1 0 -3
BITMAP
0
ENDCHAR
STARTCHAR 27
ENCODING 27
SWIDTH 520 0
DWIDTH 1 0
BBX 1 1 0 -3
BITMAP
0
ENDCHAR
STARTCHAR 28
ENCODING 28
SWIDTH 520 0
DWIDTH 1 0
BBX 1 1 0 -3
BITMAP
0
ENDCHAR
STARTCHAR 29
ENCODING 29
SWIDTH 520 0
DWIDTH 1 0
BBX 1 1 0 -3
BITMAP
0
ENDCHAR
STARTCHAR 30
ENCODING 30
SWIDTH 520 0
DWIDTH 1 0
BBX 1 1 0 -3
BITMAP
0
ENDCHAR
STARTCHAR 31
ENCODING 31
SWIDTH 520 0
DWIDTH 1 0
BBX 1 1 0 -3
BITMAP
0
ENDCHAR
STARTCHAR 32
ENCODING 32
SWIDTH 520 0
DWIDTH 1 0
BBX 1 1 0 -3
BITMAP
0
ENDCHAR
STARTCHAR 33
ENCODING 33
SWIDTH 520 0
DWIDTH 1 0
BBX 1 1 0 -3
BITMAP
0
ENDCHAR
STARTCHAR 34
ENCODING 34
SWIDTH 520 0
DWIDTH 1 0
BBX 1 1 0 -3
BITMAP
0
ENDCHAR
STARTCHAR 35
ENCODING 35
SWIDTH 520 0
DWIDTH 16 0
BBX 15 27 1 -3
BITMAP
0000
0000
061c
0618
0638
0e38
0e38
7ffe
7ffe
0e70
0e70
0c70
1c70
1c70
fffe
fffe
1ce0
1ce0
1ce0
18c0
39c0
39c0
0000
0000
0000
0000
0000
ENDCHAR
STARTCHAR 36
ENCODING 36
SWIDTH 520 0
DWIDTH 1 0
BBX 1 1 0 -3
BITMAP
0
ENDCHAR
STARTCHAR 37
ENCODING 37
SWIDTH 520 0
DWIDTH 1 0
BBX 1 1 0 -3
BITMAP
0
ENDCHAR
STARTCHAR 38
ENCODING 38
SWIDTH 520 0
DWIDTH 1 0
BBX 1 1 0 -3
BITMAP
0
ENDCHAR
STARTCHAR 39
ENCODING 39
SWIDTH 520 0
DWIDTH 1 0
BBX 1 1 0 -3
BITMAP
0
ENDCHAR
STARTCHAR 40
ENCODING 40
SWIDTH 520 0
DWIDTH 1 0
BBX 1 1 0 -3
BITMAP
0
ENDCHAR
STARTCHAR 41
ENCODING 41
SWIDTH 520 0
DWIDTH 1 0
BBX 1 1 0 -3
BITMAP
0
ENDCHAR
STARTCHAR 42
ENCODING 42
SWIDTH 520 0
DWIDTH 16 0
BBX 15 27 1 -3
BITMAP
0000
0000
0000
0000
0000
0000
0000
0000
0300
0300
0300
6318
7b78
3ff0
0fc0
0780
0fc0
1ce0
3870
3030
0000
0000
0000
0000
0000
0000
0000
ENDCHAR
STARTCHAR 43
ENCODING 43
SWIDTH 520 0
DWIDTH 16 0
BBX 15 27 1 -3
BITMAP
0000
0000
0000
0000
0380
0380
0380
0380
0380
0380
0380
fffe
fffe
fffe
0380
0380
0380
0380
0380
0380
0380
0380
0000
0000
0000
0000
0000
ENDCHAR
STARTCHAR 44
ENCODING 44
SWIDTH 520 0
DWIDTH 1 0
BBX 1 1 0 -3
BITMAP
0
ENDCHAR
STARTCHAR 45
ENCODING 45
SWIDTH 520 0
DWIDTH 1 0
BBX 1 1 0 -3
BITMAP
0
ENDCHAR
STARTCHAR 46
ENCODING 46
SWIDTH 520 0
DWIDTH 15 0
BBX 15 27 1 -3
BITMAP
0000
0000
0000
0000
0000
0000
0000
0000
0000
0000
0000
0000
0000
0000
0000
0000
0000
0300
0780
0780
0300
0000
0000
0000
0000
0000
0000
ENDCHAR
STARTCHAR 47
ENCODING 47
SWIDTH 520 0
DWIDTH 1 0
BBX 1 1 0 -3
BITMAP
0
ENDCHAR
STARTCHAR 48
ENCODING 48
SWIDTH 520 0
DWIDTH 16 0
BBX 15 27 1 -3
BITMAP
07c0
1ff0
3c78
3838
701c
701c
f01c
e00e
e00e
e00e
e00e
e00e
e00e
e00e
e00e
e00e
701c
701c
701c
3838
3c78
1ff0
07c0
0000
0000
0000
0000
ENDCHAR
STARTCHAR 49
ENCODING 49
SWIDTH 520 0
DWIDTH 16 0
BBX 15 27 1 -3
BITMAP
01c0
01c0
03c0
07c0
7fc0
7fc0
01c0
01c0
01c0
01c0
01c0
01c0
01c0
01c0
01c0
01c0
01c0
01c0
01c0
01c0
01c0
01c0
01c0
0000
0000
0000
0000
ENDCHAR
STARTCHAR 50
ENCODING 50
SWIDTH 520 0
DWIDTH 16 0
BBX 15 27 1 -3
BITMAP
07f0
1ff8
3c3c
381e
700e
700e
700e
000e
000e
001c
003c
0078
00e0
03c0
0780
0e00
3c00
3800
7000
e000
e000
fffe
fffe
0000
0000
0000
0000
ENDCHAR
STARTCHAR 51
ENCODING 51
SWIDTH 520 0
DWIDTH 16 0
BBX 15 27 1 -3
BITMAP
07e0
1ff0
3c78
383c
701c
701c
701c
001c
0038
0078
07e0
07f8
003c
001c
000e
000e
e00e
e00e
e00e
701c
787c
3ff8
0fe0
0000
0000
0000
0000
ENDCHAR
STARTCHAR 52
ENCODING 52
SWIDTH 520 0
DWIDTH 16 0
BBX 15 27 1 -3
BITMAP
0070
00f0
01f0
01f0
03f0
03f0
0770
0e70
0e70
1c70
1c70
3870
7070
7070
e070
fffe
fffe
0070
0070
0070
0070
0070
0070
0000
0000
0000
0000
ENDCHAR
STARTCHAR 53
ENCODING 53
SWIDTH 520 0
DWIDTH 16 0
BBX 15 27 1 -3
BITMAP
7ffc
7ffc
7000
7000
7000
7000
7000
7000
7fe0
7ff8
7c3c
781c
001e
000e
000e
000e
e00e
e00e
f01e
701c
3c78
1ff0
0fe0
0000
0000
0000
0000
ENDCHAR
STARTCHAR 54
ENCODING 54
SWIDTH 520 0
DWIDTH 16 0
BBX 15 27 1 -3
BITMAP
07e0
1ff8
1e3c
381c
700e
700e
7000
e000
e7e0
fff8
fc7c
f81c
f01e
e00e
e00e
e00e
e00e
600e
701e
781c
3c7c
1ff8
07e0
0000
0000
0000
0000
ENDCHAR
STARTCHAR 55
ENCODING 55
SWIDTH 520 0
DWIDTH 16 0
BBX 15 27 1 -3
BITMAP
fffc
fffc
003c
0038
0070
00f0
00e0
01e0
01c0
03c0
0380
0380
0700
0700
0700
0e00
0e00
0e00
0e00
0e00
1c00
1c00
1c00
0000
0000
0000
0000
ENDCHAR
STARTCHAR 56
ENCODING 56
SWIDTH 520 0
DWIDTH 16 0
BBX 15 27 1 -3
BITMAP
0fe0
1ff0
3c78
783c
701c
701c
701c
783c
3c78
1ff0
0fe0
3878
701c
600c
e00e
e00e
e00e
e00e
f01e
701c
7c7c
3ff8
0fe0
0000
0000
0000
0000
ENDCHAR
STARTCHAR 57
ENCODING 57
SWIDTH 520 0
DWIDTH 16 0
BBX 15 27 1 -3
BITMAP
0fc0
3ff0
7878
703c
f01c
e00c
e00e
e00e
e00e
e00e
f01e
703e
7c7e
3ffe
0fce
000e
001c
e01c
e03c
7038
78f8
3ff0
0fc0
0000
0000
0000
0000
ENDCHAR
STARTCHAR 58
ENCODING 58
SWIDTH 520 0
DWIDTH 16 0
BBX 15 27 1 -3
BITMAP
0000
0000
0000
0000
0000
0300
0780
0780
0300
0000
0000
0000
0000
0000
0000
0000
0000
0300
0780
0780
0300
0000
0000
0000
0000
0000
0000
ENDCHAR
STARTCHAR 59
ENCODING 59
SWIDTH 520 0
DWIDTH 1 0
BBX 1 1 0 -3
BITMAP
0
ENDCHAR
STARTCHAR 60
ENCODING 60
SWIDTH 520 0
DWIDTH 1 0
BBX 1 1 0 -3
BITMAP
0
ENDCHAR
STARTCHAR 61
ENCODING 61
SWIDTH 520 0
DWIDTH 1 0
BBX 1 1 0 -3
BITMAP
0
ENDCHAR
STARTCHAR 62
ENCODING 62
SWIDTH 520 0
DWIDTH 1 0
BBX 1 1 0 -3
BITMAP
0
ENDCHAR
STARTCHAR 63
ENCODING 63
SWIDTH 520 0
DWIDTH 15 0
BBX 15 27 0 -3
BITMAP
0000
0000
0000
0000
0fe0
3ff8
787c
f03e
e01e
001e
003e
007c
01f8
03e0
07c0
0780
0780
0000
0000
0780
0780
0780
0000
0000
0000
0000
0000
ENDCHAR
STARTCHAR 64
ENCODING 64
SWIDTH 520 0
DWIDTH 1 0
BBX 1 1 0 -3
BITMAP
0
ENDCHAR
STARTCHAR 65
ENCODING 65
SWIDTH 520 0
DWIDTH 16 0
BBX 15 27 1 -3
BITMAP
1ff0
1ff0
1ff0
e00e
e00e
e00e
e00e
e00e
e00e
e00e
e00e
e00e
e00e
e00e
e00e
fffe
fffe
fffe
e00e
e00e
e00e
e00e
e00e
0000
0000
0000
0000
ENDCHAR
STARTCHAR 66
ENCODING 66
SWIDTH 520 0
DWIDTH 1 0
BBX 1 1 0 -3
BITMAP
0
ENDCHAR
STARTCHAR 67
ENCODING 67
SWIDTH 520 0
DWIDTH 1 0
BBX 1 1 0 -3
BITMAP
0
ENDCHAR
STARTCHAR 68
ENCODING 68
SWIDTH 520 0
DWIDTH 1 0
BBX 1 1 0 -3
BITMAP
0
ENDCHAR
STARTCHAR 69
ENCODING 69
SWIDTH 520 0
DWIDTH 1 0
BBX 1 1 0 -3
BITMAP
0
ENDCHAR
STARTCHAR 70
ENCODING 70
SWIDTH 520 0
DWIDTH 1 0
BBX 1 1 0 -3
BITMAP
0
ENDCHAR
STARTCHAR 71
ENCODING 71
SWIDTH 520 0
DWIDTH 1 0
BBX 1 1 0 -3
BITMAP
0
ENDCHAR
STARTCHAR 72
ENCODING 72
SWIDTH 520 0
DWIDTH 1 0
BBX 1 1 0 -3
BITMAP
0
ENDCHAR
STARTCHAR 73
ENCODING 73
SWIDTH 520 0
DWIDTH 1 0
BBX 1 1 0 -3
BITMAP
0
ENDCHAR
STARTCHAR 74
ENCODING 74
SWIDTH 520 0
DWIDTH 1 0
BBX 1 1 0 -3
BITMAP
0
ENDCHAR
STARTCHAR 75
ENCODING 75
SWIDTH 520 0
DWIDTH 1 0
BBX 1 1 0 -3
BITMAP
0
ENDCHAR
STARTCHAR 76
ENCODING 76
SWIDTH 520 0
DWIDTH 1 0
BBX 1 1 0 -3
BITMAP
0
ENDCHAR
STARTCHAR 77
ENCODING 77
SWIDTH 520 0
DWIDTH 16 0
BBX 15 27 1 -3
BITMAP
e00e
e00e
e00e
fc7e
fc7e
fc7e
e38e
e38e
e38e
e00e
e00e
e00e
e00e
e00e
e00e
e00e
e00e
e00e
e00e
e00e
e00e
e00e
e00e
0000
0000
0000
0000
ENDCHAR
STARTCHAR 78
ENCODING 78
SWIDTH 520 0
DWIDTH 1 0
BBX 1 1 0 -3
BITMAP
0
ENDCHAR
STARTCHAR 79
ENCODING 79
SWIDTH 520 0
DWIDTH 1 0
BBX 1 1 0 -3
BITMAP
0
ENDCHAR
STARTCHAR 80
ENCODING 80
SWIDTH 520 0
DWIDTH 16 0
BBX 15 27 1 -3
BITMAP
ffe0
ffe0
ffe0
e01c
e01c
e01c
e01c
e01c
e01c
e01c
e01c
ffe0
ffe0
ffe0
e000
e000
e000
e000
e000
e000
e000
e000
e000
0000
0000
0000
0000
ENDCHAR
STARTCHAR 81
ENCODING 81
SWIDTH 520 0
DWIDTH 1 0
BBX 1 1 0 -3
BITMAP
0
ENDCHAR
STARTCHAR 82
ENCODING 82
SWIDTH 520 0
DWIDTH 1 0
BBX 1 1 0 -3
BITMAP
0
ENDCHAR
STARTCHAR 83
ENCODING 83
SWIDTH 520 0
DWIDTH 1 0
BBX 1 1 0 -3
BITMAP
0
ENDCHAR
STARTCHAR 84
ENCODING 84
SWIDTH 520 0
DWIDTH 1 0
BBX 1 1 0 -3
BITMAP
0
ENDCHAR
STARTCHAR 85
ENCODING 85
SWIDTH 520 0
DWIDTH 1 0
BBX 1 1 0 -3
BITMAP
0
ENDCHAR
STARTCHAR 86
ENCODING 86
SWIDTH 520 0
DWIDTH 1 0
BBX 1 1 0 -3
BITMAP
0
ENDCHAR
STARTCHAR 87
ENCODING 87
SWIDTH 520 0
DWIDTH 16 0
BBX 15 27 1 -3
BITMAP
e01c
e01c
e01c
e01c
e01c
e01c
e31c
e31c
e31c
e31c
e31c
e31c
e31c
e31c
e31c
e31c
e31c
e31c
e31c
e31c
1ce0
1ce0
1ce0
0000
0000
0000
0000
ENDCHAR
STARTCHAR 88
ENCODING 88
SWIDTH 520 0
DWIDTH 1 0
BBX 1 1 0 -3
BITMAP
0
ENDCHAR
STARTCHAR 89
ENCODING 89
SWIDTH 520 0
DWIDTH 1 0
BBX 1 1 0 -3
BITMAP
0
ENDCHAR
STARTCHAR 90
ENCODING 90
SWIDTH 520 0
DWIDTH 1 0
BBX 1 1 0 -3
BITMAP
0
ENDCHAR
STARTCHAR 91
ENCODING 91
SWIDTH 520 0
DWIDTH 1 0
BBX 1 1 0 -3
BITMAP
0
ENDCHAR
STARTCHAR 92
ENCODING 92
SWIDTH 520 0
DWIDTH 1 0
BBX 1 1 0 -3
BITMAP
0
ENDCHAR
STARTCHAR 93
ENCODING 93
SWIDTH 520 0
DWIDTH 1 0
BBX 1 1 0 -3
BITMAP
0
ENDCHAR
STARTCHAR 94
ENCODING 94
SWIDTH 520 0
DWIDTH 1 0
BBX 1 1 0 -3
BITMAP
0
ENDCHAR
STARTCHAR 95
ENCODING 95
SWIDTH 520 0
DWIDTH 1 0
BBX 1 1 0 -3
BITMAP
0
ENDCHAR
STARTCHAR 96
ENCODING 96
SWIDTH 520 0
DWIDTH 1 0
BBX 1 1 0 -3
BITMAP
0
ENDCHAR
STARTCHAR 97
ENCODING 97
SWIDTH 520 0
DWIDTH 1 0
BBX 1 1 0 -3
BITMAP
0
ENDCHAR
STARTCHAR 98
ENCODING 98
SWIDTH 520 0
DWIDTH 1 0
BBX 1 1 0 -3
BITMAP
0
ENDCHAR
STARTCHAR 99
ENCODING 99
SWIDTH 520 0
DWIDTH 1 0
BBX 1 1 0 -3
BITMAP
0
ENDCHAR
STARTCHAR 100
ENCODING 100
SWIDTH 520 0
DWIDTH 1 0
BBX 1 1 0 -3
BITMAP
0
ENDCHAR
STARTCHAR 101
ENCODING 101
SWIDTH 520 0
DWIDTH 1 0
BBX 1 1 0 -3
BITMAP
0
ENDCHAR
STARTCHAR 102
ENCODING 102
SWIDTH 520 0
DWIDTH 1 0
BBX 1 1 0 -3
BITMAP
0
ENDCHAR
STARTCHAR 103
ENCODING 103
SWIDTH 520 0
DWIDTH 1 0
BBX 1 1 0 -3
BITMAP
0
ENDCHAR
STARTCHAR 104
ENCODING 104
SWIDTH 520 0
DWIDTH 1 0
BBX 1 1 0 -3
BITMAP
0
ENDCHAR
STARTCHAR 105
ENCODING 105
SWIDTH 520 0
DWIDTH 1 0
BBX 1 1 0 -3
BITMAP
0
ENDCHAR
STARTCHAR 106
ENCODING 106
SWIDTH 520 0
DWIDTH 1 0
BBX 1 1 0 -3
BITMAP
0
ENDCHAR
STARTCHAR 107
ENCODING 107
SWIDTH 520 0
DWIDTH 1 0
BBX 1 1 0 -3
BITMAP
0
ENDCHAR
STARTCHAR 108
ENCODING 108
SWIDTH 520 0
DWIDTH 1 0
BBX 1 1 0 -3
BITMAP
0
ENDCHAR
STARTCHAR 109
ENCODING 109
SWIDTH 520 0
DWIDTH 1 0
BBX 1 1 0 -3
BITMAP
0
ENDCHAR
STARTCHAR 110
ENCODING 110
SWIDTH 520 0
DWIDTH 1 0
BBX 1 1 0 -3
BITMAP
0
ENDCHAR
STARTCHAR 111
ENCODING 111
SWIDTH 520 0
DWIDTH 1 0
BBX 1 1 0 -3
BITMAP
0
ENDCHAR
STARTCHAR 112
ENCODING 112
SWIDTH 520 0
DWIDTH 16 0
BBX 15 27 1 -3
BITMAP
0000
0000
0000
0000
0000
efc0
fff0
fcf0
f038
f038
e01c
e01c
e01c
e01c
e01c
e01c
e01c
f038
f038
fcf0
fff0
e7c0
e000
e000
e000
e000
e000
ENDCHAR
STARTCHAR 113
ENCODING 113
SWIDTH 520 0
DWIDTH 1 0
BBX 1 1 0 -3
BITMAP
0
ENDCHAR
STARTCHAR 114
ENCODING 114
SWIDTH 520 0
DWIDTH 1 0
BBX 1 1 0 -3
BITMAP
0
ENDCHAR
STARTCHAR 115
ENCODING 115
SWIDTH 520 0
DWIDTH 1 0
BBX 1 1 0 -3
BITMAP
0
ENDCHAR
STARTCHAR 116
ENCODING 116
SWIDTH 520 0
DWIDTH 1 0
BBX 1 1 0 -3
BITMAP
0
ENDCHAR
STARTCHAR 117
ENCODING 117
SWIDTH 520 0
DWIDTH 1 0
BBX 1 1 0 -3
BITMAP
0
ENDCHAR
STARTCHAR 118
ENCODING 118
SWIDTH 520 0
DWIDTH 1 0
BBX 1 1 0 -3
BITMAP
0
ENDCHAR
STARTCHAR 119
ENCODING 119
SWIDTH 520 0
DWIDTH 16 0
BBX 15 27 1 -3
BITMAP
0000
0000
0000
0000
0000
e38e
e38e
e38e
67cc
77dc
77dc
76dc
76dc
76dc
7efc
3ef8
3cf8
3c78
3c78
3c78
3c78
3870
0000
0000
0000
0000
0000
ENDCHAR
STARTCHAR 120
ENCODING 120
SWIDTH 520 0
DWIDTH 1 0
BBX 1 1 0 -3
BITMAP
0
ENDCHAR
STARTCHAR 121
ENCODING 121
SWIDTH 520 0
DWIDTH 1 0
BBX 1 1 0 -3
BITMAP
0
ENDCHAR
STARTCHAR 122
ENCODING 122
SWIDTH 520 0
DWIDTH 1 0
BBX 1 1 0 -3
BITMAP
0
ENDCHAR
STARTCHAR 123
ENCODING 123
SWIDTH 520 0
DWIDTH 1 0
BBX 1 1 0 -3
BITMAP
0
ENDCHAR
STARTCHAR 124
ENCODING 124
SWIDTH 520 0
DWIDTH 1 0
BBX 1 1 0 -3
BITMAP
0
ENDCHAR
STARTCHAR 125
ENCODING 125
SWIDTH 520 0
DWIDTH 1 0
BBX 1 1 0 -3
BITMAP
0
ENDCHAR
STARTCHAR 126
ENCODING 126
SWIDTH 520 0
DWIDTH 1 0
BBX 1 1 0 -3
BITMAP
0
ENDCHAR
STARTCHAR 127
ENCODING 127
SWIDTH 520 0
DWIDTH 1 0
BBX 1 1 0 -3
BITMAP
0
ENDCHAR
STARTCHAR 128
ENCODING 128
SWIDTH 520 0
DWIDTH 1 0
BBX 1 1 0 -3
BITMAP
0
ENDCHAR
STARTCHAR 129
ENCODING 129
SWIDTH 520 0
DWIDTH 1 0
BBX 1 1 0 -3
BITMAP
0
ENDCHAR
STARTCHAR 130
ENCODING 130
SWIDTH 520 0
DWIDTH 1 0
BBX 1 1 0 -3
BITMAP
0
ENDCHAR
STARTCHAR 131
ENCODING 131
SWIDTH 520 0
DWIDTH 1 0
BBX 1 1 0 -3
BITMAP
0
ENDCHAR
STARTCHAR 132
ENCODING 132
SWIDTH 520 0
DWIDTH 1 0
BBX 1 1 0 -3
BITMAP
0
ENDCHAR
STARTCHAR 133
ENCODING 133
SWIDTH 520 0
DWIDTH 1 0
BBX 1 1 0 -3
BITMAP
0
ENDCHAR
STARTCHAR 134
ENCODING 134
SWIDTH 520 0
DWIDTH 1 0
BBX 1 1 0 -3
BITMAP
0
ENDCHAR
STARTCHAR 135
ENCODING 135
SWIDTH 520 0
DWIDTH 1 0
BBX 1 1 0 -3
BITMAP
0
ENDCHAR
STARTCHAR 136
ENCODING 136
SWIDTH 520 0
DWIDTH 1 0
BBX 1 1 0 -3
BITMAP
0
ENDCHAR
STARTCHAR 137
ENCODING 137
SWIDTH 520 0
DWIDTH 1 0
BBX 1 1 0 -3
BITMAP
0
ENDCHAR
STARTCHAR 138
ENCODING 138
SWIDTH 520 0
DWIDTH 1 0
BBX 1 1 0 -3
BITMAP
0
ENDCHAR
STARTCHAR 139
ENCODING 139
SWIDTH 520 0
DWIDTH 1 0
BBX 1 1 0 -3
BITMAP
0
ENDCHAR
STARTCHAR 140
ENCODING 140
SWIDTH 520 0
DWIDTH 1 0
BBX 1 1 0 -3
BITMAP
0
ENDCHAR
STARTCHAR 141
ENCODING 141
SWIDTH 520 0
DWIDTH 1 0
BBX 1 1 0 -3
BITMAP
0
ENDCHAR
STARTCHAR 142
ENCODING 142
SWIDTH 520 0
DWIDTH 1 0
BBX 1 1 0 -3
BITMAP
0
ENDCHAR
STARTCHAR 143
ENCODING 143
SWIDTH 520 0
DWIDTH 1 0
BBX 1 1 0 -3
BITMAP
0
ENDCHAR
STARTCHAR 144
ENCODING 144
SWIDTH 520 0
DWIDTH 1 0
BBX 1 1 0 -3
BITMAP
0
ENDCHAR
STARTCHAR 145
ENCODING 145
SWIDTH 520 0
DWIDTH 1 0
BBX 1 1 0 -3
BITMAP
0
ENDCHAR
STARTCHAR 146
ENCODING 146
SWIDTH 520 0
DWIDTH 1 0
BBX 1 1 0 -3
BITMAP
0
ENDCHAR
STARTCHAR 147
ENCODING 147
SWIDTH 520 0
DWIDTH 1 0
BBX 1 1 0 -3
BITMAP
0
ENDCHAR
STARTCHAR 148
ENCODING 148
SWIDTH 520 0
DWIDTH 1 0
BBX 1 1 0 -3
BITMAP
0
ENDCHAR
STARTCHAR 160
ENCODING 160
SWIDTH 520 0
DWIDTH 1 0
BBX 1 1 0 -3
BITMAP
0
ENDCHAR
STARTCHAR 161
ENCODING 161
SWIDTH 520 0
DWIDTH 1 0
BBX 1 1 0 -3
BITMAP
0
ENDCHAR
STARTCHAR 162
ENCODING 162
SWIDTH 520 0
DWIDTH 1 0
BBX 1 1 0 -3
BITMAP
0
ENDCHAR
STARTCHAR 163
ENCODING 163
SWIDTH 520 0
DWIDTH 1 0
BBX 1 1 0 -3
BITMAP
0
ENDCHAR
STARTCHAR 164
ENCODING 164
SWIDTH 520 0
DWIDTH 1 0
BBX 1 1 0 -3
BITMAP
0
ENDCHAR
STARTCHAR 165
ENCODING 165
SWIDTH 520 0
DWIDTH 1 0
BBX 1 1 0 -3
BITMAP
0
ENDCHAR
STARTCHAR 166
ENCODING 166
SWIDTH 520 0
DWIDTH 1 0
BBX 1 1 0 -3
BITMAP
0
ENDCHAR
STARTCHAR 167
ENCODING 167
SWIDTH 520 0
DWIDTH 1 0
BBX 1 1 0 -3
BITMAP
0
ENDCHAR
STARTCHAR 168
ENCODING 168
SWIDTH 520 0
DWIDTH 1 0
BBX 1 1 0 -3
BITMAP
0
ENDCHAR
STARTCHAR 169
ENCODING 169
SWIDTH 520 0
DWIDTH 1 0
BBX 1 1 0 -3
BITMAP
0
ENDCHAR
STARTCHAR 170
ENCODING 170
SWIDTH 520 0
DWIDTH 1 0
BBX 1 1 0 -3
BITMAP
0
ENDCHAR
STARTCHAR 171
ENCODING 171
SWIDTH 520 0
DWIDTH 1 0
BBX 1 1 0 -3
BITMAP
0
ENDCHAR
STARTCHAR 172
ENCODING 172
SWIDTH 520 0
DWIDTH 1 0
BBX 1 1 0 -3
BITMAP
0
ENDCHAR
STARTCHAR 173
ENCODING 173
SWIDTH 520 0
DWIDTH 1 0
BBX 1 1 0 -3
BITMAP
0
ENDCHAR
STARTCHAR 174
ENCODING 174
SWIDTH 520 0
DWIDTH 1 0
BBX 1 1 0 -3
BITMAP
0
ENDCHAR
STARTCHAR 175
ENCODING 175
SWIDTH 520 0
DWIDTH 1 0
BBX 1 1 0 -3
BITMAP
0
ENDCHAR
STARTCHAR 176
ENCODING 176
SWIDTH 520 0
DWIDTH 1 0
BBX 1 1 0 -3
BITMAP
0
ENDCHAR
STARTCHAR 177
ENCODING 177
SWIDTH 520 0
DWIDTH 1 0
BBX 1 1 0 -3
BITMAP
0
ENDCHAR
STARTCHAR 178
ENCODING 178
SWIDTH 520 0
DWIDTH 1 0
BBX 1 1 0 -3
BITMAP
0
ENDCHAR
STARTCHAR 179
ENCODING 179
SWIDTH 520 0
DWIDTH 1 0
BBX 1 1 0 -3
BITMAP
0
ENDCHAR
STARTCHAR 180
ENCODING 180
SWIDTH 520 0
DWIDTH 1 0
BBX 1 1 0 -3
BITMAP
0
ENDCHAR
STARTCHAR 181
ENCODING 181
SWIDTH 520 0
DWIDTH 1 0
BBX 1 1 0 -3
BITMAP
0
ENDCHAR
STARTCHAR 182
ENCODING 182
SWIDTH 520 0
DWIDTH 1 0
BBX 1 1 0 -3
BITMAP
0
ENDCHAR
STARTCHAR 183
ENCODING 183
SWIDTH 520 0
DWIDTH 1 0
BBX 1 1 0 -3
BITMAP
0
ENDCHAR
STARTCHAR 184
ENCODING 184
SWIDTH 520 0
DWIDTH 1 0
BBX 1 1 0 -3
BITMAP
0
ENDCHAR
STARTCHAR 185
ENCODING 185
SWIDTH 520 0
DWIDTH 1 0
BBX 1 1 0 -3
BITMAP
0
ENDCHAR
STARTCHAR 186
ENCODING 186
SWIDTH 520 0
DWIDTH 1 0
BBX 1 1 0 -3
BITMAP
0
ENDCHAR
STARTCHAR 187
ENCODING 187
SWIDTH 520 0
DWIDTH 1 0
BBX 1 1 0 -3
BITMAP
0
ENDCHAR
STARTCHAR 188
ENCODING 188
SWIDTH 520 0
DWIDTH 1 0
BBX 1 1 0 -3
BITMAP
0
ENDCHAR
STARTCHAR 189
ENCODING 189
SWIDTH 520 0
DWIDTH 1 0
BBX 1 1 0 -3
BITMAP
0
ENDCHAR
STARTCHAR 190
ENCODING 190
SWIDTH 520 0
DWIDTH 1 0
BBX 1 1 0 -3
BITMAP
0
ENDCHAR
STARTCHAR 191
ENCODING 191
SWIDTH 520 0
DWIDTH 1 0
BBX 1 1 0 -3
BITMAP
0
ENDCHAR
STARTCHAR 192
ENCODING 192
SWIDTH 520 0
DWIDTH 1 0
BBX 1 1 0 -3
BITMAP
0
ENDCHAR
STARTCHAR 193
ENCODING 193
SWIDTH 520 0
DWIDTH 1 0
BBX 1 1 0 -3
BITMAP
0
ENDCHAR
STARTCHAR 194
ENCODING 194
SWIDTH 520 0
DWIDTH 1 0
BBX 1 1 0 -3
BITMAP
0
ENDCHAR
STARTCHAR 195
ENCODING 195
SWIDTH 520 0
DWIDTH 1 0
BBX 1 1 0 -3
BITMAP
0
ENDCHAR
STARTCHAR 196
ENCODING 196
SWIDTH 520 0
DWIDTH 1 0
BBX 1 1 0 -3
BITMAP
0
ENDCHAR
STARTCHAR 197
ENCODING 197
SWIDTH 520 0
DWIDTH 1 0
BBX 1 1 0 -3
BITMAP
0
ENDCHAR
STARTCHAR 198
ENCODING 198
SWIDTH 520 0
DWIDTH 1 0
BBX 1 1 0 -3
BITMAP
0
ENDCHAR
STARTCHAR 199
ENCODING 199
SWIDTH 520 0
DWIDTH 1 0
BBX 1 1 0 -3
BITMAP
0
ENDCHAR
STARTCHAR 200
ENCODING 200
SWIDTH 520 0
DWIDTH 1 0
BBX 1 1 0 -3
BITMAP
0
ENDCHAR
STARTCHAR 201
ENCODING 201
SWIDTH 520 0
DWIDTH 1 0
BBX 1 1 0 -3
BITMAP
0
ENDCHAR
STARTCHAR 202
ENCODING 202
SWIDTH 520 0
DWIDTH 1 0
BBX 1 1 0 -3
BITMAP
0
ENDCHAR
STARTCHAR 203
ENCODING 203
SWIDTH 520 0
DWIDTH 1 0
BBX 1 1 0 -3
BITMAP
0
ENDCHAR
STARTCHAR 204
ENCODING 204
SWIDTH 520 0
DWIDTH 1 0
BBX 1 1 0 -3
BITMAP
0
ENDCHAR
STARTCHAR 205
ENCODING 205
SWIDTH 520 0
DWIDTH 1 0
BBX 1 1 0 -3
BITMAP
0
ENDCHAR
STARTCHAR 206
ENCODING 206
SWIDTH 520 0
DWIDTH 1 0
BBX 1 1 0 -3
BITMAP
0
ENDCHAR
STARTCHAR 207
ENCODING 207
SWIDTH 520 0
DWIDTH 1 0
BBX 1 1 0 -3
BITMAP
0
ENDCHAR
STARTCHAR 208
ENCODING 208
SWIDTH 520 0
DWIDTH 1 0
BBX 1 1 0 -3
BITMAP
0
ENDCHAR
STARTCHAR 209
ENCODING 209
SWIDTH 520 0
DWIDTH 1 0
BBX 1 1 0 -3
BITMAP
0
ENDCHAR
STARTCHAR 210
ENCODING 210
SWIDTH 520 0
DWIDTH 1 0
BBX 1 1 0 -3
BITMAP
0
ENDCHAR
STARTCHAR 211
ENCODING 211
SWIDTH 520 0
DWIDTH 1 0
BBX 1 1 0 -3
BITMAP
0
ENDCHAR
STARTCHAR 212
ENCODING 212
SWIDTH 520 0
DWIDTH 1 0
BBX 1 1 0 -3
BITMAP
0
ENDCHAR
STARTCHAR 213
ENCODING 213
SWIDTH 520 0
DWIDTH 1 0
BBX 1 1 0 -3
BITMAP
0
ENDCHAR
STARTCHAR 214
ENCODING 214
SWIDTH 520 0
DWIDTH 1 0
BBX 1 1 0 -3
BITMAP
0
ENDCHAR
STARTCHAR 215
ENCODING 215
SWIDTH 520 0
DWIDTH 1 0
BBX 1 1 0 -3
BITMAP
0
ENDCHAR
STARTCHAR 216
ENCODING 216
SWIDTH 520 0
DWIDTH 1 0
BBX 1 1 0 -3
BITMAP
0
ENDCHAR
STARTCHAR 217
ENCODING 217
SWIDTH 520 0
DWIDTH 1 0
BBX 1 1 0 -3
BITMAP
0
ENDCHAR
STARTCHAR 218
ENCODING 218
SWIDTH 520 0
DWIDTH 1 0
BBX 1 1 0 -3
BITMAP
0
ENDCHAR
STARTCHAR 219
ENCODING 219
SWIDTH 520 0
DWIDTH 1 0
BBX 1 1 0 -3
BITMAP
0
ENDCHAR
STARTCHAR 220
ENCODING 220
SWIDTH 520 0
DWIDTH 1 0
BBX 1 1 0 -3
BITMAP
0
ENDCHAR
STARTCHAR 221
ENCODING 221
SWIDTH 520 0
DWIDTH 1 0
BBX 1 1 0 -3
BITMAP
0
ENDCHAR
STARTCHAR 222
ENCODING 222
SWIDTH 520 0
DWIDTH 1 0
BBX 1 1 0 -3
BITMAP
0
ENDCHAR
STARTCHAR 223
ENCODING 223
SWIDTH 520 0
DWIDTH 1 0
BBX 1 1 0 -3
BITMAP
0
ENDCHAR
STARTCHAR 224
ENCODING 224
SWIDTH 520 0
DWIDTH 1 0
BBX 1 1 0 -3
BITMAP
0
ENDCHAR
STARTCHAR 225
ENCODING 225
SWIDTH 520 0
DWIDTH 1 0
BBX 1 1 0 -3
BITMAP
0
ENDCHAR
STARTCHAR 226
ENCODING 226
SWIDTH 520 0
DWIDTH 1 0
BBX 1 1 0 -3
BITMAP
0
ENDCHAR
STARTCHAR 227
ENCODING 227
SWIDTH 520 0
DWIDTH 1 0
BBX 1 1 0 -3
BITMAP
0
ENDCHAR
STARTCHAR 228
ENCODING 228
SWIDTH 520 0
DWIDTH 1 0
BBX 1 1 0 -3
BITMAP
0
ENDCHAR
STARTCHAR 229
ENCODING 229
SWIDTH 520 0
DWIDTH 1 0
BBX 1 1 0 -3
BITMAP
0
ENDCHAR
STARTCHAR 230
ENCODING 230
SWIDTH 520 0
DWIDTH 1 0
BBX 1 1 0 -3
BITMAP
0
ENDCHAR
STARTCHAR 231
ENCODING 231
SWIDTH 520 0
DWIDTH 1 0
BBX 1 1 0 -3
BITMAP
0
ENDCHAR
STARTCHAR 232
ENCODING 232
SWIDTH 520 0
DWIDTH 1 0
BBX 1 1 0 -3
BITMAP
0
ENDCHAR
STARTCHAR 233
ENCODING 233
SWIDTH 520 0
DWIDTH 1 0
BBX 1 1 0 -3
BITMAP
0
ENDCHAR
STARTCHAR 234
ENCODING 234
SWIDTH 520 0
DWIDTH 1 0
BBX 1 1 0 -3
BITMAP
0
ENDCHAR
STARTCHAR 235
ENCODING 235
SWIDTH 520 0
DWIDTH 1 0
BBX 1 1 0 -3
BITMAP
0
ENDCHAR
STARTCHAR 236
ENCODING 236
SWIDTH 520 0
DWIDTH 1 0
BBX 1 1 0 -3
BITMAP
0
ENDCHAR
STARTCHAR 237
ENCODING 237
SWIDTH 520 0
DWIDTH 1 0
BBX 1 1 0 -3
BITMAP
0
ENDCHAR
STARTCHAR 238
ENCODING 238
SWIDTH 520 0
DWIDTH 1 0
BBX 1 1 0 -3
BITMAP
0
ENDCHAR
STARTCHAR 239
ENCODING 239
SWIDTH 520 0
DWIDTH 1 0
BBX 1 1 0 -3
BITMAP
0
ENDCHAR
STARTCHAR 240
ENCODING 240
SWIDTH 520 0
DWIDTH 1 0
BBX 1 1 0 -3
BITMAP
0
ENDCHAR
STARTCHAR 241
ENCODING 241
SWIDTH 520 0
DWIDTH 1 0
BBX 1 1 0 -3
BITMAP
0
ENDCHAR
STARTCHAR 242
ENCODING 242
SWIDTH 520 0
DWIDTH 1 0
BBX 1 1 0 -3
BITMAP
0
ENDCHAR
STARTCHAR 243
ENCODING 243
SWIDTH 520 0
DWIDTH 1 0
BBX 1 1 0 -3
BITMAP
0
ENDCHAR
STARTCHAR 244
ENCODING 244
SWIDTH 520 0
DWIDTH 1 0
BBX 1 1 0 -3
BITMAP
0
ENDCHAR
STARTCHAR 245
ENCODING 245
SWIDTH 520 0
DWIDTH 1 0
BBX 1 1 0 -3
BITMAP
0
ENDCHAR
STARTCHAR 246
ENCODING 246
SWIDTH 520 0
DWIDTH 1 0
BBX 1 1 0 -3
BITMAP
0
ENDCHAR
STARTCHAR 247
ENCODING 247
SWIDTH 520 0
DWIDTH 1 0
BBX 1 1 0 -3
BITMAP
0
ENDCHAR
STARTCHAR 248
ENCODING 248
SWIDTH 520 0
DWIDTH 1 0
BBX 1 1 0 -3
BITMAP
0
ENDCHAR
STARTCHAR 249
ENCODING 249
SWIDTH 520 0
DWIDTH 1 0
BBX 1 1 0 -3
BITMAP
0
ENDCHAR
STARTCHAR 250
ENCODING 250
SWIDTH 520 0
DWIDTH 1 0
BBX 1 1 0 -3
BITMAP
0
ENDCHAR
STARTCHAR 251
ENCODING 251
SWIDTH 520 0
DWIDTH 1 0
BBX 1 1 0 -3
BITMAP
0
ENDCHAR
STARTCHAR 252
ENCODING 252
SWIDTH 520 0
DWIDTH 1 0
BBX 1 1 0 -3
BITMAP
0
ENDCHAR
STARTCHAR 253
ENCODING 253
SWIDTH 520 0
DWIDTH 1 0
BBX 1 1 0 -3
BITMAP
0
ENDCHAR
STARTCHAR 254
ENCODING 254
SWIDTH 520 0
DWIDTH 1 0
BBX 1 1 0 -3
BITMAP
0
ENDCHAR
STARTCHAR 255
ENCODING 255
SWIDTH 520 0
DWIDTH 1 0
BBX 1 1 0 -3
BITMAP
0
ENDCHAR
ENDFONT
