STARTFONT 2.1
FONTBOUNDINGBOX 5 12 0 -3
STARTPROPERTIES 2
FONT_ASCENT 9
FONT_DESCENT 3
ENDPROPERTIES
CHARS 10
STARTCHAR 48
ENCODING 48
SWIDTH 520 0
DWIDTH 5 0
BBX 5 12 0 -3
BITMAP
00
00
70
88
88
88
88
88
88
70
00
00
ENDCHAR
STARTCHAR 49
ENCODING 49
SWIDTH 520 0
DWIDTH 5 0
BBX 5 12 0 -3
BITMAP
00
00
10
30
50
10
10
10
10
10
00
00
ENDCHAR
STARTCHAR 50
ENCODING 50
SWIDTH 520 0
DWIDTH 5 0
BBX 5 12 0 -3
BITMAP
00
00
70
88
08
08
10
20
40
f8
00
00
ENDCHAR
STARTCHAR 51
ENCODING 51
SWIDTH 520 0
DWIDTH 5 0
BBX 5 12 0 -3
BITMAP
00
00
70
88
08
30
08
08
88
70
00
00
ENDCHAR
STARTCHAR 52
ENCODING 52
SWIDTH 520 0
DWIDTH 5 0
BBX 5 12 0 -3
BITMAP
00
00
10
30
50
50
90
f8
10
10
00
00
ENDCHAR
STARTCHAR 53
ENCODING 53
SWIDTH 520 0
DWIDTH 5 0
BBX 5 12 0 -3
BITMAP
00
00
f8
80
80
f0
08
08
88
70
00
00
ENDCHAR
STARTCHAR 54
ENCODING 54
SWIDTH 520 0
DWIDTH 5 0
BBX 5 12 0 -3
BITMAP
00
00
70
88
80
f0
88
88
88
70
00
00
ENDCHAR
STARTCHAR 55
ENCODING 55
SWIDTH 520 0
DWIDTH 5 0
BBX 5 12 0 -3
BITMAP
00
00
f8
10
10
20
20
40
40
40
00
00
ENDCHAR
STARTCHAR 56
ENCODING 56
SWIDTH 520 0
DWIDTH 5 0
BBX 5 12 0 -3
BITMAP
00
00
70
88
88
70
88
88
88
70
00
00
ENDCHAR
STARTCHAR 57
ENCODING 57
SWIDTH 520 0
DWIDTH 5 0
BBX 5 12 0 -3
BITMAP
00
00
70
88
88
88
78
08
88
70
00
00
ENDCHAR
ENDFONT