STARTFONT 2.1
COMMENT Product Version MAUI VERSION
FONTBOUNDINGBOX 23 24 -2 -3
STARTPROPERTIES 2
FONT_ASCENT 19
FONT_DESCENT 5
ENDPROPERTIES
CHARS 217
STARTCHAR 32
ENCODING 32
SWIDTH 520 0 
DWIDTH 7 0
BBX 7 24 0 -3
BITMAP
00
00
00
00
00
00
00
00
00
00
00
00
00
00
00
00
00
00
00
00
00
00
00
00
ENDCHAR
STARTCHAR 33
ENCODING 33
SWIDTH 520 0 
DWIDTH 4 0
BBX 4 24 0 -3
BITMAP
00
00
00
60
60
60
60
60
60
60
60
60
60
60
60
00
60
60
60
00
00
00
00
00
ENDCHAR
STARTCHAR 34
ENCODING 34
SWIDTH 520 0 
DWIDTH 16 0
BBX 16 24 0 -3
BITMAP
0000
0000
0000
0000
0660
0660
0660
0000
0000
0000
0000
0000
0000
0000
0000
0000
0000
0000
0000
0000
0000
0000
0000
0000
ENDCHAR
STARTCHAR 35
ENCODING 35
SWIDTH 520 0 
DWIDTH 13 0
BBX 13 24 0 -3
BITMAP
0000
0000
0000
0330
0330
0660
0660
7FF8
7FF8
0CC0
1DC0
1980
7FF8
7FF8
1980
3B80
3300
7300
7300
0000
0000
0000
0000
0000
ENDCHAR
STARTCHAR 36
ENCODING 36
SWIDTH 520 0 
DWIDTH 11 0
BBX 11 24 0 -3
BITMAP
0000
0000
0600
1F00
7FC0
66C0
C660
C660
C600
E600
7F00
3FC0
07E0
0660
E660
E660
76C0
7FC0
1F00
0600
0600
0000
0000
0000
ENDCHAR
STARTCHAR 37
ENCODING 37
SWIDTH 520 0 
DWIDTH 13 0
BBX 13 24 0 -3
BITMAP
0000
0000
0000
0000
7060
D860
D8C0
D8C0
D980
D980
7300
0300
0600
0670
0CD8
0CD8
18D8
18D8
30D8
3070
0000
0000
0000
0000
ENDCHAR
STARTCHAR 38
ENCODING 38
SWIDTH 520 0 
DWIDTH 12 0
BBX 12 24 0 -3
BITMAP
0000
0000
0000
0E00
1F00
3180
3180
3180
3380
1F00
0E00
3F00
7760
E3E0
C1C0
C1C0
E3E0
7F70
3E30
0000
0000
0000
0000
0000
ENDCHAR
STARTCHAR 39
ENCODING 39
SWIDTH 520 0 
DWIDTH 2 0
BBX 2 24 0 -3
BITMAP
00
C0
C0
40
00
00
00
00
00
00
00
00
00
00
00
00
00
00
00
00
00
00
00
00
ENDCHAR
STARTCHAR 40
ENCODING 40
SWIDTH 520 0 
DWIDTH 4 0
BBX 4 24 0 -3
BITMAP
00
20
40
C0
C0
C0
C0
C0
C0
C0
C0
C0
C0
C0
C0
C0
C0
C0
C0
C0
40
20
00
00
ENDCHAR
STARTCHAR 41
ENCODING 41
SWIDTH 520 0 
DWIDTH 4 0
BBX 4 24 0 -3
BITMAP
00
40
20
30
30
30
30
30
30
30
30
30
30
30
30
30
30
30
30
30
20
40
00
00
ENDCHAR
STARTCHAR 42
ENCODING 42
SWIDTH 520 0 
DWIDTH 10 0
BBX 10 24 0 -3
BITMAP
0000
0000
0000
C180
6300
3600
1C00
FF80
1C00
3600
6300
C180
0000
0000
0000
0000
0000
0000
0000
0000
0000
0000
0000
0000
ENDCHAR
STARTCHAR 43
ENCODING 43
SWIDTH 520 0 
DWIDTH 13 0
BBX 13 24 0 -3
BITMAP
0000
0000
0000
0000
0000
0600
0600
0600
0600
0600
FFF0
FFF0
0600
0600
0600
0600
0600
0000
0000
0000
0000
0000
0000
0000
ENDCHAR
STARTCHAR 44
ENCODING 44
SWIDTH 520 0 
DWIDTH 4 0
BBX 4 24 0 -3
BITMAP
00
00
00
00
00
00
00
00
00
00
00
00
00
00
00
00
00
60
60
20
C0
00
00
00
ENDCHAR
STARTCHAR 45
ENCODING 45
SWIDTH 520 0 
DWIDTH 8 0
BBX 8 24 0 -3
BITMAP
00
00
00
00
00
00
00
00
00
00
00
FF
FF
00
00
00
00
00
00
00
00
00
00
00
ENDCHAR
STARTCHAR 46
ENCODING 46
SWIDTH 520 0 
DWIDTH 2 0
BBX 2 24 0 -3
BITMAP
00
00
00
00
00
00
00
00
00
00
00
00
00
00
00
00
00
C0
C0
C0
00
00
00
00
ENDCHAR
STARTCHAR 47
ENCODING 47
SWIDTH 520 0 
DWIDTH 7 0
BBX 7 24 0 -3
BITMAP
00
00
06
06
0C
0C
0C
18
18
18
38
30
30
30
60
60
60
C0
C0
00
00
00
00
00
ENDCHAR
STARTCHAR 48
ENCODING 48
SWIDTH 520 0 
DWIDTH 10 0
BBX 10 24 0 -3
BITMAP
0000
0000
0000
7F80
FFC0
C0C0
C0C0
C0C0
C0C0
C0C0
C0C0
C0C0
C0C0
C0C0
C0C0
C0C0
C0C0
FFC0
7F80
0000
0000
0000
0000
0000
ENDCHAR
STARTCHAR 49
ENCODING 49
SWIDTH 520 0 
DWIDTH 5 0
BBX 5 24 0 -3
BITMAP
00
00
00
18
38
78
F8
D8
18
18
18
18
18
18
18
18
18
18
18
00
00
00
00
00
ENDCHAR
STARTCHAR 50
ENCODING 50
SWIDTH 520 0 
DWIDTH 10 0
BBX 10 24 0 -3
BITMAP
0000
0000
0000
3F00
7F80
E1C0
C0C0
C0C0
00C0
00C0
01C0
0380
0700
0E00
1C00
3800
7000
FFC0
FFC0
0000
0000
0000
0000
0000
ENDCHAR
STARTCHAR 51
ENCODING 51
SWIDTH 520 0 
DWIDTH 10 0
BBX 10 24 0 -3
BITMAP
0000
0000
0000
7F80
FFC0
C0C0
C0C0
00C0
00C0
00C0
3FC0
3F80
00C0
00C0
00C0
C0C0
C0C0
FFC0
7F80
0000
0000
0000
0000
0000
ENDCHAR
STARTCHAR 52
ENCODING 52
SWIDTH 520 0 
DWIDTH 11 0
BBX 11 24 0 -3
BITMAP
0000
0000
0000
0380
0780
0780
0D80
0D80
1980
1980
3180
3180
6180
6180
FFE0
FFE0
0180
0180
0180
0000
0000
0000
0000
0000
ENDCHAR
STARTCHAR 53
ENCODING 53
SWIDTH 520 0 
DWIDTH 10 0
BBX 10 24 0 -3
BITMAP
0000
0000
0000
FFC0
FFC0
C000
C000
C000
C000
FF80
FFC0
00C0
00C0
00C0
00C0
C0C0
C0C0
FFC0
7F80
0000
0000
0000
0000
0000
ENDCHAR
STARTCHAR 54
ENCODING 54
SWIDTH 520 0 
DWIDTH 10 0
BBX 10 24 0 -3
BITMAP
0000
0000
0000
7F80
FFC0
C0C0
C0C0
C000
C000
C000
FF80
FFC0
C0C0
C0C0
C0C0
C0C0
C0C0
FFC0
7F80
0000
0000
0000
0000
0000
ENDCHAR
STARTCHAR 55
ENCODING 55
SWIDTH 520 0 
DWIDTH 9 0
BBX 9 24 0 -3
BITMAP
0000
0000
0000
FF80
FF80
0180
0180
0300
0300
0300
0600
0600
0600
0C00
0C00
0C00
1800
1800
1800
0000
0000
0000
0000
0000
ENDCHAR
STARTCHAR 56
ENCODING 56
SWIDTH 520 0 
DWIDTH 10 0
BBX 10 24 0 -3
BITMAP
0000
0000
0000
7F80
FFC0
C0C0
C0C0
C0C0
C0C0
C0C0
FFC0
7F80
C0C0
C0C0
C0C0
C0C0
C0C0
FFC0
7F80
0000
0000
0000
0000
0000
ENDCHAR
STARTCHAR 57
ENCODING 57
SWIDTH 520 0 
DWIDTH 10 0
BBX 10 24 0 -3
BITMAP
0000
0000
0000
7F80
FFC0
C0C0
C0C0
C0C0
C0C0
C0C0
C0C0
FFC0
7FC0
00C0
00C0
C0C0
C0C0
FFC0
7F80
0000
0000
0000
0000
0000
ENDCHAR
STARTCHAR 58
ENCODING 58
SWIDTH 520 0 
DWIDTH 4 0
BBX 4 24 0 -3
BITMAP
00
00
00
00
00
00
00
00
00
00
00
60
60
00
00
00
00
60
60
00
00
00
00
00
ENDCHAR
STARTCHAR 59
ENCODING 59
SWIDTH 520 0 
DWIDTH 5 0
BBX 5 24 0 -3
BITMAP
00
00
00
00
00
00
00
00
00
00
00
00
00
30
30
00
00
00
00
30
30
10
10
60
ENDCHAR
STARTCHAR 60
ENCODING 60
SWIDTH 520 0 
DWIDTH 8 0
BBX 8 24 0 -3
BITMAP
00
00
00
00
00
00
07
0E
1C
38
70
E0
70
38
1C
0E
07
00
00
00
00
00
00
00
ENDCHAR
STARTCHAR 61
ENCODING 61
SWIDTH 520 0 
DWIDTH 9 0
BBX 9 24 0 -3
BITMAP
0000
0000
0000
0000
0000
0000
0000
0000
FF80
FF80
0000
0000
FF80
FF80
0000
0000
0000
0000
0000
0000
0000
0000
0000
0000
ENDCHAR
STARTCHAR 62
ENCODING 62
SWIDTH 520 0 
DWIDTH 8 0
BBX 8 24 0 -3
BITMAP
00
00
00
00
00
00
E0
70
38
1C
0E
07
0E
1C
38
70
E0
00
00
00
00
00
00
00
ENDCHAR
STARTCHAR 63
ENCODING 63
SWIDTH 520 0 
DWIDTH 10 0
BBX 10 24 0 -3
BITMAP
0000
0000
0000
3F00
7F80
E1C0
C0C0
00C0
00C0
01C0
0380
0700
0E00
1C00
1800
1800
0000
1800
1800
0000
0000
0000
0000
0000
ENDCHAR
STARTCHAR 64
ENCODING 64
SWIDTH 520 0 
DWIDTH 15 0
BBX 15 24 0 -3
BITMAP
0000
0000
0000
07E0
1FF8
381C
73BC
6FF6
EC76
D866
D866
D866
D8EC
DFF8
6F70
7006
381C
1FF8
07E0
0000
0000
0000
0000
0000
ENDCHAR
STARTCHAR 65
ENCODING 65
SWIDTH 520 0 
DWIDTH 15 0
BBX 15 24 0 -3
BITMAP
0000
0000
0000
0380
0380
06C0
06C0
0EE0
0C60
0C60
1830
1830
3FF8
3FF8
3018
600C
600C
C006
C006
0000
0000
0000
0000
0000
ENDCHAR
STARTCHAR 66
ENCODING 66
SWIDTH 520 0 
DWIDTH 12 0
BBX 12 24 0 -3
BITMAP
0000
0000
0000
FF80
FFE0
C060
C030
C030
C030
C060
FFC0
FFE0
C060
C030
C030
C030
C070
FFE0
FFC0
0000
0000
0000
0000
0000
ENDCHAR
STARTCHAR 67
ENCODING 67
SWIDTH 520 0 
DWIDTH 12 0
BBX 12 24 0 -3
BITMAP
0000
0000
0000
3FC0
7FE0
E070
C030
C000
C000
C000
C000
C000
C000
C000
C000
C030
E070
7FE0
3FC0
0000
0000
0000
0000
0000
ENDCHAR
STARTCHAR 68
ENCODING 68
SWIDTH 520 0 
DWIDTH 12 0
BBX 12 24 0 -3
BITMAP
0000
0000
0000
FE00
FF80
C1C0
C0E0
C060
C030
C030
C030
C030
C030
C070
C060
C0E0
C1C0
FF80
FE00
0000
0000
0000
0000
0000
ENDCHAR
STARTCHAR 69
ENCODING 69
SWIDTH 520 0 
DWIDTH 12 0
BBX 12 24 0 -3
BITMAP
0000
0000
0000
FFF0
FFF0
C000
C000
C000
C000
C000
FFE0
FFE0
C000
C000
C000
C000
C000
FFF0
FFF0
0000
0000
0000
0000
0000
ENDCHAR
STARTCHAR 70
ENCODING 70
SWIDTH 520 0 
DWIDTH 11 0
BBX 11 24 0 -3
BITMAP
0000
0000
0000
FFE0
FFE0
C000
C000
C000
C000
C000
FFE0
FFE0
C000
C000
C000
C000
C000
C000
C000
0000
0000
0000
0000
0000
ENDCHAR
STARTCHAR 71
ENCODING 71
SWIDTH 520 0 
DWIDTH 12 0
BBX 12 24 0 -3
BITMAP
0000
0000
0000
3FC0
7FE0
E070
C030
C000
C000
C000
C3F0
C3F0
C030
C030
C030
C030
E070
7FE0
3FC0
0000
0000
0000
0000
0000
ENDCHAR
STARTCHAR 72
ENCODING 72
SWIDTH 520 0 
DWIDTH 12 0
BBX 12 24 0 -3
BITMAP
0000
0000
0000
C030
C030
C030
C030
C030
C030
C030
FFF0
FFF0
C030
C030
C030
C030
C030
C030
C030
0000
0000
0000
0000
0000
ENDCHAR
STARTCHAR 73
ENCODING 73
SWIDTH 520 0 
DWIDTH 2 0
BBX 2 24 0 -3
BITMAP
00
00
00
C0
C0
C0
C0
C0
C0
C0
C0
C0
C0
C0
C0
C0
C0
C0
C0
00
00
00
00
00
ENDCHAR
STARTCHAR 74
ENCODING 74
SWIDTH 520 0 
DWIDTH 9 0
BBX 9 24 0 -3
BITMAP
0000
0000
0000
0180
0180
0180
0180
0180
0180
0180
0180
0180
0180
0180
C180
C180
E380
7F00
3E00
0000
0000
0000
0000
0000
ENDCHAR
STARTCHAR 75
ENCODING 75
SWIDTH 520 0 
DWIDTH 12 0
BBX 12 24 0 -3
BITMAP
0000
0000
0000
C070
C0E0
C1C0
C380
C700
CE00
DC00
F800
F800
DC00
CE00
C700
C380
C1C0
C0E0
C070
0000
0000
0000
0000
0000
ENDCHAR
STARTCHAR 76
ENCODING 76
SWIDTH 520 0 
DWIDTH 10 0
BBX 10 24 0 -3
BITMAP
0000
0000
0000
C000
C000
C000
C000
C000
C000
C000
C000
C000
C000
C000
C000
C000
C000
FFC0
FFC0
0000
0000
0000
0000
0000
ENDCHAR
STARTCHAR 77
ENCODING 77
SWIDTH 520 0 
DWIDTH 15 0
BBX 15 24 0 -3
BITMAP
0000
0000
0000
C006
F01E
F01E
F01E
D836
D836
D836
CC66
CC66
CC66
C6C6
C6C6
C6C6
C6C6
C386
C386
0000
0000
0000
0000
0000
ENDCHAR
STARTCHAR 78
ENCODING 78
SWIDTH 520 0 
DWIDTH 12 0
BBX 12 24 0 -3
BITMAP
0000
0000
0000
C030
F030
F030
D830
D830
CC30
CC30
C630
C630
C330
C330
C1B0
C1B0
C0F0
C0F0
C070
0000
0000
0000
0000
0000
ENDCHAR
STARTCHAR 79
ENCODING 79
SWIDTH 520 0 
DWIDTH 12 0
BBX 12 24 0 -3
BITMAP
0000
0000
0000
3FC0
7FE0
E070
C030
C030
C030
C030
C030
C030
C030
C030
C030
C030
E070
7FE0
3FC0
0000
0000
0000
0000
0000
ENDCHAR
STARTCHAR 80
ENCODING 80
SWIDTH 520 0 
DWIDTH 12 0
BBX 12 24 0 -3
BITMAP
0000
0000
0000
FFC0
FFE0
C070
C030
C030
C030
C030
C070
FFE0
FFC0
C000
C000
C000
C000
C000
C000
0000
0000
0000
0000
0000
ENDCHAR
STARTCHAR 81
ENCODING 81
SWIDTH 520 0 
DWIDTH 14 0
BBX 14 24 0 -3
BITMAP
0000
0000
0000
3FC0
7FE0
E070
C030
C030
C030
C030
C030
C030
C030
C030
C1B0
C1B0
E070
7FFC
3FCC
0000
0000
0000
0000
0000
ENDCHAR
STARTCHAR 82
ENCODING 82
SWIDTH 520 0 
DWIDTH 12 0
BBX 12 24 0 -3
BITMAP
0000
0000
0000
FF80
FFC0
C0E0
C060
C060
C060
C0E0
FFC0
FF80
C300
C380
C180
C1C0
C0C0
C0E0
C070
0000
0000
0000
0000
0000
ENDCHAR
STARTCHAR 83
ENCODING 83
SWIDTH 520 0 
DWIDTH 12 0
BBX 12 24 0 -3
BITMAP
0000
0000
0000
1F80
7FE0
6060
C030
C030
C000
E000
7F80
3FE0
00F0
0030
E030
E030
7060
7FE0
1F80
0000
0000
0000
0000
0000
ENDCHAR
STARTCHAR 84
ENCODING 84
SWIDTH 520 0 
DWIDTH 12 0
BBX 12 24 0 -3
BITMAP
0000
0000
0000
FFF0
FFF0
0600
0600
0600
0600
0600
0600
0600
0600
0600
0600
0600
0600
0600
0600
0000
0000
0000
0000
0000
ENDCHAR
STARTCHAR 85
ENCODING 85
SWIDTH 520 0 
DWIDTH 12 0
BBX 12 24 0 -3
BITMAP
0000
0000
0000
C030
C030
C030
C030
C030
C030
C030
C030
C030
C030
C030
C030
6060
70E0
3FC0
1F80
0000
0000
0000
0000
0000
ENDCHAR
STARTCHAR 86
ENCODING 86
SWIDTH 520 0 
DWIDTH 13 0
BBX 13 24 0 -3
BITMAP
0000
0000
0000
C018
C018
E038
6030
6030
7070
3060
3060
18C0
18C0
18C0
0D80
0D80
0F80
0700
0700
0000
0000
0000
0000
0000
ENDCHAR
STARTCHAR 87
ENCODING 87
SWIDTH 520 0 
DWIDTH 23 0
BBX 23 24 0 -3
BITMAP
000000
000000
000000
C03806
C03806
E07C0E
606C0C
606C0C
70EE1C
30C618
30C618
198330
198330
198330
0F01E0
0F01E0
0F01E0
0600C0
0600C0
000000
000000
000000
000000
000000
ENDCHAR
STARTCHAR 88
ENCODING 88
SWIDTH 520 0 
DWIDTH 12 0
BBX 12 24 0 -3
BITMAP
0000
0000
0000
E070
6060
70E0
30C0
39C0
1980
1F80
0F00
0F00
1F80
1980
39C0
30C0
70E0
6060
E070
0000
0000
0000
0000
0000
ENDCHAR
STARTCHAR 89
ENCODING 89
SWIDTH 520 0 
DWIDTH 12 0
BBX 12 24 0 -3
BITMAP
0000
0000
0000
C030
6060
6060
30C0
30C0
1980
1980
0F00
0F00
0600
0600
0600
0600
0600
0600
0600
0000
0000
0000
0000
0000
ENDCHAR
STARTCHAR 90
ENCODING 90
SWIDTH 520 0 
DWIDTH 12 0
BBX 12 24 0 -3
BITMAP
0000
0000
0000
FFF0
FFF0
0030
0070
00E0
01C0
0380
0700
0E00
1C00
3800
7000
E000
C000
FFF0
FFF0
0000
0000
0000
0000
0000
ENDCHAR
STARTCHAR 91
ENCODING 91
SWIDTH 520 0 
DWIDTH 5 0
BBX 5 24 0 -3
BITMAP
00
F0
F0
C0
C0
C0
C0
C0
C0
C0
C0
C0
C0
C0
C0
C0
C0
C0
C0
C0
F0
F0
00
00
ENDCHAR
STARTCHAR 92
ENCODING 92
SWIDTH 520 0 
DWIDTH 7 0
BBX 7 24 0 -3
BITMAP
00
00
C0
C0
60
60
60
30
30
30
38
18
18
18
0C
0C
0C
06
06
00
00
00
00
00
ENDCHAR
STARTCHAR 93
ENCODING 93
SWIDTH 520 0 
DWIDTH 5 0
BBX 5 24 0 -3
BITMAP
00
78
78
18
18
18
18
18
18
18
18
18
18
18
18
18
18
18
18
18
78
78
00
00
ENDCHAR
STARTCHAR 94
ENCODING 94
SWIDTH 520 0 
DWIDTH 8 0
BBX 8 24 0 -3
BITMAP
00
18
3C
3C
66
66
E7
C3
C3
00
00
00
00
00
00
00
00
00
00
00
00
00
00
00
ENDCHAR
STARTCHAR 95
ENCODING 95
SWIDTH 520 0 
DWIDTH 7 0
BBX 7 24 0 -3
BITMAP
00
00
00
00
00
00
00
00
00
00
00
00
00
00
00
00
00
00
00
00
FE
FE
00
00
ENDCHAR
STARTCHAR 96
ENCODING 96
SWIDTH 520 0 
DWIDTH 3 0
BBX 3 24 0 -3
BITMAP
00
00
00
80
C0
60
20
00
00
00
00
00
00
00
00
00
00
00
00
00
00
00
00
00
ENDCHAR
STARTCHAR 97
ENCODING 97
SWIDTH 520 0 
DWIDTH 9 0
BBX 9 24 0 -3
BITMAP
0000
0000
0000
0000
0000
0000
0000
7E00
7F00
0180
0180
3F80
7F80
C180
C180
C180
C380
7F80
3D80
0000
0000
0000
0000
0000
ENDCHAR
STARTCHAR 98
ENCODING 98
SWIDTH 520 0 
DWIDTH 9 0
BBX 9 24 0 -3
BITMAP
0000
0000
0000
C000
C000
C000
C000
DE00
FF00
E380
C180
C180
C180
C180
C180
C180
E380
FF00
DE00
0000
0000
0000
0000
0000
ENDCHAR
STARTCHAR 99
ENCODING 99
SWIDTH 520 0 
DWIDTH 9 0
BBX 9 24 0 -3
BITMAP
0000
0000
0000
0000
0000
0000
0000
3E00
7F00
E380
C180
C000
C000
C000
C000
C180
E380
7F00
3E00
0000
0000
0000
0000
0000
ENDCHAR
STARTCHAR 100
ENCODING 100
SWIDTH 520 0 
DWIDTH 9 0
BBX 9 24 0 -3
BITMAP
0000
0000
0000
0180
0180
0180
0180
3D80
7F80
E380
C180
C180
C180
C180
C180
C180
E380
7F80
3D80
0000
0000
0000
0000
0000
ENDCHAR
STARTCHAR 101
ENCODING 101
SWIDTH 520 0 
DWIDTH 9 0
BBX 9 24 0 -3
BITMAP
0000
0000
0000
0000
0000
0000
0000
3E00
7F00
E380
C180
C180
FF80
FF80
C000
C180
E380
7F00
3E00
0000
0000
0000
0000
0000
ENDCHAR
STARTCHAR 102
ENCODING 102
SWIDTH 520 0 
DWIDTH 7 0
BBX 7 24 0 -3
BITMAP
00
00
00
1E
3E
30
30
FE
FE
30
30
30
30
30
30
30
30
30
30
00
00
00
00
00
ENDCHAR
STARTCHAR 103
ENCODING 103
SWIDTH 520 0 
DWIDTH 9 0
BBX 9 24 0 -3
BITMAP
0000
0000
0000
0000
0000
0000
0000
3D80
7F80
E380
C180
C180
C180
C180
C180
C180
E380
7F80
3D80
0180
E380
7F00
3E00
0000
ENDCHAR
STARTCHAR 104
ENCODING 104
SWIDTH 520 0 
DWIDTH 9 0
BBX 9 24 0 -3
BITMAP
0000
0000
0000
C000
C000
C000
C000
DE00
FF00
E380
C180
C180
C180
C180
C180
C180
C180
C180
C180
0000
0000
0000
0000
0000
ENDCHAR
STARTCHAR 105
ENCODING 105
SWIDTH 520 0 
DWIDTH 2 0
BBX 2 24 0 -3
BITMAP
00
00
00
C0
C0
00
00
C0
C0
C0
C0
C0
C0
C0
C0
C0
C0
C0
C0
00
00
00
00
00
ENDCHAR
STARTCHAR 106
ENCODING 106
SWIDTH 520 0 
DWIDTH 4 0
BBX 4 24 0 -3
BITMAP
00
00
00
00
30
30
00
30
30
30
30
30
30
30
30
30
30
30
30
30
30
F0
E0
00
ENDCHAR
STARTCHAR 107
ENCODING 107
SWIDTH 520 0 
DWIDTH 9 0
BBX 9 24 0 -3
BITMAP
0000
0000
0000
0000
C000
C000
C000
C380
C700
CE00
DC00
F800
F000
F000
F800
DC00
CE00
C700
C380
0000
0000
0000
0000
0000
ENDCHAR
STARTCHAR 108
ENCODING 108
SWIDTH 520 0 
DWIDTH 4 0
BBX 4 24 0 -3
BITMAP
00
00
00
F0
F0
30
30
30
30
30
30
30
30
30
30
30
30
30
30
00
00
00
00
00
ENDCHAR
STARTCHAR 109
ENCODING 109
SWIDTH 520 0 
DWIDTH 16 0
BBX 16 24 0 -3
BITMAP
0000
0000
0000
0000
0000
0000
0000
CE3C
FF7E
E3C7
C183
C183
C183
C183
C183
C183
C183
C183
C183
0000
0000
0000
0000
0000
ENDCHAR
STARTCHAR 110
ENCODING 110
SWIDTH 520 0 
DWIDTH 9 0
BBX 9 24 0 -3
BITMAP
0000
0000
0000
0000
0000
0000
0000
CE00
DF00
F380
E180
C180
C180
C180
C180
C180
C180
C180
C180
0000
0000
0000
0000
0000
ENDCHAR
STARTCHAR 111
ENCODING 111
SWIDTH 520 0 
DWIDTH 9 0
BBX 9 24 0 -3
BITMAP
0000
0000
0000
0000
0000
0000
0000
3E00
7F00
E380
C180
C180
C180
C180
C180
C180
E380
7F00
3E00
0000
0000
0000
0000
0000
ENDCHAR
STARTCHAR 112
ENCODING 112
SWIDTH 520 0 
DWIDTH 9 0
BBX 9 24 0 -3
BITMAP
0000
0000
0000
0000
0000
0000
0000
DE00
FF00
E380
C180
C180
C180
C180
C180
C180
E380
FF00
DE00
C000
C000
C000
C000
0000
ENDCHAR
STARTCHAR 113
ENCODING 113
SWIDTH 520 0 
DWIDTH 9 0
BBX 9 24 0 -3
BITMAP
0000
0000
0000
0000
0000
0000
0000
3D80
7F80
E380
C180
C180
C180
C180
C180
C180
E380
7F80
3D80
0180
0180
0180
0180
0000
ENDCHAR
STARTCHAR 114
ENCODING 114
SWIDTH 520 0 
DWIDTH 6 0
BBX 6 24 0 -3
BITMAP
00
00
00
00
00
00
00
DC
FC
E0
C0
C0
C0
C0
C0
C0
C0
C0
C0
00
00
00
00
00
ENDCHAR
STARTCHAR 115
ENCODING 115
SWIDTH 520 0 
DWIDTH 9 0
BBX 9 24 0 -3
BITMAP
0000
0000
0000
0000
0000
0000
0000
3E00
7F00
E380
C180
E000
7C00
1F00
0380
C180
E380
7F00
3E00
0000
0000
0000
0000
0000
ENDCHAR
STARTCHAR 116
ENCODING 116
SWIDTH 520 0 
DWIDTH 7 0
BBX 7 24 0 -3
BITMAP
00
00
00
00
30
30
30
FE
FE
30
30
30
30
30
30
30
30
3E
1E
00
00
00
00
00
ENDCHAR
STARTCHAR 117
ENCODING 117
SWIDTH 520 0 
DWIDTH 9 0
BBX 9 24 0 -3
BITMAP
0000
0000
0000
0000
0000
0000
0000
C180
C180
C180
C180
C180
C180
C180
C180
C180
E380
7F80
3D80
0000
0000
0000
0000
0000
ENDCHAR
STARTCHAR 118
ENCODING 118
SWIDTH 520 0 
DWIDTH 9 0
BBX 9 24 0 -3
BITMAP
0000
0000
0000
0000
0000
0000
0000
C180
C180
C180
6300
6300
6300
3600
3600
3E00
1C00
1C00
1C00
0000
0000
0000
0000
0000
ENDCHAR
STARTCHAR 119
ENCODING 119
SWIDTH 520 0 
DWIDTH 17 0
BBX 17 24 0 -3
BITMAP
000000
000000
000000
000000
000000
000000
000000
C1C180
C1C180
C1C180
636300
636300
636300
363600
363600
3E3E00
1C1C00
1C1C00
1C1C00
000000
000000
000000
000000
000000
ENDCHAR
STARTCHAR 120
ENCODING 120
SWIDTH 520 0 
DWIDTH 11 0
BBX 11 24 0 -3
BITMAP
0000
0000
0000
0000
0000
0000
0000
E0E0
60C0
71C0
3180
3B80
1F00
1F00
3B80
3180
71C0
60C0
E0E0
0000
0000
0000
0000
0000
ENDCHAR
STARTCHAR 121
ENCODING 121
SWIDTH 520 0 
DWIDTH 9 0
BBX 9 24 0 -3
BITMAP
0000
0000
0000
0000
0000
0000
0000
C180
C180
C180
6300
6300
6300
3600
3600
3600
1C00
1C00
1C00
1800
1800
7000
7000
0000
ENDCHAR
STARTCHAR 122
ENCODING 122
SWIDTH 520 0 
DWIDTH 9 0
BBX 9 24 0 -3
BITMAP
0000
0000
0000
0000
0000
0000
0000
FF80
FF80
0380
0700
0E00
1C00
3800
7000
E000
E000
FF80
FF80
0000
0000
0000
0000
0000
ENDCHAR
STARTCHAR 123
ENCODING 123
SWIDTH 520 0 
DWIDTH 5 0
BBX 5 24 0 -3
BITMAP
00
30
60
60
60
60
60
60
60
60
C0
C0
60
60
60
60
60
60
60
60
60
30
00
00
ENDCHAR
STARTCHAR 124
ENCODING 124
SWIDTH 520 0 
DWIDTH 2 0
BBX 2 24 0 -3
BITMAP
00
C0
C0
C0
C0
C0
C0
C0
C0
C0
C0
C0
C0
C0
C0
C0
C0
C0
C0
C0
C0
00
00
00
ENDCHAR
STARTCHAR 125
ENCODING 125
SWIDTH 520 0 
DWIDTH 5 0
BBX 5 24 0 -3
BITMAP
00
60
30
30
30
30
30
30
30
30
18
18
30
30
30
30
30
30
30
30
30
60
00
00
ENDCHAR
STARTCHAR 126
ENCODING 126
SWIDTH 520 0 
DWIDTH 10 0
BBX 10 24 0 -3
BITMAP
0000
0000
0000
0000
0000
0000
0000
0000
0000
0000
3E40
4F80
0000
0000
0000
0000
0000
0000
0000
0000
0000
0000
0000
0000
ENDCHAR
STARTCHAR 133
ENCODING 133
SWIDTH 520 0 
DWIDTH 10 0
BBX 10 24 0 -3
BITMAP
0000
0000
0000
0000
00C0
00C0
00C0
00C0
00C0
10C0
30C0
70C0
FFC0
7FC0
3000
1000
0000
0000
0000
0000
0000
0000
0000
0000
ENDCHAR
STARTCHAR 134
ENCODING 134
SWIDTH 520 0 
DWIDTH 7 0
BBX 7 24 0 -3
BITMAP
00
00
00
00
00
00
00
00
00
00
00
00
00
00
C6
C6
C6
FE
FE
00
00
00
00
00
ENDCHAR
STARTCHAR 135
ENCODING 135
SWIDTH 520 0 
DWIDTH 17 0
BBX 17 24 0 -3
BITMAP
000000
000000
000000
000000
000000
000000
000000
820000
C60000
C60000
AA0000
AAEB00
931480
931480
931480
831480
831480
831480
82E480
000000
000000
000000
000000
000000
ENDCHAR
STARTCHAR 136
ENCODING 136
SWIDTH 520 0 
DWIDTH 17 0
BBX 17 24 0 -3
BITMAP
000000
000000
000000
000000
000000
000000
000000
F80000
200000
200000
200000
242700
242880
242F00
242800
242800
242880
246880
23A700
000000
000000
000000
000000
000000
ENDCHAR
STARTCHAR 137
ENCODING 137
SWIDTH 520 0 
DWIDTH 17 0
BBX 17 24 0 -3
BITMAP
000000
000000
000000
000000
000000
000000
000000
820080
820080
920080
920080
54F380
550C80
55FC80
550480
6D0480
290C80
290C80
28F380
000000
000000
000000
000000
000000
ENDCHAR
STARTCHAR 138
ENCODING 138
SWIDTH 520 0 
DWIDTH 17 0
BBX 17 24 0 -3
BITMAP
000000
000000
000000
000000
000000
000000
000000
FE0000
220000
220000
220000
23C900
222900
222900
222900
222900
222900
222900
222680
000000
000000
000000
000000
000000
ENDCHAR
STARTCHAR 139
ENCODING 139
SWIDTH 520 0 
DWIDTH 17 0
BBX 17 24 0 -3
BITMAP
000000
000000
000000
000000
000000
000000
000000
3F0000
200000
200000
200200
3F5800
206200
204200
204200
204200
204200
204200
204200
000000
000000
000000
000000
000000
ENDCHAR
STARTCHAR 140
ENCODING 140
SWIDTH 520 0 
DWIDTH 17 0
BBX 17 24 0 -3
BITMAP
000000
000000
000000
000000
000000
000000
000000
700000
880000
800200
800200
81E700
701200
09F200
0A1200
8A1200
8A1200
8A1200
71F100
000000
000000
000000
000000
000000
ENDCHAR
STARTCHAR 141
ENCODING 141
SWIDTH 520 0 
DWIDTH 17 0
BBX 17 24 0 -3
BITMAP
000000
000000
000000
000000
000000
000000
000000
700000
880000
800000
800000
842B00
742C80
0C2880
0C2880
8C2880
8C2880
8C6880
73A880
000000
000000
000000
000000
000000
ENDCHAR
STARTCHAR 142
ENCODING 142
SWIDTH 520 0 
DWIDTH 17 0
BBX 17 24 0 -3
BITMAP
000000
000000
000000
000000
000000
000000
000000
000000
000000
000000
1FFE00
1FFE00
000000
000000
000000
000000
000000
000000
000000
000000
000000
000000
000000
000000
ENDCHAR
STARTCHAR 143
ENCODING 143
SWIDTH 520 0 
DWIDTH 17 0
BBX 17 24 0 -3
BITMAP
000000
000000
000000
000000
000000
000000
0FFC00
0FFC00
000000
000000
000000
000000
000000
000000
000000
1FFE00
1FFE00
000000
000000
000000
000000
000000
000000
000000
ENDCHAR
STARTCHAR 144
ENCODING 144
SWIDTH 520 0 
DWIDTH 17 0
BBX 17 24 0 -3
BITMAP
000000
000000
000000
1FFC00
1FFC00
000000
000000
000000
000000
000000
0FF800
0FF800
000000
000000
000000
000000
000000
3FFE00
3FFE00
000000
000000
000000
000000
000000
ENDCHAR
STARTCHAR 145
ENCODING 145
SWIDTH 520 0 
DWIDTH 17 0
BBX 17 24 0 -3
BITMAP
000000
000000
000000
3FFE00
3FFE00
333600
333600
333600
333600
363600
363E00
383E00
380600
300600
300600
300600
3FFE00
3FFE00
300600
000000
000000
000000
000000
000000
ENDCHAR
STARTCHAR 146
ENCODING 146
SWIDTH 520 0 
DWIDTH 17 0
BBX 17 24 0 -3
BITMAP
000000
000000
000000
3FFE00
3FFE00
030000
030000
030000
030000
1FF800
1FF800
061800
061800
061800
061800
061800
061800
3FFE00
3FFE00
000000
000000
000000
000000
000000
ENDCHAR
STARTCHAR 147
ENCODING 147
SWIDTH 520 0 
DWIDTH 17 0
BBX 17 24 0 -3
BITMAP
000000
000000
000000
030000
030000
018000
018000
000000
3FFE00
3FFE00
000000
0C1800
0C1800
0C1800
0C0C00
180C00
180600
180600
300600
000000
000000
000000
000000
000000
ENDCHAR
STARTCHAR 148
ENCODING 148
SWIDTH 520 0 
DWIDTH 15 0
BBX 15 24 0 -3
BITMAP
0000
0000
0000
3FF8
3FF8
3018
3018
3018
3018
3FF8
3FF8
3018
3018
3018
3018
3018
3FF8
3FF8
3018
0000
0000
0000
0000
0000
ENDCHAR
STARTCHAR 161
ENCODING 161
SWIDTH 520 0 
DWIDTH 2 0
BBX 2 24 0 -3
BITMAP
00
00
C0
C0
00
00
00
C0
C0
C0
C0
C0
C0
C0
C0
C0
C0
C0
C0
C0
C0
00
00
00
ENDCHAR
STARTCHAR 162
ENCODING 162
SWIDTH 520 0 
DWIDTH 10 0
BBX 10 24 0 -3
BITMAP
0000
0000
0000
0000
0000
0080
0080
3F00
7F80
E3C0
C2C0
C400
C400
C800
C800
D0C0
F1C0
7F80
7F00
4000
8000
0000
0000
0000
ENDCHAR
STARTCHAR 163
ENCODING 163
SWIDTH 520 0 
DWIDTH 11 0
BBX 11 24 0 -3
BITMAP
0000
0000
0F80
1F80
1800
1800
1800
7F80
7F80
1800
1800
1800
1800
1800
7800
D800
9800
9800
9800
DE20
E7C0
0000
0000
0000
ENDCHAR
STARTCHAR 164
ENCODING 164
SWIDTH 520 0 
DWIDTH 14 0
BBX 14 24 0 -3
BITMAP
0000
0000
0000
0000
0000
8004
5FE8
3FF0
7038
6018
6018
6018
6018
6018
6018
7038
3FF0
5FE8
8004
0000
0000
0000
0000
0000
ENDCHAR
STARTCHAR 165
ENCODING 165
SWIDTH 520 0 
DWIDTH 9 0
BBX 9 24 0 -3
BITMAP
0000
0000
C180
C180
C180
C180
E300
6300
3E00
3E00
1C00
FF80
FF80
1C00
FF80
FF80
1C00
1C00
1C00
1C00
1C00
0000
0000
0000
ENDCHAR
STARTCHAR 166
ENCODING 166
SWIDTH 520 0 
DWIDTH 2 0
BBX 2 24 0 -3
BITMAP
00
00
00
00
C0
C0
C0
C0
C0
C0
C0
C0
00
00
C0
C0
C0
C0
C0
C0
C0
C0
C0
00
ENDCHAR
STARTCHAR 167
ENCODING 167
SWIDTH 520 0 
DWIDTH 7 0
BBX 7 24 0 -3
BITMAP
00
00
00
38
7C
C6
C0
C0
C0
60
38
64
66
66
64
38
1C
86
86
86
C6
7C
38
00
ENDCHAR
STARTCHAR 168
ENCODING 168
SWIDTH 520 0 
DWIDTH 7 0
BBX 7 24 0 -3
BITMAP
00
00
00
66
66
00
00
00
00
00
00
00
00
00
00
00
00
00
00
00
00
00
00
00
ENDCHAR
STARTCHAR 169
ENCODING 169
SWIDTH 520 0 
DWIDTH 15 0
BBX 15 24 0 -3
BITMAP
0000
0000
0000
0000
07C0
1FF0
3838
600C
67CC
CC66
CC06
CC06
CC06
CC66
67CC
600C
3838
1FF0
07C0
0000
0000
0000
0000
0000
ENDCHAR
STARTCHAR 170
ENCODING 170
SWIDTH 520 0 
DWIDTH 9 0
BBX 9 24 0 -3
BITMAP
0000
0000
0000
7E00
7F00
0180
0180
3F80
7F80
C180
C180
C180
C380
7F80
3D80
0000
FF80
FF80
0000
0000
0000
0000
0000
0000
ENDCHAR
STARTCHAR 171
ENCODING 171
SWIDTH 520 0 
DWIDTH 10 0
BBX 10 24 0 -3
BITMAP
0000
0000
0000
0000
0000
06C0
0D80
1B00
3600
6C00
D800
D800
6C00
3600
1B00
0D80
06C0
0000
0000
0000
0000
0000
0000
0000
ENDCHAR
STARTCHAR 172
ENCODING 172
SWIDTH 520 0 
DWIDTH 13 0
BBX 13 24 0 -3
BITMAP
0000
0000
0000
0000
FFF8
FFF8
0018
0018
0018
0000
0000
0000
0000
0000
0000
0000
0000
0000
0000
0000
0000
0000
0000
0000
ENDCHAR
STARTCHAR 174
ENCODING 174
SWIDTH 520 0 
DWIDTH 15 0
BBX 15 24 0 -3
BITMAP
0000
0000
0000
0000
07C0
1FF0
3838
600C
67CC
C666
C666
C7C6
C6C6
C666
663C
600C
3838
1FF0
07C0
0000
0000
0000
0000
0000
ENDCHAR
STARTCHAR 175
ENCODING 175
SWIDTH 520 0 
DWIDTH 13 0
BBX 13 24 0 -3
BITMAP
0000
0000
0000
FFF8
FFF8
0000
0000
0000
0000
0000
0000
0000
0000
0000
0000
0000
0000
0000
0000
0000
0000
0000
0000
0000
ENDCHAR
STARTCHAR 176
ENCODING 176
SWIDTH 520 0 
DWIDTH 7 0
BBX 7 24 0 -3
BITMAP
00
00
00
00
38
44
82
82
82
44
38
00
00
00
00
00
00
00
00
00
00
00
00
00
ENDCHAR
STARTCHAR 177
ENCODING 177
SWIDTH 520 0 
DWIDTH 8 0
BBX 8 24 0 -3
BITMAP
00
00
00
00
00
00
00
18
18
18
FF
FF
18
18
18
00
00
FF
FF
00
00
00
00
00
ENDCHAR
STARTCHAR 178
ENCODING 178
SWIDTH 520 0 
DWIDTH 5 0
BBX 5 24 0 -3
BITMAP
00
00
00
70
88
08
10
20
40
F8
00
00
00
00
00
00
00
00
00
00
00
00
00
00
ENDCHAR
STARTCHAR 179
ENCODING 179
SWIDTH 520 0 
DWIDTH 5 0
BBX 5 24 0 -3
BITMAP
00
00
00
70
88
08
30
08
88
70
00
00
00
00
00
00
00
00
00
00
00
00
00
00
ENDCHAR
STARTCHAR 180
ENCODING 180
SWIDTH 520 0 
DWIDTH 3 0
BBX 3 24 0 -3
BITMAP
00
00
00
60
C0
00
00
00
00
00
00
00
00
00
00
00
00
00
00
00
00
00
00
00
ENDCHAR
STARTCHAR 181
ENCODING 181
SWIDTH 520 0 
DWIDTH 9 0
BBX 9 24 0 -3
BITMAP
0000
0000
0000
0000
0000
0000
0000
C180
C180
C180
C180
C180
C180
C180
C180
C180
E380
FF80
FD80
C000
C000
C000
0000
0000
ENDCHAR
STARTCHAR 182
ENCODING 182
SWIDTH 520 0 
DWIDTH 9 0
BBX 9 24 0 -3
BITMAP
0000
0000
0000
FF80
FF80
F300
F300
F300
7300
3300
3300
3300
3300
3300
3300
3300
3300
3300
3300
3300
3300
3300
3300
0000
ENDCHAR
STARTCHAR 183
ENCODING 183
SWIDTH 520 0 
DWIDTH 2 0
BBX 2 24 0 -3
BITMAP
00
00
00
00
00
00
00
00
00
C0
C0
C0
00
00
00
00
00
00
00
00
00
00
00
00
ENDCHAR
STARTCHAR 184
ENCODING 184
SWIDTH 520 0 
DWIDTH 4 0
BBX 4 24 0 -3
BITMAP
00
00
00
00
00
00
00
00
00
00
00
00
00
00
00
00
00
00
00
40
70
10
E0
00
ENDCHAR
STARTCHAR 185
ENCODING 185
SWIDTH 520 0 
DWIDTH 3 0
BBX 3 24 0 -3
BITMAP
00
00
00
20
20
20
20
20
20
20
20
20
00
00
00
00
00
00
00
00
00
00
00
00
ENDCHAR
STARTCHAR 186
ENCODING 186
SWIDTH 520 0 
DWIDTH 12 0
BBX 12 24 0 -3
BITMAP
0000
0000
0000
0E00
1100
2080
2080
2080
1100
0E00
0000
3F80
0000
0000
0000
0000
0000
0000
0000
0000
0000
0000
0000
0000
ENDCHAR
STARTCHAR 187
ENCODING 187
SWIDTH 520 0 
DWIDTH 10 0
BBX 10 24 0 -3
BITMAP
0000
0000
0000
0000
0000
0000
D800
6C00
3600
1B00
0D80
06C0
06C0
0D80
1B00
3600
6C00
D800
0000
0000
0000
0000
0000
0000
ENDCHAR
STARTCHAR 188
ENCODING 188
SWIDTH 520 0 
DWIDTH 11 0
BBX 11 24 0 -3
BITMAP
0000
0000
6180
E180
6300
6300
6300
6600
6600
6C00
6C00
1800
1980
3380
3380
6580
6D80
CFC0
C180
C180
0000
0000
0000
0000
ENDCHAR
STARTCHAR 189
ENCODING 189
SWIDTH 520 0 
DWIDTH 11 0
BBX 11 24 0 -3
BITMAP
0000
0000
6180
E180
6300
6300
6300
6600
6600
6C00
6C00
1B80
1EC0
36C0
30C0
6180
6300
C600
C600
C7C0
0000
0000
0000
0000
ENDCHAR
STARTCHAR 190
ENCODING 190
SWIDTH 520 0 
DWIDTH 12 0
BBX 12 24 0 -3
BITMAP
0000
0000
70C0
D8C0
1980
3180
3180
1B00
9B00
DE00
7600
0C00
0CC0
19C0
19C0
32C0
36C0
67E0
60C0
60C0
0000
0000
0000
0000
ENDCHAR
STARTCHAR 191
ENCODING 191
SWIDTH 520 0 
DWIDTH 12 0
BBX 12 24 0 -3
BITMAP
0000
0000
0000
0000
0000
0000
0000
0600
0600
0000
0600
0600
0600
0600
0600
0C00
1800
3000
3060
3060
18C0
0F80
0000
0000
ENDCHAR
STARTCHAR 192
ENCODING 192
SWIDTH 520 0 
DWIDTH 15 0
BBX 15 24 0 -3
BITMAP
0700
0380
0000
0380
0380
06C0
06C0
0EE0
0C60
0C60
1830
1830
3FF8
3FF8
3018
600C
600C
C006
C006
0000
0000
0000
0000
0000
ENDCHAR
STARTCHAR 193
ENCODING 193
SWIDTH 520 0 
DWIDTH 15 0
BBX 15 24 0 -3
BITMAP
01C0
0380
0000
0380
0380
06C0
06C0
0EE0
0C60
0C60
1830
1830
3FF8
3FF8
3018
600C
600C
C006
C006
0000
0000
0000
0000
0000
ENDCHAR
STARTCHAR 194
ENCODING 194
SWIDTH 520 0 
DWIDTH 15 0
BBX 15 24 0 -3
BITMAP
0380
06C0
0000
0380
0380
06C0
06C0
0EE0
0C60
0C60
1830
1830
3FF8
3FF8
3018
600C
600C
C006
C006
0000
0000
0000
0000
0000
ENDCHAR
STARTCHAR 195
ENCODING 195
SWIDTH 520 0 
DWIDTH 15 0
BBX 15 24 0 -3
BITMAP
07A0
0BC0
0000
0380
0380
06C0
06C0
0EE0
0C60
0C60
1830
1830
3FF8
3FF8
3018
600C
600C
C006
C006
0000
0000
0000
0000
0000
ENDCHAR
STARTCHAR 196
ENCODING 196
SWIDTH 520 0 
DWIDTH 15 0
BBX 15 24 0 -3
BITMAP
0660
0660
0000
0380
0380
06C0
06C0
0EE0
0C60
0C60
1830
1830
3FF8
3FF8
3018
600C
600C
C006
C006
0000
0000
0000
0000
0000
ENDCHAR
STARTCHAR 197
ENCODING 197
SWIDTH 520 0 
DWIDTH 15 0
BBX 15 24 0 -3
BITMAP
07C0
0440
07C0
0380
0380
06C0
06C0
0EE0
0C60
0C60
1830
1830
3FF8
3FF8
3018
600C
600C
C006
C006
0000
0000
0000
0000
0000
ENDCHAR
STARTCHAR 198
ENCODING 198
SWIDTH 520 0 
DWIDTH 17 0
BBX 17 24 0 -3
BITMAP
000000
000000
000000
03FF80
03FF80
06C000
06C000
0EC000
0CC000
0CC000
18FF80
18FF80
3FC000
3FC000
30C000
60C000
60C000
C0FF80
C0FF80
000000
000000
000000
000000
000000
ENDCHAR
STARTCHAR 199
ENCODING 199
SWIDTH 520 0 
DWIDTH 12 0
BBX 12 24 0 -3
BITMAP
0000
0000
0000
3FC0
7FE0
E070
C030
C000
C000
C000
C000
C000
C000
C000
C000
C030
E070
7FE0
3FC0
0700
0300
1F00
1E00
0000
ENDCHAR
STARTCHAR 200
ENCODING 200
SWIDTH 520 0 
DWIDTH 12 0
BBX 12 24 0 -3
BITMAP
0700
0E00
0000
FFF0
FFF0
C000
C000
C000
C000
C000
FFE0
FFE0
C000
C000
C000
C000
C000
FFF0
FFF0
0000
0000
0000
0000
0000
ENDCHAR
STARTCHAR 201
ENCODING 201
SWIDTH 520 0 
DWIDTH 12 0
BBX 12 24 0 -3
BITMAP
0E00
0700
0000
FFF0
FFF0
C000
C000
C000
C000
C000
FFE0
FFE0
C000
C000
C000
C000
C000
FFF0
FFF0
0000
0000
0000
0000
0000
ENDCHAR
STARTCHAR 202
ENCODING 202
SWIDTH 520 0 
DWIDTH 12 0
BBX 12 24 0 -3
BITMAP
0700
0D80
0000
FFF0
FFF0
C000
C000
C000
C000
C000
FFE0
FFE0
C000
C000
C000
C000
C000
FFF0
FFF0
0000
0000
0000
0000
0000
ENDCHAR
STARTCHAR 203
ENCODING 203
SWIDTH 520 0 
DWIDTH 12 0
BBX 12 24 0 -3
BITMAP
1980
1980
0000
FFF0
FFF0
C000
C000
C000
C000
C000
FFE0
FFE0
C000
C000
C000
C000
C000
FFF0
FFF0
0000
0000
0000
0000
0000
ENDCHAR
STARTCHAR 204
ENCODING 204
SWIDTH 520 0 
DWIDTH 4 0
BBX 4 24 0 -3
BITMAP
E0
70
00
60
60
60
60
60
60
60
60
60
60
60
60
60
60
60
60
00
00
00
00
00
ENDCHAR
STARTCHAR 205
ENCODING 205
SWIDTH 520 0 
DWIDTH 4 0
BBX 4 24 0 -3
BITMAP
70
E0
00
60
60
60
60
60
60
60
60
60
60
60
60
60
60
60
60
00
00
00
00
00
ENDCHAR
STARTCHAR 206
ENCODING 206
SWIDTH 520 0 
DWIDTH 5 0
BBX 5 24 0 -3
BITMAP
70
D8
00
60
60
60
60
60
60
60
60
60
60
60
60
60
60
60
60
00
00
00
00
00
ENDCHAR
STARTCHAR 207
ENCODING 207
SWIDTH 520 0 
DWIDTH 6 0
BBX 6 24 0 -3
BITMAP
CC
CC
00
30
30
30
30
30
30
30
30
30
30
30
30
30
30
30
30
00
00
00
00
00
ENDCHAR
STARTCHAR 208
ENCODING 208
SWIDTH 520 0 
DWIDTH 14 0
BBX 14 24 0 -3
BITMAP
0000
0000
0000
3F80
3FE0
3070
3038
3018
300C
300C
FF0C
FF0C
300C
301C
3018
3038
3070
3FE0
3F80
0000
0000
0000
0000
0000
ENDCHAR
STARTCHAR 209
ENCODING 209
SWIDTH 520 0 
DWIDTH 12 0
BBX 12 24 0 -3
BITMAP
0F40
1780
0000
C030
F030
F030
D830
D830
CC30
CC30
C630
C630
C330
C330
C1B0
C1B0
C0F0
C0F0
C070
0000
0000
0000
0000
0000
ENDCHAR
STARTCHAR 210
ENCODING 210
SWIDTH 520 0 
DWIDTH 12 0
BBX 12 24 0 -3
BITMAP
0E00
0700
0000
3FC0
7FE0
E070
C030
C030
C030
C030
C030
C030
C030
C030
C030
C030
E070
7FE0
3FC0
0000
0000
0000
0000
0000
ENDCHAR
STARTCHAR 211
ENCODING 211
SWIDTH 520 0 
DWIDTH 12 0
BBX 12 24 0 -3
BITMAP
0700
0E00
0000
3FC0
7FE0
E070
C030
C030
C030
C030
C030
C030
C030
C030
C030
C030
E070
7FE0
3FC0
0000
0000
0000
0000
0000
ENDCHAR
STARTCHAR 212
ENCODING 212
SWIDTH 520 0 
DWIDTH 12 0
BBX 12 24 0 -3
BITMAP
0700
0D80
0000
3FC0
7FE0
E070
C030
C030
C030
C030
C030
C030
C030
C030
C030
C030
E070
7FE0
3FC0
0000
0000
0000
0000
0000
ENDCHAR
STARTCHAR 213
ENCODING 213
SWIDTH 520 0 
DWIDTH 12 0
BBX 12 24 0 -3
BITMAP
0F40
1780
0000
3FC0
7FE0
E070
C030
C030
C030
C030
C030
C030
C030
C030
C030
C030
E070
7FE0
3FC0
0000
0000
0000
0000
0000
ENDCHAR
STARTCHAR 214
ENCODING 214
SWIDTH 520 0 
DWIDTH 12 0
BBX 12 24 0 -3
BITMAP
1980
1980
0000
3FC0
7FE0
E070
C030
C030
C030
C030
C030
C030
C030
C030
C030
C030
E070
7FE0
3FC0
0000
0000
0000
0000
0000
ENDCHAR
STARTCHAR 215
ENCODING 215
SWIDTH 520 0 
DWIDTH 11 0
BBX 11 24 0 -3
BITMAP
0000
0000
0000
0000
0000
0000
0000
E0E0
60C0
71C0
3180
3B80
1F00
1F00
3B80
3180
71C0
60C0
E0E0
0000
0000
0000
0000
0000
ENDCHAR
STARTCHAR 216
ENCODING 216
SWIDTH 520 0 
DWIDTH 12 0
BBX 12 24 0 -3
BITMAP
0000
0000
0030
3FF0
7FE0
E0F0
C0F0
C1B0
C1B0
C330
C330
C630
C630
CC30
CC30
D830
F870
7FE0
3FC0
6000
6000
0000
0000
0000
ENDCHAR
STARTCHAR 217
ENCODING 217
SWIDTH 520 0 
DWIDTH 12 0
BBX 12 24 0 -3
BITMAP
0E00
0700
0000
C030
C030
C030
C030
C030
C030
C030
C030
C030
C030
C030
C030
6060
70E0
3FC0
1F80
0000
0000
0000
0000
0000
ENDCHAR
STARTCHAR 218
ENCODING 218
SWIDTH 520 0 
DWIDTH 12 0
BBX 12 24 0 -3
BITMAP
0700
0E00
0000
C030
C030
C030
C030
C030
C030
C030
C030
C030
C030
C030
C030
6060
70E0
3FC0
1F80
0000
0000
0000
0000
0000
ENDCHAR
STARTCHAR 219
ENCODING 219
SWIDTH 520 0 
DWIDTH 12 0
BBX 12 24 0 -3
BITMAP
0E00
1B00
0000
C030
C030
C030
C030
C030
C030
C030
C030
C030
C030
C030
C030
6060
70E0
3FC0
1F80
0000
0000
0000
0000
0000
ENDCHAR
STARTCHAR 220
ENCODING 220
SWIDTH 520 0 
DWIDTH 12 0
BBX 12 24 0 -3
BITMAP
1980
1980
0000
C030
C030
C030
C030
C030
C030
C030
C030
C030
C030
C030
C030
6060
70E0
3FC0
1F80
0000
0000
0000
0000
0000
ENDCHAR
STARTCHAR 221
ENCODING 221
SWIDTH 520 0 
DWIDTH 12 0
BBX 12 24 0 -3
BITMAP
0700
0E00
0000
C030
6060
6060
30C0
30C0
1980
1980
0F00
0F00
0600
0600
0600
0600
0600
0600
0600
0000
0000
0000
0000
0000
ENDCHAR
STARTCHAR 222
ENCODING 222
SWIDTH 520 0 
DWIDTH 12 0
BBX 12 24 0 -3
BITMAP
0000
0000
0000
C000
C000
C000
FFC0
FFE0
C070
C030
C030
C030
C030
C070
FFE0
FFC0
C000
C000
C000
0000
0000
0000
0000
0000
ENDCHAR
STARTCHAR 223
ENCODING 223
SWIDTH 520 0 
DWIDTH 9 0
BBX 9 24 0 -3
BITMAP
7C00
FE00
C700
C300
C300
C300
C300
CE00
CC00
CE00
C300
C380
C180
C180
C180
C180
C380
FF00
DE00
0000
0000
0000
0000
0000
ENDCHAR
STARTCHAR 224
ENCODING 224
SWIDTH 520 0 
DWIDTH 9 0
BBX 9 24 0 -3
BITMAP
0000
0000
0000
0000
3800
1C00
0000
7E00
7F00
0180
0180
3F80
7F80
C180
C180
C180
C380
7F80
3D80
0000
0000
0000
0000
0000
ENDCHAR
STARTCHAR 225
ENCODING 225
SWIDTH 520 0 
DWIDTH 9 0
BBX 9 24 0 -3
BITMAP
0000
0000
0000
0000
0E00
1C00
0000
7E00
7F00
0180
0180
3F80
7F80
C180
C180
C180
C380
7F80
3D80
0000
0000
0000
0000
0000
ENDCHAR
STARTCHAR 226
ENCODING 226
SWIDTH 520 0 
DWIDTH 9 0
BBX 9 24 0 -3
BITMAP
0000
0000
0000
0000
1C00
3600
0000
7E00
7F00
0180
0180
3F80
7F80
C180
C180
C180
C380
7F80
3D80
0000
0000
0000
0000
0000
ENDCHAR
STARTCHAR 227
ENCODING 227
SWIDTH 520 0 
DWIDTH 9 0
BBX 9 24 0 -3
BITMAP
0000
0000
0000
0000
1D00
2E00
0000
7E00
7F00
0180
0180
3F80
7F80
C180
C180
C180
C380
7F80
3D80
0000
0000
0000
0000
0000
ENDCHAR
STARTCHAR 228
ENCODING 228
SWIDTH 520 0 
DWIDTH 9 0
BBX 9 24 0 -3
BITMAP
0000
0000
0000
0000
3600
3600
0000
7E00
7F00
0180
0180
3F80
7F80
C180
C180
C180
C380
7F80
3D80
0000
0000
0000
0000
0000
ENDCHAR
STARTCHAR 229
ENCODING 229
SWIDTH 520 0 
DWIDTH 9 0
BBX 9 24 0 -3
BITMAP
0000
0000
0000
0C00
1200
0C00
0000
7E00
7F00
0180
0180
3F80
7F80
C180
C180
C180
C380
7F80
3D80
0000
0000
0000
0000
0000
ENDCHAR
STARTCHAR 230
ENCODING 230
SWIDTH 520 0 
DWIDTH 17 0
BBX 17 24 0 -3
BITMAP
000000
000000
000000
000000
000000
000000
000000
7E3E00
7F7F00
01E380
01C180
3FC180
7FFF80
C1FF80
C1C000
C1C180
C3E380
7F7F00
3E3E00
000000
000000
000000
000000
000000
ENDCHAR
STARTCHAR 231
ENCODING 231
SWIDTH 520 0 
DWIDTH 9 0
BBX 9 24 0 -3
BITMAP
0000
0000
0000
0000
0000
0000
0000
3E00
7F00
E380
C180
C000
C000
C000
C000
C180
E380
7F00
3E00
0C00
0400
1800
0000
0000
ENDCHAR
STARTCHAR 232
ENCODING 232
SWIDTH 520 0 
DWIDTH 9 0
BBX 9 24 0 -3
BITMAP
0000
0000
0000
0000
3800
1C00
0000
3E00
7F00
E380
C180
C180
FF80
FF80
C000
C180
E380
7F00
3E00
0000
0000
0000
0000
0000
ENDCHAR
STARTCHAR 233
ENCODING 233
SWIDTH 520 0 
DWIDTH 9 0
BBX 9 24 0 -3
BITMAP
0000
0000
0000
0000
0E00
1C00
0000
3E00
7F00
E380
C180
C180
FF80
FF80
C000
C180
E380
7F00
3E00
0000
0000
0000
0000
0000
ENDCHAR
STARTCHAR 234
ENCODING 234
SWIDTH 520 0 
DWIDTH 9 0
BBX 9 24 0 -3
BITMAP
0000
0000
0000
0000
1C00
3600
0000
3E00
7F00
E380
C180
C180
FF80
FF80
C000
C180
E380
7F00
3E00
0000
0000
0000
0000
0000
ENDCHAR
STARTCHAR 235
ENCODING 235
SWIDTH 520 0 
DWIDTH 9 0
BBX 9 24 0 -3
BITMAP
0000
0000
0000
0000
3600
3600
0000
3E00
7F00
E380
C180
C180
FF80
FF80
C000
C180
E380
7F00
3E00
0000
0000
0000
0000
0000
ENDCHAR
STARTCHAR 236
ENCODING 236
SWIDTH 520 0 
DWIDTH 4 0
BBX 4 24 0 -3
BITMAP
00
00
00
00
E0
70
00
60
60
60
60
60
60
60
60
60
60
60
60
00
00
00
00
00
ENDCHAR
STARTCHAR 237
ENCODING 237
SWIDTH 520 0 
DWIDTH 4 0
BBX 4 24 0 -3
BITMAP
00
00
00
00
70
E0
00
60
60
60
60
60
60
60
60
60
60
60
60
00
00
00
00
00
ENDCHAR
STARTCHAR 238
ENCODING 238
SWIDTH 520 0 
DWIDTH 5 0
BBX 5 24 0 -3
BITMAP
00
00
00
00
70
D8
00
60
60
60
60
60
60
60
60
60
60
60
60
00
00
00
00
00
ENDCHAR
STARTCHAR 239
ENCODING 239
SWIDTH 520 0 
DWIDTH 6 0
BBX 6 24 0 -3
BITMAP
00
00
00
00
CC
CC
00
30
30
30
30
30
30
30
30
30
30
30
30
00
00
00
00
00
ENDCHAR
STARTCHAR 240
ENCODING 240
SWIDTH 520 0 
DWIDTH 9 0
BBX 9 24 0 -3
BITMAP
0000
0000
0000
3600
1C00
3E00
2700
3F00
7F00
E380
C180
C180
C180
C180
C180
C180
E380
7F00
3E00
0000
0000
0000
0000
0000
ENDCHAR
STARTCHAR 241
ENCODING 241
SWIDTH 520 0 
DWIDTH 9 0
BBX 9 24 0 -3
BITMAP
0000
0000
0000
0000
1D00
2E00
0000
CE00
DF00
F380
E180
C180
C180
C180
C180
C180
C180
C180
C180
0000
0000
0000
0000
0000
ENDCHAR
STARTCHAR 242
ENCODING 242
SWIDTH 520 0 
DWIDTH 9 0
BBX 9 24 0 -3
BITMAP
0000
0000
0000
0000
3800
1C00
0000
3E00
7F00
E380
C180
C180
C180
C180
C180
C180
E380
7F00
3E00
0000
0000
0000
0000
0000
ENDCHAR
STARTCHAR 243
ENCODING 243
SWIDTH 520 0 
DWIDTH 9 0
BBX 9 24 0 -3
BITMAP
0000
0000
0000
0000
0E00
1C00
0000
3E00
7F00
E380
C180
C180
C180
C180
C180
C180
E380
7F00
3E00
0000
0000
0000
0000
0000
ENDCHAR
STARTCHAR 244
ENCODING 244
SWIDTH 520 0 
DWIDTH 9 0
BBX 9 24 0 -3
BITMAP
0000
0000
0000
0000
1C00
3600
0000
3E00
7F00
E380
C180
C180
C180
C180
C180
C180
E380
7F00
3E00
0000
0000
0000
0000
0000
ENDCHAR
STARTCHAR 245
ENCODING 245
SWIDTH 520 0 
DWIDTH 9 0
BBX 9 24 0 -3
BITMAP
0000
0000
0000
0000
1D00
2E00
0000
3E00
7F00
E380
C180
C180
C180
C180
C180
C180
E380
7F00
3E00
0000
0000
0000
0000
0000
ENDCHAR
STARTCHAR 246
ENCODING 246
SWIDTH 520 0 
DWIDTH 9 0
BBX 9 24 0 -3
BITMAP
0000
0000
0000
0000
3600
3600
0000
3E00
7F00
E380
C180
C180
C180
C180
C180
C180
E380
7F00
3E00
0000
0000
0000
0000
0000
ENDCHAR
STARTCHAR 247
ENCODING 247
SWIDTH 520 0 
DWIDTH 8 0
BBX 8 24 0 -3
BITMAP
00
00
00
00
00
00
18
18
00
FF
FF
00
18
18
00
00
00
00
00
00
00
00
00
00
ENDCHAR
STARTCHAR 248
ENCODING 248
SWIDTH 520 0 
DWIDTH 9 0
BBX 9 24 0 -3
BITMAP
0000
0000
0000
0000
0000
0000
0000
3E80
7F00
E380
C580
C580
C980
C980
D180
D180
E380
7F00
BE00
0000
0000
0000
0000
0000
ENDCHAR
STARTCHAR 249
ENCODING 249
SWIDTH 520 0 
DWIDTH 9 0
BBX 9 24 0 -3
BITMAP
0000
0000
0000
0000
3800
1C00
0000
C180
C180
C180
C180
C180
C180
C180
C180
C180
E380
7F80
3D80
0000
0000
0000
0000
0000
ENDCHAR
STARTCHAR 250
ENCODING 250
SWIDTH 520 0 
DWIDTH 9 0
BBX 9 24 0 -3
BITMAP
0000
0000
0000
0000
0E00
1C00
0000
C180
C180
C180
C180
C180
C180
C180
C180
C180
E380
7F80
3D80
0000
0000
0000
0000
0000
ENDCHAR
STARTCHAR 251
ENCODING 251
SWIDTH 520 0 
DWIDTH 9 0
BBX 9 24 0 -3
BITMAP
0000
0000
0000
0000
1C00
3600
0000
C180
C180
C180
C180
C180
C180
C180
C180
C180
E380
7F80
3D80
0000
0000
0000
0000
0000
ENDCHAR
STARTCHAR 252
ENCODING 252
SWIDTH 520 0 
DWIDTH 9 0
BBX 9 24 0 -3
BITMAP
0000
0000
0000
0000
3600
3600
0000
C180
C180
C180
C180
C180
C180
C180
C180
C180
E380
7F80
3D80
0000
0000
0000
0000
0000
ENDCHAR
STARTCHAR 253
ENCODING 253
SWIDTH 520 0 
DWIDTH 9 0
BBX 9 24 0 -3
BITMAP
0000
0000
0000
0000
0E00
1C00
0000
C180
C180
C180
6300
6300
6300
3600
3600
3600
1C00
1C00
1C00
1800
1800
7000
7000
0000
ENDCHAR
STARTCHAR 254
ENCODING 254
SWIDTH 520 0 
DWIDTH 10 0
BBX 10 24 0 -3
BITMAP
0000
0000
0000
C000
C000
C000
DE00
FF00
E380
C180
C180
C180
C180
C180
C180
E380
FF00
DE00
C000
C000
C000
C000
C000
0000
ENDCHAR
STARTCHAR 255
ENCODING 255
SWIDTH 520 0 
DWIDTH 9 0
BBX 9 24 0 -3
BITMAP
0000
0000
0000
0000
3600
3600
0000
C180
C180
C180
6300
6300
6300
3600
3600
3600
1C00
1C00
1C00
1800
1800
7000
7000
0000
ENDCHAR
STARTCHAR 915
ENCODING 915
SWIDTH 520 0 
DWIDTH 13 0
BBX 13 24 0 -3
BITMAP
0000
0000
0000
7FF0
7FF0
3030
3000
3000
3000
3000
3000
3000
3000
3000
3000
3000
3000
7800
7800
0000
0000
0000
0000
0000
ENDCHAR
STARTCHAR 916
ENCODING 916
SWIDTH 520 0 
DWIDTH 12 0
BBX 12 24 0 -3
BITMAP
0000
0000
0000
0600
0600
0600
0600
0F00
0F00
0F00
1980
1980
1980
30C0
30C0
70E0
6060
6060
FFF0
0000
0000
0000
0000
0000
ENDCHAR
STARTCHAR 920
ENCODING 920
SWIDTH 520 0 
DWIDTH 12 0
BBX 12 24 0 -3
BITMAP
0000
0000
0000
1F00
3F80
60C0
60C0
C060
D160
D160
D160
DF60
D160
D160
D160
C060
60C0
60C0
3F80
1F00
0000
0000
0000
0000
ENDCHAR
STARTCHAR 923
ENCODING 923
SWIDTH 520 0 
DWIDTH 13 0
BBX 13 24 0 -3
BITMAP
0000
0000
0000
0700
0700
0700
0700
0D80
0D80
1DC0
1DC0
18C0
38E0
38E0
3060
7070
6030
6030
F078
0000
0000
0000
0000
0000
ENDCHAR
STARTCHAR 926
ENCODING 926
SWIDTH 520 0 
DWIDTH 11 0
BBX 11 24 0 -3
BITMAP
0000
0000
0000
FFE0
FFE0
8020
8020
2080
2080
2080
3F80
3F80
2080
2080
2080
8020
8020
FFE0
FFE0
0000
0000
0000
0000
0000
ENDCHAR
STARTCHAR 928
ENCODING 928
SWIDTH 520 0 
DWIDTH 11 0
BBX 11 24 0 -3
BITMAP
0000
0000
0000
0000
0000
0000
0000
7FC0
7FC0
3180
3180
3300
6300
6600
6600
4600
4640
4640
8380
0000
0000
0000
0000
0000
ENDCHAR
STARTCHAR 931
ENCODING 931
SWIDTH 520 0 
DWIDTH 13 0
BBX 13 24 0 -3
BITMAP
0000
0000
0000
7FF0
7FF0
6000
7000
3800
1C00
0E00
0700
0380
0180
0380
0700
0E00
1C00
3800
7000
6000
7FF0
7FF0
0000
0000
ENDCHAR
STARTCHAR 934
ENCODING 934
SWIDTH 520 0 
DWIDTH 12 0
BBX 12 24 0 -3
BITMAP
0000
0000
0000
7FC0
7FC0
0E00
0E00
7FC0
CE60
CE60
CE60
CE60
CE60
7FC0
0E00
0E00
0E00
7FC0
7FC0
0000
0000
0000
0000
0000
ENDCHAR
STARTCHAR 936
ENCODING 936
SWIDTH 520 0 
DWIDTH 12 0
BBX 12 24 0 -3
BITMAP
0000
0000
0000
6FB0
3760
3760
3760
3760
3760
3760
3760
3760
3760
1FC0
0F80
0700
0700
0700
1FC0
0000
0000
0000
0000
0000
ENDCHAR
STARTCHAR 937
ENCODING 937
SWIDTH 520 0 
DWIDTH 12 0
BBX 12 24 0 -3
BITMAP
0000
0000
0000
0F00
1F80
30C0
30C0
6060
6060
6060
6060
6060
30C0
30C0
1980
D9B0
9990
9990
F0F0
0000
0000
0000
0000
0000
ENDCHAR
STARTCHAR 8230
ENCODING 8230
SWIDTH 520 0 
DWIDTH 23 0
BBX 23 24 0 -3
BITMAP
000000
000000
000000
000000
000000
000000
000000
000000
000000
000000
000000
000000
000000
000000
000000
181818
3C3C3C
3C3C3C
181818
000000
000000
000000
000000
000000
ENDCHAR
STARTCHAR 8364
ENCODING 8364
SWIDTH 520 0 
DWIDTH 14 0
BBX 14 24 0 -3
BITMAP
0000
0000
0000
07F0
1FF8
1C1C
380C
3800
7FC0
7FC0
3800
7FC0
7FC0
3800
3800
380C
1C1C
1FF8
07F0
0000
0000
0000
0000
0000
ENDCHAR
ENDFONT