STARTFONT 2.1
COMMENT Product Version MAUI VERSION
FONTBOUNDINGBOX 20 16 0 -2 
STARTPROPERTIES 2
FONT_ASCENT 13
FONT_DESCENT 3
ENDPROPERTIES
CHARS 231
STARTCHAR 10
ENCODING 10
SWIDTH 520 0 
DWIDTH 5 0
BBX 4 16 1 -2
BITMAP
00
00
00
00
00
00
00
00
00
00
00
00
00
00
00
00
ENDCHAR
STARTCHAR 13
ENCODING 13
SWIDTH 520 0 
DWIDTH 5 0
BBX 4 16 1 -2
BITMAP
00
00
00
00
00
00
00
00
00
00
00
00
00
00
00
00
ENDCHAR
STARTCHAR 14
ENCODING 14
SWIDTH 520 0 
DWIDTH 5 0
BBX 4 16 1 -2
BITMAP
00
00
00
00
00
00
00
00
00
00
00
00
00
00
00
00
ENDCHAR
STARTCHAR 15
ENCODING 15
SWIDTH 520 0 
DWIDTH 5 0
BBX 4 16 1 -2
BITMAP
00
00
00
00
00
00
00
00
00
00
00
00
00
00
00
00
ENDCHAR
STARTCHAR 27
ENCODING 27
SWIDTH 520 0 
DWIDTH 5 0
BBX 4 16 1 -2
BITMAP
00
00
00
00
00
00
00
00
00
00
00
00
00
00
00
00
ENDCHAR
STARTCHAR 32
ENCODING 32
SWIDTH 520 0 
DWIDTH 5 0
BBX 4 16 1 -2
BITMAP
00
00
00
00
00
00
00
00
00
00
00
00
00
00
00
00
ENDCHAR
STARTCHAR 33
ENCODING 33
SWIDTH 520 0 
DWIDTH 3 0
BBX 2 16 1 -2
BITMAP
00
C0
C0
C0
C0
C0
C0
C0
C0
C0
00
C0
C0
00
00
00
ENDCHAR
STARTCHAR 34
ENCODING 34
SWIDTH 520 0 
DWIDTH 6 0
BBX 5 16 1 -2
BITMAP
00
D8
D8
D8
00
00
00
00
00
00
00
00
00
00
00
00
ENDCHAR
STARTCHAR 35
ENCODING 35
SWIDTH 520 0 
DWIDTH 12 0
BBX 11 16 1 -2
BITMAP
0000
0240
06C0
0480
FFE0
FFE0
0900
0900
FFE0
FFE0
1200
3600
2400
0000
0000
0000
ENDCHAR
STARTCHAR 36
ENCODING 36
SWIDTH 520 0 
DWIDTH 12 0
BBX 11 16 1 -2
BITMAP
0000
0C00
0C00
1E00
2D00
2D00
2C00
1E00
0D00
0D00
2D00
1E00
0C00
0000
0000
0000
ENDCHAR
STARTCHAR 37
ENCODING 37
SWIDTH 520 0 
DWIDTH 12 0
BBX 11 16 1 -2
BITMAP
0000
0040
70C0
D980
DB00
7200
0600
0C00
09C0
1B60
3360
61C0
4000
0000
0000
0000
ENDCHAR
STARTCHAR 38
ENCODING 38
SWIDTH 520 0 
DWIDTH 12 0
BBX 11 16 1 -2
BITMAP
0000
0000
0C00
1E00
3300
1200
1C00
1C00
26C0
6380
6380
3FC0
1C40
0000
0000
0000
ENDCHAR
STARTCHAR 39
ENCODING 39
SWIDTH 520 0 
DWIDTH 3 0
BBX 2 16 1 -2
BITMAP
00
C0
C0
40
00
00
00
00
00
00
00
00
00
00
00
00
ENDCHAR
STARTCHAR 40
ENCODING 40
SWIDTH 520 0 
DWIDTH 5 0
BBX 4 16 1 -2
BITMAP
00
20
40
C0
C0
C0
C0
C0
C0
C0
C0
40
20
00
00
00
ENDCHAR
STARTCHAR 41
ENCODING 41
SWIDTH 520 0 
DWIDTH 5 0
BBX 4 16 1 -2
BITMAP
00
40
20
30
30
30
30
30
30
30
30
20
40
00
00
00
ENDCHAR
STARTCHAR 42
ENCODING 42
SWIDTH 520 0 
DWIDTH 12 0
BBX 11 16 1 -2
BITMAP
0000
0000
0000
60C0
3180
1B00
0E00
7FC0
0E00
1B00
3180
60C0
0000
0000
0000
0000
ENDCHAR
STARTCHAR 43
ENCODING 43
SWIDTH 520 0 
DWIDTH 12 0
BBX 11 16 1 -2
BITMAP
0000
0000
0400
0400
0400
0400
7FC0
7FC0
0400
0400
0400
0400
0000
0000
0000
0000
ENDCHAR
STARTCHAR 44
ENCODING 44
SWIDTH 520 0 
DWIDTH 4 0
BBX 3 16 1 -2
BITMAP
00
00
00
00
00
00
00
00
00
00
60
60
20
C0
00
00
ENDCHAR
STARTCHAR 45
ENCODING 45
SWIDTH 520 0 
DWIDTH 8 0
BBX 7 16 1 -2
BITMAP
00
00
00
00
00
00
00
FE
00
00
00
00
00
00
00
00
ENDCHAR
STARTCHAR 46
ENCODING 46
SWIDTH 520 0 
DWIDTH 4 0
BBX 3 16 1 -2
BITMAP
00
00
00
00
00
00
00
00
00
00
00
60
60
00
00
00
ENDCHAR
STARTCHAR 47
ENCODING 47
SWIDTH 520 0 
DWIDTH 7 0
BBX 6 16 1 -2
BITMAP
00
04
04
08
08
10
10
20
20
40
40
80
80
00
00
00
ENDCHAR
STARTCHAR 48
ENCODING 48
SWIDTH 520 0 
DWIDTH 9 0
BBX 8 16 1 -2
BITMAP
00
7E
C3
C3
C3
C3
C3
C3
C3
C3
C3
C3
7E
00
00
00
ENDCHAR
STARTCHAR 49
ENCODING 49
SWIDTH 520 0 
DWIDTH 9 0
BBX 8 16 1 -2
BITMAP
00
0C
3C
0C
0C
0C
0C
0C
0C
0C
0C
0C
3F
00
00
00
ENDCHAR
STARTCHAR 50
ENCODING 50
SWIDTH 520 0 
DWIDTH 9 0
BBX 8 16 1 -2
BITMAP
00
7E
C3
C3
03
03
06
0C
18
30
60
C0
FF
00
00
00
ENDCHAR
STARTCHAR 51
ENCODING 51
SWIDTH 520 0 
DWIDTH 9 0
BBX 8 16 1 -2
BITMAP
00
7E
C3
C3
03
03
3E
03
03
03
C3
C3
7E
00
00
00
ENDCHAR
STARTCHAR 52
ENCODING 52
SWIDTH 520 0 
DWIDTH 9 0
BBX 8 16 1 -2
BITMAP
00
06
0E
0E
16
26
46
46
86
FF
06
06
06
00
00
00
ENDCHAR
STARTCHAR 53
ENCODING 53
SWIDTH 520 0 
DWIDTH 9 0
BBX 8 16 1 -2
BITMAP
00
FF
C0
C0
C0
C0
FE
03
03
03
C3
C3
7E
00
00
00
ENDCHAR
STARTCHAR 54
ENCODING 54
SWIDTH 520 0 
DWIDTH 9 0
BBX 8 16 1 -2
BITMAP
00
7E
C3
C1
C0
C0
FE
C3
C3
C3
C3
C3
7E
00
00
00
ENDCHAR
STARTCHAR 55
ENCODING 55
SWIDTH 520 0 
DWIDTH 9 0
BBX 8 16 1 -2
BITMAP
00
FF
03
03
06
06
0C
0C
0C
18
18
30
30
00
00
00
ENDCHAR
STARTCHAR 56
ENCODING 56
SWIDTH 520 0 
DWIDTH 9 0
BBX 8 16 1 -2
BITMAP
00
7E
C3
C3
C3
C3
7E
C3
C3
C3
C3
C3
7E
00
00
00
ENDCHAR
STARTCHAR 57
ENCODING 57
SWIDTH 520 0 
DWIDTH 9 0
BBX 8 16 1 -2
BITMAP
00
7E
C3
C3
C3
C3
C3
7F
03
03
C3
C3
7E
00
00
00
ENDCHAR
STARTCHAR 58
ENCODING 58
SWIDTH 520 0 
DWIDTH 4 0
BBX 3 16 1 -2
BITMAP
00
00
00
60
60
00
00
00
00
60
60
00
00
00
00
00
ENDCHAR
STARTCHAR 59
ENCODING 59
SWIDTH 520 0 
DWIDTH 4 0
BBX 3 16 1 -2
BITMAP
00
00
00
60
60
00
00
00
00
60
60
20
C0
00
00
00
ENDCHAR
STARTCHAR 60
ENCODING 60
SWIDTH 520 0 
DWIDTH 9 0
BBX 8 16 1 -2
BITMAP
00
00
00
03
06
1C
70
C0
70
1C
06
03
00
00
00
00
ENDCHAR
STARTCHAR 61
ENCODING 61
SWIDTH 520 0 
DWIDTH 10 0
BBX 9 16 1 -2
BITMAP
0000
0000
0000
0000
0000
0000
7F80
0000
0000
7F80
0000
0000
0000
0000
0000
0000
ENDCHAR
STARTCHAR 62
ENCODING 62
SWIDTH 520 0 
DWIDTH 9 0
BBX 8 16 1 -2
BITMAP
00
00
00
C0
60
38
0E
03
0E
38
60
C0
00
00
00
00
ENDCHAR
STARTCHAR 63
ENCODING 63
SWIDTH 520 0 
DWIDTH 9 0
BBX 8 16 1 -2
BITMAP
00
3E
67
63
03
06
0C
18
18
18
00
18
18
00
00
00
ENDCHAR
STARTCHAR 64
ENCODING 64
SWIDTH 520 0 
DWIDTH 12 0
BBX 11 16 1 -2
BITMAP
0000
3F00
4080
9E40
8340
9F40
B340
B340
9F40
4080
2000
1F00
0000
0000
0000
0000
ENDCHAR
STARTCHAR 65
ENCODING 65
SWIDTH 520 0 
DWIDTH 11 0
BBX 10 16 1 -2
BITMAP
0000
0C00
0C00
1E00
1200
3300
3300
6180
6180
7F80
C0C0
C0C0
C0C0
0000
0000
0000
ENDCHAR
STARTCHAR 66
ENCODING 66
SWIDTH 520 0 
DWIDTH 10 0
BBX 9 16 1 -2
BITMAP
0000
FE00
C700
C300
C300
C600
FE00
C300
C180
C180
C180
C300
FE00
0000
0000
0000
ENDCHAR
STARTCHAR 67
ENCODING 67
SWIDTH 520 0 
DWIDTH 11 0
BBX 10 16 1 -2
BITMAP
0000
1F80
30C0
6040
C000
C000
C000
C000
C000
C000
6040
30C0
1F80
0000
0000
0000
ENDCHAR
STARTCHAR 68
ENCODING 68
SWIDTH 520 0 
DWIDTH 11 0
BBX 10 16 1 -2
BITMAP
0000
FE00
C300
C180
C0C0
C0C0
C0C0
C0C0
C0C0
C0C0
C180
C300
FE00
0000
0000
0000
ENDCHAR
STARTCHAR 69
ENCODING 69
SWIDTH 520 0 
DWIDTH 9 0
BBX 8 16 1 -2
BITMAP
00
FF
C0
C0
C0
C0
FE
C0
C0
C0
C0
C0
FF
00
00
00
ENDCHAR
STARTCHAR 70
ENCODING 70
SWIDTH 520 0 
DWIDTH 9 0
BBX 8 16 1 -2
BITMAP
00
FF
C0
C0
C0
C0
FE
C0
C0
C0
C0
C0
C0
00
00
00
ENDCHAR
STARTCHAR 71
ENCODING 71
SWIDTH 520 0 
DWIDTH 11 0
BBX 10 16 1 -2
BITMAP
0000
1F00
30C0
60C0
C000
C000
C000
C3C0
C0C0
C0C0
60C0
30C0
1F00
0000
0000
0000
ENDCHAR
STARTCHAR 72
ENCODING 72
SWIDTH 520 0 
DWIDTH 11 0
BBX 10 16 1 -2
BITMAP
0000
C0C0
C0C0
C0C0
C0C0
C0C0
FFC0
C0C0
C0C0
C0C0
C0C0
C0C0
C0C0
0000
0000
0000
ENDCHAR
STARTCHAR 73
ENCODING 73
SWIDTH 520 0 
DWIDTH 3 0
BBX 2 16 1 -2
BITMAP
00
C0
C0
C0
C0
C0
C0
C0
C0
C0
C0
C0
C0
00
00
00
ENDCHAR
STARTCHAR 74
ENCODING 74
SWIDTH 520 0 
DWIDTH 6 0
BBX 5 16 1 -2
BITMAP
00
F8
18
18
18
18
18
18
18
18
18
18
F0
00
00
00
ENDCHAR
STARTCHAR 75
ENCODING 75
SWIDTH 520 0 
DWIDTH 10 0
BBX 9 16 1 -2
BITMAP
0000
C100
C300
C600
CC00
D800
F000
F000
D800
CC00
C600
C300
C180
0000
0000
0000
ENDCHAR
STARTCHAR 76
ENCODING 76
SWIDTH 520 0 
DWIDTH 10 0
BBX 9 16 1 -2
BITMAP
0000
C000
C000
C000
C000
C000
C000
C000
C000
C000
C000
C000
FF80
0000
0000
0000
ENDCHAR
STARTCHAR 77
ENCODING 77
SWIDTH 520 0 
DWIDTH 11 0
BBX 10 16 1 -2
BITMAP
0000
C0C0
E1C0
F3C0
DEC0
CCC0
C0C0
C0C0
C0C0
C0C0
C0C0
C0C0
C0C0
0000
0000
0000
ENDCHAR
STARTCHAR 78
ENCODING 78
SWIDTH 520 0 
DWIDTH 11 0
BBX 10 16 1 -2
BITMAP
0000
80C0
C0C0
E0C0
F0C0
D8C0
CCC0
CCC0
C6C0
C3C0
C1C0
C0C0
C040
0000
0000
0000
ENDCHAR
STARTCHAR 79
ENCODING 79
SWIDTH 520 0 
DWIDTH 11 0
BBX 10 16 1 -2
BITMAP
0000
3F00
6180
C0C0
C0C0
C0C0
C0C0
C0C0
C0C0
C0C0
C0C0
6180
3F00
0000
0000
0000
ENDCHAR
STARTCHAR 80
ENCODING 80
SWIDTH 520 0 
DWIDTH 10 0
BBX 9 16 1 -2
BITMAP
0000
FE00
C300
C180
C180
C180
C300
FE00
C000
C000
C000
C000
C000
0000
0000
0000
ENDCHAR
STARTCHAR 81
ENCODING 81
SWIDTH 520 0 
DWIDTH 11 0
BBX 10 16 1 -2
BITMAP
0000
3F00
6180
C0C0
C0C0
C0C0
C0C0
C0C0
C0C0
C0C0
C0C0
7D80
3F00
0380
0000
0000
ENDCHAR
STARTCHAR 82
ENCODING 82
SWIDTH 520 0 
DWIDTH 10 0
BBX 9 16 1 -2
BITMAP
0000
FE00
C300
C180
C180
C180
C300
FE00
D800
CC00
C600
C300
C180
0000
0000
0000
ENDCHAR
STARTCHAR 83
ENCODING 83
SWIDTH 520 0 
DWIDTH 9 0
BBX 8 16 1 -2
BITMAP
00
3C
67
C3
C0
E0
78
1E
07
03
C3
E6
7C
00
00
00
ENDCHAR
STARTCHAR 84
ENCODING 84
SWIDTH 520 0 
DWIDTH 11 0
BBX 10 16 1 -2
BITMAP
0000
FFC0
0C00
0C00
0C00
0C00
0C00
0C00
0C00
0C00
0C00
0C00
0C00
0000
0000
0000
ENDCHAR
STARTCHAR 85
ENCODING 85
SWIDTH 520 0 
DWIDTH 11 0
BBX 10 16 1 -2
BITMAP
0000
C0C0
C0C0
C0C0
C0C0
C0C0
C0C0
C0C0
C0C0
C0C0
C0C0
6180
3F00
0000
0000
0000
ENDCHAR
STARTCHAR 86
ENCODING 86
SWIDTH 520 0 
DWIDTH 11 0
BBX 10 16 1 -2
BITMAP
0000
C0C0
C0C0
C0C0
C0C0
6180
6180
6180
3300
3300
1200
1E00
0C00
0000
0000
0000
ENDCHAR
STARTCHAR 87
ENCODING 87
SWIDTH 520 0 
DWIDTH 15 0
BBX 14 16 1 -2
BITMAP
0000
C30C
C30C
C30C
C78C
6798
6498
6498
3CF0
3870
3870
1860
1860
0000
0000
0000
ENDCHAR
STARTCHAR 88
ENCODING 88
SWIDTH 520 0 
DWIDTH 12 0
BBX 11 16 1 -2
BITMAP
0000
C060
60C0
3180
3180
1B00
0E00
0E00
1B00
3180
3180
60C0
C060
0000
0000
0000
ENDCHAR
STARTCHAR 89
ENCODING 89
SWIDTH 520 0 
DWIDTH 11 0
BBX 10 16 1 -2
BITMAP
0000
C0C0
C0C0
6180
3300
1E00
0C00
0C00
0C00
0C00
0C00
0C00
0C00
0000
0000
0000
ENDCHAR
STARTCHAR 90
ENCODING 90
SWIDTH 520 0 
DWIDTH 11 0
BBX 10 16 1 -2
BITMAP
0000
FFC0
00C0
0180
0300
0600
0C00
0C00
1800
3000
6000
C000
FFC0
0000
0000
0000
ENDCHAR
STARTCHAR 91
ENCODING 91
SWIDTH 520 0 
DWIDTH 5 0
BBX 4 16 1 -2
BITMAP
00
F0
C0
C0
C0
C0
C0
C0
C0
C0
C0
C0
F0
00
00
00
ENDCHAR
STARTCHAR 92
ENCODING 92
SWIDTH 520 0 
DWIDTH 11 0
BBX 10 16 1 -2
BITMAP
0000
0000
4000
2000
2000
1000
0800
0400
0400
0200
0100
0100
0080
0000
0000
0000
ENDCHAR
STARTCHAR 93
ENCODING 93
SWIDTH 520 0 
DWIDTH 5 0
BBX 4 16 1 -2
BITMAP
00
F0
30
30
30
30
30
30
30
30
30
30
F0
00
00
00
ENDCHAR
STARTCHAR 94
ENCODING 94
SWIDTH 520 0 
DWIDTH 8 0
BBX 7 16 1 -2
BITMAP
00
10
38
28
6C
44
C6
00
00
00
00
00
00
00
00
00
ENDCHAR
STARTCHAR 95
ENCODING 95
SWIDTH 520 0 
DWIDTH 7 0
BBX 6 16 1 -2
BITMAP
00
00
00
00
00
00
00
00
00
00
00
00
FC
00
00
00
ENDCHAR
STARTCHAR 96
ENCODING 96
SWIDTH 520 0 
DWIDTH 4 0
BBX 3 16 1 -2
BITMAP
00
80
C0
60
20
00
00
00
00
00
00
00
00
00
00
00
ENDCHAR
STARTCHAR 97
ENCODING 97
SWIDTH 520 0 
DWIDTH 8 0
BBX 7 16 1 -2
BITMAP
00
00
00
00
00
7C
C6
06
7E
C6
C6
C6
7A
00
00
00
ENDCHAR
STARTCHAR 98
ENCODING 98
SWIDTH 520 0 
DWIDTH 9 0
BBX 8 16 1 -2
BITMAP
00
C0
C0
C0
C0
C0
DC
E6
C3
C3
C3
E6
BC
00
00
00
ENDCHAR
STARTCHAR 99
ENCODING 99
SWIDTH 520 0 
DWIDTH 8 0
BBX 7 16 1 -2
BITMAP
00
00
00
00
00
3C
62
C0
C0
C0
C0
62
3C
00
00
00
ENDCHAR
STARTCHAR 100
ENCODING 100
SWIDTH 520 0 
DWIDTH 9 0
BBX 8 16 1 -2
BITMAP
00
03
03
03
03
03
3B
67
C3
C3
C3
67
3D
00
00
00
ENDCHAR
STARTCHAR 101
ENCODING 101
SWIDTH 520 0 
DWIDTH 8 0
BBX 7 16 1 -2
BITMAP
00
00
00
00
00
7C
C6
C6
FE
C0
C0
C6
7C
00
00
00
ENDCHAR
STARTCHAR 102
ENCODING 102
SWIDTH 520 0 
DWIDTH 6 0
BBX 5 16 1 -2
BITMAP
00
38
60
60
60
F8
60
60
60
60
60
60
60
00
00
00
ENDCHAR
STARTCHAR 103
ENCODING 103
SWIDTH 520 0 
DWIDTH 8 0
BBX 7 16 1 -2
BITMAP
00
00
00
00
00
3E
66
C6
C6
C6
C6
66
3E
06
46
38
ENDCHAR
STARTCHAR 104
ENCODING 104
SWIDTH 520 0 
DWIDTH 9 0
BBX 8 16 1 -2
BITMAP
00
C0
C0
C0
C0
DE
E3
C3
C3
C3
C3
C3
C3
00
00
00
ENDCHAR
STARTCHAR 105
ENCODING 105
SWIDTH 520 0 
DWIDTH 3 0
BBX 2 16 1 -2
BITMAP
00
C0
C0
00
C0
C0
C0
C0
C0
C0
C0
C0
C0
00
00
00
ENDCHAR
STARTCHAR 106
ENCODING 106
SWIDTH 520 0 
DWIDTH 5 0
BBX 4 16 1 -2
BITMAP
00
30
30
00
F0
30
30
30
30
30
30
30
30
30
30
E0
ENDCHAR
STARTCHAR 107
ENCODING 107
SWIDTH 520 0 
DWIDTH 9 0
BBX 8 16 1 -2
BITMAP
00
C0
C0
C0
C3
C6
CC
D8
F8
EC
CC
C6
C3
00
00
00
ENDCHAR
STARTCHAR 108
ENCODING 108
SWIDTH 520 0 
DWIDTH 4 0
BBX 3 16 1 -2
BITMAP
00
E0
60
60
60
60
60
60
60
60
60
60
60
00
00
00
ENDCHAR
STARTCHAR 109
ENCODING 109
SWIDTH 520 0 
DWIDTH 13 0
BBX 12 16 1 -2
BITMAP
0000
0000
0000
0000
0000
DCE0
E730
C630
C630
C630
C630
C630
C630
0000
0000
0000
ENDCHAR
STARTCHAR 110
ENCODING 110
SWIDTH 520 0 
DWIDTH 9 0
BBX 8 16 1 -2
BITMAP
00
00
00
00
00
DE
E3
C3
C3
C3
C3
C3
C3
00
00
00
ENDCHAR
STARTCHAR 111
ENCODING 111
SWIDTH 520 0 
DWIDTH 9 0
BBX 8 16 1 -2
BITMAP
00
00
00
00
00
3C
66
C3
C3
C3
C3
66
3C
00
00
00
ENDCHAR
STARTCHAR 112
ENCODING 112
SWIDTH 520 0 
DWIDTH 9 0
BBX 8 16 1 -2
BITMAP
00
00
00
00
00
DC
E6
C3
C3
C3
C3
E6
DC
C0
C0
C0
ENDCHAR
STARTCHAR 113
ENCODING 113
SWIDTH 520 0 
DWIDTH 9 0
BBX 8 16 1 -2
BITMAP
00
00
00
00
00
3B
67
C3
C3
C3
C3
67
3B
03
03
03
ENDCHAR
STARTCHAR 114
ENCODING 114
SWIDTH 520 0 
DWIDTH 8 0
BBX 7 16 1 -2
BITMAP
00
00
00
00
00
DE
E0
C0
C0
C0
C0
C0
C0
00
00
00
ENDCHAR
STARTCHAR 115
ENCODING 115
SWIDTH 520 0 
DWIDTH 7 0
BBX 6 16 1 -2
BITMAP
00
00
00
00
00
78
CC
C0
60
18
0C
CC
78
00
00
00
ENDCHAR
STARTCHAR 116
ENCODING 116
SWIDTH 520 0 
DWIDTH 6 0
BBX 5 16 1 -2
BITMAP
00
00
00
60
60
F8
60
60
60
60
60
60
38
00
00
00
ENDCHAR
STARTCHAR 117
ENCODING 117
SWIDTH 520 0 
DWIDTH 9 0
BBX 8 16 1 -2
BITMAP
00
00
00
00
00
C3
C3
C3
C3
C3
C3
C7
7B
00
00
00
ENDCHAR
STARTCHAR 118
ENCODING 118
SWIDTH 520 0 
DWIDTH 9 0
BBX 8 16 1 -2
BITMAP
00
00
00
00
00
C3
C3
66
66
24
3C
18
18
00
00
00
ENDCHAR
STARTCHAR 119
ENCODING 119
SWIDTH 520 0 
DWIDTH 13 0
BBX 12 16 1 -2
BITMAP
0000
0000
0000
0000
0000
C630
C630
C630
6F60
6960
79E0
30C0
30C0
0000
0000
0000
ENDCHAR
STARTCHAR 120
ENCODING 120
SWIDTH 520 0 
DWIDTH 9 0
BBX 8 16 1 -2
BITMAP
00
00
00
00
00
C3
66
3C
18
18
3C
66
C3
00
00
00
ENDCHAR
STARTCHAR 121
ENCODING 121
SWIDTH 520 0 
DWIDTH 9 0
BBX 8 16 1 -2
BITMAP
00
00
00
00
00
C3
C3
C3
66
66
66
3C
3C
18
18
70
ENDCHAR
STARTCHAR 122
ENCODING 122
SWIDTH 520 0 
DWIDTH 8 0
BBX 7 16 1 -2
BITMAP
00
00
00
00
00
FE
06
0C
18
30
60
C0
FE
00
00
00
ENDCHAR
STARTCHAR 123
ENCODING 123
SWIDTH 520 0 
DWIDTH 6 0
BBX 5 16 1 -2
BITMAP
00
00
30
60
60
60
60
C0
60
60
60
60
30
00
00
00
ENDCHAR
STARTCHAR 124
ENCODING 124
SWIDTH 520 0 
DWIDTH 3 0
BBX 2 16 1 -2
BITMAP
00
C0
C0
C0
C0
C0
C0
C0
C0
C0
C0
C0
C0
00
00
00
ENDCHAR
STARTCHAR 125
ENCODING 125
SWIDTH 520 0 
DWIDTH 6 0
BBX 5 16 1 -2
BITMAP
00
00
60
30
30
30
30
18
30
30
30
30
60
00
00
00
ENDCHAR
STARTCHAR 126
ENCODING 126
SWIDTH 520 0 
DWIDTH 9 0
BBX 8 16 1 -2
BITMAP
00
00
00
00
00
00
79
9E
00
00
00
00
00
00
00
00
ENDCHAR
STARTCHAR 127
ENCODING 127
SWIDTH 520 0 
DWIDTH 5 0
BBX 4 16 1 -2
BITMAP
00
00
00
00
00
00
00
00
00
00
00
00
00
00
00
00
ENDCHAR
STARTCHAR 128
ENCODING 128
SWIDTH 520 0 
DWIDTH 5 0
BBX 4 16 1 -2
BITMAP
00
00
00
00
00
00
00
00
00
00
00
00
00
00
00
00
ENDCHAR
STARTCHAR 129
ENCODING 129
SWIDTH 520 0 
DWIDTH 5 0
BBX 4 16 1 -2
BITMAP
00
00
00
00
00
00
00
00
00
00
00
00
00
00
00
00
ENDCHAR
STARTCHAR 130
ENCODING 130
SWIDTH 520 0 
DWIDTH 5 0
BBX 4 16 1 -2
BITMAP
00
00
00
00
00
00
00
00
00
00
00
00
00
00
00
00
ENDCHAR
STARTCHAR 131
ENCODING 131
SWIDTH 520 0 
DWIDTH 5 0
BBX 4 16 1 -2
BITMAP
00
00
00
00
00
00
00
00
00
00
00
00
00
00
00
00
ENDCHAR
STARTCHAR 132
ENCODING 132
SWIDTH 520 0 
DWIDTH 5 0
BBX 4 16 1 -2
BITMAP
00
00
00
00
00
00
00
00
00
00
00
00
00
00
00
00
ENDCHAR
STARTCHAR 133
ENCODING 133
SWIDTH 520 0 
DWIDTH 10 0
BBX 9 16 1 -2
BITMAP
0000
0000
0000
0180
0180
0180
0180
2180
6180
FF80
6000
2000
0000
0000
0000
0000
ENDCHAR
STARTCHAR 134
ENCODING 134
SWIDTH 520 0 
DWIDTH 5 0
BBX 4 16 1 -2
BITMAP
00
00
00
00
00
00
00
00
00
00
90
90
F0
00
00
00
ENDCHAR
STARTCHAR 135
ENCODING 135
SWIDTH 520 0 
DWIDTH 17 0
BBX 16 16 1 -2
BITMAP
0000
0000
0000
8200
C600
C600
AA00
AAD6
9329
9329
8329
82C9
0000
0000
0000
0000
ENDCHAR
STARTCHAR 136
ENCODING 136
SWIDTH 520 0 
DWIDTH 17 0
BBX 16 16 1 -2
BITMAP
0000
0000
0000
F800
2000
2000
244E
2451
245E
2450
24D1
234E
0000
0000
0000
0000
ENDCHAR
STARTCHAR 137
ENCODING 137
SWIDTH 520 0 
DWIDTH 17 0
BBX 16 16 1 -2
BITMAP
0000
0000
0000
8201
8201
9201
92E7
5519
55F9
6D09
2919
28E7
0000
0000
0000
0000
ENDCHAR
STARTCHAR 138
ENCODING 138
SWIDTH 520 0 
DWIDTH 17 0
BBX 16 16 1 -2
BITMAP
0000
0000
0000
FE00
2200
2200
2200
2392
2252
2252
2252
224D
0000
0000
0000
0000
ENDCHAR
STARTCHAR 139
ENCODING 139
SWIDTH 520 0 
DWIDTH 17 0
BBX 16 16 1 -2
BITMAP
0000
0000
0000
3E00
2000
2000
2004
3EB0
20C4
2084
2084
2084
0000
0000
0000
0000
ENDCHAR
STARTCHAR 140
ENCODING 140
SWIDTH 520 0 
DWIDTH 17 0
BBX 16 16 1 -2
BITMAP
0000
0000
0000
7000
8804
8004
81CE
7024
09E4
0A24
8A24
71E2
0000
0000
0000
0000
ENDCHAR
STARTCHAR 141
ENCODING 141
SWIDTH 520 0 
DWIDTH 17 0
BBX 16 16 1 -2
BITMAP
0000
0000
0000
7000
8800
8000
8456
7459
0C51
0C51
8CD1
7351
0000
0000
0000
0000
ENDCHAR
STARTCHAR 142
ENCODING 142
SWIDTH 520 0 
DWIDTH 17 0
BBX 16 16 1 -2
BITMAP
0000
0000
0000
0000
0000
0000
0000
1FFC
0000
0000
0000
0000
0000
0000
0000
0000
ENDCHAR
STARTCHAR 143
ENCODING 143
SWIDTH 520 0 
DWIDTH 17 0
BBX 16 16 1 -2
BITMAP
0000
0000
0000
0FF8
0000
0000
0000
0000
0000
0000
0000
1FFC
0000
0000
0000
0000
ENDCHAR
STARTCHAR 144
ENCODING 144
SWIDTH 520 0 
DWIDTH 17 0
BBX 16 16 1 -2
BITMAP
0000
0000
0000
0FF8
0000
0000
0000
07F0
0000
0000
0000
1FFC
0000
0000
0000
0000
ENDCHAR
STARTCHAR 145
ENCODING 145
SWIDTH 520 0 
DWIDTH 17 0
BBX 16 16 1 -2
BITMAP
0000
0000
0000
1FF8
1248
1248
1248
1448
1478
1808
1008
1FF8
1008
0000
0000
0000
ENDCHAR
STARTCHAR 146
ENCODING 146
SWIDTH 520 0 
DWIDTH 17 0
BBX 16 16 1 -2
BITMAP
0000
0000
0000
1FFC
0100
0100
0FF0
0210
0210
0210
0210
0210
1FFC
0000
0000
0000
ENDCHAR
STARTCHAR 147
ENCODING 147
SWIDTH 520 0 
DWIDTH 17 0
BBX 16 16 1 -2
BITMAP
0000
0000
0100
0080
0000
1FFC
0000
0220
0210
0410
0408
0808
0000
0000
0000
0000
ENDCHAR
STARTCHAR 148
ENCODING 148
SWIDTH 520 0 
DWIDTH 17 0
BBX 16 16 1 -2
BITMAP
0000
0000
0000
0FF0
0810
0810
0810
0FF0
0810
0810
0810
0FF0
0810
0000
0000
0000
ENDCHAR
STARTCHAR 160
ENCODING 160
SWIDTH 520 0 
DWIDTH 5 0
BBX 4 16 1 -2
BITMAP
00
00
00
00
00
00
00
00
00
00
00
00
00
00
00
00
ENDCHAR
STARTCHAR 161
ENCODING 161
SWIDTH 520 0 
DWIDTH 3 0
BBX 2 16 1 -2
BITMAP
00
C0
C0
00
00
C0
C0
C0
C0
C0
C0
C0
C0
00
00
00
ENDCHAR
STARTCHAR 162
ENCODING 162
SWIDTH 520 0 
DWIDTH 7 0
BBX 7 16 0 -2
BITMAP
00
00
02
3C
66
CE
C8
C8
D0
D0
D0
66
3C
40
40
00
ENDCHAR
STARTCHAR 163
ENCODING 163
SWIDTH 520 0 
DWIDTH 10 0
BBX 9 16 1 -2
BITMAP
0000
0F80
1800
1800
1800
7F80
1800
1800
1800
7800
9800
D980
EE00
0000
0000
0000
ENDCHAR
STARTCHAR 164
ENCODING 164
SWIDTH 520 0 
DWIDTH 10 0
BBX 9 16 1 -2
BITMAP
0000
0000
0000
5E80
3F00
6180
6180
6180
6180
3F00
5E80
0000
0000
0000
0000
0000
ENDCHAR
STARTCHAR 165
ENCODING 165
SWIDTH 520 0 
DWIDTH 10 0
BBX 9 16 1 -2
BITMAP
0000
6180
6180
6180
3300
1200
1E00
0C00
7F80
0C00
7F80
0C00
0C00
0000
0000
0000
ENDCHAR
STARTCHAR 166
ENCODING 166
SWIDTH 520 0 
DWIDTH 3 0
BBX 2 16 1 -2
BITMAP
00
C0
C0
C0
C0
C0
00
C0
C0
C0
C0
C0
00
00
00
00
ENDCHAR
STARTCHAR 167
ENCODING 167
SWIDTH 520 0 
DWIDTH 11 0
BBX 10 16 1 -2
BITMAP
0000
0E00
1B00
1800
1800
0C00
0A00
1B00
1B00
0A00
0400
2600
2600
3600
1C00
0000
ENDCHAR
STARTCHAR 168
ENCODING 168
SWIDTH 520 0 
DWIDTH 7 0
BBX 6 16 1 -2
BITMAP
00
6C
6C
00
00
00
00
00
00
00
00
00
00
00
00
00
ENDCHAR
STARTCHAR 169
ENCODING 169
SWIDTH 520 0 
DWIDTH 11 0
BBX 10 16 1 -2
BITMAP
0000
0000
1E00
2100
4C80
9240
9040
9040
9240
4C80
2100
1E00
0000
0000
0000
0000
ENDCHAR
STARTCHAR 170
ENCODING 170
SWIDTH 520 0 
DWIDTH 11 0
BBX 10 16 1 -2
BITMAP
0000
3E00
0300
3F00
6300
6300
3F80
0000
7F80
0000
0000
0000
0000
0000
0000
0000
ENDCHAR
STARTCHAR 171
ENCODING 171
SWIDTH 520 0 
DWIDTH 7 0
BBX 6 16 1 -2
BITMAP
00
00
00
14
28
50
A0
A0
50
28
14
00
00
00
00
00
ENDCHAR
STARTCHAR 172
ENCODING 172
SWIDTH 520 0 
DWIDTH 11 0
BBX 10 16 1 -2
BITMAP
0000
0000
0000
3F80
0080
0080
0000
0000
0000
0000
0000
0000
0000
0000
0000
0000
ENDCHAR
STARTCHAR 173
ENCODING 173
SWIDTH 520 0 
DWIDTH 5 0
BBX 4 16 1 -2
BITMAP
00
00
00
00
00
00
00
00
00
00
00
00
00
00
00
00
ENDCHAR
STARTCHAR 174
ENCODING 174
SWIDTH 520 0 
DWIDTH 11 0
BBX 10 16 1 -2
BITMAP
0000
0000
1E00
2100
5C80
9240
9240
9C40
9240
5180
2100
1E00
0000
0000
0000
0000
ENDCHAR
STARTCHAR 175
ENCODING 175
SWIDTH 520 0 
DWIDTH 8 0
BBX 7 16 1 -2
BITMAP
00
FE
00
00
00
00
00
00
00
00
00
00
00
00
00
00
ENDCHAR
STARTCHAR 176
ENCODING 176
SWIDTH 520 0 
DWIDTH 7 0
BBX 6 16 1 -2
BITMAP
00
30
48
84
84
48
30
00
00
00
00
00
00
00
00
00
ENDCHAR
STARTCHAR 177
ENCODING 177
SWIDTH 520 0 
DWIDTH 9 0
BBX 8 16 1 -2
BITMAP
00
00
18
18
18
FF
18
18
18
00
FF
00
00
00
00
00
ENDCHAR
STARTCHAR 178
ENCODING 178
SWIDTH 520 0 
DWIDTH 8 0
BBX 7 16 1 -2
BITMAP
00
38
44
04
18
20
7C
00
00
00
00
00
00
00
00
00
ENDCHAR
STARTCHAR 179
ENCODING 179
SWIDTH 520 0 
DWIDTH 8 0
BBX 7 16 1 -2
BITMAP
00
38
44
04
18
04
44
38
00
00
00
00
00
00
00
00
ENDCHAR
STARTCHAR 180
ENCODING 180
SWIDTH 520 0 
DWIDTH 4 0
BBX 3 16 1 -2
BITMAP
00
60
C0
00
00
00
00
00
00
00
00
00
00
00
00
00
ENDCHAR
STARTCHAR 181
ENCODING 181
SWIDTH 520 0 
DWIDTH 11 0
BBX 10 16 1 -2
BITMAP
0000
0000
0000
0000
0000
6180
6180
6180
6180
6180
6180
7180
6EC0
6000
E000
E000
ENDCHAR
STARTCHAR 182
ENCODING 182
SWIDTH 520 0 
DWIDTH 9 0
BBX 8 16 1 -2
BITMAP
00
00
00
FF
F4
F4
74
14
14
14
14
14
14
00
00
00
ENDCHAR
STARTCHAR 183
ENCODING 183
SWIDTH 520 0 
DWIDTH 4 0
BBX 3 16 1 -2
BITMAP
00
00
00
00
60
60
00
00
00
00
00
00
00
00
00
00
ENDCHAR
STARTCHAR 184
ENCODING 184
SWIDTH 520 0 
DWIDTH 5 0
BBX 4 16 1 -2
BITMAP
00
00
00
00
00
00
00
00
00
00
00
00
40
70
10
E0
ENDCHAR
STARTCHAR 185
ENCODING 185
SWIDTH 520 0 
DWIDTH 4 0
BBX 3 16 1 -2
BITMAP
00
60
60
60
60
60
60
00
00
00
00
00
00
00
00
00
ENDCHAR
STARTCHAR 186
ENCODING 186
SWIDTH 520 0 
DWIDTH 12 0
BBX 11 16 1 -2
BITMAP
0000
0C00
1200
2100
2100
1200
0C00
0000
3F00
0000
0000
0000
0000
0000
0000
0000
ENDCHAR
STARTCHAR 187
ENCODING 187
SWIDTH 520 0 
DWIDTH 7 0
BBX 6 16 1 -2
BITMAP
00
00
00
A0
50
28
14
14
28
50
A0
00
00
00
00
00
ENDCHAR
STARTCHAR 188
ENCODING 188
SWIDTH 520 0 
DWIDTH 12 0
BBX 11 16 1 -2
BITMAP
0000
6180
E300
6300
6600
6400
6CC0
19C0
19C0
32C0
22C0
67E0
C0C0
0000
0000
0000
ENDCHAR
STARTCHAR 189
ENCODING 189
SWIDTH 520 0 
DWIDTH 12 0
BBX 11 16 1 -2
BITMAP
0000
6180
E300
6300
6600
6400
6C00
1B80
1EC0
34C0
2180
6300
C7C0
0000
0000
0000
ENDCHAR
STARTCHAR 190
ENCODING 190
SWIDTH 520 0 
DWIDTH 13 0
BBX 12 16 1 -2
BITMAP
0000
70C0
9980
3180
1B00
DA00
7660
0CE0
0CE0
1960
1160
33F0
6060
0000
0000
0000
ENDCHAR
STARTCHAR 191
ENCODING 191
SWIDTH 520 0 
DWIDTH 12 0
BBX 11 16 1 -2
BITMAP
0000
0600
0600
0000
0600
0600
0C00
1800
3000
30C0
30C0
1980
0F00
0000
0000
0000
ENDCHAR
STARTCHAR 192
ENCODING 192
SWIDTH 520 0 
DWIDTH 9 0
BBX 9 16 0 -2
BITMAP
0000
0C00
0600
0000
0C00
1E00
1E00
1200
3300
3300
3F00
6180
6180
0000
0000
0000
ENDCHAR
STARTCHAR 193
ENCODING 193
SWIDTH 520 0 
DWIDTH 9 0
BBX 9 16 0 -2
BITMAP
0000
0C00
1800
0000
0C00
1E00
1E00
1200
3300
3300
3F00
6180
6180
0000
0000
0000
ENDCHAR
STARTCHAR 194
ENCODING 194
SWIDTH 520 0 
DWIDTH 9 0
BBX 9 16 0 -2
BITMAP
0000
1C00
3600
0000
0C00
1E00
1E00
1200
3300
3300
3F00
6180
6180
0000
0000
0000
ENDCHAR
STARTCHAR 195
ENCODING 195
SWIDTH 520 0 
DWIDTH 9 0
BBX 9 16 0 -2
BITMAP
0000
1D00
2E00
0000
0C00
1E00
1E00
1200
3300
3300
3F00
6180
6180
0000
0000
0000
ENDCHAR
STARTCHAR 196
ENCODING 196
SWIDTH 520 0 
DWIDTH 9 0
BBX 9 16 0 -2
BITMAP
0000
3300
3300
0000
0C00
1E00
1E00
1200
3300
3300
3F00
6180
6180
0000
0000
0000
ENDCHAR
STARTCHAR 197
ENCODING 197
SWIDTH 520 0 
DWIDTH 9 0
BBX 9 16 0 -2
BITMAP
0000
1E00
1200
1E00
0C00
1E00
1E00
1200
3300
3300
3F00
6180
6180
0000
0000
0000
ENDCHAR
STARTCHAR ENCODING
ENCODING 197
SWIDTH 520 0 
DWIDTH 9 0
BBX 9 16 0 -2
BITMAP
0000
0000
0000
0000
0000
0000
0000
0000
0000
0000
0000
0000
0000
0000
0000
0000
ENDCHAR
STARTCHAR 198
ENCODING 198
SWIDTH 520 0 
DWIDTH 12 0
BBX 11 16 1 -2
BITMAP
0000
0FE0
0E00
1E00
1600
1600
37E0
3E00
2600
6600
6600
C600
C7E0
0000
0000
0000
ENDCHAR
STARTCHAR 199
ENCODING 199
SWIDTH 520 0 
DWIDTH 12 0
BBX 11 16 1 -2
BITMAP
0000
1F00
3180
60C0
C040
C000
C000
C000
C040
60C0
3180
1F00
0C00
0400
1800
0000
ENDCHAR
STARTCHAR 200
ENCODING 200
SWIDTH 520 0 
DWIDTH 12 0
BBX 11 16 1 -2
BITMAP
0000
1800
0C00
0000
7F80
6000
6000
6000
7F00
6000
6000
6000
7F80
0000
0000
0000
ENDCHAR
STARTCHAR 201
ENCODING 201
SWIDTH 520 0 
DWIDTH 12 0
BBX 11 16 1 -2
BITMAP
0000
0600
0C00
0000
7F80
6000
6000
6000
7F00
6000
6000
6000
7F80
0000
0000
0000
ENDCHAR
STARTCHAR 202
ENCODING 202
SWIDTH 520 0 
DWIDTH 12 0
BBX 11 16 1 -2
BITMAP
0000
1C00
3600
0000
7F80
6000
6000
6000
7F00
6000
6000
6000
7F80
0000
0000
0000
ENDCHAR
STARTCHAR 203
ENCODING 203
SWIDTH 520 0 
DWIDTH 12 0
BBX 11 16 1 -2
BITMAP
0000
3300
3300
0000
7F80
6000
6000
6000
7F00
6000
6000
6000
7F80
0000
0000
0000
ENDCHAR
STARTCHAR 204
ENCODING 204
SWIDTH 520 0 
DWIDTH 4 0
BBX 3 16 1 -2
BITMAP
00
C0
60
00
60
60
60
60
60
60
60
60
60
00
00
00
ENDCHAR
STARTCHAR 205
ENCODING 205
SWIDTH 520 0 
DWIDTH 4 0
BBX 3 16 1 -2
BITMAP
00
60
C0
00
60
60
60
60
60
60
60
60
60
00
00
00
ENDCHAR
STARTCHAR 206
ENCODING 206
SWIDTH 520 0 
DWIDTH 6 0
BBX 5 16 1 -2
BITMAP
00
70
D8
00
60
60
60
60
60
60
60
60
60
00
00
00
ENDCHAR
STARTCHAR 207
ENCODING 207
SWIDTH 520 0 
DWIDTH 6 0
BBX 5 16 1 -2
BITMAP
00
D8
D8
00
60
60
60
60
60
60
60
60
60
00
00
00
ENDCHAR
STARTCHAR 208
ENCODING 208
SWIDTH 520 0 
DWIDTH 12 0
BBX 11 16 1 -2
BITMAP
0000
0000
0000
7F00
6180
60C0
60C0
F0C0
60C0
60C0
60C0
6180
7F00
0000
0000
0000
ENDCHAR
STARTCHAR 209
ENCODING 209
SWIDTH 520 0 
DWIDTH 11 0
BBX 10 16 1 -2
BITMAP
0000
1D00
2E00
0000
60C0
70C0
68C0
68C0
64C0
62C0
61C0
61C0
60C0
0000
0000
0000
ENDCHAR
STARTCHAR 210
ENCODING 210
SWIDTH 520 0 
DWIDTH 11 0
BBX 10 16 1 -2
BITMAP
0000
1800
0C00
0000
1F00
3180
60C0
60C0
60C0
60C0
60C0
3180
1F00
0000
0000
0000
ENDCHAR
STARTCHAR 211
ENCODING 211
SWIDTH 520 0 
DWIDTH 11 0
BBX 10 16 1 -2
BITMAP
0000
0600
0C00
0000
1F00
3180
60C0
60C0
60C0
60C0
60C0
3180
1F00
0000
0000
0000
ENDCHAR
STARTCHAR 212
ENCODING 212
SWIDTH 520 0 
DWIDTH 11 0
BBX 10 16 1 -2
BITMAP
0000
0E00
1B00
0000
1F00
3180
60C0
60C0
60C0
60C0
60C0
3180
1F00
0000
0000
0000
ENDCHAR
STARTCHAR 213
ENCODING 213
SWIDTH 520 0 
DWIDTH 11 0
BBX 10 16 1 -2
BITMAP
0000
0E80
1700
0000
1F00
3180
60C0
60C0
60C0
60C0
60C0
3180
1F00
0000
0000
0000
ENDCHAR
STARTCHAR 214
ENCODING 214
SWIDTH 520 0 
DWIDTH 11 0
BBX 10 16 1 -2
BITMAP
0000
1980
1980
0000
1F00
3180
60C0
60C0
60C0
60C0
60C0
3180
1F00
0000
0000
0000
ENDCHAR
STARTCHAR 215
ENCODING 215
SWIDTH 520 0 
DWIDTH 11 0
BBX 10 16 1 -2
BITMAP
0000
0000
0000
0000
0000
60C0
3180
1B00
0E00
0E00
1B00
3180
60C0
0000
0000
0000
ENDCHAR
STARTCHAR 216
ENCODING 216
SWIDTH 520 0 
DWIDTH 11 0
BBX 10 16 1 -2
BITMAP
0000
3F40
6180
C1C0
C1C0
C2C0
C4C0
C8C0
D0C0
E0C0
E0C0
6180
BF00
0000
0000
0000
ENDCHAR
STARTCHAR 217
ENCODING 217
SWIDTH 520 0 
DWIDTH 11 0
BBX 10 16 1 -2
BITMAP
0000
1800
0C00
0000
60C0
60C0
60C0
60C0
60C0
60C0
60C0
60C0
1F00
0000
0000
0000
ENDCHAR
STARTCHAR 218
ENCODING 218
SWIDTH 520 0 
DWIDTH 11 0
BBX 10 16 1 -2
BITMAP
0000
0600
0C00
0000
60C0
60C0
60C0
60C0
60C0
60C0
60C0
60C0
1F00
0000
0000
0000
ENDCHAR
STARTCHAR 219
ENCODING 219
SWIDTH 520 0 
DWIDTH 11 0
BBX 10 16 1 -2
BITMAP
0000
0E00
1B00
0000
60C0
60C0
60C0
60C0
60C0
60C0
60C0
60C0
1F00
0000
0000
0000
ENDCHAR
STARTCHAR 220
ENCODING 220
SWIDTH 520 0 
DWIDTH 11 0
BBX 10 16 1 -2
BITMAP
0000
3180
3180
0000
60C0
60C0
60C0
60C0
60C0
60C0
60C0
60C0
1F00
0000
0000
0000
ENDCHAR
STARTCHAR 221
ENCODING 221
SWIDTH 520 0 
DWIDTH 11 0
BBX 10 16 1 -2
BITMAP
0000
0C00
1800
C0C0
6180
3300
1E00
0C00
0C00
0C00
0C00
0C00
0C00
0000
0000
0000
ENDCHAR
STARTCHAR 222
ENCODING 222
SWIDTH 520 0 
DWIDTH 11 0
BBX 10 16 1 -2
BITMAP
0000
C000
C000
DE00
E300
C180
C180
C180
E300
DE00
C000
C000
C000
0000
0000
0000
ENDCHAR
STARTCHAR 223
ENCODING 223
SWIDTH 520 0 
DWIDTH 11 0
BBX 10 16 1 -2
BITMAP
0000
3E00
6300
6300
6300
6600
6400
6600
6300
6180
6180
7380
6F00
0000
0000
0000
ENDCHAR
STARTCHAR 224
ENCODING 224
SWIDTH 520 0 
DWIDTH 10 0
BBX 9 16 1 -2
BITMAP
0000
0000
0000
1800
0C00
0000
3E00
0300
3F00
6300
6300
6300
3F80
0000
0000
0000
ENDCHAR
STARTCHAR 225
ENCODING 225
SWIDTH 520 0 
DWIDTH 10 0
BBX 9 16 1 -2
BITMAP
0000
0000
0000
0C00
1800
0000
3E00
0300
3F00
6300
6300
6300
3F80
0000
0000
0000
ENDCHAR
STARTCHAR 226
ENCODING 226
SWIDTH 520 0 
DWIDTH 10 0
BBX 9 16 1 -2
BITMAP
0000
0000
0000
1C00
3600
0000
3E00
0300
3F00
6300
6300
6300
3F80
0000
0000
0000
ENDCHAR
STARTCHAR 227
ENCODING 227
SWIDTH 520 0 
DWIDTH 10 0
BBX 9 16 1 -2
BITMAP
0000
0000
0000
1D00
2E00
0000
3E00
0300
3F00
6300
6300
6300
3F80
0000
0000
0000
ENDCHAR
STARTCHAR 228
ENCODING 228
SWIDTH 520 0 
DWIDTH 10 0
BBX 9 16 1 -2
BITMAP
0000
0000
0000
3300
3300
0000
3E00
0300
3F00
6300
6300
6300
3F80
0000
0000
0000
ENDCHAR
STARTCHAR 229
ENCODING 229
SWIDTH 520 0 
DWIDTH 10 0
BBX 9 16 1 -2
BITMAP
0000
0000
1800
2400
1800
0000
3E00
0300
3F00
6300
6300
6300
3F80
0000
0000
0000
ENDCHAR
STARTCHAR 230
ENCODING 230
SWIDTH 520 0 
DWIDTH 13 0
BBX 12 16 1 -2
BITMAP
0000
0000
0000
0000
0000
79E0
C630
0630
7FF0
C600
C600
C630
79E0
0000
0000
0000
ENDCHAR
STARTCHAR 231
ENCODING 231
SWIDTH 520 0 
DWIDTH 10 0
BBX 9 16 1 -2
BITMAP
0000
0000
0000
0000
0000
3C00
6200
C100
C000
C000
C100
6200
3C00
0C00
0400
1800
ENDCHAR
STARTCHAR 232
ENCODING 232
SWIDTH 520 0 
DWIDTH 8 0
BBX 7 16 1 -2
BITMAP
00
00
00
30
18
00
7C
C6
C6
FE
C0
C6
7C
00
00
00
ENDCHAR
STARTCHAR 233
ENCODING 233
SWIDTH 520 0 
DWIDTH 8 0
BBX 7 16 1 -2
BITMAP
00
00
00
18
30
00
7C
C6
C6
FE
C0
C6
7C
00
00
00
ENDCHAR
STARTCHAR 234
ENCODING 234
SWIDTH 520 0 
DWIDTH 8 0
BBX 7 16 1 -2
BITMAP
00
00
00
38
6C
00
7C
C6
C6
FE
C0
C6
7C
00
00
00
ENDCHAR
STARTCHAR 235
ENCODING 235
SWIDTH 520 0 
DWIDTH 8 0
BBX 7 16 1 -2
BITMAP
00
00
00
6C
6C
00
7C
C6
C6
FE
C0
C6
7C
00
00
00
ENDCHAR
STARTCHAR 236
ENCODING 236
SWIDTH 520 0 
DWIDTH 4 0
BBX 3 16 1 -2
BITMAP
00
00
00
C0
60
00
60
60
60
60
60
60
60
00
00
00
ENDCHAR
STARTCHAR 237
ENCODING 237
SWIDTH 520 0 
DWIDTH 4 0
BBX 3 16 1 -2
BITMAP
00
00
00
60
C0
00
60
60
60
60
60
60
60
00
00
00
ENDCHAR
STARTCHAR 238
ENCODING 238
SWIDTH 520 0 
DWIDTH 6 0
BBX 5 16 1 -2
BITMAP
00
00
00
70
D8
00
60
60
60
60
60
60
60
00
00
00
ENDCHAR
STARTCHAR 239
ENCODING 239
SWIDTH 520 0 
DWIDTH 6 0
BBX 5 16 1 -2
BITMAP
00
00
00
D8
D8
00
60
60
60
60
60
60
60
00
00
00
ENDCHAR
STARTCHAR 240
ENCODING 240
SWIDTH 520 0 
DWIDTH 9 0
BBX 8 16 1 -2
BITMAP
00
00
68
30
38
4C
06
7E
CE
C6
C6
CE
7C
00
00
00
ENDCHAR
STARTCHAR 241
ENCODING 241
SWIDTH 520 0 
DWIDTH 9 0
BBX 8 16 1 -2
BITMAP
00
00
00
3A
5C
00
DE
E3
C3
C3
C3
C3
C3
00
00
00
ENDCHAR
STARTCHAR 242
ENCODING 242
SWIDTH 520 0 
DWIDTH 8 0
BBX 7 16 1 -2
BITMAP
00
00
00
30
18
00
38
6C
C6
C6
C6
6C
38
00
00
00
ENDCHAR
STARTCHAR 243
ENCODING 243
SWIDTH 520 0 
DWIDTH 8 0
BBX 7 16 1 -2
BITMAP
00
00
00
18
30
00
38
6C
C6
C6
C6
6C
38
00
00
00
ENDCHAR
STARTCHAR 244
ENCODING 244
SWIDTH 520 0 
DWIDTH 8 0
BBX 7 16 1 -2
BITMAP
00
00
00
38
6C
00
38
6C
C6
C6
C6
6C
38
00
00
00
ENDCHAR
STARTCHAR 245
ENCODING 245
SWIDTH 520 0 
DWIDTH 8 0
BBX 7 16 1 -2
BITMAP
00
00
00
3A
5C
00
38
6C
C6
C6
C6
6C
38
00
00
00
ENDCHAR
STARTCHAR 246
ENCODING 246
SWIDTH 520 0 
DWIDTH 8 0
BBX 7 16 1 -2
BITMAP
00
00
00
6C
6C
00
38
6C
C6
C6
C6
6C
38
00
00
00
ENDCHAR
STARTCHAR 247
ENCODING 247
SWIDTH 520 0 
DWIDTH 9 0
BBX 8 16 1 -2
BITMAP
00
00
00
00
18
18
00
FF
FF
00
18
18
00
00
00
00
ENDCHAR
STARTCHAR 248
ENCODING 248
SWIDTH 520 0 
DWIDTH 8 0
BBX 7 16 1 -2
BITMAP
00
00
00
00
00
00
3A
6C
CE
D6
E6
6C
B8
00
00
00
ENDCHAR
STARTCHAR 249
ENCODING 249
SWIDTH 520 0 
DWIDTH 9 0
BBX 8 16 1 -2
BITMAP
00
00
00
30
18
00
C6
C6
C6
C6
C6
C6
7F
00
00
00
ENDCHAR
STARTCHAR 250
ENCODING 250
SWIDTH 520 0 
DWIDTH 9 0
BBX 8 16 1 -2
BITMAP
00
00
00
18
30
00
C6
C6
C6
C6
C6
C6
7F
00
00
00
ENDCHAR
STARTCHAR 251
ENCODING 251
SWIDTH 520 0 
DWIDTH 9 0
BBX 8 16 1 -2
BITMAP
00
00
00
38
6C
00
C6
C6
C6
C6
C6
C6
7F
00
00
00
ENDCHAR
STARTCHAR 252
ENCODING 252
SWIDTH 520 0 
DWIDTH 9 0
BBX 8 16 1 -2
BITMAP
00
00
00
66
66
00
C6
C6
C6
C6
C6
C6
7F
00
00
00
ENDCHAR
STARTCHAR 253
ENCODING 253
SWIDTH 520 0 
DWIDTH 11 0
BBX 10 16 1 -2
BITMAP
0000
0000
0000
0C00
1800
0000
C180
C180
6300
6300
3600
3600
1C00
0C00
1800
3000
ENDCHAR
STARTCHAR 254
ENCODING 254
SWIDTH 520 0 
DWIDTH 11 0
BBX 10 16 1 -2
BITMAP
0000
0000
C000
C000
C000
DE00
E300
C180
C180
C180
C180
E300
DE00
C000
C000
C000
ENDCHAR
STARTCHAR 255
ENCODING 255
SWIDTH 520 0 
DWIDTH 11 0
BBX 10 16 1 -2
BITMAP
0000
0000
0000
3300
3300
0000
C180
C180
6300
6300
3600
3600
1C00
0C00
1800
3000
ENDCHAR
STARTCHAR 915
ENCODING 915
SWIDTH 520 0 
DWIDTH 13 0
BBX 12 16 1 -2
BITMAP
0000
7FE0
3060
3000
3000
3000
3000
3000
3000
3000
3000
3000
7800
0000
0000
0000
ENDCHAR
STARTCHAR 916
ENCODING 916
SWIDTH 520 0 
DWIDTH 12 0
BBX 11 16 1 -2
BITMAP
0000
0000
0400
0E00
0E00
0A00
1B00
1100
3180
3180
2080
60C0
7FC0
0000
0000
0000
ENDCHAR
STARTCHAR 920
ENCODING 920
SWIDTH 520 0 
DWIDTH 12 0
BBX 11 16 1 -2
BITMAP
0000
3F00
6180
C0C0
D2C0
D2C0
DEC0
D2C0
D2C0
C0C0
C0C0
6180
3F00
0000
0000
0000
ENDCHAR
STARTCHAR 923
ENCODING 923
SWIDTH 520 0 
DWIDTH 13 0
BBX 12 16 1 -2
BITMAP
0000
0600
0600
0F00
0900
1980
1980
1080
30C0
30C0
6060
6060
F0F0
0000
0000
0000
ENDCHAR
STARTCHAR 926
ENCODING 926
SWIDTH 520 0 
DWIDTH 11 0
BBX 10 16 1 -2
BITMAP
0000
FFC0
FFC0
8040
0000
2100
3F00
3F00
2100
0000
8040
FFC0
FFC0
0000
0000
0000
ENDCHAR
STARTCHAR 928
ENCODING 928
SWIDTH 520 0 
DWIDTH 10 0
BBX 9 16 1 -2
BITMAP
0000
0000
0000
0000
7F00
3300
3600
3600
6600
6C00
6C00
C700
0000
0000
0000
0000
ENDCHAR
STARTCHAR 931
ENCODING 931
SWIDTH 520 0 
DWIDTH 12 0
BBX 11 16 1 -2
BITMAP
0000
7FC0
60C0
3000
1800
0C00
0600
0600
0C00
1800
30C0
60C0
7FC0
0000
0000
0000
ENDCHAR
STARTCHAR 934
ENCODING 934
SWIDTH 520 0 
DWIDTH 12 0
BBX 11 16 1 -2
BITMAP
0000
3F00
0C00
0C00
7F80
CCC0
CCC0
CCC0
CCC0
7F80
0C00
0C00
3F00
0000
0000
0000
ENDCHAR
STARTCHAR 936
ENCODING 936
SWIDTH 520 0 
DWIDTH 12 0
BBX 11 16 1 -2
BITMAP
0000
0000
6F60
36C0
36C0
36C0
36C0
36C0
36C0
1F80
0F00
0600
1F80
0000
0000
0000
ENDCHAR
STARTCHAR 937
ENCODING 937
SWIDTH 520 0 
DWIDTH 12 0
BBX 11 16 1 -2
BITMAP
0000
1F00
3180
60C0
60C0
60C0
60C0
60C0
3180
1100
D160
D160
F1E0
0000
0000
0000
ENDCHAR
STARTCHAR 8230
ENCODING 8230
SWIDTH 520 0 
DWIDTH 20 0
BBX 14 16 1 -2
BITMAP
0000
0000
0000
0000
0000
0000
0000
0000
0000
0000
0000
6318
6318
0000
0000
0000
ENDCHAR
STARTCHAR 8364
ENCODING 8364
SWIDTH 520 0 
DWIDTH 8 0
BBX 7 16 1 -2
BITMAP
00
00
3C
66
C0
F8
C0
F8
C0
C0
66
3C
00
00
00
00
ENDCHAR
ENDFONT