STARTFONT 2.1
COMMENT  Product Version MAUI VERSION
FONTBOUNDINGBOX 20 20 -1 -3 
STARTPROPERTIES 2
FONT_ASCENT 20
FONT_DESCENT 0
ENDPROPERTIES
CHARS 1
STARTCHAR 65515
ENCODING 65515
SWIDTH 520 0
DWIDTH 20 0
BBX 20 20 0 -3
BITMAP
000000
000000
000000
1FFF80
100080
100080
100080
100080
100080
100080
100080
100080
100080
100080
100080
100080
1FFF80
000000
000000
000000
ENDCHAR