STARTFONT 2.1
COMMENT Product Version MAUI VERSION
FONTBOUNDINGBOX 14 14 -1 -3 
STARTPROPERTIES 2
FONT_ASCENT 11
FONT_DESCENT 3
ENDPROPERTIES
CHARS 275
STARTCHAR 2
ENCODING 2
SWIDTH 520 0 
DWIDTH 8 0
BBX 7 14 0 -3
BITMAP
00
30
78
B4
B0
70
38
34
B4
78
30
00
00
00
ENDCHAR
STARTCHAR 133
ENCODING 133
SWIDTH 520 0 
DWIDTH 14 0
BBX 10 14 0 -3
BITMAP
0000
0000
0000
0180
0180
2180
6180
FF80
6000
2000
0000
0000
0000
0000
ENDCHAR
STARTCHAR 134
ENCODING 134
SWIDTH 520 0 
DWIDTH 12 0
BBX 12 14 0 -3
BITMAP
0000
0000
0000
0000
0000
0000
C060
C060
C060
FFE0
0000
0000
0000
0000
ENDCHAR
STARTCHAR 230
ENCODING 230
SWIDTH 520 0 
DWIDTH 8 0
BBX 8 14 0 -3
BITMAP
00
00
00
00
76
99
19
FF
98
99
6E
00
00
00
ENDCHAR
STARTCHAR 240
ENCODING 240
SWIDTH 520 0 
DWIDTH 6 0
BBX 6 14 0 -3
BITMAP
00
48
30
30
58
18
6C
CC
CC
CC
78
00
00
00
ENDCHAR
STARTCHAR 331
ENCODING 331
SWIDTH 520 0 
DWIDTH 6 0
BBX 6 14 0 -3
BITMAP
00
00
00
00
DC
EC
CC
CC
CC
CC
0C
0C
4C
38
ENDCHAR
STARTCHAR 593
ENCODING 593
SWIDTH 520 0 
DWIDTH 7 0
BBX 7 14 0 -3
BITMAP
00
00
00
00
34
4C
CC
CC
CC
CC
7A
00
00
00
ENDCHAR
STARTCHAR 596
ENCODING 596
SWIDTH 520 0 
DWIDTH 6 0
BBX 6 14 0 -3
BITMAP
00
00
00
00
78
CC
0C
0C
0C
CC
78
00
00
00
ENDCHAR
STARTCHAR 601
ENCODING 601
SWIDTH 520 0 
DWIDTH 6 0
BBX 6 14 0 -3
BITMAP
00
00
00
00
78
CC
0C
FC
CC
CC
78
00
00
00
ENDCHAR
STARTCHAR 602
ENCODING 602
SWIDTH 520 0 
DWIDTH 8 0
BBX 8 14 0 -3
BITMAP
00
00
00
00
79
CE
1E
66
C5
CC
78
00
00
00
ENDCHAR
STARTCHAR 603
ENCODING 603
SWIDTH 520 0 
DWIDTH 6 0
BBX 6 14 0 -3
BITMAP
00
00
00
00
78
CC
C0
78
C0
CC
78
00
00
00
ENDCHAR
STARTCHAR 609
ENCODING 609
SWIDTH 520 0 
DWIDTH 6 0
BBX 6 14 0 -3
BITMAP
00
00
00
00
7C
CC
CC
CC
CC
CC
7C
0C
8C
78
ENDCHAR
STARTCHAR 618
ENCODING 618
SWIDTH 520 0 
DWIDTH 4 0
BBX 4 14 0 -3
BITMAP
00
00
00
00
F0
60
60
60
60
60
F0
00
00
00
ENDCHAR
STARTCHAR 643
ENCODING 643
SWIDTH 520 0 
DWIDTH 6 0
BBX 6 14 0 -3
BITMAP
00
18
34
30
30
30
30
30
30
30
30
30
A0
40
ENDCHAR
STARTCHAR 650
ENCODING 650
SWIDTH 520 0 
DWIDTH 7 0
BBX 7 14 0 -3
BITMAP
00
00
00
00
EE
6C
C6
C6
C6
6C
38
00
00
00
ENDCHAR
STARTCHAR 652
ENCODING 652
SWIDTH 520 0 
DWIDTH 8 0
BBX 8 14 0 -3
BITMAP
00
00
00
00
10
18
38
2C
6C
46
EF
00
00
00
ENDCHAR
STARTCHAR 658
ENCODING 658
SWIDTH 520 0 
DWIDTH 6 0
BBX 6 14 0 -3
BITMAP
00
00
00
00
FC
8C
18
30
18
0C
0C
8C
D8
70
ENDCHAR
STARTCHAR 711
ENCODING 711
SWIDTH 520 0 
DWIDTH 8 0
BBX 8 14 0 -3
BITMAP
00
C3
66
3C
18
00
00
00
00
00
00
00
00
00
ENDCHAR
STARTCHAR 714
ENCODING 714
SWIDTH 560 0 
DWIDTH 14 0
BBX 14 14 0 -3
BITMAP
0000
0000
0000
0080
0100
0200
0400
0800
0000
0000
0000
0000
0000
0000
ENDCHAR
STARTCHAR 715
ENCODING 715
SWIDTH 520 0 
DWIDTH 3 0
BBX 3 14 0 -3
BITMAP
00
C0
40
20
00
00
00
00
00
00
00
00
00
00
ENDCHAR
STARTCHAR 716
ENCODING 716
SWIDTH 520 0 
DWIDTH 3 0
BBX 3 14 0 -3
BITMAP
00
00
00
00
00
00
00
00
00
00
00
40
40
40
ENDCHAR
STARTCHAR 719
ENCODING 719
SWIDTH 520 0 
DWIDTH 6 0
BBX 6 14 0 -3
BITMAP
00
00
00
00
00
00
00
00
00
00
08
10
30
60
ENDCHAR
STARTCHAR 729
ENCODING 729
SWIDTH 560 0 
DWIDTH 14 0
BBX 14 14 0 -3
BITMAP
0000
0000
0000
0000
0300
0780
0780
0300
0000
0000
0000
0000
0000
0000
ENDCHAR
STARTCHAR 731
ENCODING 731
SWIDTH 520 0 
DWIDTH 6 0
BBX 6 14 0 -3
BITMAP
00
00
00
20
40
C0
C0
C0
E4
78
00
00
00
00
ENDCHAR
STARTCHAR 768
ENCODING 768
SWIDTH 520 0 
DWIDTH 14 0
BBX 14 14 0 -3
BITMAP
1C00
0E00
0600
0300
0100
0080
0000
0000
0000
0000
0000
0000
0000
0000
ENDCHAR
STARTCHAR 7735
ENCODING 7735
SWIDTH 520 0 
DWIDTH 2 0
BBX 2 14 0 -3
BITMAP
00
00
00
00
C0
C0
C0
C0
C0
C0
C0
00
C0
C0
ENDCHAR
STARTCHAR 7747
ENCODING 7747
SWIDTH 520 0 
DWIDTH 10 0
BBX 10 14 0 -3
BITMAP
0000
0000
0000
0000
F780
CCC0
CCC0
CCC0
CCC0
CCC0
CCC0
0000
0C00
0C00
ENDCHAR
STARTCHAR 7751
ENCODING 7751
SWIDTH 520 0 
DWIDTH 6 0
BBX 6 14 0 -3
BITMAP
00
00
00
00
D8
EC
CC
CC
CC
CC
CC
00
30
30
ENDCHAR
STARTCHAR 8208
ENCODING 8208
SWIDTH 520 0 
DWIDTH 12 0
BBX 6 14 0 -3
BITMAP
00
00
00
00
00
00
00
7C
00
00
00
00
00
00
ENDCHAR
STARTCHAR 8210
ENCODING 8210
SWIDTH 520 0 
DWIDTH 8 0
BBX 8 14 0 -3
BITMAP
00
00
00
00
00
00
00
7F
00
00
00
00
00
00
ENDCHAR
STARTCHAR 8211
ENCODING 8211
SWIDTH 520 0 
DWIDTH 10 0
BBX 10 14 0 -3
BITMAP
0000
0000
0000
0000
0000
0000
0000
7FC0
0000
0000
0000
0000
0000
0000
ENDCHAR
STARTCHAR 8212
ENCODING 8212
SWIDTH 520 0 
DWIDTH 12 0
BBX 12 14 0 -3
BITMAP
0000
0000
0000
0000
0000
0000
0000
7FF0
0000
0000
0000
0000
0000
0000
ENDCHAR
STARTCHAR 8213
ENCODING 8213
SWIDTH 520 0 
DWIDTH 14 0
BBX 14 14 0 -3
BITMAP
0000
0000
0000
0000
0000
0000
0000
7FF8
0000
0000
0000
0000
0000
0000
ENDCHAR
STARTCHAR 8216
ENCODING 8216
SWIDTH 560 0 
DWIDTH 14 0
BBX 14 14 0 -3
BITMAP
0000
0010
0020
0030
0030
0000
0000
0000
0000
0000
0000
0000
0000
0000
ENDCHAR
STARTCHAR 8217
ENCODING 8217
SWIDTH 560 0 
DWIDTH 14 0
BBX 14 14 0 -3
BITMAP
0000
6000
6000
2000
4000
0000
0000
0000
0000
0000
0000
0000
0000
0000
ENDCHAR
STARTCHAR 8218
ENCODING 8218
SWIDTH 520 0 
DWIDTH 14 0
BBX 14 14 0 -3
BITMAP
0000
0000
0000
0000
0000
0000
0000
0000
0000
0000
6000
6000
2000
4000
ENDCHAR
STARTCHAR 8219
ENCODING 8219
SWIDTH 520 0 
DWIDTH 14 0
BBX 14 14 0 -3
BITMAP
0000
6000
6000
4000
2000
0000
0000
0000
0000
0000
0000
0000
0000
0000
ENDCHAR
STARTCHAR 8220
ENCODING 8220
SWIDTH 560 0 
DWIDTH 14 0
BBX 14 14 0 -3
BITMAP
0000
0090
0120
01B0
01B0
0000
0000
0000
0000
0000
0000
0000
0000
0000
ENDCHAR
STARTCHAR 8221
ENCODING 8221
SWIDTH 560 0 
DWIDTH 14 0
BBX 14 14 0 -3
BITMAP
0000
6C00
6C00
2400
4800
0000
0000
0000
0000
0000
0000
0000
0000
0000
ENDCHAR
STARTCHAR 8222
ENCODING 8222
SWIDTH 520 0 
DWIDTH 14 0
BBX 14 14 0 -3
BITMAP
0000
0000
0000
0000
0000
0000
0000
0000
0000
0000
6C00
6C00
2400
4800
ENDCHAR
STARTCHAR 8223
ENCODING 8223
SWIDTH 520 0 
DWIDTH 14 0
BBX 14 14 0 -3
BITMAP
0000
01B0
01B0
0120
0090
0000
0000
0000
0000
0000
0000
0000
0000
0000
ENDCHAR
STARTCHAR 8230
ENCODING 8230
SWIDTH 560 0 
DWIDTH 14 0
BBX 14 14 0 -3
BITMAP
0000
0000
0000
0000
0000
0000
0000
0000
0000
C630
C630
0000
0000
0000
ENDCHAR
STARTCHAR 8231
ENCODING 8231
SWIDTH 560 0 
DWIDTH 14 0
BBX 14 14 0 -3
BITMAP
0000
0000
0000
0000
0000
0200
0700
0200
0000
0000
0000
0000
0000
0000
ENDCHAR
STARTCHAR 8240
ENCODING 8240
SWIDTH 520 0
DWIDTH 14 0
BBX 13 14 1 -3
BITMAP
0000
6040
9080
9100
9200
6400
0800
1000
2630
4948
8948
0948
0630
0000
ENDCHAR
STARTCHAR 8242
ENCODING 8242
SWIDTH 520 0 
DWIDTH 14 0
BBX 14 14 0 -3
BITMAP
0000
0000
0300
0600
0400
0000
0000
0000
0000
0000
0000
0000
0000
0000
ENDCHAR
STARTCHAR 8243
ENCODING 8243
SWIDTH 520 0 
DWIDTH 14 0
BBX 14 14 0 -3
BITMAP
0000
0000
3300
6600
4400
0000
0000
0000
0000
0000
0000
0000
0000
0000
ENDCHAR
STARTCHAR 8245
ENCODING 8245
SWIDTH 520 0 
DWIDTH 14 0
BBX 14 14 0 -3
BITMAP
0000
0000
0300
0180
0080
0000
0000
0000
0000
0000
0000
0000
0000
0000
ENDCHAR
STARTCHAR 8246
ENCODING 8246
SWIDTH 520 0 
DWIDTH 14 0
BBX 14 14 0 -3
BITMAP
0000
0000
0330
0198
0088
0000
0000
0000
0000
0000
0000
0000
0000
0000
ENDCHAR
STARTCHAR 8248
ENCODING 8248
SWIDTH 520 0 
DWIDTH 14 0
BBX 14 14 0 -3
BITMAP
0000
0000
0000
0000
0000
0300
0780
0CC0
0CC0
1860
1860
0000
0000
0000
ENDCHAR
STARTCHAR 8249
ENCODING 8249
SWIDTH 520 0 
DWIDTH 14 0
BBX 14 14 0 -3
BITMAP
0000
0000
00C0
0380
0E00
3800
6000
3800
0E00
0380
00C0
0000
0000
0000
ENDCHAR
STARTCHAR 8250
ENCODING 8250
SWIDTH 520 0 
DWIDTH 14 0
BBX 14 14 0 -3
BITMAP
0000
0000
0C00
0700
01C0
0070
0018
0070
01C0
0700
0C00
0000
0000
0000
ENDCHAR
STARTCHAR 8251
ENCODING 8251
SWIDTH 520 0 
DWIDTH 14 0
BBX 14 14 0 -3
BITMAP
0000
0000
0000
1320
0840
0480
1320
1320
0480
0840
1320
0000
0000
0000
ENDCHAR
STARTCHAR 8260
ENCODING 8260
SWIDTH 520 0 
DWIDTH 14 0
BBX 14 14 0 -3
BITMAP
0000
0000
0200
0200
0200
0400
0400
0400
0800
0800
0800
0000
0000
0000
ENDCHAR
STARTCHAR 8358
ENCODING 8358
SWIDTH 520 0
DWIDTH 14 0
BBX 14 14 0 -3
BITMAP
0000
0000
1860
1C60
1A60
3FF0
1960
3FF0
18E0
18E0
1860
1860
0000
0000
ENDCHAR
STARTCHAR 8359
ENCODING 8359
SWIDTH 520 0 
DWIDTH 12 0
BBX 12 14 0 -3
BITMAP
0000
E000
9000
9000
94E0
94A0
EE80
84E0
8420
84A0
86E0
0000
0000
0000
ENDCHAR
STARTCHAR 8360
ENCODING 8360
SWIDTH 520 0 
DWIDTH 14 0
BBX 10 14 0 -3
BITMAP
0000
F000
9800
8800
8B80
9A40
F240
E380
B200
9A00
8E00
0000
0000
0000
ENDCHAR
STARTCHAR 8364
ENCODING 8364
SWIDTH 520 0 
DWIDTH 14 0
BBX 14 14 0 -3
BITMAP
0000
0000
03C0
0620
0600
0F80
0600
0F80
0600
0620
03C0
0000
0000
0000
ENDCHAR
STARTCHAR 8451
ENCODING 8451
SWIDTH 520 0
DWIDTH 14 0
BBX 13 14 1 -3
BITMAP
6000
93D0
9430
6810
0800
0800
0800
0800
0800
0800
0810
0420
03C0
0000
ENDCHAR
STARTCHAR 8457
ENCODING 8457
SWIDTH 520 0 
DWIDTH 14 0
BBX 14 14 0 -3
BITMAP
0000
37F8
4918
4908
3100
0120
01E0
0120
0120
0100
0100
0100
0380
0000
ENDCHAR
STARTCHAR 8482
ENCODING 8482
SWIDTH 520 0 
DWIDTH 9 0
BBX 9 14 0 -3
BITMAP
0000
E880
4D80
4D80
4A80
4880
4880
0000
0000
0000
0000
0000
0000
0000
ENDCHAR
STARTCHAR 8544
ENCODING 8544
SWIDTH 520 0 
DWIDTH 2 0
BBX 2 14 0 -3
BITMAP
00
C0
C0
C0
C0
C0
C0
C0
C0
C0
C0
00
00
00
ENDCHAR
STARTCHAR 8545
ENCODING 8545
SWIDTH 520 0 
DWIDTH 5 0
BBX 5 14 0 -3
BITMAP
00
D8
D8
D8
D8
D8
D8
D8
D8
D8
D8
00
00
00
ENDCHAR
STARTCHAR 8546
ENCODING 8546
SWIDTH 520 0 
DWIDTH 8 0
BBX 8 14 0 -3
BITMAP
00
DB
DB
DB
DB
DB
DB
DB
DB
DB
DB
00
00
00
ENDCHAR
STARTCHAR 8547
ENCODING 8547
SWIDTH 520 0 
DWIDTH 10 0
BBX 10 14 0 -3
BITMAP
0000
D8C0
D8C0
D8C0
D8C0
CD80
CD80
CD80
C700
C700
C700
0000
0000
0000
ENDCHAR
STARTCHAR 8548
ENCODING 8548
SWIDTH 520 0 
DWIDTH 10 0
BBX 10 14 0 -3
BITMAP
0000
C600
C600
C600
C600
6C00
6C00
6C00
3800
3800
3800
0000
0000
0000
ENDCHAR
STARTCHAR 8549
ENCODING 8549
SWIDTH 520 0 
DWIDTH 11 0
BBX 11 14 0 -3
BITMAP
0000
C660
C660
C660
C660
6C60
6C60
6C60
3860
3860
3860
0000
0000
0000
ENDCHAR
STARTCHAR 8550
ENCODING 8550
SWIDTH 520 0 
DWIDTH 13 0
BBX 13 14 0 -3
BITMAP
0000
C6D8
C6D8
C6D8
C6D8
6CD8
6CD8
6CD8
38D8
38D8
38D8
0000
0000
0000
ENDCHAR
STARTCHAR 8551
ENCODING 8551
SWIDTH 520 0 
DWIDTH 14 0
BBX 14 14 0 -3
BITMAP
0000
CF6C
CF6C
CF6C
CF6C
7B6C
7B6C
7B6C
336C
336C
336C
0000
0000
0000
ENDCHAR
STARTCHAR 8552
ENCODING 8552
SWIDTH 520 0 
DWIDTH 11 0
BBX 11 14 0 -3
BITMAP
0000
CC60
CC60
CC60
C7C0
C380
C380
C7C0
CC60
CC60
CC60
0000
0000
0000
ENDCHAR
STARTCHAR 8553
ENCODING 8553
SWIDTH 520 0 
DWIDTH 7 0
BBX 7 14 0 -3
BITMAP
00
C6
C6
C6
7C
38
38
7C
C6
C6
C6
00
00
00
ENDCHAR
STARTCHAR 8554
ENCODING 8554
SWIDTH 520 0 
DWIDTH 11 0
BBX 11 14 0 -3
BITMAP
0000
C660
C660
C660
7C60
3860
3860
7C60
C660
C660
C660
0000
0000
0000
ENDCHAR
STARTCHAR 8555
ENCODING 8555
SWIDTH 520 0 
DWIDTH 14 0
BBX 14 14 0 -3
BITMAP
0000
C66C
C66C
C66C
7C6C
386C
386C
7C6C
C66C
C66C
C66C
0000
0000
0000
ENDCHAR
STARTCHAR 8560
ENCODING 8560
SWIDTH 520 0 
DWIDTH 2 0
BBX 2 14 0 -3
BITMAP
00
C0
C0
00
C0
C0
C0
C0
C0
C0
C0
00
00
00
ENDCHAR
STARTCHAR 8561
ENCODING 8561
SWIDTH 520 0 
DWIDTH 6 0
BBX 6 14 0 -3
BITMAP
00
CC
CC
00
CC
CC
CC
CC
CC
CC
CC
00
00
00
ENDCHAR
STARTCHAR 8562
ENCODING 8562
SWIDTH 520 0 
DWIDTH 8 0
BBX 8 14 0 -3
BITMAP
00
DB
DB
00
DB
DB
DB
DB
DB
DB
DB
00
00
00
ENDCHAR
STARTCHAR 8563
ENCODING 8563
SWIDTH 520 0 
DWIDTH 11 0
BBX 11 14 0 -3
BITMAP
0000
C000
C000
0C60
CC60
CC60
C6C0
C6C0
C380
C380
C380
0000
0000
0000
ENDCHAR
STARTCHAR 8564
ENCODING 8564
SWIDTH 520 0 
DWIDTH 7 0
BBX 7 14 0 -3
BITMAP
00
00
00
C6
C6
C6
6C
6C
38
38
38
00
00
00
ENDCHAR
STARTCHAR 8565
ENCODING 8565
SWIDTH 520 0 
DWIDTH 11 0
BBX 11 14 0 -3
BITMAP
0000
0060
0060
C600
C660
C660
6C60
6C60
3860
3860
3860
0000
0000
0000
ENDCHAR
STARTCHAR 8566
ENCODING 8566
SWIDTH 520 0 
DWIDTH 14 0
BBX 14 14 0 -3
BITMAP
0000
006C
006C
C600
C66C
C66C
6C6C
6C6C
386C
386C
386C
0000
0000
0000
ENDCHAR
STARTCHAR 8567
ENCODING 8567
SWIDTH 520 0 
DWIDTH 14 0
BBX 14 14 0 -3
BITMAP
0000
036C
036C
CC00
CF6C
CF6C
7B6C
7B6C
336C
336C
336C
0000
0000
0000
ENDCHAR
STARTCHAR 8568
ENCODING 8568
SWIDTH 520 0 
DWIDTH 9 0
BBX 9 14 0 -3
BITMAP
0000
DB00
DB00
1B00
CE00
CE00
CE00
CE00
DB00
DB00
DB00
0000
0000
0000
ENDCHAR
STARTCHAR 8569
ENCODING 8569
SWIDTH 520 0 
DWIDTH 5 0
BBX 5 14 0 -3
BITMAP
00
D8
D8
D8
70
70
70
70
D8
D8
D8
00
00
00
ENDCHAR
STARTCHAR 8570
ENCODING 8570
SWIDTH 520 0 
DWIDTH 8 0
BBX 8 14 0 -3
BITMAP
00
DB
DB
D8
73
73
73
73
DB
DB
DB
00
00
00
ENDCHAR
STARTCHAR 8571
ENCODING 8571
SWIDTH 520 0 
DWIDTH 11 0
BBX 11 14 0 -3
BITMAP
0000
DB60
DB60
D800
7360
7360
7360
7360
DB60
DB60
DB60
0000
0000
0000
ENDCHAR
STARTCHAR 8730
ENCODING 8730
SWIDTH 520 0
DWIDTH 14 0
BBX 13 14 1 -3
BITMAP
00F8
0100
0100
0200
0200
0400
0400
0400
0800
4800
B000
3000
2000
2000
ENDCHAR
STARTCHAR 8745
ENCODING 8745
SWIDTH 520 0 
DWIDTH 4 0
BBX 4 14 0 -3
BITMAP
00
00
00
00
00
60
90
90
90
90
90
00
00
00
ENDCHAR
STARTCHAR 8857
ENCODING 8857
SWIDTH 520 0 
DWIDTH 10 0
BBX 9 14 0 -3
BITMAP
0000
0000
0000
1E00
2100
4080
4C80
4C80
4080
2100
1E00
0000
0000
0000
ENDCHAR
STARTCHAR 9733
ENCODING 9733
SWIDTH 520 0 
DWIDTH 14 0
BBX 14 14 0 -3
BITMAP
0000
0600
0600
0F00
0F00
FFF0
7FE0
3FC0
1F80
1F80
3FC0
39C0
70E0
6060
ENDCHAR
STARTCHAR 9734
ENCODING 9734
SWIDTH 520 0 
DWIDTH 14 0
BBX 14 14 0 -3
BITMAP
0000
0600
0600
0900
0900
F9F0
4020
2040
1080
1080
2640
2940
50A0
6060
ENDCHAR
STARTCHAR 12289
ENCODING 12289
SWIDTH 560 0 
DWIDTH 14 0
BBX 14 14 0 -3
BITMAP
0000
0000
0000
0000
0000
0400
0200
0100
0100
0000
0000
0000
0000
0000
ENDCHAR
STARTCHAR 12290
ENCODING 12290
SWIDTH 560 0 
DWIDTH 14 0
BBX 14 14 0 -3
BITMAP
0000
0000
0000
0000
0000
0300
0480
0480
0300
0000
0000
0000
0000
0000
ENDCHAR
STARTCHAR 12298
ENCODING 12298
SWIDTH 560 0 
DWIDTH 14 0
BBX 14 14 0 -3
BITMAP
0090
0090
0120
0120
0240
0240
0480
0480
0240
0240
0120
0120
0090
0090
ENDCHAR
STARTCHAR 12299
ENCODING 12299
SWIDTH 560 0 
DWIDTH 14 0
BBX 14 14 0 -3
BITMAP
4800
4800
2400
2400
1200
1200
0900
0900
1200
1200
2400
2400
4800
4800
ENDCHAR
STARTCHAR 12300
ENCODING 12300
SWIDTH 560 0 
DWIDTH 14 0
BBX 14 14 0 -3
BITMAP
0000
00F0
0080
0080
0080
0080
0080
0080
0080
0080
0080
0080
0000
0000
ENDCHAR
STARTCHAR 12301
ENCODING 12301
SWIDTH 560 0 
DWIDTH 14 0
BBX 14 14 0 -3
BITMAP
0000
0000
0800
0800
0800
0800
0800
0800
0800
0800
0800
0800
7800
0000
ENDCHAR
STARTCHAR 12302
ENCODING 12302
SWIDTH 560 0 
DWIDTH 14 0
BBX 14 14 0 -3
BITMAP
0000
03F0
0210
02F0
0280
0280
0280
0280
0280
0280
0280
0380
0000
0000
ENDCHAR
STARTCHAR 12303
ENCODING 12303
SWIDTH 560 0 
DWIDTH 14 0
BBX 14 14 0 -3
BITMAP
0000
0000
0E00
0A00
0A00
0A00
0A00
0A00
0A00
0A00
7A00
4200
7E00
0000
ENDCHAR
STARTCHAR 42064
ENCODING 42064
SWIDTH 520 0 
DWIDTH 14 0
BBX 14 14 0 -3
BITMAP
0000
0000
1800
3C00
3C00
1800
0000
0030
0078
0078
0030
0060
0000
0000
ENDCHAR
STARTCHAR 42065
ENCODING 42065
SWIDTH 520 0 
DWIDTH 14 0
BBX 14 14 0 -3
BITMAP
0000
6018
7038
3870
1CE0
0FC0
6798
7338
3870
1CE0
0FC0
0780
0300
0000
ENDCHAR
STARTCHAR 42066
ENCODING 42066
SWIDTH 520 0 
DWIDTH 14 0
BBX 14 14 0 -3
BITMAP
0000
0000
0000
0000
0000
377C
4554
4554
B754
0000
0000
0000
0000
0000
ENDCHAR
STARTCHAR 42067
ENCODING 42067
SWIDTH 520 0 
DWIDTH 14 0
BBX 14 14 0 -3
BITMAP
0000
0000
0000
0000
0000
0000
0000
0000
0380
0380
0700
0700
0E00
0000
ENDCHAR
STARTCHAR 42068
ENCODING 42068
SWIDTH 520 0 
DWIDTH 14 0
BBX 14 14 0 -3
BITMAP
0000
0000
0000
03F0
0FF8
3DDC
7EBC
FF3C
7EBC
3DDC
0FF8
03F0
0000
0000
ENDCHAR
STARTCHAR 42069
ENCODING 42069
SWIDTH 520 0 
DWIDTH 14 0
BBX 14 14 0 -3
BITMAP
0000
0000
0000
0000
0000
0300
0780
0780
0300
0000
0000
0000
0000
0000
ENDCHAR
STARTCHAR 42070
ENCODING 42070
SWIDTH 520 0 
DWIDTH 14 0
BBX 14 14 0 -3
BITMAP
0000
0000
000C
000C
000C
020C
1E0C
7FFC
FFFC
1E00
0600
0000
0000
0000
ENDCHAR
STARTCHAR 42071
ENCODING 42071
SWIDTH 520 0 
DWIDTH 14 0
BBX 14 14 0 -3
BITMAP
0000
0000
1800
2400
2400
1800
0000
0030
0078
0078
0030
0060
0000
0000
ENDCHAR
STARTCHAR 42072
ENCODING 42072
SWIDTH 520 0 
DWIDTH 14 0
BBX 14 14 0 -3
BITMAP
0000
0000
0000
0000
0000
0300
0480
0480
0300
0000
0000
0000
0000
0000
ENDCHAR
STARTCHAR 42073
ENCODING 42073
SWIDTH 520 0 
DWIDTH 14 0
BBX 14 14 0 -3
BITMAP
0000
3E00
3060
6EF8
6ED8
76D8
3EF0
0000
01C0
7FF0
FFFC
7FF0
01C0
0000
ENDCHAR
STARTCHAR 42074
ENCODING 42074
SWIDTH 520 0 
DWIDTH 14 0
BBX 14 14 0 -3
BITMAP
0000
0780
1B60
3FF0
3B70
6B58
7FF8
7FF8
6B58
3B70
3FF0
1B60
0780
0000
ENDCHAR
STARTCHAR 42075
ENCODING 42075
SWIDTH 520 0 
DWIDTH 14 0
BBX 14 14 0 -3
BITMAP
0000
00E0
01E0
03C0
0780
0F00
1E00
1E00
0F00
0780
03C0
01E0
00E0
0000
ENDCHAR
STARTCHAR 42076
ENCODING 42076
SWIDTH 520 0 
DWIDTH 14 0
BBX 14 14 0 -3
BITMAP
0000
0000
0000
0000
0000
0000
7FF8
7FF8
0000
0000
0000
0000
0000
0000
ENDCHAR
STARTCHAR 42077
ENCODING 42077
SWIDTH 520 0 
DWIDTH 14 0
BBX 14 14 0 -3
BITMAP
0000
6018
7018
7818
7C18
6E18
6718
6398
61D8
60F8
6078
6038
6018
0000
ENDCHAR
STARTCHAR 42078
ENCODING 42078
SWIDTH 520 0 
DWIDTH 14 0
BBX 14 14 0 -3
BITMAP
0000
0780
01C0
00C0
7FF8
7FF8
00C0
00C0
00C0
07F8
03F0
01E0
00C0
0000
ENDCHAR
STARTCHAR 42079
ENCODING 42079
SWIDTH 520 0 
DWIDTH 14 0
BBX 14 14 0 -3
BITMAP
0000
1F80
1FC0
18E0
1860
18E0
1FC0
1F80
1800
1800
1800
1800
1800
0000
ENDCHAR
STARTCHAR 42080
ENCODING 42080
SWIDTH 520 0 
DWIDTH 14 0
BBX 14 14 0 -3
BITMAP
0000
0000
0000
61F8
E10C
210C
2338
220C
260C
2478
0000
0000
0000
0000
ENDCHAR
STARTCHAR 42081
ENCODING 42081
SWIDTH 520 0 
DWIDTH 14 0
BBX 14 14 0 -3
BITMAP
0000
0000
0000
F0F8
918C
110C
3338
620C
C20C
FE78
0000
0000
0000
0000
ENDCHAR
STARTCHAR 42082
ENCODING 42082
SWIDTH 520 0 
DWIDTH 14 0
BBX 14 14 0 -3
BITMAP
0000
0780
1FE0
3FF0
3FF0
77B8
7FF8
7FF8
77B8
3870
3FF0
1FE0
0780
0000
ENDCHAR
STARTCHAR 42083
ENCODING 42083
SWIDTH 520 0 
DWIDTH 14 0
BBX 14 14 0 -3
BITMAP
0000
0300
0300
0300
0300
0300
7FF8
7FF8
0300
0300
0300
0300
0300
0000
ENDCHAR
STARTCHAR 42084
ENCODING 42084
SWIDTH 520 0 
DWIDTH 14 0
BBX 14 14 0 -3
BITMAP
0F80
1FC0
18E0
00E0
00E0
01C0
03C0
0780
0700
0600
0000
0700
0700
0700
ENDCHAR
STARTCHAR 42085
ENCODING 42085
SWIDTH 520 0 
DWIDTH 14 0
BBX 14 14 0 -3
BITMAP
0000
1C00
1E00
0F00
0780
03C0
01E0
01E0
03C0
0780
0F00
1E00
1C00
0000
ENDCHAR
STARTCHAR 42086
ENCODING 42086
SWIDTH 520 0 
DWIDTH 14 0
BBX 14 14 0 -3
BITMAP
0000
0180
03C0
03C0
0180
0000
0000
0000
0380
0380
0700
0700
0E00
0000
ENDCHAR
STARTCHAR 42087
ENCODING 42087
SWIDTH 520 0 
DWIDTH 14 0
BBX 14 14 0 -3
BITMAP
0200
0700
0780
0F80
1FC0
3FE0
3FE0
0700
0700
0700
0700
0000
0700
0700
ENDCHAR
STARTCHAR 42088
ENCODING 42088
SWIDTH 520 0 
DWIDTH 14 0
BBX 14 14 0 -3
BITMAP
0200
0700
0700
0F80
1FC0
3FE0
3FE0
0700
0700
0700
0700
0700
0700
0700
ENDCHAR
STARTCHAR 42089
ENCODING 42089
SWIDTH 520 0 
DWIDTH 14 0
BBX 14 14 0 -3
BITMAP
0000
0FE0
1820
1FA0
10A0
17A0
11A0
1EA0
1EA0
11A0
1FC0
0000
0000
0000
ENDCHAR
STARTCHAR 42091
ENCODING 42091
SWIDTH 520 0 
DWIDTH 14 0
BBX 14 14 0 -3
BITMAP
0000
0000
0000
0000
0000
8004
8004
FFFC
0000
0000
0000
0000
0000
0000
ENDCHAR
STARTCHAR 42092
ENCODING 42092
SWIDTH 520 0 
DWIDTH 14 0
BBX 14 14 0 -3
BITMAP
0000
0000
0000
0000
0000
0000
0000
1010
1FF0
0000
0000
0000
0000
0000
ENDCHAR
STARTCHAR 42093
ENCODING 42093
SWIDTH 520 0 
DWIDTH 14 0
BBX 14 14 0 -3
BITMAP
0000
0018
0038
0030
0070
0060
0060
0060
0060
0070
0030
3338
3318
6000
ENDCHAR
STARTCHAR 42094
ENCODING 42094
SWIDTH 520 0 
DWIDTH 14 0
BBX 14 14 0 -3
BITMAP
0000
0000
0000
0000
3800
7D6C
D724
FF6C
D744
6D6C
3800
0000
0000
0000
ENDCHAR
STARTCHAR 42095
ENCODING 42095
SWIDTH 520 0 
DWIDTH 14 0
BBX 14 14 0 -3
BITMAP
0780
0FC0
1B60
1FE0
1FE0
1B60
0CC0
0780
0000
6738
2108
2338
2408
2738
ENDCHAR
STARTCHAR 42096
ENCODING 42096
SWIDTH 520 0 
DWIDTH 14 0
BBX 14 14 0 -3
BITMAP
0000
0000
7F3C
7F1C
603C
6074
4020
1008
B818
F018
E3F8
F3F8
0000
0000
ENDCHAR
STARTCHAR 42097
ENCODING 42097
SWIDTH 520 0 
DWIDTH 14 0
BBX 14 14 0 -3
BITMAP
0000
0000
7F0C
7F5C
6078
6070
0078
7800
3818
7818
EBF8
C3F8
0000
0000
ENDCHAR
STARTCHAR 42098
ENCODING 42098
SWIDTH 520 0 
DWIDTH 14 0
BBX 14 14 0 -3
BITMAP
0000
0000
0000
C30C
C78C
6798
6798
6CD8
3CF0
3C70
3870
1020
0000
0000
ENDCHAR
STARTCHAR 42099
ENCODING 42099
SWIDTH 520 0 
DWIDTH 14 0
BBX 14 14 0 -3
BITMAP
0000
0780
1FE0
3870
37B0
6498
6198
6318
6018
3330
3870
1FE0
0780
0000
ENDCHAR
STARTCHAR 42100
ENCODING 42100
SWIDTH 520 0 
DWIDTH 14 0
BBX 14 14 0 -3
BITMAP
0000
0000
0000
001C
0078
00E0
E1C0
F380
7F80
1F00
0F00
0600
0000
0000
ENDCHAR
STARTCHAR 42101
ENCODING 42101
SWIDTH 520 0 
DWIDTH 14 0
BBX 14 14 0 -3
BITMAP
0000
1F00
3F80
71C0
60C0
60C0
60C0
71C0
3F80
1F60
0070
0038
0010
0000
ENDCHAR
STARTCHAR 42105
ENCODING 42105
SWIDTH 520 0 
DWIDTH 14 0
BBX 14 14 0 -3
BITMAP
0000
0000
0000
0000
0000
0300
0780
0780
0300
0600
0000
0000
0000
0000
ENDCHAR
STARTCHAR 42106
ENCODING 42106
SWIDTH 520 0 
DWIDTH 14 0
BBX 14 14 0 -3
BITMAP
0000
0000
0000
0000
37BC
1084
119C
5304
5204
97BC
0000
0000
0000
0000
ENDCHAR
STARTCHAR 42107
ENCODING 42107
SWIDTH 520 0 
DWIDTH 14 0
BBX 14 14 0 -3
BITMAP
0000
0000
0000
0000
61B8
E18C
230C
2218
2630
267C
0000
0000
0000
0000
ENDCHAR
STARTCHAR 42108
ENCODING 42108
SWIDTH 520 0 
DWIDTH 14 0
BBX 14 14 0 -3
BITMAP
0000
0000
0000
0000
71B8
198C
1B0C
3318
6630
F67C
0000
0000
0000
0000
ENDCHAR
STARTCHAR 42109
ENCODING 42109
SWIDTH 520 0 
DWIDTH 14 0
BBX 14 14 0 -3
BITMAP
0000
0000
0000
0040
0040
18C0
2554
3D54
2154
99DC
0000
0000
0000
0000
ENDCHAR
STARTCHAR 42110
ENCODING 42110
SWIDTH 520 0 
DWIDTH 14 0
BBX 14 14 0 -3
BITMAP
0000
0000
0000
0000
0008
3BDC
2BC8
2A08
ABCC
0000
0000
0000
0000
0000
ENDCHAR
STARTCHAR 42111
ENCODING 42111
SWIDTH 520 0 
DWIDTH 14 0
BBX 14 14 0 -3
BITMAP
0000
0000
0000
0000
0000
3DBC
2524
2524
BD1C
0004
003C
0000
0000
0000
ENDCHAR
STARTCHAR ebe3
ENCODING 60387
SWIDTH 520 0 
DWIDTH 9 0
BBX 9 14 0 -3
BITMAP
0000
3E00
4100
4000
4A00
5100
5F00
5100
4F00
4100
4100
4100
3E00
0000
ENDCHAR
STARTCHAR ebe4
ENCODING 60388
SWIDTH 520 0 
DWIDTH 7 0
BBX 7 14 0 -3
BITMAP
00
18
20
20
18
18
20
18
24
54
38
10
10
00
ENDCHAR
STARTCHAR ebe5
ENCODING 60389
SWIDTH 520 0 
DWIDTH 11 0
BBX 11 14 0 -3
BITMAP
0000
0000
0000
0000
2B80
4440
7C40
4440
3880
0000
0000
0000
0000
0000
ENDCHAR
STARTCHAR 61440
ENCODING 61440
SWIDTH 520 0 
DWIDTH 14 0
BBX 14 14 0 -3
BITMAP
0000
1F00
3180
3180
3180
3180
0700
0600
0600
0600
0000
0600
0600
0000
ENDCHAR
STARTCHAR 61441
ENCODING 61441
SWIDTH 520 0 
DWIDTH 14 0
BBX 14 14 0 -3
BITMAP
0100
0100
0100
0100
0100
0100
0100
0100
0100
0100
0100
0100
0100
0100
ENDCHAR
STARTCHAR 61442
ENCODING 61442
SWIDTH 520 0 
DWIDTH 14 0
BBX 14 14 0 -3
BITMAP
0000
0000
0000
0000
0800
0C00
0600
0300
0180
0100
0000
0000
0000
0000
ENDCHAR
STARTCHAR 61444
ENCODING 61444
SWIDTH 520 0 
DWIDTH 14 0
BBX 14 14 0 -3
BITMAP
0000
0000
0000
0000
0000
0000
0000
FFF8
0000
0000
0000
0000
0000
0000
ENDCHAR
STARTCHAR 61445
ENCODING 61445
SWIDTH 520 0 
DWIDTH 14 0
BBX 14 14 0 -3
BITMAP
0000
0000
FFF0
0030
0060
0080
0000
0000
0000
0000
0000
0000
0000
0000
ENDCHAR
STARTCHAR 61447
ENCODING 61447
SWIDTH 520 0 
DWIDTH 14 0
BBX 14 14 0 -3
BITMAP
0200
0200
0200
0200
0200
0200
0200
0200
0200
0600
0400
0800
1000
2000
ENDCHAR
STARTCHAR 62464
ENCODING 62464
SWIDTH 520 0 
DWIDTH 7 0
BBX 7 14 0 -3
BITMAP
00
00
00
06
7C
CE
08
78
0C
CC
78
00
00
00
ENDCHAR
STARTCHAR 62465
ENCODING 62465
SWIDTH 520 0 
DWIDTH 7 0
BBX 7 14 0 -3
BITMAP
00
3A
5C
00
34
4C
CC
CC
CC
CC
7A
00
00
00
ENDCHAR
STARTCHAR 62466
ENCODING 62466
SWIDTH 520 0 
DWIDTH 7 0
BBX 7 14 0 -3
BITMAP
00
3A
5C
00
78
CC
0C
0C
0C
CC
78
00
00
00
ENDCHAR
STARTCHAR 62467
ENCODING 62467
SWIDTH 520 0 
DWIDTH 7 0
BBX 7 14 0 -3
BITMAP
00
7C
C6
C6
C6
FE
C6
C6
C6
C6
7C
00
00
00
ENDCHAR
STARTCHAR 62720
ENCODING 62720
SWIDTH 520 0 
DWIDTH 14 0
BBX 14 14 0 -3
BITMAP
0000
0000
3FE0
00C0
0300
0C00
0FF0
0010
0020
0040
0180
1E00
0000
0000
ENDCHAR
STARTCHAR 62721
ENCODING 62721
SWIDTH 520 0 
DWIDTH 14 0
BBX 14 14 0 -3
BITMAP
0000
0000
1FE0
00C0
0100
0200
0400
0800
1008
1008
0FF8
0000
0000
0000
ENDCHAR
STARTCHAR 62722
ENCODING 62722
SWIDTH 520 0 
DWIDTH 14 0
BBX 14 14 0 -3
BITMAP
0000
0000
1000
2000
3FF0
0010
0010
0010
0010
0090
0070
0030
0000
0000
ENDCHAR
STARTCHAR 62723
ENCODING 62723
SWIDTH 520 0 
DWIDTH 14 0
BBX 14 14 0 -3
BITMAP
0000
0000
1C00
0400
0600
0200
0300
0180
0180
00C0
00F0
0000
0000
0000
ENDCHAR
STARTCHAR 62724
ENCODING 62724
SWIDTH 520 0 
DWIDTH 14 0
BBX 14 14 0 -3
BITMAP
0000
0000
0C00
0C00
0C00
0C00
0C00
0C00
0C00
0C40
0FC0
0000
0000
0000
ENDCHAR
STARTCHAR 62725
ENCODING 62725
SWIDTH 520 0 
DWIDTH 14 0
BBX 14 14 0 -3
BITMAP
0000
0000
0300
0300
0600
0C00
0C00
0600
0600
0300
0300
0000
0000
0000
ENDCHAR
STARTCHAR 65073
ENCODING 65073
SWIDTH 520 0 
DWIDTH 14 0
BBX 14 14 1 -3
BITMAP
0180
0180
0180
0180
0180
0180
0180
0180
0180
0180
0180
0180
0180
0180
ENDCHAR
STARTCHAR 65087
ENCODING 65087
SWIDTH 520 0
DWIDTH 14 0
BBX 14 14 0 -3
BITMAP
0000
0000
0300
0780
0CC0
1860
3030
6018
0000
0000
0000
0000
0000
0000
ENDCHAR
STARTCHAR 65104
ENCODING 65104
SWIDTH 560 0 
DWIDTH 14 0
BBX 14 14 0 -3
BITMAP
0000
0000
0000
0000
0000
0000
0000
0000
0000
0000
0300
0300
0100
0200
ENDCHAR
STARTCHAR 65106
ENCODING 65106
SWIDTH 560 0 
DWIDTH 14 0
BBX 14 14 0 -3
BITMAP
0000
0000
0000
0000
0000
0000
0000
0000
0000
0000
0000
0300
0300
0000
ENDCHAR
STARTCHAR 65108
ENCODING 65108
SWIDTH 560 0 
DWIDTH 14 0
BBX 14 14 0 -3
BITMAP
0000
0000
0000
0300
0300
0000
0000
0000
0300
0300
0100
0200
0000
0000
ENDCHAR
STARTCHAR 65109
ENCODING 65109
SWIDTH 560 0 
DWIDTH 14 0
BBX 14 14 0 -3
BITMAP
0000
0000
0000
0300
0300
0000
0000
0000
0300
0300
0000
0000
0000
0000
ENDCHAR
STARTCHAR 65110
ENCODING 65110
SWIDTH 560 0 
DWIDTH 14 0
BBX 14 14 0 -3
BITMAP
0000
0700
0880
0880
0880
0080
0100
0100
0200
0200
0000
0200
0200
0000
ENDCHAR
STARTCHAR 65111
ENCODING 65111
SWIDTH 560 0 
DWIDTH 14 0
BBX 14 14 0 -3
BITMAP
0000
0200
0200
0200
0200
0200
0200
0200
0200
0000
0000
0200
0200
0000
ENDCHAR
STARTCHAR 65113
ENCODING 65113
SWIDTH 560 0 
DWIDTH 14 0
BBX 14 14 0 -3
BITMAP
0000
0000
0020
0040
0040
0080
0080
0080
0080
0040
0040
0020
0000
0000
ENDCHAR
STARTCHAR 65114
ENCODING 65114
SWIDTH 560 0 
DWIDTH 14 0
BBX 14 14 0 -3
BITMAP
0000
0000
1000
0800
0800
0400
0400
0400
0400
0800
0800
1000
0000
0000
ENDCHAR
STARTCHAR 65124
ENCODING 65124
SWIDTH 560 0 
DWIDTH 14 0
BBX 14 14 0 -3
BITMAP
0000
0000
0000
0000
0180
0600
1800
0600
0180
0000
0000
0000
0000
0000
ENDCHAR
STARTCHAR 65125
ENCODING 65125
SWIDTH 560 0 
DWIDTH 14 0
BBX 14 14 0 -3
BITMAP
0000
0000
0000
0000
1800
0600
0180
0600
1800
0000
0000
0000
0000
0000
ENDCHAR
STARTCHAR 16351
ENCODING 65281
SWIDTH 560 0 
DWIDTH 14 0
BBX 13 14 1 -3
BITMAP
0000
1000
3800
3800
3800
1000
1000
1000
1000
0000
1000
3800
1000
0000
ENDCHAR
STARTCHAR 16352
ENCODING 65282
SWIDTH 560 0 
DWIDTH 14 0
BBX 13 14 1 -3
BITMAP
0000
0500
0500
0500
0000
0000
0000
0000
0000
0000
0000
0000
0000
0000
ENDCHAR
STARTCHAR 16353
ENCODING 65283
SWIDTH 560 0 
DWIDTH 14 0
BBX 13 14 1 -3
BITMAP
0000
0240
0240
0240
1FF0
0480
0480
0480
3FE0
0900
0900
0900
0000
0000
ENDCHAR
STARTCHAR 16354
ENCODING 65284
SWIDTH 560 0 
DWIDTH 14 0
BBX 13 14 1 -3
BITMAP
0000
0200
1FA0
2260
2220
1A00
0700
02C0
2220
3220
2FC0
0200
0000
0000
ENDCHAR
STARTCHAR 16355
ENCODING 65285
SWIDTH 560 0 
DWIDTH 14 0
BBX 13 14 1 -3
BITMAP
3008
4810
4820
4840
4880
3100
0200
0460
0890
1090
2090
4090
8060
0000
ENDCHAR
STARTCHAR 16356
ENCODING 65286
SWIDTH 560 0 
DWIDTH 14 0
BBX 13 14 1 -3
BITMAP
0000
0E00
1100
1100
1200
0CE0
1440
2240
4280
4100
2290
1C60
0000
0000
ENDCHAR
STARTCHAR 16357
ENCODING 65287
SWIDTH 560 0 
DWIDTH 14 0
BBX 13 14 1 -3
BITMAP
0000
0800
1800
1000
2000
0000
0000
0000
0000
0000
0000
0000
0000
0000
ENDCHAR
STARTCHAR 16358
ENCODING 65288
SWIDTH 560 0 
DWIDTH 14 0
BBX 13 14 1 -3
BITMAP
0010
0020
0020
0040
0040
0040
0040
0040
0040
0040
0040
0020
0020
0010
ENDCHAR
STARTCHAR 16359
ENCODING 65289
SWIDTH 560 0 
DWIDTH 14 0
BBX 13 14 1 -3
BITMAP
4000
2000
2000
1000
1000
1000
1000
1000
1000
1000
1000
2000
2000
4000
ENDCHAR
STARTCHAR 16360
ENCODING 65290
SWIDTH 560 0 
DWIDTH 14 0
BBX 13 14 1 -3
BITMAP
0000
0200
0700
0700
6230
7270
1FC0
0700
0D80
18C0
38E0
3060
0000
0000
ENDCHAR
STARTCHAR 16361
ENCODING 65291
SWIDTH 560 0 
DWIDTH 14 0
BBX 13 14 1 -3
BITMAP
0000
0200
0200
0200
0200
0200
7FF0
0200
0200
0200
0200
0200
0000
0000
ENDCHAR
STARTCHAR 16362
ENCODING 65292
SWIDTH 560 0 
DWIDTH 14 0
BBX 13 14 1 -3
BITMAP
0000
0000
0000
0000
0000
0000
0000
0000
0000
3000
3000
1000
2000
0000
ENDCHAR
STARTCHAR 16363
ENCODING 65293
SWIDTH 560 0 
DWIDTH 14 0
BBX 13 14 1 -3
BITMAP
0000
0000
0000
0000
0000
0000
7FF0
0000
0000
0000
0000
0000
0000
0000
ENDCHAR
STARTCHAR 16364
ENCODING 65294
SWIDTH 560 0 
DWIDTH 14 0
BBX 13 14 1 -3
BITMAP
0000
0000
0000
0000
0000
0000
0000
0000
0000
0000
3000
3000
0000
0000
ENDCHAR
STARTCHAR 16365
ENCODING 65295
SWIDTH 560 0 
DWIDTH 14 0
BBX 13 14 1 -3
BITMAP
0008
0010
0020
0040
0080
0100
0200
0400
0800
1000
2000
4000
8000
0000
ENDCHAR
STARTCHAR 16366
ENCODING 65296
SWIDTH 560 0 
DWIDTH 14 0
BBX 13 14 1 -3
BITMAP
0000
0300
0480
0840
0840
0840
0840
0840
0840
0840
0480
0300
0000
0000
ENDCHAR
STARTCHAR 16367
ENCODING 65297
SWIDTH 560 0 
DWIDTH 14 0
BBX 13 14 1 -3
BITMAP
0000
0100
0700
0100
0100
0100
0100
0100
0100
0100
0100
07C0
0000
0000
ENDCHAR
STARTCHAR 16368
ENCODING 65298
SWIDTH 560 0 
DWIDTH 14 0
BBX 13 14 1 -3
BITMAP
0000
0780
0840
0840
0040
0080
0080
0100
0200
0400
0840
0FC0
0000
0000
ENDCHAR
STARTCHAR 16369
ENCODING 65299
SWIDTH 560 0 
DWIDTH 14 0
BBX 13 14 1 -3
BITMAP
0000
0780
0840
0040
0040
0040
0380
0040
0040
0040
0840
0780
0000
0000
ENDCHAR
STARTCHAR 16370
ENCODING 65300
SWIDTH 560 0 
DWIDTH 14 0
BBX 13 14 1 -3
BITMAP
0000
0100
0300
0300
0500
0500
0900
1100
1FC0
0100
0100
0380
0000
0000
ENDCHAR
STARTCHAR 16371
ENCODING 65301
SWIDTH 560 0 
DWIDTH 14 0
BBX 13 14 1 -3
BITMAP
0000
0FC0
0800
0800
0800
0B80
0C40
0040
0040
0040
0840
0780
0000
0000
ENDCHAR
STARTCHAR 16372
ENCODING 65302
SWIDTH 560 0 
DWIDTH 14 0
BBX 13 14 1 -3
BITMAP
0000
0780
0840
0800
0800
0B80
0C40
0840
0840
0840
0840
0780
0000
0000
ENDCHAR
STARTCHAR 16373
ENCODING 65303
SWIDTH 560 0 
DWIDTH 14 0
BBX 13 14 1 -3
BITMAP
0000
0FC0
0840
0080
0080
0100
0100
0100
0200
0200
0200
0200
0000
0000
ENDCHAR
STARTCHAR 16374
ENCODING 65304
SWIDTH 560 0 
DWIDTH 14 0
BBX 13 14 1 -3
BITMAP
0000
0780
0840
0840
0840
0840
0780
0840
0840
0840
0840
0780
0000
0000
ENDCHAR
STARTCHAR 16375
ENCODING 65305
SWIDTH 560 0 
DWIDTH 14 0
BBX 13 14 1 -3
BITMAP
0000
0780
0840
0840
0840
0840
08C0
0740
0040
0040
0840
0780
0000
0000
ENDCHAR
STARTCHAR 16376
ENCODING 65306
SWIDTH 560 0 
DWIDTH 14 0
BBX 13 14 1 -3
BITMAP
0000
0000
0000
0000
1800
1800
0000
0000
0000
1800
1800
0000
0000
0000
ENDCHAR
STARTCHAR 16377
ENCODING 65307
SWIDTH 560 0 
DWIDTH 14 0
BBX 13 14 1 -3
BITMAP
0000
0000
0000
0000
1800
1800
0000
0000
0000
1800
1800
0800
1000
0000
ENDCHAR
STARTCHAR 16378
ENCODING 65308
SWIDTH 560 0 
DWIDTH 14 0
BBX 13 14 1 -3
BITMAP
0000
0000
0020
00C0
0300
0C00
3000
0C00
0300
00C0
0020
0000
0000
0000
ENDCHAR
STARTCHAR 16379
ENCODING 65309
SWIDTH 560 0 
DWIDTH 14 0
BBX 13 14 1 -3
BITMAP
0000
0000
0000
0000
0000
3FE0
0000
0000
3FE0
0000
0000
0000
0000
0000
ENDCHAR
STARTCHAR 16380
ENCODING 65310
SWIDTH 560 0 
DWIDTH 14 0
BBX 13 14 1 -3
BITMAP
0000
0000
2000
1800
0600
0180
0060
0180
0600
1800
2000
0000
0000
0000
ENDCHAR
STARTCHAR 16381
ENCODING 65311
SWIDTH 560 0 
DWIDTH 14 0
BBX 13 14 1 -3
BITMAP
0000
1C00
2200
6100
6100
0200
0400
0800
0800
0000
0800
1C00
0800
0000
ENDCHAR
STARTCHAR 16382
ENCODING 65312
SWIDTH 560 0 
DWIDTH 14 0
BBX 13 14 1 -3
BITMAP
0000
03C0
0C20
1010
1350
24D0
2890
2920
2940
2690
1020
0FC0
0000
0000
ENDCHAR
STARTCHAR 16383
ENCODING 65313
SWIDTH 560 0 
DWIDTH 14 0
BBX 13 14 1 -3
BITMAP
0000
0200
0200
0500
0500
0880
0880
1FC0
1040
2020
2020
7070
0000
0000
ENDCHAR
STARTCHAR 16384
ENCODING 65314
SWIDTH 560 0 
DWIDTH 14 0
BBX 13 14 1 -3
BITMAP
0000
3F80
1040
1020
1020
1040
1F80
1040
1020
1020
1040
3F80
0000
0000
ENDCHAR
STARTCHAR 16385
ENCODING 65315
SWIDTH 560 0 
DWIDTH 14 0
BBX 13 14 1 -3
BITMAP
0000
07A0
0860
1020
1000
1000
1000
1000
1000
1020
0840
0780
0000
0000
ENDCHAR
STARTCHAR 16386
ENCODING 65316
SWIDTH 560 0 
DWIDTH 14 0
BBX 13 14 1 -3
BITMAP
0000
3F80
1040
1020
1020
1020
1020
1020
1020
1020
1040
3F80
0000
0000
ENDCHAR
STARTCHAR 16387
ENCODING 65317
SWIDTH 560 0 
DWIDTH 14 0
BBX 13 14 1 -3
BITMAP
0000
3FC0
1040
1020
1000
1100
1F00
1100
1000
1020
1040
3FC0
0000
0000
ENDCHAR
STARTCHAR 16388
ENCODING 65318
SWIDTH 560 0 
DWIDTH 14 0
BBX 13 14 1 -3
BITMAP
0000
3FC0
1040
1020
1000
1100
1F00
1100
1000
1000
1000
3800
0000
0000
ENDCHAR
STARTCHAR 16389
ENCODING 65319
SWIDTH 560 0 
DWIDTH 14 0
BBX 13 14 1 -3
BITMAP
0000
0F40
10C0
2040
2000
2000
2000
20E0
2040
2040
10C0
0F40
0000
0000
ENDCHAR
STARTCHAR 16390
ENCODING 65320
SWIDTH 560 0 
DWIDTH 14 0
BBX 13 14 1 -3
BITMAP
0000
38E0
1040
1040
1040
1040
1FC0
1040
1040
1040
1040
38E0
0000
0000
ENDCHAR
STARTCHAR 16391
ENCODING 65321
SWIDTH 560 0 
DWIDTH 14 0
BBX 13 14 1 -3
BITMAP
0000
0700
0200
0200
0200
0200
0200
0200
0200
0200
0200
0700
0000
0000
ENDCHAR
STARTCHAR 16392
ENCODING 65322
SWIDTH 560 0 
DWIDTH 14 0
BBX 13 14 1 -3
BITMAP
0000
0380
0100
0100
0100
0100
0100
0100
0100
0100
1100
0E00
0000
0000
ENDCHAR
STARTCHAR 16393
ENCODING 65323
SWIDTH 560 0 
DWIDTH 14 0
BBX 13 14 1 -3
BITMAP
0000
38E0
1040
1080
1100
1200
1400
1A00
1100
1080
1040
38E0
0000
0000
ENDCHAR
STARTCHAR 16394
ENCODING 65324
SWIDTH 560 0 
DWIDTH 14 0
BBX 13 14 1 -3
BITMAP
0000
1C00
0800
0800
0800
0800
0800
0800
0800
0820
0840
1FC0
0000
0000
ENDCHAR
STARTCHAR 16395
ENCODING 65325
SWIDTH 560 0 
DWIDTH 14 0
BBX 13 14 1 -3
BITMAP
0000
6030
3060
3060
28A0
28A0
28A0
2520
2520
2520
2220
7270
0000
0000
ENDCHAR
STARTCHAR 16396
ENCODING 65326
SWIDTH 560 0 
DWIDTH 14 0
BBX 13 14 1 -3
BITMAP
0000
30E0
1840
1840
1440
1440
1240
1240
1140
1140
10C0
3840
0000
0000
ENDCHAR
STARTCHAR 16397
ENCODING 65327
SWIDTH 560 0 
DWIDTH 14 0
BBX 13 14 1 -3
BITMAP
0000
0780
0840
1020
1020
1020
1020
1020
1020
1020
0840
0780
0000
0000
ENDCHAR
STARTCHAR 16398
ENCODING 65328
SWIDTH 560 0 
DWIDTH 14 0
BBX 13 14 1 -3
BITMAP
0000
3F80
1040
1020
1020
1040
1F80
1000
1000
1000
1000
3800
0000
0000
ENDCHAR
STARTCHAR 16399
ENCODING 65329
SWIDTH 560 0 
DWIDTH 14 0
BBX 13 14 1 -3
BITMAP
0000
0F00
1080
2040
2040
2040
2040
2040
2040
2C40
1280
0F20
00C0
0000
ENDCHAR
STARTCHAR 16400
ENCODING 65330
SWIDTH 560 0 
DWIDTH 14 0
BBX 13 14 1 -3
BITMAP
0000
3F80
1040
1020
1020
1040
1F80
1080
1040
1040
1050
3820
0000
0000
ENDCHAR
STARTCHAR 16401
ENCODING 65331
SWIDTH 560 0 
DWIDTH 14 0
BBX 13 14 1 -3
BITMAP
0000
0700
08A0
1060
1020
0C00
0300
00C0
1020
1820
1440
0380
0000
0000
ENDCHAR
STARTCHAR 16402
ENCODING 65332
SWIDTH 560 0 
DWIDTH 14 0
BBX 13 14 1 -3
BITMAP
0000
3FE0
2220
4210
0200
0200
0200
0200
0200
0200
0200
0700
0000
0000
ENDCHAR
STARTCHAR 16403
ENCODING 65333
SWIDTH 560 0 
DWIDTH 14 0
BBX 13 14 1 -3
BITMAP
0000
38E0
1040
1040
1040
1040
1040
1040
1040
1040
0880
0700
0000
0000
ENDCHAR
STARTCHAR 16404
ENCODING 65334
SWIDTH 560 0 
DWIDTH 14 0
BBX 13 14 1 -3
BITMAP
0000
7070
2020
2020
1040
1040
0880
0880
0500
0500
0200
0200
0000
0000
ENDCHAR
STARTCHAR 16405
ENCODING 65335
SWIDTH 560 0 
DWIDTH 14 0
BBX 13 14 1 -3
BITMAP
0000
E738
4210
4210
4510
2520
2520
28A0
28A0
1040
1040
1040
0000
0000
ENDCHAR
STARTCHAR 16406
ENCODING 65336
SWIDTH 560 0 
DWIDTH 14 0
BBX 13 14 1 -3
BITMAP
0000
38E0
1040
0880
0880
0500
0200
0500
0880
0880
1040
38E0
0000
0000
ENDCHAR
STARTCHAR 16407
ENCODING 65337
SWIDTH 560 0 
DWIDTH 14 0
BBX 13 14 1 -3
BITMAP
0000
38E0
1040
1040
0880
0880
0500
0200
0200
0200
0200
0700
0000
0000
ENDCHAR
STARTCHAR 16408
ENCODING 65338
SWIDTH 560 0 
DWIDTH 14 0
BBX 13 14 1 -3
BITMAP
0000
1FE0
1020
2040
0080
0100
0200
0400
0800
1020
2040
3FC0
0000
0000
ENDCHAR
STARTCHAR 16409
ENCODING 65339
SWIDTH 560 0 
DWIDTH 14 0
BBX 13 14 1 -3
BITMAP
0078
0040
0040
0040
0040
0040
0040
0040
0040
0040
0040
0040
0040
0078
ENDCHAR
STARTCHAR 16410
ENCODING 65340
SWIDTH 560 0 
DWIDTH 14 0
BBX 13 14 1 -3
BITMAP
8000
4000
2000
1000
0800
0400
0200
0100
0080
0040
0020
0010
0008
0000
ENDCHAR
STARTCHAR 16411
ENCODING 65341
SWIDTH 560 0 
DWIDTH 14 0
BBX 13 14 1 -3
BITMAP
F000
1000
1000
1000
1000
1000
1000
1000
1000
1000
1000
1000
1000
F000
ENDCHAR
STARTCHAR 16412
ENCODING 65342
SWIDTH 560 0 
DWIDTH 14 0
BBX 13 14 1 -3
BITMAP
0200
0500
0880
0000
0000
0000
0000
0000
0000
0000
0000
0000
0000
0000
ENDCHAR
STARTCHAR 16413
ENCODING 65343
SWIDTH 560 0 
DWIDTH 14 0
BBX 13 14 1 -3
BITMAP
0000
0000
0000
0000
0000
0000
0000
0000
0000
0000
0000
0000
0000
FFF8
ENDCHAR
STARTCHAR 16414
ENCODING 65344
SWIDTH 560 0 
DWIDTH 14 0
BBX 13 14 1 -3
BITMAP
0000
0040
0060
0020
0010
0000
0000
0000
0000
0000
0000
0000
0000
0000
ENDCHAR
STARTCHAR 16415
ENCODING 65345
SWIDTH 560 0 
DWIDTH 14 0
BBX 13 14 1 -3
BITMAP
0000
0000
0000
0000
0000
0F00
1080
0380
0C80
1080
1180
0EC0
0000
0000
ENDCHAR
STARTCHAR 16416
ENCODING 65346
SWIDTH 560 0 
DWIDTH 14 0
BBX 13 14 1 -3
BITMAP
0000
1800
0800
0800
0800
0B80
0C40
0840
0840
0840
0C40
0B80
0000
0000
ENDCHAR
STARTCHAR 16417
ENCODING 65347
SWIDTH 560 0 
DWIDTH 14 0
BBX 13 14 1 -3
BITMAP
0000
0000
0000
0000
0000
0780
0840
0800
0800
0800
0840
0780
0000
0000
ENDCHAR
STARTCHAR 16418
ENCODING 65348
SWIDTH 560 0 
DWIDTH 14 0
BBX 13 14 1 -3
BITMAP
0000
0180
0080
0080
0080
0E80
1180
1080
1080
1080
1180
0EC0
0000
0000
ENDCHAR
STARTCHAR 16419
ENCODING 65349
SWIDTH 560 0 
DWIDTH 14 0
BBX 13 14 1 -3
BITMAP
0000
0000
0000
0000
0000
0780
0840
0840
0FC0
0800
0840
0780
0000
0000
ENDCHAR
STARTCHAR 16420
ENCODING 65350
SWIDTH 560 0 
DWIDTH 14 0
BBX 13 14 1 -3
BITMAP
0000
0180
0240
0200
0200
0F80
0200
0200
0200
0200
0200
0700
0000
0000
ENDCHAR
STARTCHAR 16421
ENCODING 65351
SWIDTH 560 0 
DWIDTH 14 0
BBX 13 14 1 -3
BITMAP
0000
0000
0000
0000
0000
0740
08C0
0840
0840
08C0
0740
0040
0840
0780
ENDCHAR
STARTCHAR 16422
ENCODING 65352
SWIDTH 560 0 
DWIDTH 14 0
BBX 13 14 1 -3
BITMAP
0000
1800
0800
0800
0800
0B80
0C40
0840
0840
0840
0840
1CE0
0000
0000
ENDCHAR
STARTCHAR 16423
ENCODING 65353
SWIDTH 560 0 
DWIDTH 14 0
BBX 13 14 1 -3
BITMAP
0000
0200
0200
0000
0000
0600
0200
0200
0200
0200
0200
0700
0000
0000
ENDCHAR
STARTCHAR 16424
ENCODING 65354
SWIDTH 560 0 
DWIDTH 14 0
BBX 13 14 1 -3
BITMAP
0000
0100
0100
0000
0000
0300
0100
0100
0100
0100
0100
0100
0900
0600
ENDCHAR
STARTCHAR 16425
ENCODING 65355
SWIDTH 560 0 
DWIDTH 14 0
BBX 13 14 1 -3
BITMAP
0000
1800
0800
0800
0800
09C0
0880
0900
0A00
0D00
0880
1DC0
0000
0000
ENDCHAR
STARTCHAR 16426
ENCODING 65356
SWIDTH 560 0 
DWIDTH 14 0
BBX 13 14 1 -3
BITMAP
0000
0600
0200
0200
0200
0200
0200
0200
0200
0200
0200
0700
0000
0000
ENDCHAR
STARTCHAR 16427
ENCODING 65357
SWIDTH 560 0 
DWIDTH 14 0
BBX 13 14 1 -3
BITMAP
0000
0000
0000
0000
0000
6DC0
3220
2220
2220
2220
2220
7770
0000
0000
ENDCHAR
STARTCHAR 16428
ENCODING 65358
SWIDTH 560 0 
DWIDTH 14 0
BBX 13 14 1 -3
BITMAP
0000
0000
0000
0000
0000
1B80
0C40
0840
0840
0840
0840
1CE0
0000
0000
ENDCHAR
STARTCHAR 16429
ENCODING 65359
SWIDTH 560 0 
DWIDTH 14 0
BBX 13 14 1 -3
BITMAP
0000
0000
0000
0000
0000
0780
0840
0840
0840
0840
0840
0780
0000
0000
ENDCHAR
STARTCHAR 16430
ENCODING 65360
SWIDTH 560 0 
DWIDTH 14 0
BBX 13 14 1 -3
BITMAP
0000
0000
0000
0000
0000
1B80
0C40
0840
0840
0840
0C40
0B80
0800
1C00
ENDCHAR
STARTCHAR 16431
ENCODING 65361
SWIDTH 560 0 
DWIDTH 14 0
BBX 13 14 1 -3
BITMAP
0000
0000
0000
0000
0000
0E80
1180
1080
1080
1080
1180
0E80
0080
01C0
ENDCHAR
STARTCHAR 16432
ENCODING 65362
SWIDTH 560 0 
DWIDTH 14 0
BBX 13 14 1 -3
BITMAP
0000
0000
0000
0000
0000
0D80
0640
0400
0400
0400
0400
0E00
0000
0000
ENDCHAR
STARTCHAR 16433
ENCODING 65363
SWIDTH 560 0 
DWIDTH 14 0
BBX 13 14 1 -3
BITMAP
0000
0000
0000
0000
0000
0780
0840
0800
0780
0040
0840
0780
0000
0000
ENDCHAR
STARTCHAR 16434
ENCODING 65364
SWIDTH 560 0 
DWIDTH 14 0
BBX 13 14 1 -3
BITMAP
0000
0000
0200
0200
0200
0F80
0200
0200
0200
0200
0240
0180
0000
0000
ENDCHAR
STARTCHAR 16435
ENCODING 65365
SWIDTH 560 0 
DWIDTH 14 0
BBX 13 14 1 -3
BITMAP
0000
0000
0000
0000
0000
18C0
0840
0840
0840
0840
08C0
0760
0000
0000
ENDCHAR
STARTCHAR 16436
ENCODING 65366
SWIDTH 560 0 
DWIDTH 14 0
BBX 13 14 1 -3
BITMAP
0000
0000
0000
0000
0000
38E0
1040
0880
0880
0500
0500
0200
0000
0000
ENDCHAR
STARTCHAR 16437
ENCODING 65367
SWIDTH 560 0 
DWIDTH 14 0
BBX 13 14 1 -3
BITMAP
0000
0000
0000
0000
0000
7770
2220
2220
1540
1540
0880
0880
0000
0000
ENDCHAR
STARTCHAR 16438
ENCODING 65368
SWIDTH 560 0 
DWIDTH 14 0
BBX 13 14 1 -3
BITMAP
0000
0000
0000
0000
0000
1CE0
0840
0480
0300
0480
0840
1CE0
0000
0000
ENDCHAR
STARTCHAR 16439
ENCODING 65369
SWIDTH 560 0 
DWIDTH 14 0
BBX 13 14 1 -3
BITMAP
0000
0000
0000
0000
0000
38E0
1040
0880
0880
0500
0500
0200
0200
0C00
ENDCHAR
STARTCHAR 16440
ENCODING 65370
SWIDTH 560 0 
DWIDTH 14 0
BBX 13 14 1 -3
BITMAP
0000
0000
0000
0000
0000
1FC0
1080
0100
0200
0400
0840
1FC0
0000
0000
ENDCHAR
STARTCHAR 16441
ENCODING 65371
SWIDTH 560 0 
DWIDTH 14 0
BBX 13 14 1 -3
BITMAP
0080
0100
0100
0100
0100
0200
0400
0200
0100
0100
0100
0100
0100
0080
ENDCHAR
STARTCHAR 16442
ENCODING 65372
SWIDTH 560 0 
DWIDTH 14 0
BBX 13 14 1 -3
BITMAP
0200
0200
0200
0200
0200
0200
0200
0200
0200
0200
0200
0200
0200
0200
ENDCHAR
STARTCHAR 16443
ENCODING 65373
SWIDTH 560 0 
DWIDTH 14 0
BBX 13 14 1 -3
BITMAP
0400
0200
0200
0200
0200
0100
0080
0100
0200
0200
0200
0200
0200
0400
ENDCHAR
STARTCHAR 16444
ENCODING 65374
SWIDTH 560 0 
DWIDTH 14 0
BBX 13 14 1 -3
BITMAP
0000
0000
0000
0000
0000
3808
4710
80E0
0000
0000
0000
0000
0000
0000
ENDCHAR
STARTCHAR 65377
ENCODING 65377
SWIDTH 560 0 
DWIDTH 14 0
BBX 13 14 1 -3
BITMAP
0000
0000
0000
0000
0000
0000
0000
0000
0000
6000
5000
5000
2000
0000
ENDCHAR
STARTCHAR FF62
ENCODING 65378
SWIDTH 500 0 
DWIDTH 14 0
BBX 13 14 1 -3
BITMAP
0000
1C00
1000
1000
1000
1000
1000
1000
1000
0000
0000
0000
0000
0000
ENDCHAR
STARTCHAR FF63
ENCODING 65379
SWIDTH 500 0 
DWIDTH 14 0
BBX 13 14 1 -3
BITMAP
0000
0000
0000
0000
1000
1000
1000
1000
1000
1000
1000
1000
7000
0000
ENDCHAR
STARTCHAR FF64
ENCODING 65380
SWIDTH 500 0 
DWIDTH 14 0
BBX 13 14 1 -3
BITMAP
0000
0000
0000
0000
0000
0000
0000
0000
0000
0000
3000
1800
0800
0000
ENDCHAR
STARTCHAR 65504
ENCODING 65504
SWIDTH 520 0
DWIDTH 14 0
BBX 13 14 1 -3
BITMAP
0000
0010
07A0
0840
10A0
1120
1260
1400
0820
1440
2380
0000
0000
0000
ENDCHAR
STARTCHAR 65505
ENCODING 65505
SWIDTH 520 0
DWIDTH 14 0
BBX 13 14 1 -3
BITMAP
0000
0700
08C0
0840
0800
7F80
0400
0400
0400
3800
4C10
4A20
31C0
0000
ENDCHAR
STARTCHAR 65509
ENCODING 65509
SWIDTH 520 0 
DWIDTH 14 0
BBX 14 14 0 -3
BITMAP
0000
E1C0
4080
2100
1200
7F80
0C00
7F80
0C00
0C00
1E00
0000
0000
0000
ENDCHAR
STARTCHAR 65515
ENCODING 65515
SWIDTH 520 0 
DWIDTH 14 0
BBX 14 14 0 -3
BITMAP
0000
0000
3FE0
2020
2020
2020
2020
2020
2020
2020
2020
3FE0
0000
0000
ENDCHAR
STARTCHAR 65533
ENCODING 65533
SWIDTH 520 0 
DWIDTH 14 0
BBX 14 14 0 -3
BITMAP
0300
0780
0840
1020
3330
7F38
FE7C
FCFC
7CF8
3FF0
1CE0
0CC0
0780
0300
ENDCHAR
ENDFONT