STARTFONT 2.1
COMMENT Product Version MAUI VERSION
FONTBOUNDINGBOX 16 10 0 -3
STARTPROPERTIES 2
FONT_ASCENT 10
FONT_DESCENT 0
ENDPROPERTIES
CHARS 298
STARTCHAR 10
ENCODING 10
SWIDTH 520 0 
DWIDTH 5 0
BBX 4 9 0 -3
BITMAP
00
00
00
00
00
00
00
00
00
ENDCHAR
STARTCHAR 11
ENCODING 11
SWIDTH 520 0 
DWIDTH 10 0
BBX 9 9 0 -3
BITMAP
3F00
6300
6700
6B00
7300
6300
7E00
0000
0000
ENDCHAR
STARTCHAR 12
ENCODING 12
SWIDTH 520 0 
DWIDTH 10 0
BBX 9 9 0 -3
BITMAP
0000
3E00
6600
4A00
5200
6600
7C00
0000
0000
ENDCHAR
STARTCHAR 13
ENCODING 13
SWIDTH 520 0 
DWIDTH 5 0
BBX 4 9 0 -3
BITMAP
00
00
00
00
00
00
00
00
00
ENDCHAR
STARTCHAR 14
ENCODING 14
SWIDTH 520 0 
DWIDTH 5 0
BBX 4 9 0 -3
BITMAP
00
00
00
00
00
00
00
00
00
ENDCHAR
STARTCHAR 15
ENCODING 15
SWIDTH 520 0 
DWIDTH 5 0
BBX 4 9 0 -3
BITMAP
00
00
00
00
00
00
00
00
00
ENDCHAR
STARTCHAR 16
ENCODING 16
SWIDTH 520 0 
DWIDTH 10 0
BBX 9 9 0 -3
BITMAP
0800
1C00
1400
2600
2200
4300
7F00
0000
0000
ENDCHAR
STARTCHAR 17
ENCODING 17
SWIDTH 520 0 
DWIDTH 7 0
BBX 6 9 0 -3
BITMAP
00
00
00
00
00
00
FC
00
00
ENDCHAR
STARTCHAR 18
ENCODING 18
SWIDTH 520 0 
DWIDTH 10 0
BBX 9 9 0 -3
BITMAP
7F80
0C00
3F00
6D80
6D80
6D80
3F00
0C00
7F80
ENDCHAR
STARTCHAR 19
ENCODING 19
SWIDTH 520 0 
DWIDTH 10 0
BBX 9 9 0 -3
BITMAP
FF00
6100
6000
6000
6000
6000
6000
6000
F000
ENDCHAR
STARTCHAR 20
ENCODING 20
SWIDTH 520 0 
DWIDTH 7 0
BBX 6 9 0 -3
BITMAP
30
30
78
78
48
CC
CC
00
00
ENDCHAR
STARTCHAR 21
ENCODING 21
SWIDTH 520 0 
DWIDTH 10 0
BBX 9 9 0 -3
BITMAP
1C00
3600
6300
6300
6300
3600
1400
D580
7700
ENDCHAR
STARTCHAR 22
ENCODING 22
SWIDTH 520 0 
DWIDTH 10 0
BBX 9 9 0 -3
BITMAP
0000
0000
3F00
1600
3600
2400
6600
0000
0000
ENDCHAR
STARTCHAR 23
ENCODING 23
SWIDTH 520 0 
DWIDTH 10 0
BBX 9 9 0 -3
BITMAP
DD80
6B00
6B00
6B00
6B00
3E00
0800
0800
3E00
ENDCHAR
STARTCHAR 24
ENCODING 24
SWIDTH 520 0 
DWIDTH 10 0
BBX 9 9 0 -3
BITMAP
7E00
6200
3000
1800
3000
6200
7E00
0000
0000
ENDCHAR
STARTCHAR 25
ENCODING 25
SWIDTH 520 0 
DWIDTH 10 0
BBX 9 9 0 -3
BITMAP
1C00
2200
5500
5D00
5500
4100
2200
1C00
0000
ENDCHAR
STARTCHAR 26
ENCODING 26
SWIDTH 520 0 
DWIDTH 10 0
BBX 9 9 0 -3
BITMAP
7F00
4100
0000
2200
3E00
2200
0000
4100
7F00
ENDCHAR
STARTCHAR 27
ENCODING 27
SWIDTH 520 0 
DWIDTH 5 0
BBX 4 9 0 -3
BITMAP
00
00
00
00
00
00
00
00
00
ENDCHAR
STARTCHAR 28
ENCODING 28
SWIDTH 520 0 
DWIDTH 10 0
BBX 9 9 0 -3
BITMAP
0F00
1800
1800
2F00
2800
7800
4F00
0000
0000
ENDCHAR
STARTCHAR 29
ENCODING 29
SWIDTH 520 0 
DWIDTH 10 0
BBX 9 9 0 -3
BITMAP
0000
3F00
4C80
3F80
4C00
4C80
3F00
0000
0000
ENDCHAR
STARTCHAR 30
ENCODING 30
SWIDTH 520 0 
DWIDTH 10 0
BBX 9 9 0 -3
BITMAP
1C00
3200
3600
3800
3600
3200
1E00
0000
0000
ENDCHAR
STARTCHAR 31
ENCODING 31
SWIDTH 520 0 
DWIDTH 10 0
BBX 9 9 0 -3
BITMAP
0C00
1000
3C00
2000
3C00
2000
3C00
0000
0000
ENDCHAR
STARTCHAR 32
ENCODING 32
SWIDTH 520 0 
DWIDTH 5 0
BBX 4 9 0 -3
BITMAP
00
00
00
00
00
00
00
00
00
ENDCHAR
STARTCHAR 33
ENCODING 33
SWIDTH 520 0 
DWIDTH 3 0
BBX 2 9 0 -3
BITMAP
00
C0
C0
C0
C0
00
C0
C0
00
ENDCHAR
STARTCHAR 34
ENCODING 34
SWIDTH 520 0 
DWIDTH 7 0
BBX 6 9 0 -3
BITMAP
6C
6C
6C
00
00
00
00
00
00
ENDCHAR
STARTCHAR 35
ENCODING 35
SWIDTH 520 0 
DWIDTH 10 0
BBX 9 9 0 -3
BITMAP
0000
1200
7F00
1200
2400
7F00
2400
2400
0000
ENDCHAR
STARTCHAR 36
ENCODING 36
SWIDTH 520 0 
DWIDTH 10 0
BBX 9 9 0 -3
BITMAP
1C00
2A00
2800
1C00
0A00
2A00
1C00
0800
0000
ENDCHAR
STARTCHAR 37
ENCODING 37
SWIDTH 520 0 
DWIDTH 10 0
BBX 9 9 0 -3
BITMAP
0000
2200
5400
2800
0A00
1500
2200
0000
0000
ENDCHAR
STARTCHAR 38
ENCODING 38
SWIDTH 520 0 
DWIDTH 6 0
BBX 6 9 0 -3
BITMAP
00
60
90
90
64
94
88
74
00
ENDCHAR
STARTCHAR 39
ENCODING 39
SWIDTH 520 0 
DWIDTH 3 0
BBX 2 9 0 -3
BITMAP
C0
C0
40
00
00
00
00
00
00
ENDCHAR
STARTCHAR 40
ENCODING 40
SWIDTH 520 0 
DWIDTH 4 0
BBX 3 9 0 -3
BITMAP
20
40
C0
C0
C0
C0
40
20
00
ENDCHAR
STARTCHAR 41
ENCODING 41
SWIDTH 520 0 
DWIDTH 4 0
BBX 3 9 0 -3
BITMAP
80
40
60
60
60
60
40
80
00
ENDCHAR
STARTCHAR 42
ENCODING 42
SWIDTH 520 0 
DWIDTH 10 0
BBX 9 9 0 -3
BITMAP
4100
2200
1400
7F00
1400
2200
4100
0000
0000
ENDCHAR
STARTCHAR 43
ENCODING 43
SWIDTH 520 0 
DWIDTH 7 0
BBX 6 9 0 -3
BITMAP
30
30
30
FC
30
30
30
00
00
ENDCHAR
STARTCHAR 44
ENCODING 44
SWIDTH 520 0 
DWIDTH 4 0
BBX 3 9 0 -3
BITMAP
00
00
00
00
00
60
60
20
C0
ENDCHAR
STARTCHAR 45
ENCODING 45
SWIDTH 520 0 
DWIDTH 7 0
BBX 6 9 0 -3
BITMAP
00
00
00
FC
00
00
00
00
00
ENDCHAR
STARTCHAR 46
ENCODING 46
SWIDTH 520 0 
DWIDTH 3 0
BBX 2 9 0 -3
BITMAP
00
00
00
00
00
C0
C0
00
00
ENDCHAR
STARTCHAR 47
ENCODING 47
SWIDTH 520 0 
DWIDTH 4 0
BBX 3 9 0 -3
BITMAP
00
20
20
40
40
40
80
80
00
ENDCHAR
STARTCHAR 48
ENCODING 48
SWIDTH 520 0 
DWIDTH 7 0
BBX 6 9 0 -3
BITMAP
70
D8
D8
D8
D8
D8
70
00
00
ENDCHAR
STARTCHAR 49
ENCODING 49
SWIDTH 520 0 
DWIDTH 7 0
BBX 6 9 0 -3
BITMAP
30
70
30
30
30
30
78
00
00
ENDCHAR
STARTCHAR 50
ENCODING 50
SWIDTH 520 0 
DWIDTH 7 0
BBX 6 9 0 -3
BITMAP
38
6C
4C
18
30
60
7C
00
00
ENDCHAR
STARTCHAR 51
ENCODING 51
SWIDTH 520 0 
DWIDTH 7 0
BBX 6 9 0 -3
BITMAP
38
4C
0C
18
0C
4C
38
00
00
ENDCHAR
STARTCHAR 52
ENCODING 52
SWIDTH 520 0 
DWIDTH 7 0
BBX 6 9 0 -3
BITMAP
18
38
38
58
58
FC
18
00
00
ENDCHAR
STARTCHAR 53
ENCODING 53
SWIDTH 520 0 
DWIDTH 7 0
BBX 6 9 0 -3
BITMAP
7C
60
78
0C
6C
6C
38
00
00
ENDCHAR
STARTCHAR 54
ENCODING 54
SWIDTH 520 0 
DWIDTH 7 0
BBX 6 9 0 -3
BITMAP
78
CC
C0
F8
CC
CC
78
00
00
ENDCHAR
STARTCHAR 55
ENCODING 55
SWIDTH 520 0 
DWIDTH 7 0
BBX 6 9 0 -3
BITMAP
FC
0C
0C
18
18
30
30
00
00
ENDCHAR
STARTCHAR 56
ENCODING 56
SWIDTH 520 0 
DWIDTH 7 0
BBX 6 9 0 -3
BITMAP
78
CC
CC
78
CC
CC
78
00
00
ENDCHAR
STARTCHAR 57
ENCODING 57
SWIDTH 520 0 
DWIDTH 7 0
BBX 6 9 0 -3
BITMAP
78
CC
CC
7C
0C
CC
78
00
00
ENDCHAR
STARTCHAR 58
ENCODING 58
SWIDTH 520 0 
DWIDTH 3 0
BBX 2 9 0 -3
BITMAP
00
C0
C0
00
00
C0
C0
00
00
ENDCHAR
STARTCHAR 59
ENCODING 59
SWIDTH 520 0 
DWIDTH 4 0
BBX 3 9 0 -3
BITMAP
00
60
60
00
00
60
60
20
C0
ENDCHAR
STARTCHAR 60
ENCODING 60
SWIDTH 520 0 
DWIDTH 7 0
BBX 6 9 0 -3
BITMAP
00
00
04
18
20
18
04
00
00
ENDCHAR
STARTCHAR 61
ENCODING 61
SWIDTH 520 0 
DWIDTH 7 0
BBX 6 9 0 -3
BITMAP
00
00
00
7C
00
7C
00
00
00
ENDCHAR
STARTCHAR 62
ENCODING 62
SWIDTH 520 0 
DWIDTH 7 0
BBX 6 9 0 -3
BITMAP
00
00
80
60
10
60
80
00
00
ENDCHAR
STARTCHAR 63
ENCODING 63
SWIDTH 520 0 
DWIDTH 7 0
BBX 6 9 0 -3
BITMAP
78
CC
CC
0C
18
30
30
00
30
ENDCHAR
STARTCHAR 64
ENCODING 64
SWIDTH 520 0 
DWIDTH 10 0
BBX 9 9 0 -3
BITMAP
3C00
5B00
8D00
9D00
A500
9E00
4000
3C00
0000
ENDCHAR
STARTCHAR 65
ENCODING 65
SWIDTH 520 0 
DWIDTH 8 0
BBX 7 9 0 -3
BITMAP
10
38
28
6C
44
FE
C6
00
00
ENDCHAR
STARTCHAR 66
ENCODING 66
SWIDTH 520 0 
DWIDTH 7 0
BBX 6 9 0 -3
BITMAP
F8
CC
CC
F8
CC
CC
F8
00
00
ENDCHAR
STARTCHAR 67
ENCODING 67
SWIDTH 520 0 
DWIDTH 7 0
BBX 6 9 0 -3
BITMAP
38
64
C0
C0
C0
64
38
00
00
ENDCHAR
STARTCHAR 68
ENCODING 68
SWIDTH 520 0 
DWIDTH 7 0
BBX 6 9 0 -3
BITMAP
F0
D8
CC
CC
CC
D8
F0
00
00
ENDCHAR
STARTCHAR 69
ENCODING 69
SWIDTH 520 0 
DWIDTH 6 0
BBX 5 9 0 -3
BITMAP
F8
C0
C0
F8
C0
C0
F8
00
00
ENDCHAR
STARTCHAR 70
ENCODING 70
SWIDTH 520 0 
DWIDTH 6 0
BBX 5 9 0 -3
BITMAP
F8
C0
C0
F8
C0
C0
C0
00
00
ENDCHAR
STARTCHAR 71
ENCODING 71
SWIDTH 520 0 
DWIDTH 8 0
BBX 7 9 0 -3
BITMAP
3C
62
C0
CE
C6
66
3C
00
00
ENDCHAR
STARTCHAR 72
ENCODING 72
SWIDTH 520 0 
DWIDTH 8 0
BBX 7 9 0 -3
BITMAP
C6
C6
C6
FE
C6
C6
C6
00
00
ENDCHAR
STARTCHAR 73
ENCODING 73
SWIDTH 520 0 
DWIDTH 4 0
BBX 3 9 0 -3
BITMAP
60
60
60
60
60
60
60
00
00
ENDCHAR
STARTCHAR 74
ENCODING 74
SWIDTH 520 0 
DWIDTH 5 0
BBX 4 9 0 -3
BITMAP
F0
30
30
30
30
30
E0
00
00
ENDCHAR
STARTCHAR 75
ENCODING 75
SWIDTH 520 0 
DWIDTH 8 0
BBX 7 9 0 -3
BITMAP
C4
CC
D8
F0
F8
CC
C6
00
00
ENDCHAR
STARTCHAR 76
ENCODING 76
SWIDTH 520 0 
DWIDTH 7 0
BBX 6 9 0 -3
BITMAP
C0
C0
C0
C0
C0
C0
FC
00
00
ENDCHAR
STARTCHAR 77
ENCODING 77
SWIDTH 520 0 
DWIDTH 8 0
BBX 7 9 0 -3
BITMAP
C6
EE
FE
D6
C6
C6
C6
00
00
ENDCHAR
STARTCHAR 78
ENCODING 78
SWIDTH 520 0 
DWIDTH 8 0
BBX 7 9 0 -3
BITMAP
C6
E6
E6
D6
CE
CE
C6
00
00
ENDCHAR
STARTCHAR 79
ENCODING 79
SWIDTH 520 0 
DWIDTH 8 0
BBX 7 9 0 -3
BITMAP
7C
C6
C6
C6
C6
C6
7C
00
00
ENDCHAR
STARTCHAR 80
ENCODING 80
SWIDTH 520 0 
DWIDTH 7 0
BBX 6 9 0 -3
BITMAP
F8
CC
CC
F8
C0
C0
C0
00
00
ENDCHAR
STARTCHAR 81
ENCODING 81
SWIDTH 520 0 
DWIDTH 7 0
BBX 6 9 0 -3
BITMAP
78
CC
CC
CC
CC
CC
78
1C
00
ENDCHAR
STARTCHAR 82
ENCODING 82
SWIDTH 520 0 
DWIDTH 7 0
BBX 6 9 0 -3
BITMAP
F8
CC
CC
F8
F0
D8
CC
00
00
ENDCHAR
STARTCHAR 83
ENCODING 83
SWIDTH 520 0 
DWIDTH 7 0
BBX 6 9 0 -3
BITMAP
78
CC
C0
78
0C
CC
78
00
00
ENDCHAR
STARTCHAR 84
ENCODING 84
SWIDTH 520 0 
DWIDTH 7 0
BBX 6 9 0 -3
BITMAP
FC
30
30
30
30
30
30
00
00
ENDCHAR
STARTCHAR 85
ENCODING 85
SWIDTH 520 0 
DWIDTH 7 0
BBX 6 9 0 -3
BITMAP
CC
CC
CC
CC
CC
CC
78
00
00
ENDCHAR
STARTCHAR 86
ENCODING 86
SWIDTH 520 0 
DWIDTH 7 0
BBX 6 9 0 -3
BITMAP
CC
CC
48
78
78
30
30
00
00
ENDCHAR
STARTCHAR 87
ENCODING 87
SWIDTH 520 0 
DWIDTH 10 0
BBX 9 9 0 -3
BITMAP
C980
DD80
5D00
7700
7700
2200
2200
0000
0000
ENDCHAR
STARTCHAR 88
ENCODING 88
SWIDTH 520 0 
DWIDTH 7 0
BBX 6 9 0 -3
BITMAP
84
CC
78
30
78
CC
84
00
00
ENDCHAR
STARTCHAR 89
ENCODING 89
SWIDTH 520 0 
DWIDTH 7 0
BBX 6 9 0 -3
BITMAP
84
CC
78
30
30
30
30
00
00
ENDCHAR
STARTCHAR 90
ENCODING 90
SWIDTH 520 0 
DWIDTH 7 0
BBX 6 9 0 -3
BITMAP
FC
0C
18
30
60
C0
FC
00
00
ENDCHAR
STARTCHAR 91
ENCODING 91
SWIDTH 520 0 
DWIDTH 4 0
BBX 3 9 0 -3
BITMAP
E0
C0
C0
C0
C0
C0
E0
00
00
ENDCHAR
STARTCHAR 92
ENCODING 92
SWIDTH 520 0 
DWIDTH 6 0
BBX 5 9 0 -3
BITMAP
80
40
40
20
10
10
08
00
00
ENDCHAR
STARTCHAR 93
ENCODING 93
SWIDTH 520 0 
DWIDTH 4 0
BBX 3 9 0 -3
BITMAP
E0
60
60
60
60
60
E0
00
00
ENDCHAR
STARTCHAR 94
ENCODING 94
SWIDTH 520 0 
DWIDTH 6 0
BBX 5 9 0 -3
BITMAP
20
70
D8
88
00
00
00
00
00
ENDCHAR
STARTCHAR 95
ENCODING 95
SWIDTH 520 0 
DWIDTH 6 0
BBX 5 9 0 -3
BITMAP
00
00
00
00
00
00
F8
00
00
ENDCHAR
STARTCHAR 96
ENCODING 96
SWIDTH 520 0 
DWIDTH 4 0
BBX 3 9 0 -3
BITMAP
80
C0
60
00
00
00
00
00
00
ENDCHAR
STARTCHAR 97
ENCODING 97
SWIDTH 520 0 
DWIDTH 7 0
BBX 6 9 0 -3
BITMAP
00
00
78
0C
7C
CC
7C
00
00
ENDCHAR
STARTCHAR 98
ENCODING 98
SWIDTH 520 0 
DWIDTH 7 0
BBX 6 9 0 -3
BITMAP
C0
C0
F8
CC
CC
CC
F8
00
00
ENDCHAR
STARTCHAR 99
ENCODING 99
SWIDTH 520 0 
DWIDTH 6 0
BBX 5 9 0 -3
BITMAP
00
00
70
C8
C0
C8
70
00
00
ENDCHAR
STARTCHAR 100
ENCODING 100
SWIDTH 520 0 
DWIDTH 7 0
BBX 6 9 0 -3
BITMAP
0C
0C
7C
CC
CC
CC
7C
00
00
ENDCHAR
STARTCHAR 101
ENCODING 101
SWIDTH 520 0 
DWIDTH 7 0
BBX 6 9 0 -3
BITMAP
00
00
78
CC
FC
C0
78
00
00
ENDCHAR
STARTCHAR 102
ENCODING 102
SWIDTH 520 0 
DWIDTH 6 0
BBX 5 9 0 -3
BITMAP
38
60
F8
60
60
60
60
00
00
ENDCHAR
STARTCHAR 103
ENCODING 103
SWIDTH 520 0 
DWIDTH 6 0
BBX 5 9 0 -3
BITMAP
00
00
78
D8
D8
D8
78
98
78
ENDCHAR
STARTCHAR 104
ENCODING 104
SWIDTH 520 0 
DWIDTH 7 0
BBX 6 9 0 -3
BITMAP
C0
C0
D8
EC
CC
CC
CC
00
00
ENDCHAR
STARTCHAR 105
ENCODING 105
SWIDTH 520 0 
DWIDTH 4 0
BBX 3 9 0 -3
BITMAP
60
00
60
60
60
60
60
00
00
ENDCHAR
STARTCHAR 106
ENCODING 106
SWIDTH 520 0 
DWIDTH 5 0
BBX 4 9 0 -3
BITMAP
30
30
00
F0
30
30
30
30
E0
ENDCHAR
STARTCHAR 107
ENCODING 107
SWIDTH 520 0 
DWIDTH 7 0
BBX 6 9 0 -3
BITMAP
C0
C0
D8
F0
F0
D8
CC
00
00
ENDCHAR
STARTCHAR 108
ENCODING 108
SWIDTH 520 0 
DWIDTH 4 0
BBX 3 9 0 -3
BITMAP
60
60
60
60
60
60
60
00
00
ENDCHAR
STARTCHAR 109
ENCODING 109
SWIDTH 520 0 
DWIDTH 9 0
BBX 8 9 0 -3
BITMAP
00
00
EF
DB
DB
DB
DB
00
00
ENDCHAR
STARTCHAR 110
ENCODING 110
SWIDTH 520 0 
DWIDTH 7 0
BBX 6 9 0 -3
BITMAP
00
00
D8
EC
CC
CC
CC
00
00
ENDCHAR
STARTCHAR 111
ENCODING 111
SWIDTH 520 0 
DWIDTH 7 0
BBX 6 9 0 -3
BITMAP
00
00
78
CC
CC
CC
78
00
00
ENDCHAR
STARTCHAR 112
ENCODING 112
SWIDTH 520 0 
DWIDTH 7 0
BBX 6 9 0 -3
BITMAP
00
00
F8
CC
CC
CC
F8
C0
C0
ENDCHAR
STARTCHAR 113
ENCODING 113
SWIDTH 520 0 
DWIDTH 7 0
BBX 6 9 0 -3
BITMAP
00
00
7C
CC
CC
CC
7C
0C
0C
ENDCHAR
STARTCHAR 114
ENCODING 114
SWIDTH 520 0 
DWIDTH 6 0
BBX 5 9 0 -3
BITMAP
00
00
D8
E0
C0
C0
C0
00
00
ENDCHAR
STARTCHAR 115
ENCODING 115
SWIDTH 520 0 
DWIDTH 6 0
BBX 5 9 0 -3
BITMAP
00
00
70
C0
70
18
70
00
00
ENDCHAR
STARTCHAR 116
ENCODING 116
SWIDTH 520 0 
DWIDTH 6 0
BBX 5 9 0 -3
BITMAP
00
60
F8
60
60
60
38
00
00
ENDCHAR
STARTCHAR 117
ENCODING 117
SWIDTH 520 0 
DWIDTH 7 0
BBX 6 9 0 -3
BITMAP
00
00
CC
CC
CC
CC
7C
00
00
ENDCHAR
STARTCHAR 118
ENCODING 118
SWIDTH 520 0 
DWIDTH 7 0
BBX 6 9 0 -3
BITMAP
00
00
CC
CC
48
78
30
00
00
ENDCHAR
STARTCHAR 119
ENCODING 119
SWIDTH 520 0 
DWIDTH 9 0
BBX 8 9 0 -3
BITMAP
00
00
DB
DB
7E
66
66
00
00
ENDCHAR
STARTCHAR 120
ENCODING 120
SWIDTH 520 0 
DWIDTH 7 0
BBX 6 9 0 -3
BITMAP
00
00
CC
78
30
78
CC
00
00
ENDCHAR
STARTCHAR 121
ENCODING 121
SWIDTH 520 0 
DWIDTH 7 0
BBX 6 9 0 -3
BITMAP
00
00
CC
CC
48
78
30
30
60
ENDCHAR
STARTCHAR 122
ENCODING 122
SWIDTH 520 0 
DWIDTH 6 0
BBX 5 9 0 -3
BITMAP
00
00
F8
18
20
C0
F8
00
00
ENDCHAR
STARTCHAR 123
ENCODING 123
SWIDTH 520 0 
DWIDTH 4 0
BBX 3 9 0 -3
BITMAP
20
40
40
80
40
40
20
00
00
ENDCHAR
STARTCHAR 124
ENCODING 124
SWIDTH 520 0 
DWIDTH 4 0
BBX 3 9 0 -3
BITMAP
60
60
60
60
60
60
60
00
00
ENDCHAR
STARTCHAR 125
ENCODING 125
SWIDTH 520 0 
DWIDTH 4 0
BBX 3 9 0 -3
BITMAP
80
40
40
20
40
40
80
00
00
ENDCHAR
STARTCHAR 126
ENCODING 126
SWIDTH 520 0 
DWIDTH 7 0
BBX 6 9 0 -3
BITMAP
00
00
00
74
B8
00
00
00
00
ENDCHAR
STARTCHAR 127
ENCODING 127
SWIDTH 520 0 
DWIDTH 5 0
BBX 4 9 0 -3
BITMAP
00
00
00
00
00
00
00
00
00
ENDCHAR
STARTCHAR 128
ENCODING 128
SWIDTH 520 0 
DWIDTH 5 0
BBX 4 9 0 -3
BITMAP
00
00
00
00
00
00
00
00
00
ENDCHAR
STARTCHAR 129
ENCODING 129
SWIDTH 520 0 
DWIDTH 5 0
BBX 4 9 0 -3
BITMAP
00
00
00
00
00
00
00
00
00
ENDCHAR
STARTCHAR 130
ENCODING 130
SWIDTH 520 0 
DWIDTH 5 0
BBX 4 9 0 -3
BITMAP
00
00
00
00
00
00
00
00
00
ENDCHAR
STARTCHAR 131
ENCODING 131
SWIDTH 520 0 
DWIDTH 5 0
BBX 4 9 0 -3
BITMAP
00
00
00
00
00
00
00
00
00
ENDCHAR
STARTCHAR 132
ENCODING 132
SWIDTH 520 0 
DWIDTH 5 0
BBX 4 9 0 -3
BITMAP
00
00
00
00
00
00
00
00
00
ENDCHAR
STARTCHAR 133
ENCODING 133
SWIDTH 520 0 
DWIDTH 7 0
BBX 6 9 0 -3
BITMAP
00
04
04
24
44
FC
40
20
00
ENDCHAR
STARTCHAR 134
ENCODING 134
SWIDTH 520 0 
DWIDTH 7 0
BBX 6 9 0 -3
BITMAP
00
00
00
00
00
48
78
00
00
ENDCHAR
STARTCHAR 135
ENCODING 135
SWIDTH 520 0 
DWIDTH 15 0
BBX 14 9 0 -3
BITMAP
8400
CC00
CCDC
B534
B534
8534
84D4
0000
0000
ENDCHAR
STARTCHAR 136
ENCODING 136
SWIDTH 520 0 
DWIDTH 15 0
BBX 14 9 0 -3
BITMAP
F800
2000
2498
24A4
24BC
24A0
239C
0000
0000
ENDCHAR
STARTCHAR 137
ENCODING 137
SWIDTH 520 0 
DWIDTH 16 0
BBX 15 9 0 -3
BITMAP
9202
9202
54C6
552A
55EA
550A
28E6
0000
0000
ENDCHAR
STARTCHAR 138
ENCODING 138
SWIDTH 520 0 
DWIDTH 16 0
BBX 15 9 0 -3
BITMAP
FA00
2200
2392
2252
2252
2252
224E
0000
0000
ENDCHAR
STARTCHAR 139
ENCODING 139
SWIDTH 520 0 
DWIDTH 16 0
BBX 15 9 0 -3
BITMAP
3C08
2000
20E8
3C88
2088
2088
2088
0000
0000
ENDCHAR
STARTCHAR 140
ENCODING 140
SWIDTH 520 0 
DWIDTH 15 0
BBX 14 9 0 -3
BITMAP
7008
8808
839C
7048
09C8
8A48
71CC
0000
0000
ENDCHAR
STARTCHAR 141
ENCODING 141
SWIDTH 520 0 
DWIDTH 16 0
BBX 15 9 0 -3
BITMAP
7000
8800
825C
7252
0A52
8A52
71D2
0000
0000
ENDCHAR
STARTCHAR 142
ENCODING 142
SWIDTH 520 0 
DWIDTH 10 0
BBX 9 9 0 -3
BITMAP
0000
0000
0000
7F00
0000
0000
0000
0000
0000
ENDCHAR
STARTCHAR 143
ENCODING 143
SWIDTH 520 0 
DWIDTH 10 0
BBX 9 9 0 -3
BITMAP
0000
0000
3E00
0000
0000
7F00
0000
0000
0000
ENDCHAR
STARTCHAR 144
ENCODING 144
SWIDTH 520 0 
DWIDTH 10 0
BBX 9 9 0 -3
BITMAP
0000
3E00
0000
1C00
0000
3E00
0000
0000
0000
ENDCHAR
STARTCHAR 145
ENCODING 145
SWIDTH 520 0 
DWIDTH 10 0
BBX 9 9 0 -3
BITMAP
0000
7F00
5500
5700
4100
4100
3F00
0000
0000
ENDCHAR
STARTCHAR 146
ENCODING 146
SWIDTH 520 0 
DWIDTH 10 0
BBX 9 9 0 -3
BITMAP
0000
7C00
1000
3C00
1400
1400
7E00
0000
0000
ENDCHAR
STARTCHAR 147
ENCODING 147
SWIDTH 520 0 
DWIDTH 10 0
BBX 9 9 0 -3
BITMAP
0000
1000
0800
7E00
0000
2400
4200
0000
0000
ENDCHAR
STARTCHAR 148
ENCODING 148
SWIDTH 520 0 
DWIDTH 10 0
BBX 9 9 0 -3
BITMAP
0000
3C00
2400
2400
3C00
2400
3C00
0000
0000
ENDCHAR
STARTCHAR 160
ENCODING 160
SWIDTH 520 0 
DWIDTH 5 0
BBX 4 9 0 -3
BITMAP
00
00
00
00
00
00
00
00
00
ENDCHAR
STARTCHAR 161
ENCODING 161
SWIDTH 520 0 
DWIDTH 4 0
BBX 3 9 0 -3
BITMAP
60
00
60
60
60
60
60
00
00
ENDCHAR
STARTCHAR 162
ENCODING 162
SWIDTH 520 0 
DWIDTH 8 0
BBX 8 10 0 -3
BITMAP
0C
0C
7E
DB
D8
D8
DB
7E
30
30
ENDCHAR
STARTCHAR 163
ENCODING 163
SWIDTH 520 0 
DWIDTH 7 0
BBX 6 9 0 -3
BITMAP
1C
30
30
FC
30
30
70
B0
FC
ENDCHAR
STARTCHAR 164
ENCODING 164
SWIDTH 520 0 
DWIDTH 7 0
BBX 7 9 0 -3
BITMAP
00
BA
6C
C6
82
C6
6C
BA
00
ENDCHAR
STARTCHAR 165
ENCODING 165
SWIDTH 520 0 
DWIDTH 10 0
BBX 9 9 0 -3
BITMAP
6180
1E00
0C00
3F00
0C00
3F00
0C00
0000
0000
ENDCHAR
STARTCHAR 166
ENCODING 166
SWIDTH 520 0 
DWIDTH 3 0
BBX 2 9 0 -3
BITMAP
00
C0
C0
C0
00
C0
C0
C0
00
ENDCHAR
STARTCHAR 167
ENCODING 167
SWIDTH 520 0 
DWIDTH 10 0
BBX 9 9 0 -3
BITMAP
0C00
1A00
1800
0C00
1A00
1A00
0C00
2C00
1800
ENDCHAR
STARTCHAR 168
ENCODING 168
SWIDTH 520 0 
DWIDTH 7 0
BBX 6 9 0 -3
BITMAP
6C
6C
00
00
00
00
00
00
00
ENDCHAR
STARTCHAR 169
ENCODING 169
SWIDTH 520 0 
DWIDTH 10 0
BBX 9 9 0 -3
BITMAP
1C00
6300
5D00
B280
B080
B280
5D00
6300
1C00
ENDCHAR
STARTCHAR 170
ENCODING 170
SWIDTH 520 0 
DWIDTH 5 0
BBX 5 9 0 -3
BITMAP
00
70
08
78
C8
78
00
F8
00
ENDCHAR
STARTCHAR 171
ENCODING 171
SWIDTH 520 0 
DWIDTH 7 0
BBX 6 9 0 -3
BITMAP
00
10
28
50
A0
50
28
10
00
ENDCHAR
STARTCHAR 172
ENCODING 172
SWIDTH 520 0 
DWIDTH 7 0
BBX 6 9 0 -3
BITMAP
00
FC
0C
0C
00
00
00
00
00
ENDCHAR
STARTCHAR 173
ENCODING 173
SWIDTH 520 0 
DWIDTH 5 0
BBX 4 9 0 -3
BITMAP
00
00
00
00
00
00
00
00
00
ENDCHAR
STARTCHAR 174
ENCODING 174
SWIDTH 520 0 
DWIDTH 10 0
BBX 9 9 0 -3
BITMAP
1C00
6300
5D00
9480
9880
9480
5300
6300
1C00
ENDCHAR
STARTCHAR 175
ENCODING 175
SWIDTH 520 0 
DWIDTH 7 0
BBX 6 9 0 -3
BITMAP
00
FC
00
00
00
00
00
00
00
ENDCHAR
STARTCHAR 176
ENCODING 176
SWIDTH 520 0 
DWIDTH 7 0
BBX 6 9 0 -3
BITMAP
30
48
48
30
00
00
00
00
00
ENDCHAR
STARTCHAR 177
ENCODING 177
SWIDTH 520 0 
DWIDTH 7 0
BBX 6 9 0 -3
BITMAP
10
10
7C
10
10
00
7C
00
00
ENDCHAR
STARTCHAR 178
ENCODING 178
SWIDTH 520 0 
DWIDTH 7 0
BBX 6 9 0 -3
BITMAP
30
48
10
78
00
00
00
00
00
ENDCHAR
STARTCHAR 179
ENCODING 179
SWIDTH 520 0 
DWIDTH 7 0
BBX 6 9 0 -3
BITMAP
30
48
10
48
30
00
00
00
00
ENDCHAR
STARTCHAR 180
ENCODING 180
SWIDTH 520 0 
DWIDTH 4 0
BBX 3 9 0 -3
BITMAP
20
60
80
00
00
00
00
00
00
ENDCHAR
STARTCHAR 181
ENCODING 181
SWIDTH 520 0 
DWIDTH 10 0
BBX 9 9 0 -3
BITMAP
0000
6600
6600
6600
6600
6600
7B00
C000
C000
ENDCHAR
STARTCHAR 182
ENCODING 182
SWIDTH 520 0 
DWIDTH 10 0
BBX 9 9 0 -3
BITMAP
FF80
7B00
7B00
3B00
1B00
1B00
1B00
1B00
1B00
ENDCHAR
STARTCHAR 183
ENCODING 183
SWIDTH 520 0 
DWIDTH 3 0
BBX 2 9 0 -3
BITMAP
00
00
C0
C0
00
00
00
00
00
ENDCHAR
STARTCHAR 184
ENCODING 184
SWIDTH 520 0 
DWIDTH 3 0
BBX 3 9 0 -3
BITMAP
00
00
00
00
00
00
00
20
C0
ENDCHAR
STARTCHAR 185
ENCODING 185
SWIDTH 520 0 
DWIDTH 3 0
BBX 2 9 0 -3
BITMAP
00
C0
C0
C0
C0
00
00
00
00
ENDCHAR
STARTCHAR 186
ENCODING 186
SWIDTH 520 0 
DWIDTH 10 0
BBX 9 9 0 -3
BITMAP
1800
2400
2400
1800
0000
3C00
0000
0000
0000
ENDCHAR
STARTCHAR 187
ENCODING 187
SWIDTH 520 0 
DWIDTH 5 0
BBX 5 9 0 -3
BITMAP
00
40
A0
50
28
50
A0
40
00
ENDCHAR
STARTCHAR 188
ENCODING 188
SWIDTH 520 0 
DWIDTH 10 0
BBX 9 9 0 -3
BITMAP
2100
2200
2400
2980
0A80
1280
2780
4080
0000
ENDCHAR
STARTCHAR 189
ENCODING 189
SWIDTH 520 0 
DWIDTH 10 0
BBX 9 9 0 -3
BITMAP
2100
2200
2400
0800
0F00
1500
2200
4700
0000
ENDCHAR
STARTCHAR 190
ENCODING 190
SWIDTH 520 0 
DWIDTH 10 0
BBX 9 9 0 -3
BITMAP
6100
1200
6400
1980
6A80
1280
2780
4080
0000
ENDCHAR
STARTCHAR 191
ENCODING 191
SWIDTH 520 0 
DWIDTH 7 0
BBX 6 9 0 -3
BITMAP
10
00
10
20
64
6C
38
00
00
ENDCHAR
STARTCHAR 192
ENCODING 192
SWIDTH 520 0 
DWIDTH 7 0
BBX 7 9 0 -3
BITMAP
20
10
10
38
28
6C
44
FE
C6
ENDCHAR
STARTCHAR 193
ENCODING 193
SWIDTH 520 0 
DWIDTH 7 0
BBX 7 9 0 -3
BITMAP
08
10
10
38
28
6C
44
FE
C6
ENDCHAR
STARTCHAR 194
ENCODING 194
SWIDTH 520 0 
DWIDTH 7 0
BBX 7 9 0 -3
BITMAP
30
48
10
38
28
6C
44
FE
C6
ENDCHAR
STARTCHAR 195
ENCODING 195
SWIDTH 520 0 
DWIDTH 7 0
BBX 7 9 0 -3
BITMAP
58
34
10
38
28
6C
44
FE
C6
ENDCHAR
STARTCHAR 196
ENCODING 196
SWIDTH 520 0 
DWIDTH 7 0
BBX 7 9 0 -3
BITMAP
28
00
10
38
28
6C
44
FE
C6
ENDCHAR
STARTCHAR 197
ENCODING 197
SWIDTH 520 0 
DWIDTH 7 0
BBX 7 9 0 -3
BITMAP
10
28
10
38
28
6C
44
FE
C6
ENDCHAR
STARTCHAR 198
ENCODING 198
SWIDTH 520 0 
DWIDTH 10 0
BBX 9 9 0 -3
BITMAP
0F00
1800
1800
2F00
2800
7800
4F00
0000
0000
ENDCHAR
STARTCHAR 199
ENCODING 199
SWIDTH 520 0 
DWIDTH 6 0
BBX 6 9 0 -3
BITMAP
38
64
C0
C0
C0
64
38
08
30
ENDCHAR
STARTCHAR 200
ENCODING 200
SWIDTH 520 0 
DWIDTH 5 0
BBX 5 9 0 -3
BITMAP
20
10
F8
C0
C0
F8
C0
C0
F8
ENDCHAR
STARTCHAR 201
ENCODING 201
SWIDTH 520 0 
DWIDTH 5 0
BBX 5 9 0 -3
BITMAP
10
20
F8
C0
C0
F8
C0
C0
F8
ENDCHAR
STARTCHAR 202
ENCODING 202
SWIDTH 520 0 
DWIDTH 5 0
BBX 5 9 0 -3
BITMAP
30
48
F8
C0
C0
F8
C0
C0
F8
ENDCHAR
STARTCHAR 203
ENCODING 203
SWIDTH 520 0 
DWIDTH 5 0
BBX 5 9 0 -3
BITMAP
50
00
F8
C0
C0
F8
C0
C0
F8
ENDCHAR
STARTCHAR 204
ENCODING 204
SWIDTH 520 0 
DWIDTH 3 0
BBX 3 9 0 -3
BITMAP
40
20
60
60
60
60
60
60
60
ENDCHAR
STARTCHAR 205
ENCODING 205
SWIDTH 520 0 
DWIDTH 3 0
BBX 3 9 0 -3
BITMAP
20
40
60
60
60
60
60
60
60
ENDCHAR
STARTCHAR 206
ENCODING 206
SWIDTH 520 0 
DWIDTH 4 0
BBX 4 9 0 -3
BITMAP
60
90
60
60
60
60
60
60
60
ENDCHAR
STARTCHAR 207
ENCODING 207
SWIDTH 520 0 
DWIDTH 3 0
BBX 3 9 0 -3
BITMAP
A0
00
60
60
60
60
60
60
60
ENDCHAR
STARTCHAR 208
ENCODING 208
SWIDTH 520 0 
DWIDTH 10 0
BBX 9 9 0 -3
BITMAP
0000
3C00
3200
7B00
3300
3300
3200
3C00
0000
ENDCHAR
STARTCHAR 209
ENCODING 209
SWIDTH 520 0 
DWIDTH 10 0
BBX 9 9 0 -3
BITMAP
5A00
3400
6600
7600
6E00
6E00
6600
0000
0000
ENDCHAR
STARTCHAR 210
ENCODING 210
SWIDTH 520 0 
DWIDTH 7 0
BBX 7 9 0 -3
BITMAP
20
10
7C
C6
C6
C6
C6
C6
7C
ENDCHAR
STARTCHAR 211
ENCODING 211
SWIDTH 520 0 
DWIDTH 7 0
BBX 7 9 0 -3
BITMAP
08
10
7C
C6
C6
C6
C6
C6
7C
ENDCHAR
STARTCHAR 212
ENCODING 212
SWIDTH 520 0 
DWIDTH 7 0
BBX 7 9 0 -3
BITMAP
18
24
7C
C6
C6
C6
C6
C6
7C
ENDCHAR
STARTCHAR 213
ENCODING 213
SWIDTH 520 0 
DWIDTH 7 0
BBX 7 9 0 -3
BITMAP
58
34
7C
C6
C6
C6
C6
C6
7C
ENDCHAR
STARTCHAR 214
ENCODING 214
SWIDTH 520 0 
DWIDTH 7 0
BBX 7 9 0 -3
BITMAP
28
00
7C
C6
C6
C6
C6
C6
7C
ENDCHAR
STARTCHAR 215
ENCODING 215
SWIDTH 520 0 
DWIDTH 10 0
BBX 9 9 0 -3
BITMAP
0000
0000
6600
3C00
1800
3C00
6600
0000
0000
ENDCHAR
STARTCHAR 216
ENCODING 216
SWIDTH 520 0 
DWIDTH 10 0
BBX 9 9 0 -3
BITMAP
3E00
6600
4A00
5200
5200
6600
7C00
0000
0000
ENDCHAR
STARTCHAR 217
ENCODING 217
SWIDTH 520 0 
DWIDTH 6 0
BBX 6 9 0 -3
BITMAP
20
10
CC
CC
CC
CC
CC
CC
78
ENDCHAR
STARTCHAR 218
ENCODING 218
SWIDTH 520 0 
DWIDTH 6 0
BBX 6 9 0 -3
BITMAP
10
20
CC
CC
CC
CC
CC
CC
78
ENDCHAR
STARTCHAR 219
ENCODING 219
SWIDTH 520 0 
DWIDTH 6 0
BBX 6 9 0 -3
BITMAP
30
48
CC
CC
CC
CC
CC
CC
78
ENDCHAR
STARTCHAR 220
ENCODING 220
SWIDTH 520 0 
DWIDTH 6 0
BBX 6 9 0 -3
BITMAP
28
00
CC
CC
CC
CC
CC
CC
78
ENDCHAR
STARTCHAR 221
ENCODING 221
SWIDTH 520 0 
DWIDTH 6 0
BBX 6 9 0 -3
BITMAP
10
20
84
CC
78
30
30
30
30
ENDCHAR
STARTCHAR 222
ENCODING 222
SWIDTH 520 0 
DWIDTH 10 0
BBX 9 9 0 -3
BITMAP
6000
6000
7C00
6600
6600
6600
7C00
6000
6000
ENDCHAR
STARTCHAR 223
ENCODING 223
SWIDTH 520 0 
DWIDTH 10 0
BBX 9 9 0 -3
BITMAP
1C00
3200
3600
3800
3600
3200
1E00
0000
0000
ENDCHAR
STARTCHAR 224
ENCODING 224
SWIDTH 520 0 
DWIDTH 6 0
BBX 6 9 0 -3
BITMAP
20
10
78
0C
7C
CC
7C
00
00
ENDCHAR
STARTCHAR 225
ENCODING 225
SWIDTH 520 0 
DWIDTH 6 0
BBX 6 9 0 -3
BITMAP
10
20
78
0C
7C
CC
7C
00
00
ENDCHAR
STARTCHAR 226
ENCODING 226
SWIDTH 520 0 
DWIDTH 6 0
BBX 6 9 0 -3
BITMAP
30
48
78
0C
7C
CC
7C
00
00
ENDCHAR
STARTCHAR 227
ENCODING 227
SWIDTH 520 0 
DWIDTH 6 0
BBX 6 9 0 -3
BITMAP
58
34
78
0C
7C
CC
7C
00
00
ENDCHAR
STARTCHAR 228
ENCODING 228
SWIDTH 520 0 
DWIDTH 6 0
BBX 6 9 0 -3
BITMAP
28
00
78
0C
7C
CC
7C
00
00
ENDCHAR
STARTCHAR 229
ENCODING 229
SWIDTH 520 0 
DWIDTH 6 0
BBX 6 9 0 -3
BITMAP
10
28
10
78
0C
7C
CC
7C
00
ENDCHAR
STARTCHAR 230
ENCODING 230
SWIDTH 520 0 
DWIDTH 10 0
BBX 9 9 0 -3
BITMAP
0000
3F00
4C80
3F80
4C00
4C80
3F00
0000
0000
ENDCHAR
STARTCHAR 231
ENCODING 231
SWIDTH 520 0 
DWIDTH 5 0
BBX 5 9 0 -3
BITMAP
00
00
70
C8
C0
C8
70
10
60
ENDCHAR
STARTCHAR 232
ENCODING 232
SWIDTH 520 0 
DWIDTH 6 0
BBX 6 9 0 -3
BITMAP
20
10
78
CC
FC
C0
78
00
00
ENDCHAR
STARTCHAR 233
ENCODING 233
SWIDTH 520 0 
DWIDTH 6 0
BBX 6 9 0 -3
BITMAP
10
20
78
CC
FC
C0
78
00
00
ENDCHAR
STARTCHAR 234
ENCODING 234
SWIDTH 520 0 
DWIDTH 6 0
BBX 6 9 0 -3
BITMAP
30
48
78
CC
FC
C0
78
00
00
ENDCHAR
STARTCHAR 235
ENCODING 235
SWIDTH 520 0 
DWIDTH 6 0
BBX 6 9 0 -3
BITMAP
28
00
78
CC
FC
C0
78
00
00
ENDCHAR
STARTCHAR 236
ENCODING 236
SWIDTH 520 0 
DWIDTH 3 0
BBX 3 9 0 -3
BITMAP
40
20
60
60
60
60
60
00
00
ENDCHAR
STARTCHAR 237
ENCODING 237
SWIDTH 520 0 
DWIDTH 3 0
BBX 3 9 0 -3
BITMAP
20
40
60
60
60
60
60
00
00
ENDCHAR
STARTCHAR 238
ENCODING 238
SWIDTH 520 0 
DWIDTH 4 0
BBX 4 9 0 -3
BITMAP
60
90
60
60
60
60
60
00
00
ENDCHAR
STARTCHAR 239
ENCODING 239
SWIDTH 520 0 
DWIDTH 10 0
BBX 9 9 0 -3
BITMAP
0000
2800
0000
1800
1800
1800
1800
0000
0000
ENDCHAR
STARTCHAR 240
ENCODING 240
SWIDTH 520 0 
DWIDTH 10 0
BBX 9 9 0 -3
BITMAP
1C00
0C00
1200
0600
1A00
1200
0C00
0000
0000
ENDCHAR
STARTCHAR 241
ENCODING 241
SWIDTH 520 0 
DWIDTH 10 0
BBX 9 9 0 -3
BITMAP
1900
2600
0000
3600
3B00
3300
3300
3300
0000
ENDCHAR
STARTCHAR 242
ENCODING 242
SWIDTH 520 0 
DWIDTH 6 0
BBX 6 9 0 -3
BITMAP
20
10
78
CC
CC
CC
78
00
00
ENDCHAR
STARTCHAR 243
ENCODING 243
SWIDTH 520 0 
DWIDTH 6 0
BBX 6 9 0 -3
BITMAP
10
20
78
CC
CC
CC
78
00
00
ENDCHAR
STARTCHAR 244
ENCODING 244
SWIDTH 520 0 
DWIDTH 6 0
BBX 6 9 0 -3
BITMAP
30
48
78
CC
CC
CC
78
00
00
ENDCHAR
STARTCHAR 245
ENCODING 245
SWIDTH 520 0 
DWIDTH 6 0
BBX 6 9 0 -3
BITMAP
58
34
78
CC
CC
CC
78
00
00
ENDCHAR
STARTCHAR 246
ENCODING 246
SWIDTH 520 0 
DWIDTH 6 0
BBX 6 9 0 -3
BITMAP
28
00
78
CC
CC
CC
78
00
00
ENDCHAR
STARTCHAR 247
ENCODING 247
SWIDTH 520 0 
DWIDTH 7 0
BBX 6 9 0 -3
BITMAP
00
30
00
FC
00
30
00
00
00
ENDCHAR
STARTCHAR 248
ENCODING 248
SWIDTH 520 0 
DWIDTH 10 0
BBX 9 9 0 -3
BITMAP
0000
0000
1E00
2600
2A00
3200
3C00
0000
0000
ENDCHAR
STARTCHAR 249
ENCODING 249
SWIDTH 520 0 
DWIDTH 6 0
BBX 6 9 0 -3
BITMAP
20
10
CC
CC
CC
CC
7C
00
00
ENDCHAR
STARTCHAR 250
ENCODING 250
SWIDTH 520 0 
DWIDTH 6 0
BBX 6 9 0 -3
BITMAP
10
20
CC
CC
CC
CC
7C
00
00
ENDCHAR
STARTCHAR 251
ENCODING 251
SWIDTH 520 0 
DWIDTH 6 0
BBX 6 9 0 -3
BITMAP
30
48
CC
CC
CC
CC
7C
00
00
ENDCHAR
STARTCHAR 252
ENCODING 252
SWIDTH 520 0 
DWIDTH 6 0
BBX 6 9 0 -3
BITMAP
28
00
CC
CC
CC
CC
7C
00
00
ENDCHAR
STARTCHAR 253
ENCODING 253
SWIDTH 520 0 
DWIDTH 6 0
BBX 6 9 0 -3
BITMAP
10
20
CC
CC
48
78
30
30
60
ENDCHAR
STARTCHAR 254
ENCODING 254
SWIDTH 520 0 
DWIDTH 10 0
BBX 9 9 0 -3
BITMAP
6000
6000
7C00
6600
6600
6600
7C00
6000
6000
ENDCHAR
STARTCHAR 255
ENCODING 255
SWIDTH 520 0 
DWIDTH 10 0
BBX 9 9 0 -3
BITMAP
0000
1100
0000
3180
1B00
0E00
0C00
0C00
1800
ENDCHAR
STARTCHAR 258
ENCODING 258
SWIDTH 520 0 
DWIDTH 7 0
BBX 7 9 0 -3
BITMAP
44
38
10
38
28
6C
44
FE
C6
ENDCHAR
STARTCHAR 259
ENCODING 259
SWIDTH 520 0 
DWIDTH 6 0
BBX 6 9 0 -3
BITMAP
44
38
78
0C
7C
CC
7C
00
00
ENDCHAR
STARTCHAR 260
ENCODING 260
SWIDTH 520 0 
DWIDTH 7 0
BBX 7 9 0 -3
BITMAP
10
38
28
6C
44
FE
C6
08
06
ENDCHAR
STARTCHAR 261
ENCODING 261
SWIDTH 520 0 
DWIDTH 6 0
BBX 6 9 0 -3
BITMAP
00
00
78
0C
7C
CC
7C
10
0C
ENDCHAR
STARTCHAR 262
ENCODING 262
SWIDTH 520 0 
DWIDTH 6 0
BBX 6 9 0 -3
BITMAP
08
10
38
64
C0
C0
C0
64
38
ENDCHAR
STARTCHAR 263
ENCODING 263
SWIDTH 520 0 
DWIDTH 5 0
BBX 5 9 0 -3
BITMAP
10
20
70
C8
C0
C8
70
00
00
ENDCHAR
STARTCHAR 268
ENCODING 268
SWIDTH 520 0 
DWIDTH 6 0
BBX 6 9 0 -3
BITMAP
28
10
38
64
C0
C0
C0
64
38
ENDCHAR
STARTCHAR 269
ENCODING 269
SWIDTH 520 0 
DWIDTH 5 0
BBX 5 9 0 -3
BITMAP
50
20
70
C8
C0
C8
70
00
00
ENDCHAR
STARTCHAR 272
ENCODING 272
SWIDTH 520 0 
DWIDTH 7 0
BBX 7 9 0 -3
BITMAP
00
78
6C
66
F6
66
6C
78
00
ENDCHAR
STARTCHAR 273
ENCODING 273
SWIDTH 520 0 
DWIDTH 7 0
BBX 7 9 0 -3
BITMAP
0C
1E
0C
7C
CC
CC
CC
7C
00
ENDCHAR
STARTCHAR 278
ENCODING 278
SWIDTH 520 0 
DWIDTH 5 0
BBX 5 9 0 -3
BITMAP
30
00
F8
C0
C0
F8
C0
C0
F8
ENDCHAR
STARTCHAR 279
ENCODING 279
SWIDTH 520 0 
DWIDTH 6 0
BBX 6 9 0 -3
BITMAP
30
30
00
78
CC
FC
C0
78
00
ENDCHAR
STARTCHAR 280
ENCODING 280
SWIDTH 520 0 
DWIDTH 7 0
BBX 5 9 0 -3
BITMAP
F8
C0
C0
F8
C0
C0
F8
20
18
ENDCHAR
STARTCHAR 281
ENCODING 281
SWIDTH 520 0 
DWIDTH 6 0
BBX 6 9 0 -3
BITMAP
00
00
78
CC
FC
C0
78
10
0C
ENDCHAR
STARTCHAR 282
ENCODING 282
SWIDTH 520 0 
DWIDTH 5 0
BBX 5 9 0 -3
BITMAP
50
20
F8
C0
C0
F8
C0
C0
F8
ENDCHAR
STARTCHAR 283
ENCODING 283
SWIDTH 520 0 
DWIDTH 6 0
BBX 6 9 0 -3
BITMAP
28
10
78
CC
FC
C0
78
00
00
ENDCHAR
STARTCHAR 286
ENCODING 286
SWIDTH 520 0 
DWIDTH 7 0
BBX 7 9 0 -3
BITMAP
44
38
3C
62
C0
CE
C6
66
3C
ENDCHAR
STARTCHAR 287
ENCODING 287
SWIDTH 520 0 
DWIDTH 5 0
BBX 5 9 0 -3
BITMAP
88
70
78
D8
D8
D8
78
98
78
ENDCHAR
STARTCHAR 302
ENCODING 302
SWIDTH 520 0 
DWIDTH 4 0
BBX 4 9 0 -3
BITMAP
60
60
60
60
60
60
60
40
30
ENDCHAR
STARTCHAR 303
ENCODING 303
SWIDTH 520 0 
DWIDTH 4 0
BBX 4 9 0 -3
BITMAP
60
00
60
60
60
60
60
40
30
ENDCHAR
STARTCHAR 304
ENCODING 304
SWIDTH 520 0 
DWIDTH 3 0
BBX 3 9 0 -3
BITMAP
60
00
60
60
60
60
60
60
60
ENDCHAR
STARTCHAR 305
ENCODING 305
SWIDTH 520 0 
DWIDTH 3 0
BBX 3 9 0 -3
BITMAP
00
00
60
60
60
60
60
00
00
ENDCHAR
STARTCHAR 321
ENCODING 321
SWIDTH 520 0 
DWIDTH 7 0
BBX 7 9 0 -3
BITMAP
00
00
60
64
68
70
E0
60
7E
ENDCHAR
STARTCHAR 322
ENCODING 322
SWIDTH 520 0 
DWIDTH 6 0
BBX 6 9 0 -3
BITMAP
30
34
38
70
B0
30
30
00
00
ENDCHAR
STARTCHAR 324
ENCODING 324
SWIDTH 520 0 
DWIDTH 6 0
BBX 6 9 0 -3
BITMAP
10
20
D8
EC
CC
CC
CC
00
00
ENDCHAR
STARTCHAR 336
ENCODING 336
SWIDTH 520 0 
DWIDTH 7 0
BBX 7 9 0 -3
BITMAP
12
24
7C
C6
C6
C6
C6
C6
7C
ENDCHAR
STARTCHAR 337
ENCODING 337
SWIDTH 520 0 
DWIDTH 6 0
BBX 6 9 0 -3
BITMAP
24
48
78
CC
CC
CC
78
00
00
ENDCHAR
STARTCHAR 344
ENCODING 344
SWIDTH 520 0 
DWIDTH 6 0
BBX 6 9 0 -3
BITMAP
50
20
F8
CC
CC
F8
F0
D8
CC
ENDCHAR
STARTCHAR 345
ENCODING 345
SWIDTH 520 0 
DWIDTH 5 0
BBX 5 9 0 -3
BITMAP
50
20
D8
E0
C0
C0
C0
00
00
ENDCHAR
STARTCHAR 347
ENCODING 347
SWIDTH 520 0 
DWIDTH 5 0
BBX 5 9 0 -3
BITMAP
10
20
70
C0
70
18
70
00
00
ENDCHAR
STARTCHAR 350
ENCODING 350
SWIDTH 520 0 
DWIDTH 6 0
BBX 6 9 0 -3
BITMAP
78
CC
C0
78
0C
CC
78
20
C0
ENDCHAR
STARTCHAR 351
ENCODING 351
SWIDTH 520 0 
DWIDTH 5 0
BBX 5 9 0 -3
BITMAP
00
00
70
C0
70
18
70
20
C0
ENDCHAR
STARTCHAR 352
ENCODING 352
SWIDTH 520 0 
DWIDTH 6 0
BBX 6 9 0 -3
BITMAP
28
10
78
CC
C0
78
0C
CC
78
ENDCHAR
STARTCHAR 353
ENCODING 353
SWIDTH 520 0 
DWIDTH 5 0
BBX 5 9 0 -3
BITMAP
50
20
70
C0
70
18
70
00
00
ENDCHAR
STARTCHAR 354
ENCODING 354
SWIDTH 520 0 
DWIDTH 6 0
BBX 6 9 0 -3
BITMAP
FC
30
30
30
30
30
30
10
60
ENDCHAR
STARTCHAR 355
ENCODING 355
SWIDTH 520 0 
DWIDTH 5 0
BBX 5 9 0 -3
BITMAP
00
60
F8
60
60
60
38
20
40
ENDCHAR
STARTCHAR 357
ENCODING 357
SWIDTH 520 0 
DWIDTH 6 0
BBX 6 9 0 -3
BITMAP
0C
64
F8
60
60
60
38
00
00
ENDCHAR
STARTCHAR 362
ENCODING 362
SWIDTH 520 0 
DWIDTH 6 0
BBX 6 9 0 -3
BITMAP
78
00
CC
CC
CC
CC
CC
CC
78
ENDCHAR
STARTCHAR 363
ENCODING 363
SWIDTH 520 0 
DWIDTH 6 0
BBX 6 9 0 -3
BITMAP
78
00
CC
CC
CC
CC
7C
00
00
ENDCHAR
STARTCHAR 366
ENCODING 366
SWIDTH 520 0 
DWIDTH 6 0
BBX 6 9 0 -3
BITMAP
20
50
EC
CC
CC
CC
CC
CC
78
ENDCHAR
STARTCHAR 367
ENCODING 367
SWIDTH 520 0 
DWIDTH 6 0
BBX 6 9 0 -3
BITMAP
20
50
EC
CC
CC
CC
7C
00
00
ENDCHAR
STARTCHAR 368
ENCODING 368
SWIDTH 520 0 
DWIDTH 6 0
BBX 6 9 0 -3
BITMAP
24
48
CC
CC
CC
CC
CC
CC
78
ENDCHAR
STARTCHAR 369
ENCODING 369
SWIDTH 520 0 
DWIDTH 6 0
BBX 6 9 0 -3
BITMAP
24
48
CC
CC
CC
CC
7C
00
00
ENDCHAR
STARTCHAR 370
ENCODING 370
SWIDTH 520 0 
DWIDTH 6 0
BBX 6 9 0 -3
BITMAP
CC
CC
CC
CC
CC
CC
78
10
0C
ENDCHAR
STARTCHAR 371
ENCODING 371
SWIDTH 520 0 
DWIDTH 6 0
BBX 6 9 0 -3
BITMAP
CC
CC
CC
CC
CC
CC
7C
10
0C
ENDCHAR
STARTCHAR 378
ENCODING 378
SWIDTH 520 0 
DWIDTH 5 0
BBX 5 9 0 -3
BITMAP
10
20
F8
18
20
C0
F8
00
00
ENDCHAR
STARTCHAR 379
ENCODING 379
SWIDTH 520 0 
DWIDTH 6 0
BBX 6 9 0 -3
BITMAP
10
00
FC
0C
18
30
60
C0
FC
ENDCHAR
STARTCHAR 380
ENCODING 380
SWIDTH 520 0 
DWIDTH 5 0
BBX 5 9 0 -3
BITMAP
20
00
F8
18
20
C0
F8
00
00
ENDCHAR
STARTCHAR 381
ENCODING 381
SWIDTH 520 0 
DWIDTH 6 0
BBX 6 9 0 -3
BITMAP
50
20
FC
0C
18
30
60
C0
FC
ENDCHAR
STARTCHAR 382
ENCODING 382
SWIDTH 520 0 
DWIDTH 5 0
BBX 5 9 0 -3
BITMAP
50
20
F8
18
20
C0
F8
00
00
ENDCHAR
STARTCHAR 416
ENCODING 416
SWIDTH 520 0 
DWIDTH 9 0
BBX 9 9 0 -3
BITMAP
0000
7C80
C680
C700
C600
C600
C600
7C00
0000
ENDCHAR
STARTCHAR 417
ENCODING 417
SWIDTH 520 0 
DWIDTH 8 0
BBX 8 9 0 -3
BITMAP
00
01
79
CE
CC
CC
78
00
00
ENDCHAR
STARTCHAR 431
ENCODING 431
SWIDTH 520 0 
DWIDTH 8 0
BBX 8 9 0 -3
BITMAP
00
CD
CD
CE
CC
CC
CC
78
00
ENDCHAR
STARTCHAR 432
ENCODING 432
SWIDTH 520 0 
DWIDTH 8 0
BBX 8 9 0 -3
BITMAP
00
01
CD
CE
CC
CC
7C
00
00
ENDCHAR
STARTCHAR 711
ENCODING 711
SWIDTH 520 0 
DWIDTH 3 0
BBX 3 9 0 -3
BITMAP
A0
40
00
00
00
00
00
00
00
ENDCHAR
STARTCHAR 731
ENCODING 731
SWIDTH 520 0 
DWIDTH 5 0
BBX 5 9 0 -3
BITMAP
00
00
00
00
00
00
80
60
00
ENDCHAR
STARTCHAR 768
ENCODING 768
SWIDTH 520 0 
DWIDTH 2 0
BBX 2 9 0 -3
BITMAP
00
00
00
80
40
00
00
00
00
ENDCHAR
STARTCHAR 769
ENCODING 769
SWIDTH 520 0 
DWIDTH 2 0
BBX 2 9 0 -3
BITMAP
00
00
00
40
80
00
00
00
00
ENDCHAR
STARTCHAR 771
ENCODING 771
SWIDTH 520 0 
DWIDTH 5 0
BBX 5 9 0 -3
BITMAP
00
00
00
68
B0
00
00
00
00
ENDCHAR
STARTCHAR 775
ENCODING 775
SWIDTH 520 0 
DWIDTH 6 0
BBX 2 9 0 -3
BITMAP
00
00
C0
C0
00
00
00
00
00
ENDCHAR
STARTCHAR 777
ENCODING 777
SWIDTH 520 0 
DWIDTH 3 0
BBX 3 9 0 -3
BITMAP
00
00
00
C0
20
40
00
00
00
ENDCHAR
STARTCHAR 780
ENCODING 780
SWIDTH 520 0 
DWIDTH 4 0
BBX 3 9 0 -3
BITMAP
00
00
00
A0
40
00
00
00
00
ENDCHAR
STARTCHAR 803
ENCODING 803
SWIDTH 520 0 
DWIDTH 2 0
BBX 2 9 0 -3
BITMAP
00
00
00
00
40
00
00
00
00
ENDCHAR
ENDFONT