STARTFONT 2.1
COMMENT Product Version MAUI VERSION
FONTBOUNDINGBOX 18 14 -1 -3 
STARTPROPERTIES 2
FONT_ASCENT 14
FONT_DESCENT 0
ENDPROPERTIES
CHARS 321
STARTCHAR 32
ENCODING 32
SWIDTH 520 0 
DWIDTH 5 0
BBX 4 14 0 -3
BITMAP
00
00
00
00
00
00
00
00
00
00
00
00
00
00
ENDCHAR
STARTCHAR 33
ENCODING 33
SWIDTH 520 0 
DWIDTH 3 0
BBX 2 14 0 -3
BITMAP
00
C0
C0
C0
C0
C0
C0
C0
00
C0
C0
00
00
00
ENDCHAR
STARTCHAR 34
ENCODING 34
SWIDTH 520 0 
DWIDTH 7 0
BBX 6 14 0 -3
BITMAP
00
6C
6C
6C
00
00
00
00
00
00
00
00
00
00
ENDCHAR
STARTCHAR 35
ENCODING 35
SWIDTH 520 0 
DWIDTH 12 0
BBX 11 14 0 -3
BITMAP
0000
0480
0480
7FC0
7FC0
0900
0900
7FC0
7FC0
1200
1200
0000
0000
0000
ENDCHAR
STARTCHAR 36
ENCODING 36
SWIDTH 520 0 
DWIDTH 8 0
BBX 7 14 0 -3
BITMAP
00
30
78
B4
B0
70
38
34
B4
78
30
00
00
00
ENDCHAR
STARTCHAR 37
ENCODING 37
SWIDTH 520 0 
DWIDTH 12 0
BBX 11 14 0 -3
BITMAP
0000
7080
D980
DB00
7200
0600
0C00
09C0
1B60
3360
21C0
0000
0000
0000
ENDCHAR
STARTCHAR 38
ENCODING 38
SWIDTH 520 0 
DWIDTH 9 0
BBX 8 14 0 -3
BITMAP
00
38
6C
6C
3C
30
7A
DA
CE
CE
7B
00
00
00
ENDCHAR
STARTCHAR 39
ENCODING 39
SWIDTH 520 0 
DWIDTH 3 0
BBX 2 14 0 -3
BITMAP
00
C0
C0
40
00
00
00
00
00
00
00
00
00
00
ENDCHAR
STARTCHAR 40
ENCODING 40
SWIDTH 520 0 
DWIDTH 4 0
BBX 3 14 0 -3
BITMAP
00
20
40
C0
C0
C0
C0
C0
C0
40
20
00
00
00
ENDCHAR
STARTCHAR 41
ENCODING 41
SWIDTH 520 0 
DWIDTH 4 0
BBX 3 14 0 -3
BITMAP
00
80
40
60
60
60
60
60
60
40
80
00
00
00
ENDCHAR
STARTCHAR 42
ENCODING 42
SWIDTH 520 0 
DWIDTH 12 0
BBX 11 14 0 -3
BITMAP
0000
0000
3180
1B00
0E00
3FC0
0E00
1B00
3180
0000
0000
0000
0000
0000
ENDCHAR
STARTCHAR 43
ENCODING 43
SWIDTH 520 0 
DWIDTH 7 0
BBX 7 14 0 -3
BITMAP
00
00
00
18
18
7E
18
18
00
00
00
00
00
00
ENDCHAR
STARTCHAR 44
ENCODING 44
SWIDTH 520 0 
DWIDTH 4 0
BBX 3 14 0 -3
BITMAP
00
00
00
00
00
00
00
00
00
60
60
20
C0
00
ENDCHAR
STARTCHAR 45
ENCODING 45
SWIDTH 520 0 
DWIDTH 6 0
BBX 6 14 0 -3
BITMAP
00
00
00
00
00
7C
00
00
00
00
00
00
00
00
ENDCHAR
STARTCHAR 46
ENCODING 46
SWIDTH 520 0 
DWIDTH 4 0
BBX 3 14 0 -3
BITMAP
00
00
00
00
00
00
00
00
00
60
60
00
00
00
ENDCHAR
STARTCHAR 47
ENCODING 47
SWIDTH 520 0 
DWIDTH 8 0
BBX 7 14 0 -3
BITMAP
00
02
04
04
08
10
10
20
40
40
80
00
00
00
ENDCHAR
STARTCHAR 48
ENCODING 48
SWIDTH 520 0 
DWIDTH 7 0
BBX 6 14 0 -3
BITMAP
00
78
CC
CC
CC
CC
CC
CC
CC
CC
78
00
00
00
ENDCHAR
STARTCHAR 49
ENCODING 49
SWIDTH 520 0 
DWIDTH 7 0
BBX 6 14 0 -3
BITMAP
00
30
70
30
30
30
30
30
30
30
78
00
00
00
ENDCHAR
STARTCHAR 50
ENCODING 50
SWIDTH 520 0 
DWIDTH 7 0
BBX 6 14 0 -3
BITMAP
00
78
CC
8C
0C
18
30
60
C0
C0
FC
00
00
00
ENDCHAR
STARTCHAR 51
ENCODING 51
SWIDTH 520 0 
DWIDTH 7 0
BBX 6 14 0 -3
BITMAP
00
78
CC
8C
0C
38
0C
0C
8C
CC
78
00
00
00
ENDCHAR
STARTCHAR 52
ENCODING 52
SWIDTH 520 0 
DWIDTH 7 0
BBX 6 14 0 -3
BITMAP
00
18
38
38
58
58
98
FC
18
18
18
00
00
00
ENDCHAR
STARTCHAR 53
ENCODING 53
SWIDTH 520 0 
DWIDTH 7 0
BBX 6 14 0 -3
BITMAP
00
FC
C0
C0
F8
0C
0C
0C
CC
CC
78
00
00
00
ENDCHAR
STARTCHAR 54
ENCODING 54
SWIDTH 520 0 
DWIDTH 7 0
BBX 6 14 0 -3
BITMAP
00
78
CC
C4
C0
F8
CC
CC
CC
CC
78
00
00
00
ENDCHAR
STARTCHAR 55
ENCODING 55
SWIDTH 520 0 
DWIDTH 7 0
BBX 6 14 0 -3
BITMAP
00
FC
0C
0C
18
18
30
30
30
30
30
00
00
00
ENDCHAR
STARTCHAR 56
ENCODING 56
SWIDTH 520 0 
DWIDTH 7 0
BBX 6 14 0 -3
BITMAP
00
78
CC
CC
CC
78
CC
CC
CC
CC
78
00
00
00
ENDCHAR
STARTCHAR 57
ENCODING 57
SWIDTH 520 0 
DWIDTH 7 0
BBX 6 14 0 -3
BITMAP
00
78
CC
CC
CC
CC
7C
0C
8C
CC
78
00
00
00
ENDCHAR
STARTCHAR 58
ENCODING 58
SWIDTH 520 0 
DWIDTH 4 0
BBX 3 14 0 -3
BITMAP
00
00
00
60
60
00
00
00
60
60
00
00
00
00
ENDCHAR
STARTCHAR 59
ENCODING 59
SWIDTH 520 0 
DWIDTH 4 0
BBX 3 14 0 -3
BITMAP
00
00
00
60
60
00
00
00
60
60
20
C0
00
00
ENDCHAR
STARTCHAR 60
ENCODING 60
SWIDTH 520 0 
DWIDTH 8 0
BBX 7 14 0 -3
BITMAP
00
00
00
06
1C
70
C0
70
1C
06
00
00
00
00
ENDCHAR
STARTCHAR 61
ENCODING 61
SWIDTH 520 0 
DWIDTH 6 0
BBX 6 14 0 -3
BITMAP
00
00
00
00
7C
00
00
7C
00
00
00
00
00
00
ENDCHAR
STARTCHAR 62
ENCODING 62
SWIDTH 520 0 
DWIDTH 8 0
BBX 7 14 0 -3
BITMAP
00
00
00
C0
70
1C
06
1C
70
C0
00
00
00
00
ENDCHAR
STARTCHAR 63
ENCODING 63
SWIDTH 520 0 
DWIDTH 7 0
BBX 6 14 0 -3
BITMAP
00
78
8C
8C
0C
18
30
30
00
30
30
00
00
00
ENDCHAR
STARTCHAR 64
ENCODING 64
SWIDTH 520 0 
DWIDTH 7 0
BBX 7 14 0 -3
BITMAP
00
38
44
92
AA
AA
AA
AA
94
42
3C
00
00
00
ENDCHAR
STARTCHAR 65
ENCODING 65
SWIDTH 520 0 
DWIDTH 9 0
BBX 8 14 0 -3
BITMAP
00
18
18
3C
3C
66
66
66
FF
C3
C3
00
00
00
ENDCHAR
STARTCHAR 66
ENCODING 66
SWIDTH 520 0 
DWIDTH 8 0
BBX 7 14 0 -3
BITMAP
00
FC
C6
C6
C6
FC
C6
C6
C6
C6
FC
00
00
00
ENDCHAR
STARTCHAR 67
ENCODING 67
SWIDTH 520 0 
DWIDTH 8 0
BBX 7 14 0 -3
BITMAP
00
7C
C6
C6
C0
C0
C0
C0
C6
C6
7C
00
00
00
ENDCHAR
STARTCHAR 68
ENCODING 68
SWIDTH 520 0 
DWIDTH 8 0
BBX 7 14 0 -3
BITMAP
00
FC
C6
C6
C6
C6
C6
C6
C6
C6
FC
00
00
00
ENDCHAR
STARTCHAR 69
ENCODING 69
SWIDTH 520 0 
DWIDTH 7 0
BBX 6 14 0 -3
BITMAP
00
FC
C0
C0
C0
F8
C0
C0
C0
C0
FC
00
00
00
ENDCHAR
STARTCHAR 70
ENCODING 70
SWIDTH 520 0 
DWIDTH 7 0
BBX 6 14 0 -3
BITMAP
00
FC
C0
C0
C0
F8
C0
C0
C0
C0
C0
00
00
00
ENDCHAR
STARTCHAR 71
ENCODING 71
SWIDTH 520 0 
DWIDTH 8 0
BBX 7 14 0 -3
BITMAP
00
7C
C6
C6
C0
C0
CE
C6
C6
C6
7C
00
00
00
ENDCHAR
STARTCHAR 72
ENCODING 72
SWIDTH 520 0 
DWIDTH 8 0
BBX 7 14 0 -3
BITMAP
00
C6
C6
C6
C6
FE
C6
C6
C6
C6
C6
00
00
00
ENDCHAR
STARTCHAR 73
ENCODING 73
SWIDTH 520 0 
DWIDTH 4 0
BBX 3 14 0 -3
BITMAP
00
C0
C0
C0
C0
C0
C0
C0
C0
C0
C0
00
00
00
ENDCHAR
STARTCHAR 74
ENCODING 74
SWIDTH 520 0 
DWIDTH 6 0
BBX 5 14 0 -3
BITMAP
00
18
18
18
18
18
18
18
98
98
70
00
00
00
ENDCHAR
STARTCHAR 75
ENCODING 75
SWIDTH 520 0 
DWIDTH 8 0
BBX 7 14 0 -3
BITMAP
00
C6
C6
CC
D8
F0
F0
D8
CC
C6
C6
00
00
00
ENDCHAR
STARTCHAR 76
ENCODING 76
SWIDTH 520 0 
DWIDTH 7 0
BBX 6 14 0 -3
BITMAP
00
C0
C0
C0
C0
C0
C0
C0
C0
C0
FC
00
00
00
ENDCHAR
STARTCHAR 77
ENCODING 77
SWIDTH 520 0 
DWIDTH 10 0
BBX 9 14 0 -3
BITMAP
0000
C180
E380
D580
C980
C180
C180
C180
C180
C180
C180
0000
0000
0000
ENDCHAR
STARTCHAR 78
ENCODING 78
SWIDTH 520 0 
DWIDTH 9 0
BBX 8 14 0 -3
BITMAP
00
C3
E3
E3
D3
D3
CB
CB
C7
C7
C3
00
00
00
ENDCHAR
STARTCHAR 79
ENCODING 79
SWIDTH 520 0 
DWIDTH 8 0
BBX 7 14 0 -3
BITMAP
00
7C
C6
C6
C6
C6
C6
C6
C6
C6
7C
00
00
00
ENDCHAR
STARTCHAR 80
ENCODING 80
SWIDTH 520 0 
DWIDTH 8 0
BBX 7 14 0 -3
BITMAP
00
FC
C6
C6
C6
C6
FC
C0
C0
C0
C0
00
00
00
ENDCHAR
STARTCHAR 81
ENCODING 81
SWIDTH 520 0 
DWIDTH 9 0
BBX 8 14 0 -3
BITMAP
00
7C
C6
C6
C6
C6
C6
C6
CE
CE
7F
01
00
00
ENDCHAR
STARTCHAR 82
ENCODING 82
SWIDTH 520 0 
DWIDTH 8 0
BBX 7 14 0 -3
BITMAP
00
FC
C6
C6
C6
C6
FC
D8
CC
C6
C6
00
00
00
ENDCHAR
STARTCHAR 83
ENCODING 83
SWIDTH 520 0 
DWIDTH 8 0
BBX 7 14 0 -3
BITMAP
00
7C
C6
C6
E0
78
1C
0E
C6
C6
7C
00
00
00
ENDCHAR
STARTCHAR 84
ENCODING 84
SWIDTH 520 0 
DWIDTH 7 0
BBX 6 14 0 -3
BITMAP
00
FC
30
30
30
30
30
30
30
30
30
00
00
00
ENDCHAR
STARTCHAR 85
ENCODING 85
SWIDTH 520 0 
DWIDTH 8 0
BBX 7 14 0 -3
BITMAP
00
C6
C6
C6
C6
C6
C6
C6
C6
C6
7C
00
00
00
ENDCHAR
STARTCHAR 86
ENCODING 86
SWIDTH 520 0 
DWIDTH 8 0
BBX 7 14 0 -3
BITMAP
00
C6
C6
C6
C6
6C
6C
6C
38
38
38
00
00
00
ENDCHAR
STARTCHAR 87
ENCODING 87
SWIDTH 520 0 
DWIDTH 11 0
BBX 10 14 0 -3
BITMAP
0000
CCC0
CCC0
CCC0
CCC0
CCC0
CCC0
CCC0
CCC0
7F80
7380
0000
0000
0000
ENDCHAR
STARTCHAR 88
ENCODING 88
SWIDTH 520 0 
DWIDTH 8 0
BBX 7 14 0 -3
BITMAP
00
C6
C6
C6
7C
38
38
7C
C6
C6
C6
00
00
00
ENDCHAR
STARTCHAR 89
ENCODING 89
SWIDTH 520 0 
DWIDTH 7 0
BBX 6 14 0 -3
BITMAP
00
CC
CC
CC
78
78
30
30
30
30
30
00
00
00
ENDCHAR
STARTCHAR 90
ENCODING 90
SWIDTH 520 0 
DWIDTH 8 0
BBX 7 14 0 -3
BITMAP
00
FE
06
0C
0C
18
30
60
60
C0
FE
00
00
00
ENDCHAR
STARTCHAR 91
ENCODING 91
SWIDTH 520 0 
DWIDTH 5 0
BBX 4 14 0 -3
BITMAP
00
F0
C0
C0
C0
C0
C0
C0
C0
C0
F0
00
00
00
ENDCHAR
STARTCHAR 92
ENCODING 92
SWIDTH 520 0 
DWIDTH 9 0
BBX 8 14 0 -3
BITMAP
00
40
20
20
10
08
08
04
02
02
01
00
00
00
ENDCHAR
STARTCHAR 93
ENCODING 93
SWIDTH 520 0 
DWIDTH 5 0
BBX 4 14 0 -3
BITMAP
00
F0
30
30
30
30
30
30
30
30
F0
00
00
00
ENDCHAR
STARTCHAR 94
ENCODING 94
SWIDTH 520 0 
DWIDTH 7 0
BBX 7 14 0 -3
BITMAP
00
18
3C
66
00
00
00
00
00
00
00
00
00
00
ENDCHAR
STARTCHAR 95
ENCODING 95
SWIDTH 520 0 
DWIDTH 7 0
BBX 6 14 0 -3
BITMAP
00
00
00
00
00
00
00
00
00
00
FC
00
00
00
ENDCHAR
STARTCHAR 96
ENCODING 96
SWIDTH 520 0 
DWIDTH 4 0
BBX 3 14 0 -3
BITMAP
00
80
C0
60
00
00
00
00
00
00
00
00
00
00
ENDCHAR
STARTCHAR 97
ENCODING 97
SWIDTH 520 0 
DWIDTH 7 0
BBX 6 14 0 -3
BITMAP
00
00
00
00
78
8C
7C
CC
CC
CC
7C
00
00
00
ENDCHAR
STARTCHAR 98
ENCODING 98
SWIDTH 520 0 
DWIDTH 7 0
BBX 6 14 0 -3
BITMAP
00
C0
C0
C0
F8
CC
CC
CC
CC
CC
F8
00
00
00
ENDCHAR
STARTCHAR 99
ENCODING 99
SWIDTH 520 0 
DWIDTH 7 0
BBX 6 14 0 -3
BITMAP
00
00
00
00
78
CC
C0
C0
C0
CC
78
00
00
00
ENDCHAR
STARTCHAR 100
ENCODING 100
SWIDTH 520 0 
DWIDTH 7 0
BBX 6 14 0 -3
BITMAP
00
0C
0C
0C
7C
CC
CC
CC
CC
CC
7C
00
00
00
ENDCHAR
STARTCHAR 101
ENCODING 101
SWIDTH 520 0 
DWIDTH 7 0
BBX 6 14 0 -3
BITMAP
00
00
00
00
78
CC
CC
FC
C0
CC
78
00
00
00
ENDCHAR
STARTCHAR 102
ENCODING 102
SWIDTH 520 0 
DWIDTH 6 0
BBX 5 14 0 -3
BITMAP
00
38
60
60
F8
60
60
60
60
60
60
00
00
00
ENDCHAR
STARTCHAR 103
ENCODING 103
SWIDTH 520 0 
DWIDTH 7 0
BBX 6 14 0 -3
BITMAP
00
00
00
00
7C
CC
CC
CC
CC
CC
7C
0C
8C
78
ENDCHAR
STARTCHAR 104
ENCODING 104
SWIDTH 520 0 
DWIDTH 7 0
BBX 6 14 0 -3
BITMAP
00
C0
C0
C0
F8
CC
CC
CC
CC
CC
CC
00
00
00
ENDCHAR
STARTCHAR 105
ENCODING 105
SWIDTH 520 0 
DWIDTH 4 0
BBX 3 14 0 -3
BITMAP
00
C0
C0
00
C0
C0
C0
C0
C0
C0
C0
00
00
00
ENDCHAR
STARTCHAR 106
ENCODING 106
SWIDTH 520 0 
DWIDTH 6 0
BBX 5 14 0 -3
BITMAP
00
18
18
00
18
18
18
18
18
18
18
18
98
70
ENDCHAR
STARTCHAR 107
ENCODING 107
SWIDTH 520 0 
DWIDTH 7 0
BBX 6 14 0 -3
BITMAP
00
C0
C0
CC
D8
F0
F0
D8
D8
CC
CC
00
00
00
ENDCHAR
STARTCHAR 108
ENCODING 108
SWIDTH 520 0 
DWIDTH 4 0
BBX 3 14 0 -3
BITMAP
00
E0
60
60
60
60
60
60
60
60
60
00
00
00
ENDCHAR
STARTCHAR 109
ENCODING 109
SWIDTH 520 0 
DWIDTH 11 0
BBX 10 14 0 -3
BITMAP
0000
0000
0000
0000
F780
CCC0
CCC0
CCC0
CCC0
CCC0
CCC0
0000
0000
0000
ENDCHAR
STARTCHAR 110
ENCODING 110
SWIDTH 520 0 
DWIDTH 7 0
BBX 6 14 0 -3
BITMAP
00
00
00
00
D8
EC
CC
CC
CC
CC
CC
00
00
00
ENDCHAR
STARTCHAR 111
ENCODING 111
SWIDTH 520 0 
DWIDTH 7 0
BBX 6 14 0 -3
BITMAP
00
00
00
00
78
CC
CC
CC
CC
CC
78
00
00
00
ENDCHAR
STARTCHAR 112
ENCODING 112
SWIDTH 520 0 
DWIDTH 7 0
BBX 6 14 0 -3
BITMAP
00
00
00
00
F8
CC
CC
CC
CC
CC
F8
C0
C0
C0
ENDCHAR
STARTCHAR 113
ENCODING 113
SWIDTH 520 0 
DWIDTH 7 0
BBX 6 14 0 -3
BITMAP
00
00
00
00
7C
CC
CC
CC
CC
CC
7C
0C
0C
0C
ENDCHAR
STARTCHAR 114
ENCODING 114
SWIDTH 520 0 
DWIDTH 5 0
BBX 5 14 0 -3
BITMAP
00
00
00
00
D8
F0
C0
C0
C0
C0
C0
00
00
00
ENDCHAR
STARTCHAR 115
ENCODING 115
SWIDTH 520 0 
DWIDTH 7 0
BBX 6 14 0 -3
BITMAP
00
00
00
00
78
CC
C0
78
0C
CC
78
00
00
00
ENDCHAR
STARTCHAR 116
ENCODING 116
SWIDTH 520 0 
DWIDTH 6 0
BBX 5 14 0 -3
BITMAP
00
60
60
60
F8
60
60
60
60
60
38
00
00
00
ENDCHAR
STARTCHAR 117
ENCODING 117
SWIDTH 520 0 
DWIDTH 7 0
BBX 6 14 0 -3
BITMAP
00
00
00
00
CC
CC
CC
CC
CC
CC
74
00
00
00
ENDCHAR
STARTCHAR 118
ENCODING 118
SWIDTH 520 0 
DWIDTH 8 0
BBX 7 14 0 -3
BITMAP
00
00
00
00
C6
C6
C6
6C
6C
38
38
00
00
00
ENDCHAR
STARTCHAR 119
ENCODING 119
SWIDTH 520 0 
DWIDTH 11 0
BBX 10 14 0 -3
BITMAP
0000
0000
0000
0000
CCC0
CCC0
CCC0
CCC0
CCC0
CCC0
7780
0000
0000
0000
ENDCHAR
STARTCHAR 120
ENCODING 120
SWIDTH 520 0 
DWIDTH 6 0
BBX 5 14 0 -3
BITMAP
00
00
00
00
D8
D8
70
20
70
D8
D8
00
00
00
ENDCHAR
STARTCHAR 121
ENCODING 121
SWIDTH 520 0 
DWIDTH 7 0
BBX 6 14 0 -3
BITMAP
00
00
00
00
CC
CC
CC
CC
CC
CC
7C
0C
8C
78
ENDCHAR
STARTCHAR 122
ENCODING 122
SWIDTH 520 0 
DWIDTH 6 0
BBX 6 14 0 -3
BITMAP
00
00
00
00
FC
0C
18
30
60
C0
FC
00
00
00
ENDCHAR
STARTCHAR 123
ENCODING 123
SWIDTH 520 0 
DWIDTH 6 0
BBX 5 14 0 -3
BITMAP
00
38
60
60
60
C0
60
60
60
60
38
00
00
00
ENDCHAR
STARTCHAR 124
ENCODING 124
SWIDTH 520 0 
DWIDTH 6 0
BBX 5 14 0 -3
BITMAP
00
60
60
60
60
60
60
60
60
60
60
00
00
00
ENDCHAR
STARTCHAR 125
ENCODING 125
SWIDTH 520 0 
DWIDTH 6 0
BBX 5 14 0 -3
BITMAP
00
E0
30
30
30
18
30
30
30
30
E0
00
00
00
ENDCHAR
STARTCHAR 126
ENCODING 126
SWIDTH 520 0 
DWIDTH 8 0
BBX 7 14 0 -3
BITMAP
00
00
00
00
00
00
72
9C
00
00
00
00
00
00
ENDCHAR
STARTCHAR 127
ENCODING 127
SWIDTH 520 0 
DWIDTH 5 0
BBX 4 14 0 -3
BITMAP
00
00
00
00
00
00
00
00
00
00
00
00
00
00
ENDCHAR
STARTCHAR 128
ENCODING 128
SWIDTH 520 0 
DWIDTH 5 0
BBX 4 14 0 -3
BITMAP
00
00
00
00
00
00
00
00
00
00
00
00
00
00
ENDCHAR
STARTCHAR 129
ENCODING 129
SWIDTH 520 0 
DWIDTH 5 0
BBX 4 14 0 -3
BITMAP
00
00
00
00
00
00
00
00
00
00
00
00
00
00
ENDCHAR
STARTCHAR 130
ENCODING 130
SWIDTH 520 0 
DWIDTH 5 0
BBX 4 14 0 -3
BITMAP
00
00
00
00
00
00
00
00
00
00
00
00
00
00
ENDCHAR
STARTCHAR 131
ENCODING 131
SWIDTH 520 0 
DWIDTH 5 0
BBX 4 14 0 -3
BITMAP
00
00
00
00
00
00
00
00
00
00
00
00
00
00
ENDCHAR
STARTCHAR 132
ENCODING 132
SWIDTH 520 0 
DWIDTH 5 0
BBX 4 14 0 -3
BITMAP
00
00
00
00
00
00
00
00
00
00
00
00
00
00
ENDCHAR
STARTCHAR 133
ENCODING 133
SWIDTH 520 0 
DWIDTH 12 0
BBX 11 14 0 -3
BITMAP
0000
0000
0000
0180
0180
0180
1180
3180
7F80
3000
1000
0000
0000
0000
ENDCHAR
STARTCHAR 134
ENCODING 134
SWIDTH 520 0 
DWIDTH 6 0
BBX 5 14 0 -3
BITMAP
00
00
00
00
00
00
00
00
88
88
F8
00
00
00
ENDCHAR
STARTCHAR 160
ENCODING 160
SWIDTH 520 0 
DWIDTH 5 0
BBX 4 14 0 -3
BITMAP
00
00
00
00
00
00
00
00
00
00
00
00
00
00
ENDCHAR
STARTCHAR 161
ENCODING 161
SWIDTH 520 0 
DWIDTH 3 0
BBX 2 14 0 -3
BITMAP
00
C0
C0
00
C0
C0
C0
C0
C0
C0
C0
00
00
00
ENDCHAR
STARTCHAR 162
ENCODING 162
SWIDTH 520 0 
DWIDTH 6 0
BBX 6 14 0 -3
BITMAP
00
08
08
38
5C
90
90
A0
A4
64
78
40
40
40
ENDCHAR
STARTCHAR 163
ENCODING 163
SWIDTH 520 0 
DWIDTH 12 0
BBX 11 14 0 -3
BITMAP
0000
0000
0380
0400
0400
1F80
0400
0400
0C00
3480
3B00
0000
0000
0000
ENDCHAR
STARTCHAR 164
ENCODING 164
SWIDTH 520 0 
DWIDTH 9 0
BBX 9 14 0 -3
BITMAP
0000
0000
BE80
6300
C180
8080
8080
8080
C180
6300
BE80
0000
0000
0000
ENDCHAR
STARTCHAR 165
ENCODING 165
SWIDTH 520 0 
DWIDTH 9 0
BBX 8 14 0 -3
BITMAP
00
00
C6
C6
6C
38
10
FE
10
FE
10
00
00
00
ENDCHAR
STARTCHAR 166
ENCODING 166
SWIDTH 520 0 
DWIDTH 3 0
BBX 2 14 0 -3
BITMAP
00
00
C0
C0
C0
C0
00
C0
C0
C0
C0
00
00
00
ENDCHAR
STARTCHAR 167
ENCODING 167
SWIDTH 520 0 
DWIDTH 7 0
BBX 6 14 0 -3
BITMAP
00
00
38
6C
60
30
28
6C
28
10
98
D8
70
00
ENDCHAR
STARTCHAR 168
ENCODING 168
SWIDTH 520 0 
DWIDTH 7 0
BBX 6 14 0 -3
BITMAP
00
00
6C
6C
00
00
00
00
00
00
00
00
00
00
ENDCHAR
STARTCHAR 169
ENCODING 169
SWIDTH 520 0 
DWIDTH 12 0
BBX 11 14 0 -3
BITMAP
0000
0000
1E00
2100
4C80
5280
5080
5280
4C80
2100
1E00
0000
0000
0000
ENDCHAR
STARTCHAR 170
ENCODING 170
SWIDTH 520 0 
DWIDTH 5 0
BBX 5 14 0 -3
BITMAP
00
70
88
78
88
88
70
00
F8
00
00
00
00
00
ENDCHAR
STARTCHAR 171
ENCODING 171
SWIDTH 520 0 
DWIDTH 6 0
BBX 5 14 0 -3
BITMAP
00
00
00
00
28
50
A0
A0
50
28
00
00
00
00
ENDCHAR
STARTCHAR 172
ENCODING 172
SWIDTH 520 0 
DWIDTH 12 0
BBX 11 14 0 -3
BITMAP
0000
0000
0000
3F80
0080
0080
0000
0000
0000
0000
0000
0000
0000
0000
ENDCHAR
STARTCHAR 173
ENCODING 173
SWIDTH 520 0 
DWIDTH 5 0
BBX 4 14 0 -3
BITMAP
00
00
00
00
00
00
00
00
00
00
00
00
00
00
ENDCHAR
STARTCHAR 174
ENCODING 174
SWIDTH 520 0 
DWIDTH 12 0
BBX 11 14 0 -3
BITMAP
0000
0000
1E00
2100
5C80
5280
5C80
5480
5680
2100
1E00
0000
0000
0000
ENDCHAR
STARTCHAR 175
ENCODING 175
SWIDTH 520 0 
DWIDTH 12 0
BBX 11 14 0 -3
BITMAP
0000
0000
3F80
0000
0000
0000
0000
0000
0000
0000
0000
0000
0000
0000
ENDCHAR
STARTCHAR 176
ENCODING 176
SWIDTH 520 0 
DWIDTH 12 0
BBX 11 14 0 -3
BITMAP
0000
0000
0E00
1100
1100
1100
0E00
0000
0000
0000
0000
0000
0000
0000
ENDCHAR
STARTCHAR 177
ENCODING 177
SWIDTH 520 0 
DWIDTH 12 0
BBX 11 14 0 -3
BITMAP
0000
0000
0C00
0C00
3F00
0C00
0C00
0000
0000
3F00
0000
0000
0000
0000
ENDCHAR
STARTCHAR 178
ENCODING 178
SWIDTH 520 0 
DWIDTH 12 0
BBX 11 14 0 -3
BITMAP
0000
0000
0C00
1200
0400
0800
1E00
0000
0000
0000
0000
0000
0000
0000
ENDCHAR
STARTCHAR 179
ENCODING 179
SWIDTH 520 0 
DWIDTH 12 0
BBX 11 14 0 -3
BITMAP
0000
0000
0C00
1200
0400
1200
0C00
0000
0000
0000
0000
0000
0000
0000
ENDCHAR
STARTCHAR 180
ENCODING 180
SWIDTH 520 0 
DWIDTH 4 0
BBX 3 14 0 -3
BITMAP
00
60
C0
00
00
00
00
00
00
00
00
00
00
00
ENDCHAR
STARTCHAR 181
ENCODING 181
SWIDTH 520 0 
DWIDTH 12 0
BBX 11 14 0 -3
BITMAP
0000
0000
0000
0000
3300
3300
3300
3300
3300
3B00
3580
3000
7000
7000
ENDCHAR
STARTCHAR 182
ENCODING 182
SWIDTH 520 0 
DWIDTH 8 0
BBX 7 14 0 -3
BITMAP
00
00
FE
74
34
14
14
14
14
14
14
00
00
00
ENDCHAR
STARTCHAR 183
ENCODING 183
SWIDTH 520 0 
DWIDTH 4 0
BBX 3 14 0 -3
BITMAP
00
00
00
60
60
00
00
00
00
00
00
00
00
00
ENDCHAR
STARTCHAR 184
ENCODING 184
SWIDTH 520 0 
DWIDTH 3 0
BBX 3 14 0 -3
BITMAP
00
00
00
00
00
00
00
00
00
00
00
00
20
C0
ENDCHAR
STARTCHAR 185
ENCODING 185
SWIDTH 520 0 
DWIDTH 3 0
BBX 2 14 0 -3
BITMAP
00
00
C0
C0
C0
C0
00
00
00
00
00
00
00
00
ENDCHAR
STARTCHAR 186
ENCODING 186
SWIDTH 520 0 
DWIDTH 5 0
BBX 5 14 0 -3
BITMAP
00
70
88
88
88
70
00
F8
00
00
00
00
00
00
ENDCHAR
STARTCHAR 187
ENCODING 187
SWIDTH 520 0 
DWIDTH 6 0
BBX 5 14 0 -3
BITMAP
00
00
00
00
A0
50
28
28
50
A0
00
00
00
00
ENDCHAR
STARTCHAR 188
ENCODING 188
SWIDTH 520 0 
DWIDTH 12 0
BBX 11 14 0 -3
BITMAP
0000
2000
6100
2200
2200
2480
2980
0980
1280
23C0
2080
0000
0000
0000
ENDCHAR
STARTCHAR 189
ENCODING 189
SWIDTH 520 0 
DWIDTH 12 0
BBX 11 14 0 -3
BITMAP
0000
2000
6100
2200
2200
2500
2A80
0880
1100
2200
2380
0000
0000
0000
ENDCHAR
STARTCHAR 190
ENCODING 190
SWIDTH 520 0 
DWIDTH 12 0
BBX 11 14 0 -3
BITMAP
0000
6000
1100
2200
1200
1480
6980
0980
1280
23C0
2080
0000
0000
0000
ENDCHAR
STARTCHAR 191
ENCODING 191
SWIDTH 520 0 
DWIDTH 7 0
BBX 6 14 0 -3
BITMAP
00
30
00
30
30
20
60
C0
C4
C4
78
00
00
00
ENDCHAR
STARTCHAR 192
ENCODING 192
SWIDTH 520 0 
DWIDTH 8 0
BBX 8 14 0 -3
BITMAP
00
30
18
00
18
18
3C
3C
66
66
FF
C3
C3
00
ENDCHAR
STARTCHAR 193
ENCODING 193
SWIDTH 520 0 
DWIDTH 8 0
BBX 8 14 0 -3
BITMAP
00
0C
18
00
18
18
3C
3C
66
66
FF
C3
C3
00
ENDCHAR
STARTCHAR 194
ENCODING 194
SWIDTH 520 0 
DWIDTH 8 0
BBX 8 14 0 -3
BITMAP
38
6C
00
18
18
3C
3C
66
66
FF
C3
C3
00
00
ENDCHAR
STARTCHAR 195
ENCODING 195
SWIDTH 520 0 
DWIDTH 8 0
BBX 8 14 0 -3
BITMAP
00
3A
5C
00
18
18
3C
3C
66
66
FF
C3
C3
00
ENDCHAR
STARTCHAR 196
ENCODING 196
SWIDTH 520 0 
DWIDTH 8 0
BBX 8 14 0 -3
BITMAP
00
6C
6C
00
18
18
3C
3C
66
66
FF
C3
C3
00
ENDCHAR
STARTCHAR 197
ENCODING 197
SWIDTH 520 0 
DWIDTH 8 0
BBX 8 14 0 -3
BITMAP
00
38
6C
38
18
18
3C
3C
66
66
FF
C3
C3
00
ENDCHAR
STARTCHAR 198
ENCODING 198
SWIDTH 520 0 
DWIDTH 12 0
BBX 11 14 0 -3
BITMAP
0000
0FC0
0E00
1E00
1600
17C0
3600
3E00
2600
6600
67C0
0000
0000
0000
ENDCHAR
STARTCHAR 199
ENCODING 199
SWIDTH 520 0 
DWIDTH 7 0
BBX 7 14 0 -3
BITMAP
00
7C
C6
C6
C0
C0
C0
C6
C6
7C
18
08
30
00
ENDCHAR
STARTCHAR 200
ENCODING 200
SWIDTH 520 0 
DWIDTH 12 0
BBX 11 14 0 -3
BITMAP
0000
0C00
0600
0000
3F00
3000
3000
3F00
3000
3000
3F00
0000
0000
0000
ENDCHAR
STARTCHAR 201
ENCODING 201
SWIDTH 520 0 
DWIDTH 6 0
BBX 6 14 0 -3
BITMAP
30
60
00
FC
C0
C0
C0
F8
C0
C0
C0
FC
00
00
ENDCHAR
STARTCHAR 202
ENCODING 202
SWIDTH 520 0 
DWIDTH 12 0
BBX 11 14 0 -3
BITMAP
0000
0E00
1B00
0000
3F00
3000
3000
3F00
3000
3000
3F00
0000
0000
0000
ENDCHAR
STARTCHAR 203
ENCODING 203
SWIDTH 520 0 
DWIDTH 12 0
BBX 11 14 0 -3
BITMAP
0000
3300
3300
0000
3F00
3000
3000
3F00
3000
3000
3F00
0000
0000
0000
ENDCHAR
STARTCHAR 204
ENCODING 204
SWIDTH 520 0 
DWIDTH 5 0
BBX 4 14 0 -3
BITMAP
00
C0
60
00
60
60
60
60
60
60
60
00
00
00
ENDCHAR
STARTCHAR 205
ENCODING 205
SWIDTH 520 0 
DWIDTH 3 0
BBX 3 14 0 -3
BITMAP
00
60
C0
00
60
60
60
60
60
60
60
60
60
00
ENDCHAR
STARTCHAR 206
ENCODING 206
SWIDTH 520 0 
DWIDTH 5 0
BBX 5 14 0 -3
BITMAP
70
D8
00
30
30
30
30
30
30
30
30
30
00
00
ENDCHAR
STARTCHAR 207
ENCODING 207
SWIDTH 520 0 
DWIDTH 6 0
BBX 5 14 0 -3
BITMAP
00
D8
D8
00
60
60
60
60
60
60
60
00
00
00
ENDCHAR
STARTCHAR 208
ENCODING 208
SWIDTH 520 0 
DWIDTH 12 0
BBX 11 14 0 -3
BITMAP
0000
0000
0000
3F00
3180
30C0
7840
3040
30C0
3180
3F00
0000
0000
0000
ENDCHAR
STARTCHAR 209
ENCODING 209
SWIDTH 520 0 
DWIDTH 12 0
BBX 11 14 0 -3
BITMAP
0000
0E80
1700
0000
3180
3180
3980
3580
3380
3180
3180
0000
0000
0000
ENDCHAR
STARTCHAR 210
ENCODING 210
SWIDTH 520 0 
DWIDTH 12 0
BBX 11 14 0 -3
BITMAP
0000
1800
0C00
0000
1E00
3300
6180
6180
6180
3300
1E00
0000
0000
0000
ENDCHAR
STARTCHAR 211
ENCODING 211
SWIDTH 520 0 
DWIDTH 7 0
BBX 7 14 0 -3
BITMAP
00
18
30
00
7C
C6
C6
C6
C6
C6
C6
C6
7C
00
ENDCHAR
STARTCHAR 212
ENCODING 212
SWIDTH 520 0 
DWIDTH 12 0
BBX 11 14 0 -3
BITMAP
0000
1C00
3600
0000
1E00
3300
6180
6180
6180
3300
1E00
0000
0000
0000
ENDCHAR
STARTCHAR 213
ENCODING 213
SWIDTH 520 0 
DWIDTH 12 0
BBX 11 14 0 -3
BITMAP
0000
1D00
2E00
0000
1E00
3300
6180
6180
6180
3300
1E00
0000
0000
0000
ENDCHAR
STARTCHAR 214
ENCODING 214
SWIDTH 520 0 
DWIDTH 7 0
BBX 7 14 0 -3
BITMAP
00
6C
6C
00
7C
C6
C6
C6
C6
C6
C6
C6
7C
00
ENDCHAR
STARTCHAR 215
ENCODING 215
SWIDTH 520 0 
DWIDTH 12 0
BBX 11 14 0 -3
BITMAP
0000
0000
0000
0000
0000
3180
1B00
0E00
0E00
1B00
3180
0000
0000
0000
ENDCHAR
STARTCHAR 216
ENCODING 216
SWIDTH 520 0 
DWIDTH 12 0
BBX 11 14 0 -3
BITMAP
0000
1E80
3300
6380
6380
6580
6980
6980
7180
3300
5E00
0000
0000
0000
ENDCHAR
STARTCHAR 217
ENCODING 217
SWIDTH 520 0 
DWIDTH 12 0
BBX 11 14 0 -3
BITMAP
0000
0C00
0600
0000
3180
3180
3180
3180
3180
3180
0E00
0000
0000
0000
ENDCHAR
STARTCHAR 218
ENCODING 218
SWIDTH 520 0 
DWIDTH 7 0
BBX 7 14 0 -3
BITMAP
00
18
30
00
C6
C6
C6
C6
C6
C6
C6
C6
7C
00
ENDCHAR
STARTCHAR 219
ENCODING 219
SWIDTH 520 0 
DWIDTH 12 0
BBX 11 14 0 -3
BITMAP
0000
0E00
1B00
0000
3180
3180
3180
3180
3180
3180
0E00
0000
0000
0000
ENDCHAR
STARTCHAR 220
ENCODING 220
SWIDTH 520 0 
DWIDTH 7 0
BBX 7 14 0 -3
BITMAP
00
6C
6C
00
C6
C6
C6
C6
C6
C6
C6
C6
7C
00
ENDCHAR
STARTCHAR 221
ENCODING 221
SWIDTH 520 0 
DWIDTH 6 0
BBX 6 14 0 -3
BITMAP
00
18
30
00
CC
CC
CC
78
78
30
30
30
30
00
ENDCHAR
STARTCHAR 222
ENCODING 222
SWIDTH 520 0 
DWIDTH 12 0
BBX 11 14 0 -3
BITMAP
0000
6000
6000
6E00
7300
6180
6180
7300
6E00
6000
6000
0000
0000
0000
ENDCHAR
STARTCHAR 223
ENCODING 223
SWIDTH 520 0 
DWIDTH 12 0
BBX 11 14 0 -3
BITMAP
0000
1E00
3300
3300
3200
3400
3300
3180
3180
3980
3700
0000
0000
0000
ENDCHAR
STARTCHAR 224
ENCODING 224
SWIDTH 520 0 
DWIDTH 6 0
BBX 6 14 0 -3
BITMAP
00
60
30
00
78
8C
7C
CC
CC
CC
7C
00
00
00
ENDCHAR
STARTCHAR 225
ENCODING 225
SWIDTH 520 0 
DWIDTH 6 0
BBX 6 14 0 -3
BITMAP
00
18
30
00
78
8C
7C
CC
CC
CC
7C
00
00
00
ENDCHAR
STARTCHAR 226
ENCODING 226
SWIDTH 520 0 
DWIDTH 6 0
BBX 6 14 0 -3
BITMAP
00
38
6C
00
78
8C
7C
CC
CC
CC
7C
00
00
00
ENDCHAR
STARTCHAR 227
ENCODING 227
SWIDTH 520 0 
DWIDTH 6 0
BBX 6 14 0 -3
BITMAP
00
74
B8
00
78
8C
7C
CC
CC
CC
7C
00
00
00
ENDCHAR
STARTCHAR 228
ENCODING 228
SWIDTH 520 0 
DWIDTH 6 0
BBX 6 14 0 -3
BITMAP
00
6C
6C
00
78
8C
7C
CC
CC
CC
7C
00
00
00
ENDCHAR
STARTCHAR 229
ENCODING 229
SWIDTH 520 0 
DWIDTH 6 0
BBX 6 14 0 -3
BITMAP
38
6C
38
00
78
8C
7C
CC
CC
CC
7C
00
00
00
ENDCHAR
STARTCHAR 230
ENCODING 230
SWIDTH 520 0 
DWIDTH 12 0
BBX 11 14 0 -3
BITMAP
0000
0000
0000
0000
39C0
4660
0660
3FE0
6600
6620
39C0
0000
0000
0000
ENDCHAR
STARTCHAR 231
ENCODING 231
SWIDTH 520 0 
DWIDTH 6 0
BBX 6 14 0 -3
BITMAP
00
00
00
00
78
CC
C0
C0
C0
CC
78
30
10
60
ENDCHAR
STARTCHAR 232
ENCODING 232
SWIDTH 520 0 
DWIDTH 6 0
BBX 6 14 0 -3
BITMAP
00
30
18
00
78
CC
CC
FC
C0
CC
78
00
00
00
ENDCHAR
STARTCHAR 233
ENCODING 233
SWIDTH 520 0 
DWIDTH 6 0
BBX 6 14 0 -3
BITMAP
00
18
30
00
78
CC
CC
FC
C0
CC
78
00
00
00
ENDCHAR
STARTCHAR 234
ENCODING 234
SWIDTH 520 0 
DWIDTH 6 0
BBX 6 14 0 -3
BITMAP
00
38
6C
00
78
CC
CC
FC
C0
CC
78
00
00
00
ENDCHAR
STARTCHAR 235
ENCODING 235
SWIDTH 520 0 
DWIDTH 6 0
BBX 6 14 0 -3
BITMAP
00
6C
6C
00
78
CC
CC
FC
C0
CC
78
00
00
00
ENDCHAR
STARTCHAR 236
ENCODING 236
SWIDTH 520 0 
DWIDTH 4 0
BBX 3 14 0 -3
BITMAP
00
00
C0
60
00
60
60
60
60
60
60
00
00
00
ENDCHAR
STARTCHAR 237
ENCODING 237
SWIDTH 520 0 
DWIDTH 3 0
BBX 3 14 0 -3
BITMAP
00
60
C0
00
C0
C0
C0
C0
C0
C0
C0
00
00
00
ENDCHAR
STARTCHAR 238
ENCODING 238
SWIDTH 520 0 
DWIDTH 5 0
BBX 5 14 0 -3
BITMAP
00
70
D8
00
30
30
30
30
30
30
30
00
00
00
ENDCHAR
STARTCHAR 239
ENCODING 239
SWIDTH 520 0 
DWIDTH 6 0
BBX 5 14 0 -3
BITMAP
00
00
D8
D8
00
60
60
60
60
60
60
00
00
00
ENDCHAR
STARTCHAR 240
ENCODING 240
SWIDTH 520 0 
DWIDTH 12 0
BBX 11 14 0 -3
BITMAP
0000
0000
1A00
0C00
0E00
1300
0F00
1B00
1300
1300
0E00
0000
0000
0000
ENDCHAR
STARTCHAR 241
ENCODING 241
SWIDTH 520 0 
DWIDTH 6 0
BBX 6 14 0 -3
BITMAP
00
74
B8
00
D8
EC
CC
CC
CC
CC
CC
00
00
00
ENDCHAR
STARTCHAR 242
ENCODING 242
SWIDTH 520 0 
DWIDTH 6 0
BBX 6 14 0 -3
BITMAP
00
60
30
00
78
CC
CC
CC
CC
CC
78
00
00
00
ENDCHAR
STARTCHAR 243
ENCODING 243
SWIDTH 520 0 
DWIDTH 6 0
BBX 6 14 0 -3
BITMAP
00
18
30
00
78
CC
CC
CC
CC
CC
78
00
00
00
ENDCHAR
STARTCHAR 244
ENCODING 244
SWIDTH 520 0 
DWIDTH 6 0
BBX 6 14 0 -3
BITMAP
00
70
D8
00
78
CC
CC
CC
CC
CC
78
00
00
00
ENDCHAR
STARTCHAR 245
ENCODING 245
SWIDTH 520 0 
DWIDTH 6 0
BBX 6 14 0 -3
BITMAP
00
74
B8
00
78
CC
CC
CC
CC
CC
78
00
00
00
ENDCHAR
STARTCHAR 246
ENCODING 246
SWIDTH 520 0 
DWIDTH 6 0
BBX 6 14 0 -3
BITMAP
00
6C
6C
00
78
CC
CC
CC
CC
CC
78
00
00
00
ENDCHAR
STARTCHAR 247
ENCODING 247
SWIDTH 520 0 
DWIDTH 12 0
BBX 11 14 0 -3
BITMAP
0000
0000
0600
0600
0000
3FC0
3FC0
0000
0600
0600
0000
0000
0000
0000
ENDCHAR
STARTCHAR 248
ENCODING 248
SWIDTH 520 0 
DWIDTH 12 0
BBX 11 14 0 -3
BITMAP
0000
0000
0000
0000
0000
0D00
1200
3700
3B00
1200
2C00
0000
0000
0000
ENDCHAR
STARTCHAR 249
ENCODING 249
SWIDTH 520 0 
DWIDTH 6 0
BBX 6 14 0 -3
BITMAP
00
30
18
00
CC
CC
CC
CC
CC
CC
74
00
00
00
ENDCHAR
STARTCHAR 250
ENCODING 250
SWIDTH 520 0 
DWIDTH 6 0
BBX 6 14 0 -3
BITMAP
00
18
30
00
CC
CC
CC
CC
CC
CC
74
00
00
00
ENDCHAR
STARTCHAR 251
ENCODING 251
SWIDTH 520 0 
DWIDTH 6 0
BBX 6 14 0 -3
BITMAP
00
38
6C
00
CC
CC
CC
CC
CC
CC
74
00
00
00
ENDCHAR
STARTCHAR 252
ENCODING 252
SWIDTH 520 0 
DWIDTH 6 0
BBX 6 14 0 -3
BITMAP
00
6C
6C
00
CC
CC
CC
CC
CC
CC
74
00
00
00
ENDCHAR
STARTCHAR 253
ENCODING 253
SWIDTH 520 0 
DWIDTH 6 0
BBX 6 14 0 -3
BITMAP
00
18
30
00
CC
CC
CC
CC
CC
CC
7C
0C
8C
78
ENDCHAR
STARTCHAR 254
ENCODING 254
SWIDTH 520 0 
DWIDTH 12 0
BBX 11 14 0 -3
BITMAP
0000
0000
6000
6000
6E00
7300
6180
6180
6180
7300
6E00
6000
6000
6000
ENDCHAR
STARTCHAR 255
ENCODING 255
SWIDTH 520 0 
DWIDTH 12 0
BBX 11 14 0 -3
BITMAP
0000
0000
1980
1980
0000
3180
3180
1B00
1B00
0E00
0600
0C00
1800
0000
ENDCHAR
STARTCHAR 256
ENCODING 256
SWIDTH 520 0 
DWIDTH 8 0
BBX 8 14 0 -3
BITMAP
00
7C
00
00
18
18
3C
3C
66
66
FF
C3
C3
00
ENDCHAR
STARTCHAR 257
ENCODING 257
SWIDTH 520 0 
DWIDTH 8 0
BBX 8 14 0 -3
BITMAP
00
00
3E
00
3C
46
3E
66
66
66
3E
00
00
00
ENDCHAR
STARTCHAR 258
ENCODING 258
SWIDTH 520 0 
DWIDTH 8 0
BBX 8 14 0 -3
BITMAP
44
38
00
18
18
3C
3C
66
66
FF
C3
C3
00
00
ENDCHAR
STARTCHAR 259
ENCODING 259
SWIDTH 520 0 
DWIDTH 6 0
BBX 6 14 0 -3
BITMAP
00
44
38
00
78
8C
7C
CC
CC
CC
7C
00
00
00
ENDCHAR
STARTCHAR 260
ENCODING 260
SWIDTH 520 0 
DWIDTH 9 0
BBX 9 14 0 -3
BITMAP
0000
0000
0000
1800
1800
3C00
3C00
6600
6600
FF00
C300
C300
0200
0180
ENDCHAR
STARTCHAR 261
ENCODING 261
SWIDTH 520 0 
DWIDTH 6 0
BBX 6 14 0 -3
BITMAP
00
00
00
00
78
8C
7C
CC
CC
CC
7C
10
0C
00
ENDCHAR
STARTCHAR 262
ENCODING 262
SWIDTH 520 0 
DWIDTH 7 0
BBX 7 14 0 -3
BITMAP
00
18
30
00
7C
C6
C6
C0
C0
C0
C6
C6
7C
00
ENDCHAR
STARTCHAR 263
ENCODING 263
SWIDTH 520 0 
DWIDTH 6 0
BBX 6 14 0 -3
BITMAP
00
18
30
00
78
CC
C0
C0
C0
CC
78
00
00
00
ENDCHAR
STARTCHAR 264
ENCODING 264
SWIDTH 520 0
DWIDTH 8 0
BBX 8 14 0 -3
BITMAP
1C
36
00
3E
63
60
60
60
60
60
63
3E
00
00
ENDCHAR
STARTCHAR 265
ENCODING 265
SWIDTH 520 0
DWIDTH 7 0
BBX 7 14 0 -3
BITMAP
00
00
1C
36
00
3C
66
60
60
60
66
3C
00
00
ENDCHAR
STARTCHAR 266
ENCODING 266
SWIDTH 520 0
DWIDTH 8 0
BBX 8 14 0 -3
BITMAP
18
18
00
3E
63
60
60
60
60
60
63
3E
00
00
ENDCHAR
STARTCHAR 267
ENCODING 267
SWIDTH 520 0
DWIDTH 7 0
BBX 7 14 0 -3
BITMAP
00
00
18
18
00
3C
66
60
60
60
66
3C
00
00
ENDCHAR
STARTCHAR 268
ENCODING 268
SWIDTH 520 0 
DWIDTH 7 0
BBX 7 14 0 -3
BITMAP
00
6C
38
00
7C
C6
C6
C0
C0
C0
C6
C6
7C
00
ENDCHAR
STARTCHAR 269
ENCODING 269
SWIDTH 520 0 
DWIDTH 6 0
BBX 6 14 0 -3
BITMAP
00
6C
38
00
78
CC
C0
C0
C0
CC
78
00
00
00
ENDCHAR
STARTCHAR 270
ENCODING 270
SWIDTH 520 0
DWIDTH 8 0
BBX 8 14 0 -3
BITMAP
36
1C
00
7C
66
63
63
63
63
63
66
7C
00
00
ENDCHAR
STARTCHAR 271
ENCODING 271
SWIDTH 520 0
DWIDTH 10 0
BBX 10 14 0 -3
BITMAP
0000
0000
06C0
06C0
0640
3E80
6600
6600
6600
6600
6600
3E00
0000
0000
ENDCHAR
STARTCHAR 272
ENCODING 272
SWIDTH 520 0 
DWIDTH 8 0
BBX 8 14 0 -3
BITMAP
00
00
00
7E
63
63
63
F3
63
63
63
7E
00
00
ENDCHAR
STARTCHAR 273
ENCODING 273
SWIDTH 520 0 
DWIDTH 7 0
BBX 7 14 0 -3
BITMAP
00
0C
3E
0C
7C
CC
CC
CC
CC
CC
7C
00
00
00
ENDCHAR
STARTCHAR 274
ENCODING 274
SWIDTH 520 0 
DWIDTH 6 0
BBX 6 14 0 -3
BITMAP
00
F8
00
00
FC
C0
C0
C0
F8
C0
C0
C0
FC
00
ENDCHAR
STARTCHAR 275
ENCODING 275
SWIDTH 520 0 
DWIDTH 8 0
BBX 8 14 0 -3
BITMAP
00
00
3C
00
3C
66
66
7E
60
66
3C
00
00
00
ENDCHAR
STARTCHAR 278
ENCODING 278
SWIDTH 520 0 
DWIDTH 6 0
BBX 6 14 0 -3
BITMAP
00
30
30
00
FC
C0
C0
C0
F8
C0
C0
C0
FC
00
ENDCHAR
STARTCHAR 279
ENCODING 279
SWIDTH 520 0 
DWIDTH 8 0
BBX 6 14 0 -3
BITMAP
00
30
30
00
78
CC
CC
FC
C0
CC
78
00
00
00
ENDCHAR
STARTCHAR 280
ENCODING 280
SWIDTH 520 0 
DWIDTH 6 0
BBX 6 14 0 -3
BITMAP
00
00
00
FC
C0
C0
C0
F8
C0
C0
C0
FC
10
0C
ENDCHAR
STARTCHAR 281
ENCODING 281
SWIDTH 520 0 
DWIDTH 6 0
BBX 6 14 0 -3
BITMAP
00
00
00
00
78
CC
CC
FC
C0
CC
78
10
0C
00
ENDCHAR
STARTCHAR 282
ENCODING 282
SWIDTH 520 0 
DWIDTH 6 0
BBX 6 14 0 -3
BITMAP
00
D8
70
00
FC
C0
C0
C0
F8
C0
C0
C0
FC
00
ENDCHAR
STARTCHAR 283
ENCODING 283
SWIDTH 520 0 
DWIDTH 6 0
BBX 6 14 0 -3
BITMAP
00
6C
38
00
78
CC
CC
FC
C0
CC
78
00
00
00
ENDCHAR
STARTCHAR 286
ENCODING 286
SWIDTH 520 0 
DWIDTH 7 0
BBX 7 14 0 -3
BITMAP
00
6C
38
00
7C
C6
C6
C0
C0
CE
C6
C6
7C
00
ENDCHAR
STARTCHAR 287
ENCODING 287
SWIDTH 520 0 
DWIDTH 6 0
BBX 6 14 0 -3
BITMAP
00
44
38
00
7C
CC
CC
CC
CC
CC
7C
0C
8C
78
ENDCHAR
STARTCHAR 290
ENCODING 290
SWIDTH 520 0 
DWIDTH 7 0
BBX 7 14 0 -3
BITMAP
00
7C
C6
C6
C0
C0
CE
C6
C6
7C
00
08
30
00
ENDCHAR
STARTCHAR 291
ENCODING 291
SWIDTH 520 0 
DWIDTH 8 0
BBX 8 14 0 -3
BITMAP
00
04
08
3E
66
66
66
66
66
3E
06
46
3C
00
ENDCHAR
STARTCHAR 298
ENCODING 298
SWIDTH 520 0 
DWIDTH 6 0
BBX 6 14 0 -3
BITMAP
00
78
00
00
30
30
30
30
30
30
30
30
30
00
ENDCHAR
STARTCHAR 299
ENCODING 299
SWIDTH 520 0 
DWIDTH 8 0
BBX 8 14 0 -3
BITMAP
00
00
3C
00
18
18
18
18
18
18
18
18
00
00
ENDCHAR
STARTCHAR 302
ENCODING 302
SWIDTH 520 0 
DWIDTH 7 0
BBX 3 14 0 -3
BITMAP
00
C0
C0
C0
C0
C0
C0
C0
C0
C0
C0
80
60
00
ENDCHAR
STARTCHAR 303
ENCODING 303
SWIDTH 520 0 
DWIDTH 3 0
BBX 3 14 0 -3
BITMAP
00
C0
C0
00
C0
C0
C0
C0
C0
C0
C0
80
60
00
ENDCHAR
STARTCHAR 304
ENCODING 304
SWIDTH 520 0 
DWIDTH 3 0
BBX 3 14 0 -3
BITMAP
00
60
60
00
60
60
60
60
60
60
60
60
60
00
ENDCHAR
STARTCHAR 305
ENCODING 305
SWIDTH 520 0 
DWIDTH 3 0
BBX 3 14 0 -3
BITMAP
00
00
00
00
60
60
60
60
60
60
60
00
00
00
ENDCHAR
STARTCHAR 310
ENCODING 310
SWIDTH 520 0 
DWIDTH 8 0
BBX 8 14 0 -3
BITMAP
00
C6
C6
CC
D8
F0
F0
D8
CC
C6
C6
10
60
00
ENDCHAR
STARTCHAR 311
ENCODING 311
SWIDTH 520 0 
DWIDTH 8 0
BBX 8 14 0 -3
BITMAP
00
30
30
33
36
3C
3C
36
36
33
33
08
30
00
ENDCHAR
STARTCHAR 315
ENCODING 315
SWIDTH 520 0 
DWIDTH 7 0
BBX 7 14 0 -3
BITMAP
00
C0
C0
C0
C0
C0
C0
C0
C0
C0
FC
10
60
00
ENDCHAR
STARTCHAR 316
ENCODING 316
SWIDTH 520 0 
DWIDTH 8 0
BBX 8 14 0 -3
BITMAP
00
00
18
18
18
18
18
18
18
18
18
08
30
00
ENDCHAR
STARTCHAR 321
ENCODING 321
SWIDTH 520 0 
DWIDTH 7 0
BBX 7 14 0 -3
BITMAP
00
00
00
60
60
68
70
60
E0
60
60
7E
00
00
ENDCHAR
STARTCHAR 322
ENCODING 322
SWIDTH 520 0 
DWIDTH 6 0
BBX 6 14 0 -3
BITMAP
00
30
30
34
38
30
70
B0
30
30
30
00
00
00
ENDCHAR
STARTCHAR 323
ENCODING 323
SWIDTH 520 0
DWIDTH 8 0
BBX 8 14 0 -3
BITMAP
0C
18
00
63
73
73
6B
6B
67
67
63
63
00
00
ENDCHAR
STARTCHAR 324
ENCODING 324
SWIDTH 520 0 
DWIDTH 6 0
BBX 6 14 0 -3
BITMAP
00
18
30
00
D8
EC
CC
CC
CC
CC
CC
00
00
00
ENDCHAR
STARTCHAR 325
ENCODING 325
SWIDTH 520 0 
DWIDTH 8 0
BBX 8 14 0 -3
BITMAP
00
00
E3
E3
D3
D3
CB
CB
C7
C7
C3
08
30
00
ENDCHAR
STARTCHAR 326
ENCODING 326
SWIDTH 520 0 
DWIDTH 8 0
BBX 8 14 0 -3
BITMAP
00
00
00
6C
76
66
66
66
66
66
00
08
30
00
ENDCHAR
STARTCHAR 327
ENCODING 327
SWIDTH 520 0
DWIDTH 8 0
BBX 8 14 0 -3
BITMAP
36
1C
00
63
73
73
6B
6B
67
67
63
63
00
00
ENDCHAR
STARTCHAR 328
ENCODING 328
SWIDTH 520 0
DWIDTH 7 0
BBX 7 14 0 -3
BITMAP
00
00
36
1C
00
7C
66
66
66
66
66
66
00
00
ENDCHAR
STARTCHAR 332
ENCODING 332
SWIDTH 520 0
DWIDTH 8 0
BBX 8 14 0 -3
BITMAP
00
3E
00
3E
63
63
63
63
63
63
63
3E
00
00
ENDCHAR
STARTCHAR 333
ENCODING 333
SWIDTH 520 0
DWIDTH 7 0
BBX 7 14 0 -3
BITMAP
00
00
00
3C
00
3C
66
66
66
66
66
3C
00
00
ENDCHAR
STARTCHAR 336
ENCODING 336
SWIDTH 520 0 
DWIDTH 7 0
BBX 7 14 0 -3
BITMAP
00
24
48
00
7C
C6
C6
C6
C6
C6
C6
C6
7C
00
ENDCHAR
STARTCHAR 337
ENCODING 337
SWIDTH 520 0 
DWIDTH 6 0
BBX 6 14 0 -3
BITMAP
00
24
48
00
78
CC
CC
CC
CC
CC
78
00
00
00
ENDCHAR
STARTCHAR 338
ENCODING 338
SWIDTH 520 0
DWIDTH 10 0
BBX 10 14 0 -3
BITMAP
0000
0000
3BC0
6600
6600
6600
6780
6600
6600
6600
6600
3BC0
0000
0000
ENDCHAR
STARTCHAR 339
ENCODING 339
SWIDTH 520 0
DWIDTH 9 0
BBX 9 14 0 -3
BITMAP
0000
0000
0000
0000
0000
3B00
6D80
6D80
6F80
6C00
6D80
3B00
0000
0000
ENDCHAR
STARTCHAR 342
ENCODING 342
SWIDTH 520 0 
DWIDTH 7 0
BBX 7 14 0 -3
BITMAP
00
FC
C6
C6
C6
C6
FC
D8
CC
C6
C6
10
60
00
ENDCHAR
STARTCHAR 343
ENCODING 343
SWIDTH 520 0 
DWIDTH 8 0
BBX 8 14 0 -3
BITMAP
00
00
00
6C
72
60
60
60
60
60
00
08
30
00
ENDCHAR
STARTCHAR 344
ENCODING 344
SWIDTH 520 0 
DWIDTH 7 0
BBX 7 14 0 -3
BITMAP
00
6C
38
00
FC
C6
C6
C6
C6
FC
D8
CE
C6
00
ENDCHAR
STARTCHAR 345
ENCODING 345
SWIDTH 520 0 
DWIDTH 6 0
BBX 6 14 0 -3
BITMAP
00
D8
70
00
D8
E4
C0
C0
C0
C0
C0
00
00
00
ENDCHAR
STARTCHAR 346
ENCODING 346
SWIDTH 520 0
DWIDTH 8 0
BBX 8 14 0 -3
BITMAP
0C
18
00
3E
63
60
30
1C
06
03
63
3E
00
00
ENDCHAR
STARTCHAR 347
ENCODING 347
SWIDTH 520 0 
DWIDTH 6 0
BBX 6 14 0 -3
BITMAP
00
18
30
00
78
CC
C0
78
0C
CC
78
00
00
00
ENDCHAR
STARTCHAR 350
ENCODING 350
SWIDTH 520 0 
DWIDTH 7 0
BBX 7 14 0 -3
BITMAP
00
00
7C
C6
C6
60
30
1C
CE
C6
7C
10
60
00
ENDCHAR
STARTCHAR 351
ENCODING 351
SWIDTH 520 0 
DWIDTH 6 0
BBX 6 14 0 -3
BITMAP
00
00
00
00
78
CC
C0
78
0C
CC
78
10
60
00
ENDCHAR
STARTCHAR 352
ENCODING 352
SWIDTH 520 0 
DWIDTH 7 0
BBX 7 14 0 -3
BITMAP
00
6C
38
00
7C
C6
C6
70
3C
0E
C6
C6
7C
00
ENDCHAR
STARTCHAR 353
ENCODING 353
SWIDTH 520 0 
DWIDTH 6 0
BBX 6 14 0 -3
BITMAP
00
6C
38
00
78
CC
C0
78
0C
CC
78
00
00
00
ENDCHAR
STARTCHAR 354
ENCODING 354
SWIDTH 520 0 
DWIDTH 6 0
BBX 6 14 0 -3
BITMAP
00
00
FC
30
30
30
30
30
30
30
38
08
10
00
ENDCHAR
STARTCHAR 355
ENCODING 355
SWIDTH 520 0 
DWIDTH 5 0
BBX 5 14 0 -3
BITMAP
00
60
60
60
F8
60
60
60
60
60
38
20
40
00
ENDCHAR
STARTCHAR 356
ENCODING 356
SWIDTH 520 0
DWIDTH 7 0
BBX 7 14 0 -3
BITMAP
36
1C
00
7E
18
18
18
18
18
18
18
18
00
00
ENDCHAR
STARTCHAR 357
ENCODING 357
SWIDTH 520 0 
DWIDTH 6 0
BBX 6 14 0 -3
BITMAP
00
6C
6C
64
F8
60
60
60
60
60
38
00
00
00
ENDCHAR
STARTCHAR 362
ENCODING 362
SWIDTH 520 0 
DWIDTH 7 0
BBX 7 14 0 -3
BITMAP
00
00
7C
00
C6
C6
C6
C6
C6
C6
C6
C6
7C
00
ENDCHAR
STARTCHAR 363
ENCODING 363
SWIDTH 520 0 
DWIDTH 7 0
BBX 6 14 0 -3
BITMAP
00
00
78
00
CC
CC
CC
CC
CC
CC
74
00
00
00
ENDCHAR
STARTCHAR 366
ENCODING 366
SWIDTH 520 0 
DWIDTH 7 0
BBX 7 14 0 -3
BITMAP
00
38
6C
38
C6
C6
C6
C6
C6
C6
C6
C6
7C
00
ENDCHAR
STARTCHAR 367
ENCODING 367
SWIDTH 520 0 
DWIDTH 6 0
BBX 6 14 0 -3
BITMAP
38
6C
38
00
CC
CC
CC
CC
CC
CC
74
00
00
00
ENDCHAR
STARTCHAR 368
ENCODING 368
SWIDTH 520 0 
DWIDTH 7 0
BBX 7 14 0 -3
BITMAP
00
24
48
00
C6
C6
C6
C6
C6
C6
C6
C6
7C
00
ENDCHAR
STARTCHAR 369
ENCODING 369
SWIDTH 520 0 
DWIDTH 6 0
BBX 6 14 0 -3
BITMAP
00
24
48
00
CC
CC
CC
CC
CC
CC
74
00
00
00
ENDCHAR
STARTCHAR 370
ENCODING 370
SWIDTH 520 0 
DWIDTH 8 0
BBX 7 14 0 -3
BITMAP
00
00
00
C6
C6
C6
C6
C6
C6
C6
C6
7C
08
06
ENDCHAR
STARTCHAR 371
ENCODING 371
SWIDTH 520 0 
DWIDTH 7 0
BBX 6 14 0 -3
BITMAP
00
00
00
00
CC
CC
CC
CC
CC
CC
74
10
0C
00
ENDCHAR
STARTCHAR 377
ENCODING 377
SWIDTH 520 0
DWIDTH 8 0
BBX 8 14 0 -3
BITMAP
0C
18
00
7F
03
06
0C
0C
18
30
60
7F
00
00
ENDCHAR
STARTCHAR 378
ENCODING 378
SWIDTH 520 0 
DWIDTH 6 0
BBX 6 14 0 -3
BITMAP
00
18
30
00
FC
0C
18
30
60
C0
FC
00
00
00
ENDCHAR
STARTCHAR 379
ENCODING 379
SWIDTH 520 0 
DWIDTH 7 0
BBX 7 14 0 -3
BITMAP
00
18
18
00
FE
06
0C
0C
18
30
60
C0
FE
00
ENDCHAR
STARTCHAR 380
ENCODING 380
SWIDTH 520 0 
DWIDTH 6 0
BBX 6 14 0 -3
BITMAP
00
30
30
00
FC
0C
18
30
60
C0
FC
00
00
00
ENDCHAR
STARTCHAR 381
ENCODING 381
SWIDTH 520 0 
DWIDTH 7 0
BBX 7 14 0 -3
BITMAP
00
6C
38
00
FE
06
0C
18
18
30
60
C0
FE
00
ENDCHAR
STARTCHAR 382
ENCODING 382
SWIDTH 520 0 
DWIDTH 6 0
BBX 6 14 0 -3
BITMAP
00
6C
38
00
FC
0C
18
30
60
C0
FC
00
00
00
ENDCHAR
STARTCHAR 385
ENCODING 385
SWIDTH 520 0 
DWIDTH 10 0
BBX 10 14 0 -3
BITMAP
0000
0000
7F80
98C0
D8C0
D8C0
1F80
18C0
18C0
18C0
1F80
0000
0000
0000
ENDCHAR
STARTCHAR 394
ENCODING 394
SWIDTH 520 0 
DWIDTH 10 0
BBX 10 14 0 -3
BITMAP
0000
0000
0000
7F80
98C0
D8C0
D8C0
18C0
18C0
18C0
18C0
1F80
0000
0000
ENDCHAR
STARTCHAR 399
ENCODING 399
SWIDTH 520 0 
DWIDTH 7 0
BBX 7 14 0 -3
BITMAP
00
00
00
7C
C6
C6
06
FE
C6
C6
C6
7C
00
00
ENDCHAR
STARTCHAR 408
ENCODING 408
SWIDTH 520 0 
DWIDTH 9 0
BBX 9 14 0 -3
BITMAP
0000
0000
C000
C600
CF00
D900
F000
F000
D800
CC00
C600
0000
0000
0000
ENDCHAR
STARTCHAR 409
ENCODING 409
SWIDTH 520 0 
DWIDTH 8 0
BBX 8 14 0 -3
BITMAP
00
70
D8
D8
C2
C6
CC
D8
F0
D8
CC
C6
C2
00
ENDCHAR
STARTCHAR 416
ENCODING 416
SWIDTH 520 0 
DWIDTH 9 0
BBX 9 14 0 -3
BITMAP
0000
0180
7D80
C680
C700
C600
C600
C600
C600
C600
C600
7C00
0000
0000
ENDCHAR
STARTCHAR 417
ENCODING 417
SWIDTH 520 0 
DWIDTH 8 0
BBX 8 14 0 -3
BITMAP
00
00
03
03
79
CE
CC
CC
CC
CC
78
00
00
00
ENDCHAR
STARTCHAR 431
ENCODING 431
SWIDTH 520 0 
DWIDTH 9 0
BBX 9 14 0 -3
BITMAP
0000
0180
C780
C680
C700
C600
C600
C600
C600
C600
C600
7C00
0000
0000
ENDCHAR
STARTCHAR 432
ENCODING 432
SWIDTH 520 0 
DWIDTH 8 0
BBX 8 14 0 -3
BITMAP
00
00
03
03
CD
CE
CC
CC
CC
CC
74
00
00
00
ENDCHAR
STARTCHAR 435
ENCODING 435
SWIDTH 520 0 
DWIDTH 13 0
BBX 13 14 0 -3
BITMAP
0000
7818
9818
CC30
CC30
0660
0660
03C0
0180
0180
0180
0180
0180
0000
ENDCHAR
STARTCHAR 436
ENCODING 436
SWIDTH 520 0 
DWIDTH 10 0
BBX 10 14 0 -3
BITMAP
0000
0000
0000
C380
C6C0
C6C0
C600
C600
C600
7E00
3E00
0600
FC00
F800
ENDCHAR
STARTCHAR 536
ENCODING 536
SWIDTH 520 0
DWIDTH 8 0
BBX 8 14 0 -3
BITMAP
00
00
3E
63
60
70
3C
1E
07
03
63
3E
04
08
ENDCHAR
STARTCHAR 537
ENCODING 537
SWIDTH 520 0
DWIDTH 7 0
BBX 7 14 0 -3
BITMAP
00
00
00
00
00
3C
66
60
3C
06
66
3C
08
10
ENDCHAR
STARTCHAR 538
ENCODING 538
SWIDTH 520 0
DWIDTH 7 0
BBX 7 14 0 -3
BITMAP
00
00
7E
18
18
18
18
18
18
18
18
38
10
20
ENDCHAR
STARTCHAR 539
ENCODING 539
SWIDTH 520 0
DWIDTH 5 0
BBX 5 14 0 -3
BITMAP
00
00
30
30
30
78
30
30
30
30
38
60
20
40
ENDCHAR
STARTCHAR 595
ENCODING 595
SWIDTH 520 0 
DWIDTH 7 0
BBX 7 14 0 -3
BITMAP
00
00
78
6C
60
7C
66
66
66
66
66
7C
00
00
ENDCHAR
STARTCHAR 599
ENCODING 599
SWIDTH 520 0 
DWIDTH 10 0
BBX 10 14 0 -3
BITMAP
0000
0000
0700
0D80
0D80
7C00
CC00
CC00
CC00
CC00
CC00
7C00
0000
0000
ENDCHAR
STARTCHAR 601
ENCODING 601
SWIDTH 520 0 
DWIDTH 6 0
BBX 6 14 0 -3
BITMAP
00
00
00
00
78
CC
0C
FC
CC
CC
78
00
00
00
ENDCHAR
STARTCHAR 711
ENCODING 711
SWIDTH 520 0 
DWIDTH 5 0
BBX 5 14 0 -3
BITMAP
00
00
D8
70
00
00
00
00
00
00
00
00
00
00
ENDCHAR
STARTCHAR 731
ENCODING 731
SWIDTH 520 0 
DWIDTH 3 0
BBX 3 14 0 -3
BITMAP
00
00
00
00
00
00
00
00
00
00
80
60
00
00
ENDCHAR
STARTCHAR 768
ENCODING 768
SWIDTH 520 0 
DWIDTH 3 0
BBX 3 14 0 -3
BITMAP
00
00
00
00
00
C0
60
00
00
00
00
00
00
00
ENDCHAR
STARTCHAR 769
ENCODING 769
SWIDTH 520 0 
DWIDTH 3 0
BBX 3 14 0 -3
BITMAP
00
00
00
00
00
60
C0
00
00
00
00
00
00
00
ENDCHAR
STARTCHAR 771
ENCODING 771
SWIDTH 520 0 
DWIDTH 6 0
BBX 6 14 0 -3
BITMAP
00
00
00
00
00
74
B8
00
00
00
00
00
00
00
ENDCHAR
STARTCHAR 775
ENCODING 775
SWIDTH 520 0 
DWIDTH 8 0
BBX 3 14 0 -3
BITMAP
00
00
00
00
00
C0
C0
00
00
00
00
00
00
00
ENDCHAR
STARTCHAR 777
ENCODING 777
SWIDTH 520 0 
DWIDTH 3 0
BBX 3 14 0 -3
BITMAP
00
00
00
00
00
C0
20
40
00
00
00
00
00
00
ENDCHAR
STARTCHAR 780
ENCODING 780
SWIDTH 520 0 
DWIDTH 3 0
BBX 3 14 0 -3
BITMAP
00
00
00
00
A0
40
00
00
00
00
00
00
00
00
ENDCHAR
STARTCHAR 803
ENCODING 803
SWIDTH 520 0 
DWIDTH 2 0
BBX 2 14 0 -3
BITMAP
00
00
00
00
00
00
C0
C0
00
00
00
00
00
00
ENDCHAR
STARTCHAR 7778
ENCODING 7778
SWIDTH 520 0 
DWIDTH 7 0
BBX 7 14 0 -3
BITMAP
7C
C6
C6
70
3C
0E
C6
C6
7C
00
18
18
00
00
ENDCHAR
STARTCHAR 7779
ENCODING 7779
SWIDTH 520 0 
DWIDTH 6 0
BBX 6 14 0 -3
BITMAP
00
00
78
CC
C0
78
0C
CC
78
00
30
30
00
00
ENDCHAR
STARTCHAR 7864
ENCODING 7864
SWIDTH 520 0 
DWIDTH 6 0
BBX 6 14 0 -3
BITMAP
FC
C0
C0
C0
F8
C0
C0
C0
FC
00
30
30
00
00
ENDCHAR
STARTCHAR 7865
ENCODING 7865
SWIDTH 520 0 
DWIDTH 6 0
BBX 6 14 0 -3
BITMAP
00
00
78
CC
CC
FC
C0
CC
78
00
30
30
00
00
ENDCHAR
STARTCHAR 7882
ENCODING 7882
SWIDTH 520 0 
DWIDTH 4 0
BBX 4 14 0 -3
BITMAP
00
60
60
60
60
60
60
60
60
60
00
60
60
00
ENDCHAR
STARTCHAR 7883
ENCODING 7883
SWIDTH 520 0 
DWIDTH 4 0
BBX 4 14 0 -3
BITMAP
00
60
60
00
60
60
60
60
60
60
00
60
60
00
ENDCHAR
STARTCHAR 7884
ENCODING 7884
SWIDTH 520 0 
DWIDTH 7 0
BBX 7 14 0 -3
BITMAP
7C
C6
C6
C6
C6
C6
C6
C6
7C
00
18
18
00
00
ENDCHAR
STARTCHAR 7885
ENCODING 7885
SWIDTH 520 0 
DWIDTH 7 0
BBX 7 14 0 -3
BITMAP
00
00
7C
C6
C6
C6
C6
C6
7C
00
18
18
00
00
ENDCHAR
STARTCHAR 7908
ENCODING 7908
SWIDTH 520 0 
DWIDTH 7 0
BBX 7 14 0 -3
BITMAP
00
C6
C6
C6
C6
C6
C6
C6
C6
7C
00
30
30
00
ENDCHAR
STARTCHAR 7909
ENCODING 7909
SWIDTH 520 0 
DWIDTH 6 0
BBX 6 14 0 -3
BITMAP
00
00
00
CC
CC
CC
CC
CC
CC
74
00
30
30
00
ENDCHAR
STARTCHAR 8364
ENCODING 8364
SWIDTH 520 0 
DWIDTH 8 0
BBX 7 14 0 -3
BITMAP
00
00
3C
42
C0
F8
C0
F8
C0
42
3C
00
00
00
ENDCHAR
STARTCHAR 8745
ENCODING 8745
SWIDTH 520 0 
DWIDTH 4 0
BBX 4 14 0 -3
BITMAP
00
00
00
00
00
60
90
90
90
90
90
00
00
00
ENDCHAR
STARTCHAR 8857
ENCODING 8857
SWIDTH 520 0 
DWIDTH 10 0
BBX 9 14 0 -3
BITMAP
0000
0000
0000
1E00
2100
4080
4C80
4C80
4080
2100
1E00
0000
0000
0000
ENDCHAR
ENDFONT